<svg width="1271" height="436" viewBox="0 0 1271 436" fill="none" xmlns="http://www.w3.org/2000/svg">
<g clip-path="url(#clip0_28_5499)">
<path opacity="0.03" d="M403.957 132.785V434.727L41.1158 436.004C42.0255 422.806 -17.6982 248.72 58.856 149.272C167.492 8.09583 260.329 122.264 382.876 132.178C389.801 132.726 396.788 132.97 403.961 132.785H403.957Z" fill="#EBF3FA"/>
<path opacity="0.03" d="M1237.67 428.882C1237.18 432.656 1197.87 428.275 1197.33 431.986L952.05 432.838H403.957V132.785C410.881 132.603 417.868 132.055 425.041 131.081C449.099 127.797 474.315 119.524 501.048 103.952C777.735 -56.6879 1003.02 -13.0757 1129.52 112.347C1145.07 127.797 1159.17 144.524 1171.68 162.225C1225.45 238.44 1249.76 333.389 1237.67 428.887V428.882Z" fill="#F3F8FC"/>
<path d="M1132.84 203.379V432.846H425.041V233.165H479.294V178.67H533.55V252.296H577.476V235.842H653.992V263.655H687.291V201.199H776.43V94.0891H846.911V151.215H862.987V103.361H933.468V177.072H997.349V131.836H1065.67V177.072H1078.41V203.379H1132.84Z" fill="#337DF5" fill-opacity="0.1"/>
<path d="M322.302 152.147H259.361C256.46 152.147 254.108 154.501 254.108 157.405V218.226C254.108 221.13 256.46 223.484 259.361 223.484H322.302C325.203 223.484 327.554 221.13 327.554 218.226V157.405C327.554 154.501 325.203 152.147 322.302 152.147Z" fill="#3B43FE"/>
<path d="M262.086 155.238H319.573C322.222 155.238 324.37 157.389 324.37 160.041V215.59C324.37 218.242 322.222 220.393 319.573 220.393H262.086C259.437 220.393 257.289 218.242 257.289 215.59V160.041C257.289 157.389 259.437 155.238 262.086 155.238Z" fill="#EDF4FF"/>
<path d="M290.831 163.271C291.671 163.271 292.352 162.589 292.352 161.749C292.352 160.908 291.671 160.226 290.831 160.226C289.992 160.226 289.311 160.908 289.311 161.749C289.311 162.589 289.992 163.271 290.831 163.271Z" fill="#B7D3F3"/>
<path d="M301.585 163.903C301.993 163.17 302.92 162.904 303.653 163.313C304.385 163.722 304.651 164.65 304.242 165.383C303.834 166.117 302.907 166.383 302.174 165.974C301.441 165.565 301.176 164.637 301.585 163.903Z" fill="#B7D3F3"/>
<path d="M312.101 172.269C312.809 171.814 313.748 172.016 314.203 172.724C314.658 173.433 314.455 174.373 313.748 174.828C313.04 175.284 312.101 175.081 311.646 174.373C311.191 173.665 311.394 172.724 312.101 172.269Z" fill="#B7D3F3"/>
<path d="M318.721 187.327C319.041 186.55 318.671 185.66 317.894 185.34C317.118 185.02 316.229 185.39 315.909 186.168C315.59 186.945 315.96 187.835 316.737 188.155C317.513 188.475 318.402 188.104 318.721 187.327Z" fill="#B7D3F3"/>
<path d="M314.654 200.242C315.248 200.836 315.248 201.802 314.654 202.396C314.06 202.991 313.095 202.991 312.502 202.396C311.908 201.802 311.908 200.836 312.502 200.242C313.095 199.647 314.06 199.647 314.654 200.242Z" fill="#B7D3F3"/>
<path d="M305.097 209.83C305.691 210.425 305.691 211.39 305.097 211.985C304.503 212.58 303.539 212.58 302.945 211.985C302.351 211.39 302.351 210.425 302.945 209.83C303.539 209.236 304.503 209.236 305.097 209.83Z" fill="#B7D3F3"/>
<path d="M290.831 216.299C291.671 216.299 292.352 215.617 292.352 214.776C292.352 213.936 291.671 213.254 290.831 213.254C289.992 213.254 289.311 213.936 289.311 214.776C289.311 215.617 289.992 216.299 290.831 216.299Z" fill="#B7D3F3"/>
<path d="M280.028 163.903C279.62 163.169 278.693 162.904 277.96 163.313C277.227 163.722 276.962 164.649 277.371 165.383C277.779 166.117 278.706 166.383 279.439 165.974C280.172 165.564 280.437 164.637 280.028 163.903Z" fill="#B7D3F3"/>
<path d="M269.511 172.269C268.804 171.813 267.864 172.016 267.409 172.724C266.955 173.433 267.157 174.373 267.864 174.828C268.572 175.284 269.511 175.081 269.966 174.373C270.421 173.665 270.219 172.724 269.511 172.269Z" fill="#B7D3F3"/>
<path d="M264.301 188.262C265.141 188.262 265.822 187.581 265.822 186.74C265.822 185.9 265.141 185.218 264.301 185.218C263.462 185.218 262.781 185.9 262.781 186.74C262.781 187.581 263.462 188.262 264.301 188.262Z" fill="#B7D3F3"/>
<path d="M266.959 200.242C266.365 200.836 266.365 201.802 266.959 202.396C267.553 202.991 268.517 202.991 269.111 202.396C269.705 201.802 269.705 200.836 269.111 200.242C268.517 199.647 267.553 199.647 266.959 200.242Z" fill="#B7D3F3"/>
<path d="M276.511 209.83C275.917 210.425 275.917 211.39 276.511 211.985C277.105 212.58 278.07 212.58 278.664 211.985C279.257 211.39 279.257 210.425 278.664 209.83C278.07 209.236 277.105 209.236 276.511 209.83Z" fill="#B7D3F3"/>
<path d="M291.943 188.263C292.783 188.263 293.464 187.581 293.464 186.74C293.464 185.9 292.783 185.218 291.943 185.218C291.104 185.218 290.423 185.9 290.423 186.74C290.423 187.581 291.104 188.263 291.943 188.263Z" fill="#B7D3F3"/>
<path d="M292.15 167.711H291.733V186.74H292.15V167.711Z" fill="#B7D3F3"/>
<path d="M301.439 178.282L291.366 186.201L292.136 187.183L302.209 179.263L301.439 178.282Z" fill="#B7D3F3"/>
<path d="M425.041 131.081V431.261H382.868V132.161C396.536 133.278 410.569 133.076 425.041 131.081Z" fill="#142E54"/>
<path d="M1171.69 162.229V431.261H1129.52V112.343C1145.1 127.805 1159.19 144.507 1171.69 162.225V162.229Z" fill="#142E54"/>
<path d="M459.62 325.306H452.856L461.136 430.261H477.592L459.62 325.306Z" fill="#B7D3F3"/>
<path d="M594.138 294.681L592.685 294.976C586.219 296.283 579.86 292.058 578.554 285.586L577.021 277.987C575.715 271.515 579.935 265.148 586.401 263.841L587.854 263.546C594.319 262.238 600.679 266.463 601.984 272.936L603.517 280.534C604.823 287.007 600.603 293.374 594.138 294.681Z" fill="#122544"/>
<path d="M452.856 325.306C452.856 325.306 489.798 307.946 540.407 319.496L459.62 325.306H452.856Z" fill="#B7D3F3"/>
<path d="M477.592 431.261L459.62 325.306C459.62 325.306 516.219 306.276 560.131 325.306L586.253 430.594L477.596 431.261H477.592Z" fill="#D2E3FC"/>
<path d="M868.909 398.451C867.907 409.946 861.421 413.496 858.569 413.192C855.718 412.889 839.043 406.513 838.681 408.854C838.319 411.194 848.356 418.834 855.385 419.193C855.385 419.193 842.114 433.845 833.294 429.616C824.475 425.387 823.721 418.682 818.224 416.169C812.724 413.656 808.032 413.661 810.302 416.228C812.572 418.792 822.525 421.284 825.667 426.854C826.408 428.166 827.132 429.38 827.688 430.451L809.118 430.413C803.23 427.483 798.269 423.443 797.898 419.087C797.869 418.754 797.843 418.438 797.818 418.134L797.245 411.434C797.245 411.434 787.71 400.298 792.667 391.06C793.488 389.525 794.714 388.041 796.445 386.67C796.445 386.67 805.332 381.281 812.58 381.724C812.58 381.724 806.966 391.152 805.382 396.756C804.822 398.73 804.768 400.231 805.631 400.678C806.579 401.167 807.804 399.746 809.072 397.465C812.248 391.755 815.689 380.645 815.689 380.645C815.689 380.645 821.034 380.126 827.115 380.046C829.845 380.012 832.721 380.063 835.329 380.29C838.209 380.543 840.762 381.011 842.421 381.808C842.421 381.808 842.059 382.108 841.448 382.618C840.543 383.377 839.09 384.612 837.472 386.042C832.675 390.288 826.446 396.276 828.775 396.815C830.662 397.254 836.579 393.733 841.848 390.237C846.751 386.986 851.089 383.756 851.089 383.756C851.089 383.756 869.912 386.961 868.909 398.46V398.451Z" fill="#82B378"/>
<path d="M859.66 398.763C859.66 398.763 808.533 396.79 797.245 411.43C797.245 411.43 794.748 418.919 787.065 425.733L785.869 429C785.869 429 794.727 419.648 797.898 419.083C797.898 419.083 792.941 400.947 859.665 398.763H859.66Z" fill="#82B378"/>
<path d="M789.213 425.648C788.775 426.129 788.118 426.783 787.179 427.651L787.158 427.672C786.833 427.972 786.513 428.3 786.206 428.646C785.73 429.173 785.275 429.747 784.841 430.358H782.453C784.913 427.322 787.061 425.733 787.061 425.733C787.061 425.733 787.061 425.733 787.069 425.728C787.255 425.615 791.66 422.95 789.213 425.648Z" fill="#82B378"/>
<path d="M741.434 392.384C741.434 392.384 762.059 380.822 752.435 365.128C752.435 365.128 744.736 355.493 736.485 353.013C736.485 353.013 740.887 376.415 736.485 376.968C732.084 377.52 733.461 350.534 733.461 350.534C733.461 350.534 711.732 340.073 703.208 340.899C703.208 340.899 716.685 363.753 712.284 363.201C707.883 362.648 692.758 339.52 692.758 339.52C692.758 339.52 670.482 335.392 666.906 348.607C663.33 361.822 669.104 368.429 672.406 369.256C675.704 370.082 696.881 369.808 696.334 372.561C695.782 375.315 681.483 379.721 673.506 377.242C673.506 377.242 682.308 398.991 693.857 397.89C705.406 396.79 708.982 389.63 716.134 389.078C723.285 388.525 728.508 390.452 724.936 392.384C721.36 394.311 709.26 393.016 703.486 397.933C697.711 402.849 693.036 405.877 703.759 408.078C714.487 410.279 733.735 408.904 737.589 400.644L741.438 392.384H741.434Z" fill="#A8D29F"/>
<path d="M677.077 352.735C677.077 352.735 734.834 371.457 741.434 392.384C741.434 392.384 741.16 401.744 746.935 412.484V416.616C746.935 416.616 740.882 402.575 737.584 400.648C737.584 400.648 750.51 382.475 677.077 352.739V352.735Z" fill="#82B378"/>
<path d="M752.284 430.316L748.986 430.308C748.881 425.53 748.329 420.163 746.699 416.077C746.497 415.562 746.278 415.073 746.038 414.605L746.029 414.588C745.343 413.247 744.88 412.256 744.589 411.54C742.9 407.395 746.935 412.484 746.935 412.484C746.935 412.484 751.774 419.842 752.284 430.316Z" fill="#82B378"/>
<path d="M774.248 376.436C774.248 376.436 747.056 361.193 759.746 340.507C759.746 340.507 769.897 327.802 780.772 324.539C780.772 324.539 774.972 355.387 780.772 356.112C786.572 356.838 784.76 321.271 784.76 321.271C784.76 321.271 813.401 307.478 824.638 308.566C824.638 308.566 806.873 338.689 812.677 337.964C818.476 337.239 838.415 306.753 838.415 306.753C838.415 306.753 867.78 301.309 872.493 318.728C877.206 336.151 869.591 344.858 865.244 345.95C860.894 347.038 832.978 346.676 833.702 350.306C834.426 353.937 853.279 359.743 863.791 356.475C863.791 356.475 852.192 385.148 836.962 383.697C821.736 382.247 817.023 372.81 807.597 372.085C798.171 371.36 791.285 373.898 795.998 376.441C800.711 378.983 816.661 377.271 824.276 383.752C831.891 390.233 838.053 394.222 823.914 397.127C809.775 400.032 784.398 398.215 779.323 387.328L774.248 376.441V376.436Z" fill="#A8D29F"/>
<path d="M859.083 324.172C859.083 324.172 782.95 348.851 774.253 376.436C774.253 376.436 774.615 388.778 767.004 402.929V408.373C767.004 408.373 774.981 389.862 779.332 387.324C779.332 387.324 762.291 363.369 859.087 324.172H859.083Z" fill="#82B378"/>
<path d="M770.095 401.677L770.091 401.685C769.703 402.634 769.093 403.941 768.191 405.716C768.191 405.721 768.191 405.725 768.183 405.729C767.867 406.345 767.581 406.99 767.311 407.664C764.704 414.204 764.19 423.228 764.287 430.337L759.919 430.329C759.397 414.487 767.004 402.925 767.004 402.925C767.117 402.777 772.294 396.284 770.099 401.673L770.095 401.677Z" fill="#82B378"/>
<path d="M638.88 430.594H535.463C533.934 426.884 532.594 422.92 531.419 418.792C528.471 408.47 526.563 397.089 525.346 385.949C525.329 385.81 525.316 385.662 525.3 385.519C523.211 366.19 523.202 347.595 523.484 336.425C523.644 329.961 523.901 325.981 523.918 325.787C524.137 325.686 524.36 325.597 524.579 325.508C530.063 323.206 535.324 321.22 540.365 319.5C540.391 319.496 540.407 319.491 540.407 319.491C544.645 318.045 548.726 316.797 552.651 315.717C559.55 313.82 565.969 312.458 571.908 311.514C578.904 310.405 585.242 309.877 590.92 309.759C591.177 309.751 591.425 309.751 591.682 309.743C593.182 309.717 594.631 309.721 596.033 309.751C610.189 310.055 619.611 312.875 624.375 314.756C625.036 315.018 625.604 315.262 626.08 315.481C626.143 315.507 626.207 315.532 626.27 315.561C626.809 315.802 627.226 316.004 627.517 316.152C627.554 316.169 627.597 316.19 627.63 316.215C627.769 316.287 627.908 316.367 628.039 316.443L635.498 394.905L638.888 430.586L638.88 430.594Z" fill="#2B478B"/>
<path d="M741.935 413.631C731.574 418.446 669.942 422.49 664.025 420.782C660.988 419.905 648.281 408.702 635.498 394.918L635.485 394.909C623.389 381.872 611.192 366.527 607.081 355.484C598.619 332.791 605.893 312.644 605.893 312.644C605.893 312.644 621.62 312.576 628.03 316.451C634.441 320.335 671.096 387.918 675.995 389.698C680.897 391.49 738.957 394.812 745.604 397.971C745.604 397.971 752.288 408.816 741.935 413.631Z" fill="#2B478B"/>
<path d="M591.665 312.492L591.649 316.312C591.649 316.312 592.706 328.258 578.011 330.029C563.316 331.8 552.171 325.407 552.559 316.19C553.873 309.047 555.317 304.143 555.406 298.235C555.44 296.039 555.284 293.711 554.871 291.08L583.347 290.469L591.737 291.826L591.661 312.492H591.665Z" fill="#EA9E6A"/>
<path d="M591.741 291.826L591.665 312.492C588.641 313.904 585.23 314.769 581.405 314.777C568.315 314.798 555.288 293.711 554.875 291.08L591.741 291.826Z" fill="#D88D59"/>
<path d="M593.417 301.866C593.417 301.866 556.956 309.3 552.681 286.496C548.406 263.693 540.824 249.293 563.922 243.584C587.02 237.875 593.19 245.722 596.463 252.987C599.739 260.252 602.789 299.344 593.413 301.866H593.417Z" fill="#EA9E6A"/>
<path d="M603.534 236.028C603.534 236.028 593.362 235.261 581.359 230.057C571.617 225.832 559.339 230.521 555.355 232.629C555.46 231.984 555.717 231.107 556.324 230.226C556.324 230.226 554.534 231.499 554.272 233.279C554.087 233.414 554.007 233.511 554.053 233.54C554.053 233.54 552.023 233.173 550.722 233.76C550.722 233.76 551.636 233.629 551.96 234.215C551.994 234.278 552.044 234.329 552.108 234.375C536.928 241.746 535.563 265.78 540.462 271.334C546.354 278.013 553.426 293.07 553.426 293.07C553.426 293.07 555.991 289.507 554.913 283.621C553.834 277.734 558.914 277.726 565.324 275.04C571.735 272.354 566.377 264.87 571.983 260.311C577.589 255.753 598.177 258.397 597.903 254.918C605.539 252.119 603.534 236.808 603.534 236.024V236.028Z" fill="#8E342E"/>
<path d="M535.462 430.594C533.934 426.884 532.594 422.92 531.419 418.792C528.471 408.47 526.563 397.089 525.346 385.949C525.329 385.81 525.316 385.662 525.299 385.519C525.379 385.557 525.506 385.768 525.59 385.667C529.616 380.771 540.609 375.412 553.919 394.922C556.576 398.81 568.222 426.049 570.08 430.599H535.462V430.594Z" fill="#233862"/>
<path d="M546.27 430.594C545.971 428.832 546.3 426.618 547.673 423.856C547.673 423.856 549.379 422.747 551.645 421.457C555.022 419.551 559.639 417.24 561.732 417.611C562.107 417.679 562.612 417.789 563.214 417.936C568.176 419.129 579.746 422.697 581.494 424.784C582.934 426.504 584.897 428.693 586.249 430.594H546.27Z" fill="#EA9E6A"/>
<path d="M553.923 430.594H456.482C456.221 429.342 456.213 428.187 456.554 427.314C459.46 419.964 465.133 407.863 471.666 394.884C476.472 385.333 481.736 375.302 486.71 366.333C493.614 353.878 499.94 343.463 503.655 339.187C506.582 335.826 510.28 333.005 514.138 330.682C517.41 328.709 520.797 327.09 523.918 325.791C524.137 325.69 524.36 325.601 524.579 325.513C531.364 322.759 536.743 321.553 536.743 321.553C536.743 321.553 536.814 324.636 536.823 329.375C536.844 343.125 536.317 370.837 531.933 377.596C530.711 379.481 528.437 382.327 525.594 385.667C525.51 385.759 525.434 385.856 525.35 385.949C523.808 387.758 522.102 389.702 520.312 391.7C510.141 403.106 497.261 416.498 495.694 418.13C495.585 418.24 495.534 418.299 495.534 418.299H495.724L523.046 418.682L531.427 418.796L548.806 419.037C550.006 419.555 550.941 420.407 551.653 421.461C553.333 423.924 553.851 427.508 553.927 430.599L553.923 430.594Z" fill="#2B478B"/>
<path d="M741.935 413.631C731.574 418.446 669.942 422.49 664.025 420.782C660.988 419.905 648.281 408.702 635.498 394.918C636.13 395.002 641.976 385.245 668.628 408.588C668.628 408.588 675.607 411.7 694.607 409.958C713.606 408.217 738.001 407.576 741.935 413.631Z" fill="#233862"/>
<path d="M681.394 430.409H610.938C610.938 427.305 613.453 424.784 616.553 424.784H681.39V430.409H681.394Z" fill="#B24940"/>
<path d="M681.192 353.591H790.119L763.988 430.409H654.354L681.192 353.591Z" fill="#B24940"/>
<path d="M791.723 353.587L765.593 430.409H655.959L682.793 353.587H791.723Z" fill="#C65447"/>
<path d="M732.993 391.287C732.315 394.222 729.392 396.6 726.461 396.6C723.529 396.6 721.701 394.222 722.38 391.287C723.058 388.353 725.981 385.974 728.912 385.974C731.844 385.974 733.671 388.353 732.993 391.287Z" fill="#F9DDBF"/>
<path d="M791.723 353.587L765.593 430.409H714.592L775.68 353.587H791.723Z" fill="#B24940"/>
<path d="M563.282 294.681L561.829 294.976C555.363 296.283 549.004 292.058 547.698 285.586L546.165 277.987C544.859 271.515 549.079 265.148 555.545 263.841L556.998 263.546C563.463 262.238 569.823 266.463 571.128 272.936L572.661 280.534C573.967 287.007 569.747 293.374 563.282 294.681Z" fill="#122544"/>
<path d="M551.981 267.315C551.008 265.557 549.58 251.414 553.464 240.152C555.342 234.708 558.375 231.605 562.182 229.509C563.56 228.75 565.101 228.345 566.672 228.345L570.496 228.409C557.895 233.751 554.976 262.323 555.957 265.371C555.928 265.279 555.886 265.211 555.86 265.16L551.977 267.311L551.981 267.315Z" fill="#122544"/>
<path d="M588.755 297.059C567.578 297.059 557.095 280.307 556.994 280.134L558.885 278.974L557.937 279.552L558.885 278.97C558.982 279.13 568.854 294.833 588.755 294.833C588.89 294.833 589.02 294.833 589.155 294.833L589.18 297.055C589.037 297.055 588.898 297.055 588.755 297.055V297.059Z" fill="#122544"/>
<path d="M559.866 287.239L559.142 287.386C555.919 288.04 552.752 285.931 552.099 282.706L551.337 278.919C550.684 275.694 552.79 272.523 556.012 271.869L556.737 271.722C559.959 271.068 563.126 273.176 563.779 276.402L564.541 280.188C565.194 283.414 563.088 286.585 559.866 287.239Z" fill="#2B478B"/>
<path d="M591.387 297.797H589.391C588.376 297.797 587.542 296.962 587.542 295.946C587.542 294.925 588.376 294.095 589.391 294.095H591.387C592.402 294.095 593.236 294.93 593.236 295.946C593.236 296.962 592.402 297.797 591.387 297.797Z" fill="#122544"/>
<path d="M167.711 264.621C167.711 264.621 149.941 273.716 162.888 293.251C162.888 293.251 147.62 295.018 143.783 290.625C143.783 290.625 144.36 292.547 145.038 293.483C145.038 293.483 130.251 291.544 124.952 285.931C119.654 280.319 136.177 205.677 175.57 220.954C175.57 220.954 210.591 224.15 200.652 263.672C190.712 303.19 203.768 305.387 203.768 305.387C203.768 305.387 199.834 306.567 198.082 306.272C198.082 306.272 195.686 304.864 195.416 303.359C195.416 303.359 195.547 305.674 196.086 306.492C196.086 306.492 181.766 305.459 175.621 298.952C169.476 292.442 164.312 272.548 167.707 264.621H167.711Z" fill="#8E342E"/>
<path d="M193.074 284.148L191.651 284.346C185.316 285.227 179.416 280.758 178.535 274.416L177.503 266.974C176.623 260.632 181.088 254.724 187.422 253.843L188.846 253.645C195.18 252.764 201.081 257.233 201.961 263.575L202.993 271.017C203.874 277.359 199.409 283.267 193.074 284.148Z" fill="#ED7D2B"/>
<path d="M197.13 343.821C191.828 347.92 188.475 362.711 179.925 365.153C147.881 374.311 130.68 336.214 125.053 317.619C129.345 314.861 133.477 314.09 135.869 313.681C138.198 313.284 140.654 312.977 142.692 312.77C146.192 309.793 151.036 298.088 151.331 280.285L152.877 280.619L178.788 286.315C178.788 286.315 178.034 294.508 177.849 302.224C177.71 308.263 177.516 309.705 177.983 310.426C180.001 310.759 182.372 315.916 182.372 315.916C182.372 315.916 182.372 315.924 182.385 315.941C182.755 316.485 190.791 328.312 197.13 343.829V343.821Z" fill="#FFB27D"/>
<path d="M178.788 286.311C178.788 286.311 178.026 294.495 177.849 302.22C163.297 301.508 155.871 288.052 152.873 280.614L178.788 286.311Z" fill="#ED985F"/>
<path d="M310.585 420.854C310.585 420.854 295.346 421.415 278.798 421.47C276.839 421.478 274.86 421.478 272.884 421.47C259.407 421.415 246.165 420.938 240.529 419.484C235.024 418.063 213.843 403.692 196.895 386.286C196.89 386.282 196.89 386.278 196.89 386.278C195.576 389.415 194.582 391.81 194.557 392C194.06 395.909 193.226 399.826 192.22 403.583C188.378 417.928 181.972 429.97 181.753 430.388L172.677 430.371L101.825 430.27C101.825 430.27 115.21 409.629 111.613 356.762C111.521 355.425 123.95 312.766 123.95 312.766C123.95 312.766 133.603 311.075 144.765 310.173C145.818 311.134 147.987 339.195 161.945 340.823C164.215 341.084 178.78 363.361 178.78 363.361L183.189 340.608L177.971 310.421C184.668 312.386 188.34 313.09 193.908 315.317C197.699 316.839 200.837 319.635 202.795 323.219C212.55 341.059 244.202 398.611 247.432 399.952C250.456 401.209 261.858 403.49 273.925 405.695H273.933C290.073 408.647 307.405 411.447 307.405 411.447L310.585 420.854Z" fill="#D2E3FC"/>
<path d="M186.82 430.392L181.745 430.409C181.745 430.409 181.753 430.392 181.761 430.388H186.82V430.392Z" fill="#D2E3FC"/>
<path d="M183.109 294.112C183.109 294.112 148.652 293.437 149.402 271.958C150.152 250.483 146.21 235.931 168.242 235.455C190.274 234.978 194.258 243.323 195.749 250.554C197.24 257.781 192.089 293.732 183.105 294.112H183.109Z" fill="#FFB27D"/>
<path d="M278.802 421.47C276.844 421.478 274.864 421.478 272.889 421.47C259.411 421.415 246.169 420.938 240.533 419.484C235.028 418.063 213.847 403.692 196.899 386.286C196.895 386.282 196.895 386.278 196.895 386.278C196.895 386.278 200.47 372.574 202.008 370.284C203.549 367.986 209.631 390.28 223.833 399.349C238.04 408.419 260.27 414.774 271.069 412.202C278.343 410.469 279.084 417.013 278.798 421.474L278.802 421.47Z" fill="#B7D3F3"/>
<path d="M176.341 282.158C176.341 282.158 176.56 284.73 182.212 285.135C182.212 285.135 186.955 285.476 187.153 282.71C187.153 282.71 182.835 280.113 176.341 282.158Z" fill="white"/>
<path d="M178.207 290.844C158.63 284.65 153.829 266.097 153.782 265.911L155.871 265.392L154.827 265.65L155.871 265.388C155.918 265.565 160.462 282.967 178.859 288.786C178.982 288.824 179.104 288.862 179.23 288.9L178.603 290.962C178.472 290.924 178.341 290.882 178.211 290.84L178.207 290.844Z" fill="#122544"/>
<path d="M180.422 292.294L178.578 291.712C177.638 291.413 177.112 290.401 177.407 289.461C177.706 288.52 178.716 287.993 179.656 288.289L181.501 288.87C182.44 289.17 182.966 290.182 182.671 291.122C182.372 292.062 181.362 292.589 180.422 292.294Z" fill="#ED7D2B"/>
<path d="M185.064 232.608C185.064 232.608 176.24 258.768 163.01 263.208C149.777 267.648 145.388 262.394 145.388 262.394C145.388 262.394 155.139 253.43 156.259 238.921C156.259 238.921 177.638 221.919 185.064 232.613V232.608Z" fill="#8E342E"/>
<path d="M168.591 240.308C168.591 240.308 186.559 239.3 191.925 244.419C195.796 248.113 195.707 250.04 196.006 254.965C196.006 254.965 203.861 242.834 195.779 234.341C187.208 225.339 168.591 240.308 168.591 240.308Z" fill="#8E342E"/>
<path d="M184.301 235.375C184.301 235.375 179.803 260.404 163.356 269.495C163.356 269.495 179.285 253.173 179.567 236.842C179.849 220.511 184.301 235.37 184.301 235.37V235.375Z" fill="#8E342E"/>
<path d="M124.952 285.927C130.251 291.539 145.039 293.483 145.039 293.483C144.361 292.547 143.788 290.62 143.788 290.62C151.39 296.789 170.053 292.311 170.053 292.311C155.164 289.018 159.986 267.505 165.049 266.59C168.002 250.364 173.856 230.167 176.594 221.093C175.937 220.983 175.562 220.949 175.562 220.949C136.177 205.673 119.65 280.323 124.948 285.927H124.952Z" fill="#8E342E"/>
<path d="M157.295 281.938L155.872 282.137C149.537 283.018 143.636 278.548 142.756 272.206L141.724 264.764C140.844 258.422 145.308 252.515 151.643 251.634L153.067 251.436C159.401 250.554 165.302 255.024 166.182 261.366L167.214 268.808C168.094 275.15 163.63 281.057 157.295 281.938Z" fill="#ED7D2B"/>
<path d="M147.991 254.783C147.145 253.198 150.11 240.864 154.473 231.301C156.579 226.68 161.899 220.49 165.698 218.896C167.071 218.318 168.895 218.554 170.377 218.892C171.455 219.136 174.484 220.549 174.484 220.549C162.004 224.441 151.163 250.622 151.946 253.333C151.921 253.249 151.887 253.19 151.862 253.143L147.991 254.783Z" fill="#ED7D2B"/>
<path d="M154.435 274.538L153.728 274.635C150.573 275.074 147.629 272.847 147.191 269.689L146.677 265.978C146.239 262.82 148.463 259.873 151.618 259.434L152.325 259.337C155.48 258.899 158.424 261.125 158.858 264.283L159.372 267.994C159.81 271.152 157.586 274.1 154.431 274.534L154.435 274.538Z" fill="#F99746"/>
<path d="M238.044 408.419C238.044 408.419 252.819 407.568 254.256 408.343C256.589 409.6 264.524 414.719 265.767 416.203C267.009 417.692 270.269 423.654 270.269 423.654C270.269 423.654 268.858 424.046 268.222 423.473C267.586 422.899 262.763 417.772 262.763 417.772L267.717 425.303C267.717 425.303 266.002 425.227 265.324 424.48C264.646 423.734 260.017 419.02 260.017 419.02L258.442 418.708C258.442 418.708 260.047 419.998 260.919 421.162C261.791 422.33 262.368 423.586 262.368 423.586C262.368 423.586 260.957 423.346 260.514 423.135C260.076 422.924 255.923 419.29 255.923 419.29L258.122 422.296C258.122 422.296 256.639 422.224 256.151 421.891C255.662 421.562 252.432 418.581 251.859 418.586C251.286 418.594 247.159 418.421 245.39 417.481C243.617 416.54 238.057 414.386 238.057 414.386L238.04 408.415L238.044 408.419Z" fill="#FFB27D"/>
<path d="M146.808 306.053C146.808 306.053 136.927 308.937 134.673 311.21C134.673 311.21 145.005 337.648 159.898 349.986L163.878 347.156V353.582L178.788 363.352C178.788 363.352 146.045 314.048 146.808 306.053Z" fill="#B7D3F3"/>
<path d="M192.228 403.583C188.387 417.928 181.98 429.97 181.761 430.388H186.82L181.745 430.409H134.673C134.673 430.409 140.136 430.4 140.123 430.371C139.997 429.894 148.084 407.939 134.673 398.94C121.237 389.925 116.364 367.763 116.364 367.763L159.114 357.31C159.114 357.31 176.728 383.044 181.745 387.948C185.594 391.713 194.565 391.996 194.565 391.996L192.228 403.579V403.583Z" fill="#B7D3F3"/>
<path d="M177.984 310.417C177.984 310.417 182.533 346.389 178.792 363.356C178.792 363.356 184.895 352.132 185.75 350.074L184.723 343.905L188.661 345.276C188.661 345.276 185.186 316.599 182.044 311.568C178.902 306.542 177.744 306.053 177.744 306.053L177.984 310.417Z" fill="#B7D3F3"/>
<path d="M310.585 420.854C310.585 420.854 291.522 421.558 272.889 421.47C268.268 414.293 273.925 405.691 273.925 405.691H273.933C290.073 408.643 307.405 411.443 307.405 411.443L310.585 420.85V420.854Z" fill="#FFB27D"/>
<path d="M312.395 430.409H241.94C241.94 427.305 244.454 424.784 247.554 424.784H312.391V430.409H312.395Z" fill="#ED5E04"/>
<path d="M421.12 353.587L394.994 430.409H285.356L312.194 353.587H421.12Z" fill="#ED5E04"/>
<path d="M421.12 353.587L395.234 429.696L394.994 430.409H286.96L313.794 353.587H421.12Z" fill="#FF6200"/>
<path d="M363.995 391.287C363.317 394.222 360.394 396.6 357.462 396.6C354.531 396.6 352.703 394.222 353.381 391.287C354.059 388.353 356.982 385.974 359.914 385.974C362.845 385.974 364.673 388.353 363.995 391.287Z" fill="#FFC397"/>
<path d="M421.12 353.587L395.234 429.696H345.598L406.117 353.587H421.12Z" fill="#ED5D04"/>
<path d="M238.057 414.39C238.057 414.39 201.789 417.561 181.745 416.667V396.95C194.877 400.581 238.044 408.415 238.044 408.415L238.061 414.39H238.057Z" fill="#FFB27D"/>
<path d="M134.673 311.21C134.673 311.21 113.93 311.682 107.511 318.623C101.092 325.563 113.879 364.794 113.879 364.794C113.879 364.794 152.54 412.197 171.88 415.541C171.88 415.541 180.334 416.696 184.28 416.76C184.28 416.76 180.414 405.485 187.607 398.409C187.607 398.409 179.327 396.09 178.982 395.061C178.64 394.032 134.669 311.21 134.669 311.21H134.673Z" fill="#D2E3FC"/>
<path d="M1001.45 221.869C1001.45 221.869 980.438 214.043 967.314 229.408C959.788 238.216 911.667 330.058 912.244 338.095C912.817 346.136 917.408 350.154 917.408 350.154C917.408 350.154 915.399 343.121 916.907 339.457C916.907 339.457 915.938 351.841 923.574 357.116C927.554 359.865 1026.62 354.481 1035.22 342.472C1053.94 316.354 1013.06 302.844 1014.07 274.631C1014.65 258.271 1030.71 223.517 1001.45 221.864L1001.45 221.869Z" fill="#2C3A64"/>
<path d="M1021.47 280.366L1020.06 280.648C1013.79 281.917 1007.63 277.819 1006.36 271.544L1004.87 264.178C1003.6 257.904 1007.7 251.731 1013.96 250.461L1015.37 250.179C1021.64 248.91 1027.8 253.008 1029.07 259.283L1030.56 266.649C1031.83 272.923 1027.73 279.096 1021.47 280.366Z" fill="#ED7D2B"/>
<path d="M1111.35 430.265H1045.62C1034.47 412.547 1024.67 388.626 1022.39 369.998C1021.3 361.16 1021.91 353.515 1024.86 348.291C1034.04 332.057 1019.47 312.998 1019.47 312.998C1019.47 312.998 1039.52 318.677 1044.18 335.228C1048.94 352.086 1061.68 408.162 1061.68 408.162L1110.48 418.21C1112.77 423.957 1111.34 430.265 1111.34 430.265H1111.35Z" fill="#FF6200"/>
<path d="M1111.35 430.265H1045.62C1034.47 412.547 1024.67 388.627 1022.39 369.998L1032.14 367.008C1032.14 367.008 1044.48 423.38 1051.65 424.24C1058.82 425.1 1111.35 430.265 1111.35 430.265H1111.35Z" fill="#EA5D06"/>
<path d="M1029.18 339.676C1024.14 344.091 1017.64 348 1009.26 350.96C977.836 362.07 962.391 336.172 955.631 317.956C959.746 314.937 963.823 313.913 966.182 313.356C968.481 312.816 970.916 312.357 972.933 312.028C976.244 308.84 980.359 296.861 979.558 279.071L981.121 279.307L1007.34 283.397C1007.34 283.397 1007.08 291.62 1007.38 299.336C1007.61 305.37 1008.19 311.1 1009.48 312.369C1011.51 312.576 1012.73 312.724 1012.73 312.724C1012.73 312.724 1012.73 312.732 1012.75 312.745C1013.16 313.268 1021.9 324.577 1029.18 339.672V339.676Z" fill="#FFB27D"/>
<path d="M1007.34 283.406C1007.34 283.406 1007.09 291.624 1007.39 299.34C992.817 299.526 984.583 286.551 981.129 279.311L1007.34 283.402V283.406Z" fill="#ED985F"/>
<path d="M1041.68 367.008C1041.61 367.573 1034.6 390.376 1034.53 390.95C1032.1 410.038 1027.7 430.409 1027.7 430.409L1018.07 430.392L954.553 430.265C954.553 430.265 962.214 407.116 942.002 371.63C941.34 370.466 940.645 369.289 939.925 368.1C937.048 363.365 955.21 312.757 955.21 312.757C955.21 312.757 963.162 311.349 974.319 310.451C975.372 311.417 983.122 339.798 997.147 340.663C1015.46 341.793 1008.51 310.168 1008.51 310.168C1015.97 311.665 1018.66 312.214 1028.23 316.805C1028.23 316.805 1042.07 363.892 1041.68 367.008Z" fill="#FF6200"/>
<path d="M1012.13 290.924C1012.13 290.924 977.701 292.37 977.132 270.887C976.564 249.407 971.737 235.126 993.697 233.291C1015.66 231.461 1020.15 239.545 1022.08 246.666C1024.01 253.788 1021.08 289.992 1012.14 290.92L1012.13 290.924Z" fill="#FFB27D"/>
<path d="M1004.64 279.413C1004.64 279.413 1005.02 281.968 1010.69 282.023C1010.69 282.023 1015.44 282.073 1015.47 279.299C1015.47 279.299 1011 276.975 1004.65 279.413H1004.64Z" fill="white"/>
<path d="M1007.04 287.968C987.114 282.992 981.184 264.768 981.125 264.587L983.176 263.942L982.148 264.267L983.172 263.942C983.227 264.115 988.833 281.205 1007.55 285.881C1007.68 285.91 1007.8 285.944 1007.93 285.974L1007.43 288.069C1007.3 288.035 1007.16 288.006 1007.03 287.972L1007.04 287.968Z" fill="#122544"/>
<path d="M1009.34 289.279L1007.46 288.811C1006.51 288.571 1005.92 287.593 1006.16 286.636C1006.4 285.678 1007.37 285.088 1008.33 285.328L1010.21 285.796C1011.16 286.037 1011.75 287.015 1011.51 287.972C1011.27 288.929 1010.3 289.52 1009.34 289.279Z" fill="#2C3A64"/>
<path d="M992.624 219.933C992.624 219.933 1014.79 216.467 1023.97 234.949C1030.95 249.015 1025.13 257.798 1022.39 260.488C1022.39 260.488 1018.77 240.283 1011.99 238.562C1011.99 238.562 1007.62 237.226 1004.64 240.696C1001.67 244.162 997.358 259.624 992.409 261.994C992.409 261.994 977.044 265.793 976.29 260.425C975.536 255.058 975.958 238.351 979.828 235.657C983.699 232.967 992.62 219.938 992.62 219.938L992.624 219.933Z" fill="#2C3A64"/>
<path d="M985.623 280.365L984.216 280.648C977.949 281.917 971.783 277.819 970.515 271.544L969.028 264.178C967.76 257.904 971.854 251.731 978.122 250.461L979.528 250.179C985.796 248.91 991.962 253.008 993.229 259.283L994.716 266.649C995.984 272.923 991.89 279.096 985.623 280.365Z" fill="#ED7D2B"/>
<path d="M974.664 253.835C973.72 252.304 972.339 239.979 976.104 230.163C977.924 225.419 980.868 222.716 984.557 220.89C985.893 220.228 987.388 219.878 988.912 219.878L992.623 219.933C980.409 224.588 977.574 249.492 978.526 252.144C978.497 252.064 978.459 252 978.433 251.958L974.668 253.835H974.664Z" fill="#ED7D2B"/>
<path d="M982.312 273.151L981.613 273.294C978.488 273.927 975.418 271.886 974.786 268.757L974.045 265.085C973.413 261.956 975.451 258.882 978.576 258.249L979.28 258.106C982.401 257.474 985.476 259.514 986.107 262.643L986.849 266.312C987.48 269.44 985.442 272.514 982.317 273.147L982.312 273.151Z" fill="#F99746"/>
<path d="M954.553 430.265C954.553 430.265 962.215 407.116 942.002 371.63L949.533 362.214C949.533 362.214 962.863 400.011 979.521 411.034C996.145 422.03 1015.71 419.732 1018.07 430.392L954.553 430.265Z" fill="#EA5D06"/>
<path d="M955.21 312.762C955.21 312.762 941.504 313.955 932.323 330.189C923.145 346.423 905.721 407.083 905.721 430.265H979.078C979.078 430.265 980.514 423.953 978.219 418.21L932.824 409.44C932.824 409.44 960.15 368.817 960.437 351.301C960.723 333.785 955.214 312.757 955.214 312.757L955.21 312.762Z" fill="#FF6200"/>
<path d="M979.521 422.806C979.521 422.806 993.816 421.406 996.179 422.052C998.546 422.697 1005.32 425.496 1006.83 426.466C1008.33 427.436 1011.24 430.265 1011.24 430.265C1011.24 430.265 1009.41 430.611 1008.33 430.371C1007.26 430.13 1004.03 429.915 1003.17 429.844C1002.31 429.772 999.224 430.409 999.224 430.409H977.065L979.517 422.806H979.521Z" fill="#FFB27D"/>
<path d="M1108.95 430.409H1038.5C1038.5 427.305 1041.01 424.784 1044.11 424.784H1108.95V430.409H1108.95Z" fill="#233862"/>
<path d="M1217.68 353.587L1191.56 430.409H1081.92L1108.76 353.587H1217.68Z" fill="#233862"/>
<path d="M1217.68 353.587L1191.79 429.696L1191.56 430.409H1083.52L1110.36 353.587H1217.68Z" fill="#2B478B"/>
<path d="M1160.56 391.287C1159.88 394.222 1156.96 396.6 1154.03 396.6C1151.09 396.6 1149.27 394.222 1149.94 391.287C1150.62 388.353 1153.55 385.974 1156.48 385.974C1159.41 385.974 1161.24 388.353 1160.56 391.287Z" fill="#F99746"/>
<path d="M1217.68 353.587L1191.79 429.696H1142.16L1202.68 353.587H1217.68Z" fill="#233862"/>
</g>
<defs>
<clipPath id="clip0_28_5499">
<rect width="1271" height="436" fill="white"/>
</clipPath>
</defs>
</svg>
