<svg width="484" height="412" viewBox="0 0 484 412" fill="none" xmlns="http://www.w3.org/2000/svg">
<g clip-path="url(#clip0_9_5595)">
<path d="M394.646 83.1398C394.646 79.4419 394.278 75.8361 393.563 72.3571L411.604 61.943L394.715 32.6822L376.733 43.0617C371.295 38.1888 364.844 34.4102 357.748 32.0601V11.3357H323.96V32.0601C320.803 33.1085 317.773 34.4217 314.905 36C314.559 36.1843 314.225 36.3917 313.891 36.5875C313.557 36.7833 313.211 36.9677 312.877 37.175C310.078 38.8685 307.417 40.8269 304.94 43.0387L286.992 32.6707L270.104 61.9315L288.052 72.2995C287.372 75.5481 287.003 78.8314 286.946 82.103C286.946 82.4947 286.946 82.8979 286.946 83.2896C286.946 83.6697 286.946 84.0499 286.946 84.4416C287.015 87.7133 287.384 90.9965 288.052 94.2566L270.104 104.625L286.992 133.885L304.94 123.517C310.516 128.494 317.013 132.18 323.948 134.461V155.22H357.736V134.392C361.112 133.263 364.418 131.789 367.62 129.934C370.892 128.045 373.899 125.856 376.606 123.425L394.704 133.874L411.592 104.613L393.494 94.1645C394.232 90.6048 394.635 86.9069 394.635 83.1283L394.646 83.1398ZM362.978 106.952C362.828 107.09 362.69 107.217 362.54 107.355C361.952 107.885 361.353 108.38 360.743 108.864C360.455 109.083 360.167 109.302 359.867 109.521C359.36 109.889 358.854 110.235 358.324 110.569C357.909 110.834 357.483 111.087 357.056 111.341C356.63 111.594 356.192 111.825 355.755 112.055C355.202 112.343 354.637 112.608 354.073 112.861C353.739 113.011 353.405 113.149 353.071 113.288C352.345 113.576 351.619 113.852 350.87 114.094C350.686 114.152 350.49 114.221 350.306 114.278C347.322 115.177 344.154 115.684 340.871 115.684C322.9 115.684 308.327 101.111 308.327 83.1398C308.327 78.7392 309.214 74.5459 310.792 70.7213C310.873 70.5369 310.942 70.3641 311.023 70.1798C311.311 69.5117 311.645 68.855 311.979 68.1984C312.198 67.7837 312.416 67.3805 312.647 66.9773C312.877 66.5741 313.119 66.1824 313.373 65.7907C313.764 65.1801 314.168 64.5696 314.605 63.9821C314.72 63.8208 314.836 63.671 314.951 63.5097C317.474 60.2265 320.665 57.3581 324.478 55.1577C340.041 46.1721 359.936 51.5059 368.922 67.0694C370.558 69.9149 371.721 72.8985 372.424 75.9398C372.47 76.1357 372.505 76.32 372.551 76.5158C372.712 77.2877 372.85 78.0595 372.954 78.8313C373 79.1885 373.046 79.5571 373.081 79.9142C373.15 80.5363 373.196 81.1584 373.219 81.7805C373.242 82.2758 373.254 82.7712 373.254 83.255C373.254 83.7504 373.254 84.2457 373.219 84.7411C373.184 85.3632 373.15 85.9737 373.081 86.5958C373.046 86.9645 373 87.3216 372.954 87.6902C372.85 88.4621 372.712 89.2339 372.551 89.9942C372.505 90.1901 372.47 90.3859 372.424 90.5817C371.71 93.623 370.558 96.6067 368.922 99.4521C367.286 102.298 365.27 104.786 362.989 106.917L362.978 106.952Z" fill="#F3F3FC"/>
<path d="M474.906 186.025C474.906 183.94 474.699 181.912 474.295 179.942L484.468 174.067L474.941 157.571L464.803 163.423C461.739 160.669 458.098 158.55 454.101 157.225V145.544H435.058V157.225C433.284 157.812 431.568 158.561 429.955 159.448C429.759 159.552 429.575 159.667 429.379 159.771C429.195 159.886 428.999 159.99 428.814 160.105C427.236 161.061 425.739 162.167 424.333 163.411L414.219 157.571L404.692 174.067L414.806 179.908C414.426 181.74 414.219 183.594 414.184 185.437C414.184 185.656 414.184 185.887 414.184 186.106C414.184 186.324 414.184 186.532 414.184 186.751C414.219 188.594 414.426 190.449 414.806 192.28L404.692 198.121L414.219 214.618L424.333 208.777C427.478 211.576 431.142 213.661 435.047 214.94V226.644H454.089V214.906C455.99 214.272 457.856 213.431 459.654 212.394C461.497 211.323 463.19 210.09 464.722 208.731L474.918 214.618L484.445 198.121L474.249 192.234C474.664 190.23 474.895 188.145 474.895 186.013L474.906 186.025ZM457.05 199.446C456.969 199.526 456.889 199.596 456.797 199.676C456.474 199.976 456.128 200.252 455.783 200.529C455.622 200.655 455.46 200.782 455.287 200.897C454.999 201.105 454.711 201.3 454.423 201.485C454.193 201.635 453.951 201.784 453.709 201.923C453.467 202.061 453.225 202.199 452.972 202.326C452.661 202.487 452.35 202.637 452.027 202.787C451.843 202.867 451.647 202.948 451.463 203.028C451.06 203.19 450.645 203.351 450.219 203.478C450.115 203.512 450.011 203.547 449.896 203.581C448.214 204.088 446.429 204.376 444.574 204.376C434.448 204.376 426.234 196.163 426.234 186.036C426.234 183.56 426.729 181.198 427.628 179.032C427.674 178.929 427.709 178.825 427.755 178.733C427.916 178.353 428.1 177.984 428.296 177.615C428.423 177.385 428.538 177.155 428.676 176.924C428.803 176.694 428.941 176.475 429.079 176.256C429.298 175.91 429.529 175.565 429.771 175.231C429.84 175.139 429.897 175.058 429.966 174.966C431.395 173.111 433.192 171.498 435.335 170.266C444.113 165.197 455.322 168.204 460.391 176.982C461.312 178.583 461.969 180.265 462.372 181.981C462.395 182.085 462.418 182.2 462.441 182.304C462.534 182.742 462.603 183.168 462.672 183.606C462.695 183.813 462.718 184.009 462.741 184.216C462.775 184.562 462.799 184.919 462.822 185.265C462.833 185.541 462.845 185.818 462.845 186.094C462.845 186.371 462.845 186.659 462.822 186.935C462.81 187.281 462.775 187.638 462.741 187.983C462.718 188.191 462.695 188.398 462.672 188.594C462.614 189.032 462.534 189.458 462.441 189.896C462.418 190.011 462.395 190.115 462.372 190.23C461.969 191.946 461.324 193.628 460.402 195.229C459.481 196.831 458.34 198.236 457.062 199.446H457.05Z" fill="#F3F3FC"/>
<path d="M104.469 299.048C103.421 296.352 102.13 293.818 100.621 291.468L110.863 278.738L90.2187 262.126L80.012 274.81C74.6552 272.782 68.8722 271.849 63.02 272.148L57.1448 256.988L32.4344 266.561L38.3096 281.722C36.2936 283.38 34.4619 285.201 32.8031 287.171C32.6072 287.401 32.4229 287.643 32.2271 287.885C32.0312 288.127 31.8354 288.357 31.6511 288.599C30.0843 290.627 28.6904 292.815 27.5039 295.142L11.445 292.643L7.37842 318.828L23.4373 321.327C23.8635 323.896 24.5202 326.408 25.4072 328.815C25.5109 329.103 25.6261 329.391 25.7413 329.691C25.845 329.967 25.9487 330.255 26.0639 330.532C27.0431 332.905 28.2411 335.197 29.6581 337.398L19.4629 350.058L40.1067 366.67L50.3019 354.01C55.7855 356.06 61.58 356.924 67.3055 356.625L73.1807 371.808L97.8911 362.235L91.9928 347.005C94.1355 345.22 96.14 343.204 97.9602 340.946C99.8149 338.63 101.393 336.188 102.695 333.642L118.881 336.154L122.947 309.969L106.761 307.457C106.301 304.646 105.54 301.836 104.469 299.059V299.048ZM88.053 325.428C87.9839 325.567 87.9147 325.705 87.8456 325.843C87.5691 326.396 87.2696 326.926 86.9586 327.456C86.8088 327.698 86.6591 327.94 86.4978 328.182C86.2328 328.596 85.9563 328.988 85.6683 329.391C85.4379 329.702 85.2075 330.013 84.9541 330.313C84.7122 330.613 84.4587 330.912 84.2053 331.2C83.8827 331.569 83.5487 331.926 83.2031 332.271C83.0072 332.479 82.7999 332.675 82.5925 332.87C82.1432 333.285 81.6824 333.7 81.2101 334.08C81.0949 334.184 80.9682 334.276 80.8415 334.368C78.9176 335.877 76.7403 337.133 74.3327 338.066C61.1883 343.158 46.4082 336.626 41.3163 323.482C40.0722 320.268 39.5307 316.95 39.5999 313.701C39.5999 313.551 39.5999 313.402 39.6114 313.24C39.6344 312.664 39.6805 312.1 39.7496 311.524C39.7957 311.167 39.8303 310.798 39.8879 310.441C39.9455 310.084 40.0146 309.727 40.0837 309.37C40.1989 308.805 40.3256 308.252 40.4754 307.699C40.5099 307.549 40.556 307.4 40.6021 307.261C41.5122 304.14 43.0328 301.144 45.1986 298.46C54.0344 287.482 70.0933 285.742 81.0719 294.578C83.0763 296.191 84.7698 298.057 86.1522 300.073C86.2443 300.2 86.325 300.326 86.4056 300.465C86.7397 300.983 87.0623 301.513 87.3618 302.043C87.5 302.296 87.6383 302.538 87.765 302.803C87.9839 303.241 88.2027 303.679 88.3986 304.128C88.5483 304.485 88.6981 304.842 88.8363 305.199C88.9746 305.568 89.1128 305.925 89.2395 306.294C89.3893 306.755 89.5391 307.215 89.6658 307.688C89.7464 307.964 89.8155 308.241 89.8847 308.517C90.0229 309.116 90.1496 309.715 90.2418 310.314C90.2648 310.464 90.2878 310.625 90.3109 310.775C90.6565 313.194 90.6565 315.706 90.2648 318.252C89.8731 320.797 89.1013 323.194 88.0415 325.394L88.053 325.428Z" fill="#F3F3FC"/>
<path d="M233.251 70.7789H2.88564C1.26133 70.7789 -0.0634766 69.4541 -0.0634766 67.8298C-0.0634766 66.2054 1.26133 64.8806 2.88564 64.8806H233.251C234.875 64.8806 236.2 66.2054 236.2 67.8298C236.2 69.4541 234.875 70.7789 233.251 70.7789Z" fill="#F3F3FC"/>
<path d="M233.251 91.9066H2.88564C1.26133 91.9066 -0.0634766 90.5818 -0.0634766 88.9574C-0.0634766 87.3331 1.26133 86.0083 2.88564 86.0083H233.251C234.875 86.0083 236.2 87.3331 236.2 88.9574C236.2 90.5818 234.875 91.9066 233.251 91.9066Z" fill="#F3F3FC"/>
<path d="M233.251 113.034H2.88564C1.26133 113.034 -0.0634766 111.709 -0.0634766 110.085C-0.0634766 108.461 1.26133 107.136 2.88564 107.136H233.251C234.875 107.136 236.2 108.461 236.2 110.085C236.2 111.709 234.875 113.034 233.251 113.034Z" fill="#F3F3FC"/>
<path d="M233.251 128.252H2.88564C1.25689 128.252 -0.0634766 129.573 -0.0634766 131.201C-0.0634766 132.83 1.25689 134.15 2.88564 134.15H233.251C234.88 134.15 236.2 132.83 236.2 131.201C236.2 129.573 234.88 128.252 233.251 128.252Z" fill="#F3F3FC"/>
<path d="M233.251 155.278H2.88564C1.26133 155.278 -0.0634766 153.953 -0.0634766 152.329C-0.0634766 150.705 1.26133 149.38 2.88564 149.38H233.251C234.875 149.38 236.2 150.705 236.2 152.329C236.2 153.953 234.875 155.278 233.251 155.278Z" fill="#F3F3FC"/>
<path d="M233.251 176.406H2.88564C1.26133 176.406 -0.0634766 175.081 -0.0634766 173.457C-0.0634766 171.832 1.26133 170.508 2.88564 170.508H233.251C234.875 170.508 236.2 171.832 236.2 173.457C236.2 175.081 234.875 176.406 233.251 176.406Z" fill="#F3F3FC"/>
<path d="M233.251 197.522H2.88564C1.26133 197.522 -0.0634766 196.197 -0.0634766 194.573C-0.0634766 192.948 1.26133 191.624 2.88564 191.624H233.251C234.875 191.624 236.2 192.948 236.2 194.573C236.2 196.197 234.875 197.522 233.251 197.522Z" fill="#F3F3FC"/>
<path d="M233.251 218.65H2.88564C1.26133 218.65 -0.0634766 217.325 -0.0634766 215.7C-0.0634766 214.076 1.26133 212.751 2.88564 212.751H233.251C234.875 212.751 236.2 214.076 236.2 215.7C236.2 217.325 234.875 218.65 233.251 218.65Z" fill="#F3F3FC"/>
<path d="M233.251 239.777H2.88564C1.26133 239.777 -0.0634766 238.452 -0.0634766 236.828C-0.0634766 235.204 1.26133 233.879 2.88564 233.879H233.251C234.875 233.879 236.2 235.204 236.2 236.828C236.2 238.452 234.875 239.777 233.251 239.777Z" fill="#F3F3FC"/>
<path d="M234 390.252C331.693 390.252 410.889 382.773 410.889 373.548C410.889 364.322 331.693 356.844 234 356.844C136.307 356.844 57.1104 364.322 57.1104 373.548C57.1104 382.773 136.307 390.252 234 390.252Z" fill="#F3F3FC"/>
<path d="M285.264 374.435H182.736L200.373 323.608H267.627L285.264 374.435Z" fill="url(#paint0_linear_9_5595)"/>
<path d="M69.7363 168.952H398.264V331.638C398.264 341.372 390.361 349.263 380.638 349.263H87.3619C77.6275 349.263 69.7363 341.361 69.7363 331.638V168.952Z" fill="url(#paint1_linear_9_5595)"/>
<path d="M87.3619 118.414H380.627C390.361 118.414 398.252 126.317 398.252 136.04V307.549H69.7363V136.04C69.7363 126.305 77.639 118.414 87.3619 118.414Z" fill="#3D3D89"/>
<path d="M385.626 136.224H82.9497V289.405H385.626V136.224Z" fill="url(#paint2_linear_9_5595)"/>
<path style="mix-blend-mode:multiply" d="M234 335.808C239.281 335.808 243.562 331.527 243.562 326.246C243.562 320.966 239.281 316.685 234 316.685C228.719 316.685 224.438 320.966 224.438 326.246C224.438 331.527 228.719 335.808 234 335.808Z" fill="url(#paint3_linear_9_5595)"/>
<path d="M311.967 374.435H156.033C156.033 369.205 160.272 364.954 165.514 364.954H302.498C307.728 364.954 311.979 369.193 311.979 374.435H311.967Z" fill="url(#paint4_linear_9_5595)"/>
<path d="M381.571 411.517C421.157 411.517 453.248 406.927 453.248 401.265C453.248 395.602 421.157 391.012 381.571 391.012C341.985 391.012 309.894 395.602 309.894 401.265C309.894 406.927 341.985 411.517 381.571 411.517Z" fill="#F3F3FC"/>
<path d="M417.433 239.052H345.709C340.053 239.052 335.468 243.637 335.468 249.293V387.06C335.468 392.717 340.053 397.302 345.709 397.302H417.433C423.089 397.302 427.674 392.717 427.674 387.06V249.293C427.674 243.637 423.089 239.052 417.433 239.052Z" fill="#4B4BA0"/>
<path d="M427.674 250.076H335.468V385.643H427.674V250.076Z" fill="#3D3D89"/>
<path d="M404.519 284.982H358.612C352.956 284.982 348.37 289.567 348.37 295.223V341.13C348.37 346.786 352.956 351.372 358.612 351.372H404.519C410.175 351.372 414.76 346.786 414.76 341.13V295.223C414.76 289.567 410.175 284.982 404.519 284.982Z" fill="url(#paint5_linear_9_5595)"/>
<g filter="url(#filter0_d_9_5595)">
<path d="M381.571 343.596C367.563 343.596 356.158 332.191 356.158 318.182C356.158 304.174 367.563 292.769 381.571 292.769C395.579 292.769 406.984 304.174 406.984 318.182C406.984 332.191 395.579 343.596 381.571 343.596ZM381.571 297.458C370.143 297.458 360.858 306.755 360.858 318.182C360.858 329.61 370.155 338.895 381.571 338.895C392.987 338.895 402.284 329.599 402.284 318.182C402.284 306.766 392.987 297.458 381.571 297.458Z" fill="white"/>
<path d="M379.728 327.836L370.846 320.014L374.567 315.786L379.209 319.876L388.045 309.761L392.285 313.471L379.728 327.836Z" fill="white"/>
</g>
<path d="M393.126 255.444H370.017C366.457 255.444 363.565 252.553 363.565 248.993H399.577C399.577 252.553 396.685 255.444 393.126 255.444Z" fill="#4B4BA0"/>
<path opacity="0.15" d="M389.9 250.076H373.219C372.62 250.076 372.148 249.592 372.148 249.005C372.148 248.406 372.632 247.933 373.219 247.933H389.9C390.488 247.933 390.971 248.417 390.971 249.005C390.971 249.604 390.488 250.076 389.9 250.076Z" fill="white"/>
<g filter="url(#filter1_d_9_5595)">
<path d="M313.868 102.401H132.578C126.922 102.401 122.336 106.986 122.336 112.643V222.255C122.336 227.911 126.922 232.497 132.578 232.497H313.868C319.524 232.497 324.109 227.911 324.109 222.255V112.643C324.109 106.986 319.524 102.401 313.868 102.401Z" fill="url(#paint6_linear_9_5595)"/>
</g>
<path d="M313.856 112.631H132.566V222.244H313.856V112.631Z" fill="#3D3D89"/>
<path d="M170.755 127.284H151.897V129.83H170.755V127.284Z" fill="#FFC700"/>
<path d="M215.314 127.284H176.722V129.83H215.314V127.284Z" fill="#FFC700"/>
<path d="M178.761 137.606H159.903V140.152H178.761V137.606Z" fill="white"/>
<path d="M294.998 137.606H184.729V140.152H294.998V137.606Z" fill="#1E9AFF"/>
<path d="M178.761 147.179H159.903V149.725H178.761V147.179Z" fill="white"/>
<path d="M294.998 147.179H184.729V149.725H294.998V147.179Z" fill="#1E9AFF"/>
<path d="M178.761 156.764H159.903V159.31H178.761V156.764Z" fill="white"/>
<path d="M294.998 156.764H184.729V159.31H294.998V156.764Z" fill="#1E9AFF"/>
<path d="M178.761 166.349H159.903V168.895H178.761V166.349Z" fill="white"/>
<path d="M170.755 176.486H151.897V179.032H170.755V176.486Z" fill="#FFC700"/>
<path d="M215.314 176.486H176.722V179.032H215.314V176.486Z" fill="#FFC700"/>
<path d="M255.83 186.808H184.729V189.354H255.83V186.808Z" fill="white"/>
<path d="M255.83 196.381H184.729V198.927H255.83V196.381Z" fill="white"/>
<path d="M178.761 196.381H172.506V198.927H178.761V196.381Z" fill="#1E9AFF"/>
<path d="M178.761 205.966H159.903V208.512H178.761V205.966Z" fill="#1E9AFF"/>
<path d="M255.83 205.966H184.729V208.512H255.83V205.966Z" fill="white"/>
<path d="M295.805 186.808H260.957V189.354H295.805V186.808Z" fill="white"/>
<path d="M295.805 196.381H260.957V198.927H295.805V196.381Z" fill="white"/>
<path d="M295.805 205.966H260.957V208.512H295.805V205.966Z" fill="white"/>
<path d="M294.998 166.349H184.729V168.895H294.998V166.349Z" fill="#1E9AFF"/>
<g filter="url(#filter2_d_9_5595)">
<path d="M89.4353 153.596H31.0174C25.3613 153.596 20.7761 158.181 20.7761 163.837V222.255C20.7761 227.911 25.3613 232.497 31.0174 232.497H89.4353C95.0914 232.497 99.6766 227.911 99.6766 222.255V163.837C99.6766 158.181 95.0914 153.596 89.4353 153.596Z" fill="url(#paint7_linear_9_5595)"/>
</g>
<g filter="url(#filter3_d_9_5595)">
<path d="M78.3991 192.995C78.3991 191.75 78.2724 190.529 78.0305 189.354L84.1245 185.829L78.4106 175.945L72.3281 179.459C70.4849 177.811 68.3076 176.532 65.9114 175.738V168.733H54.4951V175.738C53.4237 176.095 52.41 176.532 51.4423 177.074C51.3271 177.131 51.2119 177.201 51.0967 177.27C50.9815 177.339 50.8663 177.396 50.7511 177.466C49.8065 178.042 48.9079 178.698 48.0669 179.447L41.9959 175.945L36.282 185.829L42.353 189.331C42.1226 190.426 41.9959 191.543 41.9729 192.649C41.9729 192.787 41.9729 192.914 41.9729 193.052C41.9729 193.179 41.9729 193.306 41.9729 193.444C41.9959 194.55 42.1226 195.656 42.353 196.762L36.282 200.264L41.9959 210.148L48.0669 206.646C49.9562 208.328 52.145 209.572 54.4951 210.344V217.359H65.9114V210.321C67.0519 209.94 68.1693 209.434 69.2522 208.811C70.3581 208.166 71.3719 207.429 72.2935 206.611L78.4106 210.136L84.1245 200.252L78.0074 196.727C78.2609 195.517 78.3876 194.273 78.3876 192.995H78.3991ZM67.697 201.047C67.697 201.047 67.5933 201.139 67.5473 201.185C67.3514 201.358 67.1441 201.531 66.9367 201.692C66.8445 201.773 66.7409 201.842 66.6372 201.911C66.4644 202.038 66.2916 202.153 66.1188 202.268C65.9805 202.36 65.8308 202.441 65.6925 202.533C65.5428 202.614 65.4045 202.694 65.2548 202.775C65.0705 202.867 64.8746 202.959 64.6903 203.051C64.5751 203.098 64.4599 203.155 64.3562 203.201C64.1143 203.305 63.8609 203.397 63.6074 203.478C63.5383 203.501 63.4807 203.524 63.4116 203.535C62.3978 203.846 61.338 204.008 60.2205 204.008C54.1495 204.008 49.2189 199.089 49.2189 193.006C49.2189 191.52 49.5185 190.103 50.0484 188.813C50.0714 188.755 50.0945 188.698 50.129 188.628C50.2327 188.398 50.3364 188.179 50.4516 187.96C50.5207 187.822 50.6013 187.684 50.682 187.546C50.7626 187.407 50.8433 187.281 50.9239 187.142C51.0621 186.935 51.1889 186.728 51.3386 186.532C51.3732 186.474 51.4193 186.428 51.4538 186.371C52.3063 185.265 53.3892 184.297 54.6679 183.548C59.9325 180.507 66.6487 182.315 69.69 187.569C70.2429 188.525 70.6346 189.539 70.8765 190.564C70.8881 190.633 70.8996 190.691 70.9226 190.76C70.9802 191.025 71.0263 191.278 71.0609 191.543C71.0724 191.67 71.0954 191.785 71.1069 191.912C71.13 192.119 71.1415 192.326 71.153 192.545C71.153 192.707 71.153 192.879 71.153 193.041C71.153 193.213 71.153 193.375 71.153 193.547C71.153 193.755 71.13 193.962 71.1069 194.17C71.0954 194.296 71.0839 194.411 71.0609 194.538C71.0263 194.803 70.9802 195.057 70.9226 195.322C70.9111 195.391 70.8996 195.448 70.8765 195.517C70.6346 196.543 70.2429 197.556 69.69 198.513C69.137 199.469 68.4573 200.321 67.6855 201.035L67.697 201.047Z" fill="white"/>
</g>
<g filter="url(#filter4_d_9_5595)">
<path d="M180.547 250.456H101.658C96.0019 250.456 91.4167 255.041 91.4167 260.698V308.874C91.4167 314.53 96.0019 319.116 101.658 319.116H180.547C186.203 319.116 190.788 314.53 190.788 308.874V260.698C190.788 255.041 186.203 250.456 180.547 250.456Z" fill="#FF6200"/>
</g>
<g filter="url(#filter5_d_9_5595)">
<path d="M126.726 268.6L108.029 284.786L126.726 300.983V292.205L118.166 284.786L126.726 277.367V268.6Z" fill="white"/>
<path d="M155.479 300.983L174.176 284.786L155.479 268.6V277.367L164.039 284.786L155.479 292.205V300.983Z" fill="white"/>
<path d="M139.294 306.259H131.368L142.911 263.313H150.825L139.294 306.259Z" fill="white"/>
</g>
<g filter="url(#filter6_d_9_5595)">
<path d="M446.279 61.6896H357.148C351.492 61.6896 346.907 66.2748 346.907 71.9309V161.061C346.907 166.717 351.492 171.302 357.148 171.302H446.279C451.935 171.302 456.52 166.717 456.52 161.061V71.9309C456.52 66.2748 451.935 61.6896 446.279 61.6896Z" fill="#FF6200"/>
</g>
<g filter="url(#filter7_d_9_5595)">
<path d="M428.872 96.2726C426.614 96.2726 424.471 96.7795 422.559 97.678C419.933 88.3007 411.339 81.4233 401.12 81.4233C390.902 81.4233 382.585 88.0819 379.808 97.2288C378.173 96.6067 376.41 96.2726 374.567 96.2726C366.365 96.2726 359.718 102.92 359.718 111.122H443.721C443.721 102.92 437.074 96.2726 428.872 96.2726Z" fill="white"/>
<path d="M386.26 136.109L401.708 151.557L417.156 136.109H406.754V117.884H396.674V136.109H386.26Z" fill="white"/>
</g>
<g filter="url(#filter8_d_9_5595)">
<path d="M89.4353 56.7245H31.0174C25.3613 56.7245 20.7761 61.3096 20.7761 66.9657V125.384C20.7761 131.04 25.3613 135.625 31.0174 135.625H89.4353C95.0914 135.625 99.6766 131.04 99.6766 125.384V66.9657C99.6766 61.3096 95.0914 56.7245 89.4353 56.7245Z" fill="#FF6200"/>
</g>
<path d="M90.3568 66.0441H30.0957V126.305H90.3568V66.0441Z" fill="#3F2F25"/>
<path d="M45.8207 77.783H40.2795V80.3289H45.8207V77.783Z" fill="white"/>
<path d="M77.0858 77.783H48.7351V80.3289H77.0858V77.783Z" fill="#FF6200"/>
<path d="M48.8965 86.3309H40.2795V88.8768H48.8965V86.3309Z" fill="white"/>
<path d="M80.15 86.3309H51.7993V88.8768H80.15V86.3309Z" fill="#FF6200"/>
<path d="M45.8207 102.424H40.2795V104.97H45.8207V102.424Z" fill="white"/>
<path d="M77.0858 102.424H48.7351V104.97H77.0858V102.424Z" fill="#FF6200"/>
<path d="M48.8965 110.984H40.2795V113.53H48.8965V110.984Z" fill="white"/>
<path d="M80.15 110.984H51.7993V113.53H80.15V110.984Z" fill="#FF6200"/>
<path d="M43.7815 94.8902H35.1646V97.4361H43.7815V94.8902Z" fill="white"/>
<path d="M85.2766 94.8902H46.6846V97.4361H85.2766V94.8902Z" fill="#FF6200"/>
<g style="mix-blend-mode:multiply">
<path d="M259.252 248.302H236.143V271.411H259.252V248.302Z" fill="#A7C8FF"/>
</g>
<g style="mix-blend-mode:multiply">
<path d="M292.833 248.302H269.723V271.411H292.833V248.302Z" fill="#A7C8FF"/>
</g>
<g style="mix-blend-mode:multiply">
<path d="M326.402 248.302H303.293V271.411H326.402V248.302Z" fill="#A7C8FF"/>
</g>
<g style="mix-blend-mode:multiply">
<path d="M372.424 185.53H337.576V188.076H372.424V185.53Z" fill="#A7C8FF"/>
</g>
<g style="mix-blend-mode:multiply">
<path d="M372.424 195.114H337.576V197.66H372.424V195.114Z" fill="#A7C8FF"/>
</g>
<g style="mix-blend-mode:multiply">
<path d="M372.424 204.687H337.576V207.233H372.424V204.687Z" fill="#A7C8FF"/>
</g>
</g>
<defs>
<filter id="filter0_d_9_5595" x="348.658" y="289.019" width="65.8262" height="65.8262" filterUnits="userSpaceOnUse" color-interpolation-filters="sRGB">
<feFlood flood-opacity="0" result="BackgroundImageFix"/>
<feColorMatrix in="SourceAlpha" type="matrix" values="0 0 0 0 0 0 0 0 0 0 0 0 0 0 0 0 0 0 127 0" result="hardAlpha"/>
<feOffset dy="3.75"/>
<feGaussianBlur stdDeviation="3.75"/>
<feColorMatrix type="matrix" values="0 0 0 0 0.117647 0 0 0 0 0.521569 0 0 0 0 1 0 0 0 0.4 0"/>
<feBlend mode="normal" in2="BackgroundImageFix" result="effect1_dropShadow_9_5595"/>
<feBlend mode="normal" in="SourceGraphic" in2="effect1_dropShadow_9_5595" result="shape"/>
</filter>
<filter id="filter1_d_9_5595" x="111.676" y="100.631" width="223.093" height="151.415" filterUnits="userSpaceOnUse" color-interpolation-filters="sRGB">
<feFlood flood-opacity="0" result="BackgroundImageFix"/>
<feColorMatrix in="SourceAlpha" type="matrix" values="0 0 0 0 0 0 0 0 0 0 0 0 0 0 0 0 0 0 127 0" result="hardAlpha"/>
<feOffset dy="8.89"/>
<feGaussianBlur stdDeviation="5.33"/>
<feColorMatrix type="matrix" values="0 0 0 0 0.0973781 0 0 0 0 0.0805729 0 0 0 0 0.920833 0 0 0 0.14 0"/>
<feBlend mode="normal" in2="BackgroundImageFix" result="effect1_dropShadow_9_5595"/>
<feBlend mode="normal" in="SourceGraphic" in2="effect1_dropShadow_9_5595" result="shape"/>
</filter>
<filter id="filter2_d_9_5595" x="10.1161" y="151.826" width="100.22" height="100.221" filterUnits="userSpaceOnUse" color-interpolation-filters="sRGB">
<feFlood flood-opacity="0" result="BackgroundImageFix"/>
<feColorMatrix in="SourceAlpha" type="matrix" values="0 0 0 0 0 0 0 0 0 0 0 0 0 0 0 0 0 0 127 0" result="hardAlpha"/>
<feOffset dy="8.89"/>
<feGaussianBlur stdDeviation="5.33"/>
<feColorMatrix type="matrix" values="0 0 0 0 0.06875 0 0 0 0 0.2595 0 0 0 0 0.75 0 0 0 0.25 0"/>
<feBlend mode="normal" in2="BackgroundImageFix" result="effect1_dropShadow_9_5595"/>
<feBlend mode="normal" in="SourceGraphic" in2="effect1_dropShadow_9_5595" result="shape"/>
</filter>
<filter id="filter3_d_9_5595" x="28.782" y="164.983" width="62.8425" height="63.6259" filterUnits="userSpaceOnUse" color-interpolation-filters="sRGB">
<feFlood flood-opacity="0" result="BackgroundImageFix"/>
<feColorMatrix in="SourceAlpha" type="matrix" values="0 0 0 0 0 0 0 0 0 0 0 0 0 0 0 0 0 0 127 0" result="hardAlpha"/>
<feOffset dy="3.75"/>
<feGaussianBlur stdDeviation="3.75"/>
<feColorMatrix type="matrix" values="0 0 0 0 0.117647 0 0 0 0 0.521569 0 0 0 0 1 0 0 0 0.4 0"/>
<feBlend mode="normal" in2="BackgroundImageFix" result="effect1_dropShadow_9_5595"/>
<feBlend mode="normal" in="SourceGraphic" in2="effect1_dropShadow_9_5595" result="shape"/>
</filter>
<filter id="filter4_d_9_5595" x="80.7567" y="248.686" width="120.692" height="89.9792" filterUnits="userSpaceOnUse" color-interpolation-filters="sRGB">
<feFlood flood-opacity="0" result="BackgroundImageFix"/>
<feColorMatrix in="SourceAlpha" type="matrix" values="0 0 0 0 0 0 0 0 0 0 0 0 0 0 0 0 0 0 127 0" result="hardAlpha"/>
<feOffset dy="8.89"/>
<feGaussianBlur stdDeviation="5.33"/>
<feColorMatrix type="matrix" values="0 0 0 0 0.45 0 0 0 0 0.1716 0 0 0 0 0.015 0 0 0 0.22 0"/>
<feBlend mode="normal" in2="BackgroundImageFix" result="effect1_dropShadow_9_5595"/>
<feBlend mode="normal" in="SourceGraphic" in2="effect1_dropShadow_9_5595" result="shape"/>
</filter>
<filter id="filter5_d_9_5595" x="100.529" y="259.563" width="81.1479" height="57.9465" filterUnits="userSpaceOnUse" color-interpolation-filters="sRGB">
<feFlood flood-opacity="0" result="BackgroundImageFix"/>
<feColorMatrix in="SourceAlpha" type="matrix" values="0 0 0 0 0 0 0 0 0 0 0 0 0 0 0 0 0 0 127 0" result="hardAlpha"/>
<feOffset dy="3.75"/>
<feGaussianBlur stdDeviation="3.75"/>
<feColorMatrix type="matrix" values="0 0 0 0 0.117647 0 0 0 0 0.521569 0 0 0 0 1 0 0 0 0.4 0"/>
<feBlend mode="normal" in2="BackgroundImageFix" result="effect1_dropShadow_9_5595"/>
<feBlend mode="normal" in="SourceGraphic" in2="effect1_dropShadow_9_5595" result="shape"/>
</filter>
<filter id="filter6_d_9_5595" x="336.247" y="59.9196" width="130.933" height="130.933" filterUnits="userSpaceOnUse" color-interpolation-filters="sRGB">
<feFlood flood-opacity="0" result="BackgroundImageFix"/>
<feColorMatrix in="SourceAlpha" type="matrix" values="0 0 0 0 0 0 0 0 0 0 0 0 0 0 0 0 0 0 127 0" result="hardAlpha"/>
<feOffset dy="8.89"/>
<feGaussianBlur stdDeviation="5.33"/>
<feColorMatrix type="matrix" values="0 0 0 0 0.45 0 0 0 0 0.1716 0 0 0 0 0.015 0 0 0 0.22 0"/>
<feBlend mode="normal" in2="BackgroundImageFix" result="effect1_dropShadow_9_5595"/>
<feBlend mode="normal" in="SourceGraphic" in2="effect1_dropShadow_9_5595" result="shape"/>
</filter>
<filter id="filter7_d_9_5595" x="352.218" y="77.6733" width="99.0039" height="85.1338" filterUnits="userSpaceOnUse" color-interpolation-filters="sRGB">
<feFlood flood-opacity="0" result="BackgroundImageFix"/>
<feColorMatrix in="SourceAlpha" type="matrix" values="0 0 0 0 0 0 0 0 0 0 0 0 0 0 0 0 0 0 127 0" result="hardAlpha"/>
<feOffset dy="3.75"/>
<feGaussianBlur stdDeviation="3.75"/>
<feColorMatrix type="matrix" values="0 0 0 0 0.117647 0 0 0 0 0.521569 0 0 0 0 1 0 0 0 0.4 0"/>
<feBlend mode="normal" in2="BackgroundImageFix" result="effect1_dropShadow_9_5595"/>
<feBlend mode="normal" in="SourceGraphic" in2="effect1_dropShadow_9_5595" result="shape"/>
</filter>
<filter id="filter8_d_9_5595" x="10.1161" y="54.9545" width="100.22" height="100.22" filterUnits="userSpaceOnUse" color-interpolation-filters="sRGB">
<feFlood flood-opacity="0" result="BackgroundImageFix"/>
<feColorMatrix in="SourceAlpha" type="matrix" values="0 0 0 0 0 0 0 0 0 0 0 0 0 0 0 0 0 0 127 0" result="hardAlpha"/>
<feOffset dy="8.89"/>
<feGaussianBlur stdDeviation="5.33"/>
<feColorMatrix type="matrix" values="0 0 0 0 0.45 0 0 0 0 0.1716 0 0 0 0 0.015 0 0 0 0.22 0"/>
<feBlend mode="normal" in2="BackgroundImageFix" result="effect1_dropShadow_9_5595"/>
<feBlend mode="normal" in="SourceGraphic" in2="effect1_dropShadow_9_5595" result="shape"/>
</filter>
<linearGradient id="paint0_linear_9_5595" x1="200.074" y1="323.908" x2="267.926" y2="391.761" gradientUnits="userSpaceOnUse">
<stop offset="0.23" stop-color="#A7C8FF"/>
<stop offset="0.45" stop-color="#AACAFF"/>
<stop offset="0.67" stop-color="#B6D2FF"/>
<stop offset="0.89" stop-color="#CAE0FF"/>
<stop offset="1" stop-color="#D8E9FF"/>
</linearGradient>
<linearGradient id="paint1_linear_9_5595" x1="109.365" y1="129.324" x2="358.635" y2="378.582" gradientUnits="userSpaceOnUse">
<stop stop-color="#D8E9FF"/>
<stop offset="1" stop-color="#A7C8FF"/>
</linearGradient>
<linearGradient id="paint2_linear_9_5595" x1="120.321" y1="98.8416" x2="348.255" y2="326.776" gradientUnits="userSpaceOnUse">
<stop stop-color="white"/>
<stop offset="1" stop-color="#E8EFFF"/>
</linearGradient>
<linearGradient id="paint3_linear_9_5595" x1="227.238" y1="319.484" x2="240.762" y2="333.009" gradientUnits="userSpaceOnUse">
<stop stop-color="#A7C8FF"/>
<stop offset="1" stop-color="#D8E9FF"/>
</linearGradient>
<linearGradient id="paint4_linear_9_5595" x1="194.037" y1="332.513" x2="273.963" y2="412.439" gradientUnits="userSpaceOnUse">
<stop stop-color="#A7C8FF"/>
<stop offset="1" stop-color="#73ABFF"/>
</linearGradient>
<linearGradient id="paint5_linear_9_5595" x1="340.868" y1="293.625" x2="354.982" y2="352.782" gradientUnits="userSpaceOnUse">
<stop stop-color="#606BF1"/>
<stop offset="1" stop-color="#433AFF"/>
</linearGradient>
<linearGradient id="paint6_linear_9_5595" x1="99.5363" y1="119.338" x2="117.947" y2="239.027" gradientUnits="userSpaceOnUse">
<stop stop-color="#606BF1"/>
<stop offset="1" stop-color="#433AFF"/>
</linearGradient>
<linearGradient id="paint7_linear_9_5595" x1="11.8605" y1="163.868" x2="28.6336" y2="234.173" gradientUnits="userSpaceOnUse">
<stop stop-color="#606BF1"/>
<stop offset="1" stop-color="#433AFF"/>
</linearGradient>
<clipPath id="clip0_9_5595">
<rect width="484" height="412" fill="white"/>
</clipPath>
</defs>
</svg>
