<svg width="268" height="178" viewBox="0 0 268 178" fill="none" xmlns="http://www.w3.org/2000/svg">
<path d="M227.707 31.7053C228.316 31.34 228.971 31.0563 229.655 30.8615L230.055 28.9427L233.31 28.8857L233.778 30.7903C234.469 30.9589 235.133 31.2188 235.754 31.5629L237.398 30.4949L239.739 32.7519L238.72 34.4287C239.088 35.0349 239.373 35.6874 239.567 36.3689L241.493 36.7676L241.55 40.0107L239.639 40.4771C239.467 41.163 239.206 41.8236 238.863 42.4422L239.935 44.0834L237.677 46.4152L235.994 45.4006C235.385 45.7654 234.73 46.0479 234.046 46.2407L233.646 48.1596L230.391 48.2165L229.923 46.3119C229.233 46.1439 228.57 45.8841 227.95 45.5394L226.303 46.6074L223.962 44.3539L224.981 42.6772C224.613 42.0725 224.33 41.421 224.137 40.7405L222.211 40.3418L222.154 37.0987L224.062 36.6323C224.233 35.9444 224.495 35.2824 224.841 34.6636L223.769 33.026L226.031 30.6942L227.711 31.7088L227.707 31.7053ZM229.444 36.0235C228.964 36.5184 228.643 37.1438 228.52 37.8207C228.398 38.4975 228.479 39.1954 228.754 39.8261C229.03 40.4569 229.487 40.9921 230.067 41.3642C230.648 41.7362 231.326 41.9285 232.017 41.9165C232.707 41.9046 233.378 41.689 233.945 41.2971C234.513 40.9051 234.951 40.3544 235.204 39.7146C235.457 39.0747 235.514 38.3744 235.368 37.7022C235.222 37.03 234.879 36.4161 234.382 35.9381C233.716 35.2976 232.821 34.9468 231.895 34.9628C230.969 34.9788 230.088 35.3603 229.444 36.0235Z" fill="#EBEBEB"/>
<path d="M121.261 39.4163C121.751 39.1211 122.279 38.8924 122.83 38.7363L123.151 37.1913L125.778 37.145L126.153 38.6794C126.71 38.8156 127.246 39.0251 127.747 39.3024L129.072 38.4373L130.959 40.2529L130.137 41.6057C130.435 42.0933 130.665 42.6191 130.82 43.1685L132.374 43.4889L132.421 46.1055L130.88 46.4793C130.742 47.034 130.531 47.568 130.252 48.0671L131.123 49.3879L129.298 51.264L127.943 50.4452C127.453 50.7406 126.926 50.9693 126.375 51.1251L126.049 52.6737L123.427 52.72L123.048 51.1857C122.492 51.0465 121.957 50.8334 121.458 50.552L120.128 51.4206L118.242 49.6015L119.063 48.2522C118.768 47.7632 118.539 47.2378 118.381 46.6894L116.83 46.3654L116.784 43.7524L118.324 43.375C118.46 42.8214 118.67 42.2885 118.949 41.7908L118.081 40.4665L119.903 38.5868L121.261 39.4056V39.4163ZM122.658 42.898C122.271 43.2969 122.011 43.8012 121.912 44.3472C121.813 44.8932 121.878 45.4563 122.1 45.9652C122.322 46.4742 122.69 46.9062 123.158 47.2066C123.627 47.507 124.174 47.6623 124.731 47.6528C125.287 47.6433 125.829 47.4696 126.287 47.1534C126.744 46.8373 127.098 46.393 127.302 45.8768C127.506 45.3606 127.552 44.7956 127.434 44.2534C127.316 43.7111 127.04 43.2159 126.639 42.8303C126.102 42.3144 125.381 42.0318 124.635 42.0445C123.888 42.0572 123.178 42.3641 122.658 42.898Z" fill="#F5F5F5"/>
<path d="M122.658 42.898C122.806 42.7177 122.984 42.5637 123.184 42.4423C123.727 42.0902 124.376 41.9367 125.02 42.008C125.5 42.0598 125.958 42.2316 126.353 42.5073C126.748 42.783 127.066 43.1538 127.279 43.5851C127.403 43.8329 127.488 44.0983 127.532 44.3719C127.587 44.656 127.593 44.9472 127.55 45.2334C127.476 45.8461 127.204 46.4183 126.776 46.8639C126.347 47.3095 125.785 47.6043 125.174 47.704C124.886 47.752 124.593 47.752 124.306 47.704C124.03 47.6711 123.761 47.5955 123.509 47.4797C123.037 47.2669 122.631 46.9326 122.333 46.5114C122.078 46.1453 121.913 45.7246 121.851 45.2832C121.751 44.6458 121.877 43.9937 122.208 43.4391C122.323 43.2358 122.472 43.053 122.648 42.898C122.648 42.898 122.48 43.0831 122.262 43.4676C121.961 44.0159 121.851 44.6484 121.951 45.2654C122.023 45.7179 122.208 46.1451 122.489 46.5077C122.77 46.8704 123.138 47.1569 123.559 47.3409C124.053 47.5583 124.602 47.6251 125.135 47.5331C125.709 47.4357 126.237 47.1579 126.641 46.7403C127.045 46.3227 127.305 45.7872 127.382 45.212C127.425 44.942 127.425 44.6668 127.382 44.3968C127.342 44.1366 127.261 43.8844 127.143 43.6492C126.942 43.236 126.641 42.8796 126.267 42.6128C125.892 42.3459 125.456 42.1771 124.999 42.1219C124.378 42.0451 123.749 42.1767 123.212 42.4957C122.837 42.72 122.673 42.9158 122.658 42.898Z" fill="#F5F5F5"/>
<path d="M121.261 39.4161C121.23 39.4039 121.2 39.3884 121.172 39.3698L120.911 39.2203L119.889 38.6187H119.921L118.109 40.5091V40.4592L118.981 41.7764L118.999 41.8013V41.8263C118.725 42.3228 118.517 42.853 118.381 43.4033V43.4318H118.352L116.812 43.8127L116.855 43.7558C116.869 44.5769 116.886 45.448 116.905 46.3688L116.855 46.3083L118.41 46.6251H118.449V46.6643C118.607 47.2063 118.836 47.7256 119.128 48.2093L119.149 48.2449L119.128 48.2805L118.306 49.6333V49.5443C118.899 50.1139 119.539 50.7298 120.196 51.3564H120.103L121.429 50.4877L121.468 50.4628L121.508 50.4842C122.002 50.7586 122.53 50.9657 123.08 51.1H123.126V51.1463C123.248 51.6269 123.376 52.1538 123.505 52.6807L123.43 52.6237L126.053 52.5739L125.974 52.638C126.078 52.1503 126.189 51.6234 126.299 51.0929V51.0431H126.349C126.893 50.8875 127.413 50.6613 127.897 50.3703L127.94 50.3453L127.982 50.3703L129.337 51.189H129.237L131.059 49.3094V49.4055L130.191 48.0847L130.162 48.0456L130.187 48.0028C130.463 47.5108 130.671 46.9839 130.805 46.4365V46.3902H130.848L132.392 46.0342L132.331 46.1089C132.317 45.2166 132.303 44.3455 132.288 43.4959L132.349 43.5671L130.795 43.2431H130.752V43.2004C130.595 42.6561 130.365 42.1352 130.069 41.6518L130.048 41.6162L130.069 41.5771L130.891 40.2278V40.3132L129.008 38.4905H129.087L127.757 39.3556H127.729H127.697C127.2 39.0814 126.671 38.872 126.121 38.7326H126.089V38.7006C125.953 38.1452 125.831 37.6326 125.731 37.1662L125.778 37.2018L123.151 37.2374L123.187 37.2089C123.055 37.8248 122.944 38.3303 122.855 38.754C122.441 38.8689 122.039 39.0226 121.654 39.2132L121.372 39.3627C121.343 39.3821 121.312 39.3977 121.279 39.409L121.365 39.3485C121.425 39.3129 121.515 39.2595 121.643 39.1918C122.024 38.9886 122.426 38.8251 122.84 38.7041L122.823 38.7255C122.908 38.3019 123.008 37.7928 123.133 37.1769V37.1484H123.162L125.785 37.0879H125.824V37.1271L126.207 38.6578L126.167 38.6222C126.729 38.758 127.269 38.9675 127.775 39.2452H127.714C128.136 38.9676 128.572 38.6792 129.04 38.3766L129.079 38.3481L129.115 38.3837L131.006 40.1958L131.045 40.2314L131.016 40.2777L130.198 41.6305V41.5557C130.497 42.0502 130.73 42.5816 130.891 43.1363L130.834 43.0865L132.388 43.4069H132.446V43.4674C132.446 44.3183 132.478 45.1905 132.492 46.0805V46.141L132.431 46.1588L130.891 46.5361L130.948 46.4792C130.809 47.0395 130.596 47.5793 130.316 48.0847V48.0028L131.184 49.3236L131.22 49.377L131.177 49.4233L129.355 51.303L129.308 51.3493L129.255 51.3172L127.897 50.4984H127.979C127.483 50.7962 126.949 51.0273 126.392 51.1855L126.45 51.125C126.339 51.6554 126.228 52.193 126.124 52.67V52.7341H126.06L123.434 52.7804H123.373L123.355 52.7198C123.226 52.1894 123.098 51.6519 122.98 51.1855L123.037 51.2425C122.474 51.1028 121.932 50.8897 121.425 50.6088H121.493L120.168 51.4738L120.118 51.5059L120.075 51.4667L118.188 49.6476L118.149 49.6084L118.177 49.5586L118.999 48.2093V48.2805C118.702 47.7858 118.471 47.2544 118.313 46.6999L118.367 46.7462L116.812 46.4222H116.762V46.3724C116.762 45.4539 116.734 44.5924 116.723 43.7558V43.7095H116.769L118.309 43.3535L118.274 43.3927C118.413 42.8339 118.627 42.2962 118.91 41.7942V41.8441L118.045 40.5197L118.027 40.4912L118.052 40.4699L119.885 38.5973L120.882 39.2168C120.993 39.2844 121.079 39.3378 121.14 39.3805L121.261 39.4161Z" fill="#F5F5F5"/>
<path d="M47.8506 30.3311C47.787 30.0543 47.7547 29.7713 47.7541 29.4874C47.7395 29.147 47.7013 28.808 47.6398 28.4728C47.5839 28.0136 47.4943 27.559 47.3718 27.1129C47.0739 25.8805 46.5921 24.6997 45.9424 23.6098C45.1014 22.1638 43.9918 20.8904 42.6728 19.8576C40.9648 18.5132 38.9461 17.6163 36.8008 17.2488C34.6555 16.8813 32.452 17.0548 30.3913 17.7536C29.2038 18.1442 28.0831 18.7133 27.0681 19.4411C26.5465 19.8104 26.05 20.2136 25.5816 20.6479C25.1134 21.1075 24.6776 21.5988 24.2773 22.1182C22.5902 24.2908 21.6454 26.9444 21.5811 29.6905C21.5168 32.4367 22.3364 35.1313 23.92 37.3799C24.2974 37.9161 24.7092 38.4274 25.1528 38.9107C25.5998 39.3705 26.0773 39.7998 26.5821 40.1959C27.5539 40.9705 28.6383 41.5935 29.7981 42.0435C32.6202 43.1447 35.7379 43.2386 38.6216 42.3093C41.5053 41.38 43.9771 39.4848 45.6173 36.9456C46.3136 35.8869 46.8494 34.7317 47.2074 33.5173C47.3487 33.0756 47.4597 32.6248 47.5397 32.1681C47.6177 31.8366 47.6714 31.4998 47.7005 31.1606C47.716 30.8775 47.7628 30.5969 47.8399 30.324C47.8728 30.6067 47.8728 30.8922 47.8399 31.1748C47.8378 31.5199 47.8056 31.8642 47.7434 32.2037C47.6882 32.6729 47.5962 33.1371 47.4682 33.5921C47.1527 34.8502 46.6415 36.0514 45.9532 37.1521C44.9461 38.7886 43.5991 40.1916 42.0029 41.2668C40.4066 42.3419 38.5979 43.0644 36.6982 43.3856C34.2949 43.789 31.8271 43.5431 29.5516 42.6736C28.3182 42.2102 27.1636 41.5606 26.1283 40.7477C25.5917 40.333 25.0832 39.8835 24.6061 39.402C24.1347 38.8961 23.6989 38.3585 23.3018 37.7929C21.6246 35.4208 20.7575 32.5743 20.8282 29.6737C20.899 26.7731 21.904 23.972 23.6949 21.6839C24.1196 21.1378 24.5817 20.6215 25.0777 20.1388C25.5823 19.6801 26.1171 19.2555 26.6786 18.8679C27.751 18.1071 28.9345 17.5152 30.1876 17.1128C32.5034 16.3491 34.9823 16.2175 37.3664 16.7319C39.2464 17.1462 41.0159 17.9556 42.5565 19.1062C44.0971 20.2567 45.3733 21.7218 46.2998 23.4034C46.9389 24.5431 47.3946 25.7755 47.6505 27.0559C47.7533 27.5167 47.8226 27.9843 47.8577 28.455C47.9017 28.7973 47.9161 29.1427 47.9006 29.4874C47.9167 29.7696 47.8999 30.0527 47.8506 30.3311Z" fill="#EBEBEB"/>
<path d="M45.1849 22.0363C45.2134 22.079 44.974 22.2855 44.5095 22.6308L43.6519 23.2431C43.4804 23.3606 43.2946 23.4923 43.1052 23.5991L42.4513 23.9551C40.0697 25.311 37.3606 25.9907 34.6185 25.9203L33.4322 25.8704L32.2923 25.6924C32.1065 25.6604 31.9349 25.6355 31.7384 25.5999L31.2096 25.4575C30.8522 25.3613 30.4949 25.2795 30.184 25.1762C29.0251 24.7857 27.9112 24.2738 26.8608 23.649C25.0741 22.581 24.2058 21.5949 24.2737 21.513C24.3416 21.4311 25.3171 22.2499 27.1145 23.1826C28.1587 23.7273 29.2493 24.1788 30.3734 24.5319C30.6914 24.6244 31.0237 24.6956 31.3596 24.7811L31.8706 24.9057L32.3995 24.9875L33.4893 25.1477L34.6185 25.1905C37.2526 25.249 39.8613 24.6674 42.219 23.4959L42.8801 23.2075C43.0837 23.1043 43.266 22.9904 43.4446 22.8907L44.3523 22.3923C44.8597 22.1253 45.1563 21.9971 45.1849 22.0363Z" fill="#EBEBEB"/>
<path d="M23.87 38.1773C23.8379 38.1346 24.0808 37.9281 24.5418 37.5828L25.3994 36.9705C25.5709 36.8566 25.7567 36.7248 25.9461 36.6145L26.6036 36.2585C28.9857 34.9038 31.6944 34.2242 34.4364 34.2934L35.6227 34.3468L36.759 34.5248C36.9448 34.5568 37.1164 34.5782 37.3129 34.6173L37.8418 34.7562C38.1991 34.8523 38.5386 34.9342 38.8673 35.041C40.026 35.4304 41.14 35.9411 42.1905 36.5646C43.9772 37.6326 44.8455 38.6188 44.7776 38.7006C44.7097 38.7825 43.7342 37.9637 41.9189 37.0346C40.8706 36.4946 39.7765 36.0478 38.6493 35.6996C38.3277 35.607 37.9954 35.5394 37.6595 35.4504L37.1628 35.308L36.6375 35.2439L35.5655 35.0837L34.4328 35.0374C31.8045 34.9834 29.2024 35.5662 26.8502 36.7355L26.1855 37.0203C25.9819 37.1271 25.7996 37.241 25.6245 37.3372L24.7133 37.8356C24.1952 38.0919 23.8986 38.22 23.87 38.1773Z" fill="#EBEBEB"/>
<path d="M47.8435 30.6408C47.8435 30.8401 41.8689 30.8615 34.5114 30.6835C27.1539 30.5055 21.1935 30.1958 21.2007 29.9964C21.2078 29.797 27.1717 29.7757 34.5292 29.9537C41.8867 30.1317 47.847 30.4378 47.8435 30.6408Z" fill="#EBEBEB"/>
<path d="M33.9074 43.2682C33.7037 43.2682 33.6859 37.3194 33.8645 29.9929C34.0432 22.6665 34.3505 16.7319 34.5542 16.7319C34.7579 16.7319 34.7757 22.6771 34.5971 30.0072C34.4184 37.3372 34.1075 43.2717 33.9074 43.2682Z" fill="#EBEBEB"/>
<path d="M33.9075 43.2469C33.8575 43.3252 32.3888 42.3355 30.6915 40.0891C29.7031 38.7692 28.9023 37.3196 28.3117 35.7815C27.5941 33.8813 27.2449 31.8627 27.2825 29.8328C27.3327 27.8001 27.7908 25.7981 28.6297 23.9445C29.3041 22.4433 30.1791 21.0398 31.2311 19.7722C33.0177 17.6113 34.5042 16.6537 34.5543 16.732C34.6043 16.8103 33.2857 17.8997 31.6384 20.0891C30.6798 21.3623 29.8773 22.7451 29.2479 24.208C28.4818 25.9928 28.0634 27.9065 28.0151 29.847C27.9805 31.786 28.2964 33.7154 28.9477 35.543C29.4912 37.0406 30.2198 38.4649 31.1167 39.783C32.6604 42.0543 33.9825 43.1685 33.9075 43.2469Z" fill="#EBEBEB"/>
<path d="M34.8508 16.7318C34.9008 16.6535 36.3694 17.6467 38.0668 19.8895C39.0573 21.212 39.8583 22.6653 40.4466 24.2078C41.1659 26.1076 41.5151 28.1265 41.4757 30.1566C41.4266 32.189 40.9698 34.191 40.1322 36.0448C39.4524 37.5489 38.5739 38.9557 37.52 40.2278C35.7334 42.3887 34.2433 43.3464 34.1933 43.2681C34.1432 43.1897 35.4618 42.1004 37.1091 39.911C38.068 38.6366 38.8705 37.2527 39.4997 35.7885C40.2702 34.0012 40.6899 32.0834 40.736 30.1388C40.7723 28.1996 40.4564 26.2699 39.8034 24.4428C39.2599 22.9452 38.5313 21.5209 37.6344 20.2028C36.0907 17.9315 34.7793 16.8173 34.8508 16.7318Z" fill="#EBEBEB"/>
<path d="M63.8448 44.0942C64.9517 43.4286 66.1426 42.9126 67.386 42.5598L68.1007 39.071L74.0181 38.9678L74.8686 42.4317C76.1244 42.7435 77.3323 43.2225 78.4598 43.8557L81.4506 41.9012L85.71 45.9988L83.8555 49.0461C84.5235 50.1477 85.0415 51.3329 85.3956 52.5705L88.8975 53.2825L89.0011 59.1779L85.5242 60.0287C85.2147 61.2726 84.74 62.4699 84.1128 63.5887L86.0745 66.5685L81.9759 70.844L78.9171 68.9964C77.8114 69.6608 76.6217 70.1756 75.3795 70.5272L74.6649 74.016L68.7474 74.1228L67.8934 70.6411C66.6383 70.327 65.4307 69.8481 64.3022 69.2171L61.297 71.2L57.0376 67.106L58.8922 64.0587C58.2237 62.9565 57.7069 61.7699 57.3556 60.5307L53.8538 59.8187L53.7466 53.9233L57.2234 53.0761C57.538 51.8311 58.0187 50.6337 58.6528 49.5161L56.6946 46.5363L60.8039 42.2928L63.8627 44.1405L63.8448 44.0942ZM67.0001 51.9475C66.1279 52.8477 65.5432 53.9853 65.3199 55.2164C65.0966 56.4476 65.2448 57.7171 65.7457 58.8644C66.2466 60.0117 67.0777 60.9853 68.1339 61.662C69.1902 62.3387 70.4241 62.6882 71.6797 62.6663C72.9353 62.6444 74.1562 62.2521 75.188 61.5389C76.2199 60.8258 77.0162 59.8238 77.4765 58.6598C77.9368 57.4957 78.0403 56.2218 77.7739 54.9992C77.5075 53.7766 76.8831 52.6601 75.9799 51.7909C75.38 51.2137 74.6718 50.7598 73.8958 50.4553C73.1199 50.1507 72.2913 50.0015 71.4574 50.016C70.6235 50.0306 69.8007 50.2086 69.0359 50.5401C68.2711 50.8715 67.5793 51.3497 67.0001 51.9475Z" fill="#E0E0E0"/>
<path d="M67.0001 51.9475C67.3345 51.5407 67.7341 51.1919 68.1828 50.9151C69.4081 50.1214 70.8721 49.7766 72.3243 49.9396C73.3289 50.0451 74.294 50.3867 75.1401 50.9364C76.116 51.5687 76.9024 52.4518 77.4163 53.4925C77.7022 54.0518 77.8976 54.6525 77.9952 55.2725C78.113 55.9166 78.125 56.5755 78.0309 57.2234C77.8511 58.5959 77.2329 59.8744 76.2677 60.8699C75.3025 61.8655 74.0415 62.5254 72.6709 62.7521C72.0256 62.8686 71.3655 62.8806 70.7163 62.7877C70.0982 62.7078 69.4957 62.535 68.9297 62.275C67.8684 61.7976 66.9553 61.0452 66.2854 60.0963C65.7052 59.272 65.3282 58.3232 65.1848 57.3266C64.9708 55.8859 65.2664 54.416 66.021 53.1686C66.2826 52.7121 66.6183 52.3019 67.0143 51.9546C67.0501 51.9831 66.632 52.3711 66.1425 53.2398C65.4569 54.4715 65.2052 55.8966 65.4278 57.2875C65.593 58.3071 66.0113 59.2694 66.6447 60.0869C67.2781 60.9045 68.1065 61.5514 69.0547 61.9689C70.1767 62.4617 71.42 62.6128 72.6281 62.4032C73.9216 62.1828 75.1108 61.5567 76.0222 60.616C76.9336 59.6753 77.5197 58.4693 77.695 57.1736C77.7869 56.5616 77.7785 55.9388 77.67 55.3295C77.5784 54.7443 77.3976 54.1765 77.134 53.6456C76.6826 52.7125 76.0028 51.9076 75.1574 51.3048C74.3119 50.702 73.3278 50.3207 72.2957 50.196C70.893 50.0196 69.4713 50.3167 68.2579 51.0397C67.4038 51.5523 67.0322 51.976 67.0001 51.9475Z" fill="#E0E0E0"/>
<path d="M63.8448 44.0942C63.8448 44.0942 63.7804 44.0621 63.6482 43.9909L63.0622 43.6527L60.7467 42.2964H60.8181L56.7302 46.5684V46.4544L58.7027 49.4235L58.7385 49.4769L58.7063 49.5338C58.0881 50.6546 57.6208 51.8515 57.3163 53.0938V53.1615L57.2448 53.1793L53.7715 54.0372L53.8716 53.9126C53.9073 55.7674 53.9466 57.7396 53.9895 59.808L53.8752 59.6692L57.377 60.3812H57.4664L57.4914 60.4702C57.8436 61.6944 58.3579 62.8664 59.0208 63.9554L59.0708 64.0373L59.0208 64.1192C58.4454 65.0626 57.813 66.1056 57.1698 67.1665L57.1448 66.9672L61.4077 71.0576L61.1969 71.0398L64.1878 69.0818L64.2736 69.0248L64.3665 69.0747C65.4821 69.6924 66.6754 70.1593 67.9148 70.4631L68.0184 70.488L68.0434 70.5912C68.3114 71.677 68.6044 72.859 68.8974 74.0551L68.7224 73.9198L74.6398 73.813L74.4647 73.9554C74.697 72.8518 74.9435 71.6628 75.1794 70.4666L75.2008 70.3598L75.308 70.3278C76.5336 69.9807 77.7076 69.4731 78.7992 68.8184L78.8956 68.7614L78.9885 68.8184L82.0437 70.666L81.8222 70.6945L85.9315 66.4545L85.9101 66.6788L83.9733 63.6991L83.9162 63.6101L83.9662 63.514C84.5886 62.4044 85.0585 61.2166 85.3634 59.9824L85.392 59.8792L85.4956 59.8543L88.9689 59.007L88.8366 59.1779C88.8057 57.1677 88.7735 55.2025 88.7402 53.2825L88.8724 53.4427L85.3705 52.7129L85.274 52.6916L85.249 52.599C84.9008 51.3728 84.3901 50.1984 83.7304 49.1066L83.6839 49.0248L83.7304 48.9464L85.5921 45.9026L85.6171 46.0878L81.3648 41.9831H81.5399L78.5419 43.9268L78.4776 43.9731L78.4061 43.934C77.2836 43.3079 76.0817 42.8349 74.8328 42.5278L74.7613 42.51V42.4388C74.454 41.1821 74.1788 40.0464 73.9216 38.9749L74.0252 39.0568L68.1077 39.1351L68.1864 39.071C67.8862 40.463 67.6396 41.6057 67.436 42.5562V42.5918H67.4038C66.4699 42.8487 65.5638 43.1969 64.6988 43.6314L64.0592 43.9624C63.9916 44.0032 63.9211 44.0389 63.8483 44.0692C63.8483 44.0692 63.9162 44.0194 64.0449 43.934C64.1735 43.8485 64.4022 43.7275 64.6702 43.578C65.5288 43.1175 66.4345 42.7499 67.3716 42.4815L67.3323 42.5242C67.5217 41.5701 67.754 40.4274 68.047 39.0283V38.9678H68.1113L74.0288 38.8396H74.1145L74.136 38.925C74.404 39.993 74.6862 41.1251 75.0007 42.3854L74.9114 42.2964C76.1786 42.6079 77.3984 43.0868 78.5383 43.7204H78.4025L81.3898 41.7624L81.4827 41.6983L81.5613 41.7766L85.8279 45.8635L85.9172 45.9489L85.8529 46.0522L84.0055 49.0995V48.9393C84.6822 50.0513 85.2062 51.2486 85.5635 52.4993L85.442 52.3818L88.9438 53.0938L89.0761 53.1223V53.254C89.1118 55.1717 89.1475 57.138 89.1833 59.153V59.2882L89.0475 59.3238L85.5742 60.1747L85.7028 60.0465C85.3907 61.3115 84.91 62.5292 84.2735 63.667V63.4819C84.9215 64.4692 85.5754 65.4625 86.2353 66.4616L86.3139 66.5827L86.2138 66.6859L82.1045 70.9294L82.0044 71.0327L81.8794 70.9579L78.8206 69.1103H79.0064C77.8894 69.7819 76.6878 70.3027 75.4331 70.6589L75.5617 70.5236C75.308 71.7198 75.0614 72.9088 74.847 74.0124L74.8185 74.1512H74.6755L68.7545 74.2509H68.608L68.5723 74.1121C68.2793 72.9195 67.9898 71.734 67.7218 70.6518L67.8505 70.7799C66.5827 70.4664 65.362 69.9876 64.22 69.3559H64.3986L61.4042 71.3068L61.2898 71.3816L61.1933 71.2854L56.9411 67.1843L56.8482 67.0953L56.9161 66.985C57.5628 65.917 58.1953 64.8846 58.7742 63.9412V64.1049C58.1012 62.992 57.5797 61.7948 57.2234 60.5449L57.3377 60.6517L53.8358 59.9184L53.7251 59.8934V59.808C53.6965 57.7396 53.6643 55.7674 53.6357 53.9126V53.8094L53.7358 53.7845L57.2126 52.9443L57.1269 53.0333C57.4405 51.7745 57.9212 50.5629 58.5562 49.4306V49.541L56.6088 46.5541L56.5694 46.49L56.6195 46.4402L60.7467 42.2074L60.7824 42.1718L60.8217 42.1967L63.0729 43.5922L63.6518 43.9482C63.7202 43.9912 63.7848 44.04 63.8448 44.0942Z" fill="#E0E0E0"/>
<path d="M95.2545 20.5056C96.0841 20.006 96.977 19.6193 97.9095 19.3557L98.4598 16.732L102.912 16.6572L103.552 19.256C104.495 19.4912 105.402 19.8503 106.25 20.324L108.494 18.8573L111.692 21.9331L110.295 24.208C110.796 25.0355 111.185 25.9263 111.449 26.8566L114.079 27.412L114.157 31.8406L111.549 32.4779C111.311 33.4168 110.951 34.3205 110.477 35.1657L111.949 37.4013L108.873 40.584L106.575 39.1991C105.744 39.699 104.85 40.0858 103.916 40.349L103.37 42.9692L98.9243 43.0475L98.2847 40.4487C97.3423 40.2122 96.4352 39.8531 95.5869 39.3807L93.3428 40.8474L90.1268 37.7716L91.5168 35.4825C91.0151 34.655 90.6269 33.7641 90.3626 32.8339L87.7327 32.2892L87.6541 27.8605L90.2626 27.2233C90.4986 26.284 90.8591 25.3801 91.3346 24.5355L89.8624 22.2998L92.9497 19.1136L95.2474 20.4985L95.2545 20.5056ZM97.6237 26.4045C96.9679 27.0806 96.5282 27.9352 96.36 28.8603C96.1919 29.7853 96.3029 30.7393 96.6791 31.6015C97.0552 32.4637 97.6796 33.1954 98.4732 33.704C99.2668 34.2127 100.194 34.4754 101.138 34.4589C102.081 34.4425 102.998 34.1477 103.774 33.6117C104.549 33.0757 105.147 32.3227 105.493 31.448C105.839 30.5732 105.916 29.6159 105.716 28.6973C105.515 27.7786 105.046 26.9398 104.367 26.287C103.457 25.4122 102.235 24.9332 100.971 24.9552C99.7063 24.9772 98.5024 25.4985 97.6237 26.4045Z" fill="#EBEBEB"/>
<path d="M44.3093 139.335C44.3882 139.223 44.4793 139.12 44.5809 139.029L45.3599 138.249C46.021 137.598 46.9464 136.704 47.9756 135.725L48.0006 135.704V135.835C46.9643 134.878 46.0317 134.002 45.3635 133.361L44.5809 132.596C44.4804 132.507 44.3894 132.408 44.3093 132.3C44.4257 132.368 44.5326 132.45 44.6274 132.546L45.4528 133.258C46.1424 133.874 47.0858 134.732 48.1221 135.693L48.1935 135.757L48.1221 135.825L48.1006 135.846C47.0715 136.825 46.1317 137.701 45.4456 138.338L44.6274 139.079C44.5314 139.176 44.4247 139.262 44.3093 139.335Z" fill="#E0E0E0"/>
<path d="M36.3159 132.3C36.2352 132.41 36.1442 132.511 36.0443 132.603L35.2653 133.383C34.6042 134.034 33.6787 134.928 32.6496 135.907L32.6246 135.928V135.796C33.6609 136.757 34.5935 137.63 35.2617 138.27L36.0443 139.036C36.1466 139.124 36.2377 139.225 36.3159 139.335C36.2011 139.263 36.0945 139.18 35.9978 139.086C35.7727 138.89 35.4976 138.651 35.1724 138.374C34.4827 137.761 33.5394 136.9 32.5031 135.939L32.4316 135.875L32.5031 135.807L32.5245 135.786C33.5537 134.807 34.4935 133.931 35.1795 133.294L35.9978 132.557C36.0925 132.458 36.1993 132.372 36.3159 132.3Z" fill="#E0E0E0"/>
<path d="M38.3671 140.976C38.3206 140.958 39.1604 138.605 40.2431 135.721C41.3258 132.838 42.2441 130.513 42.2906 130.531C42.337 130.549 41.4973 132.902 40.4146 135.785C39.3319 138.669 38.4171 141.008 38.3671 140.976Z" fill="#E0E0E0"/>
<path d="M53.4143 146.024C53.4143 146.024 53.4143 145.889 53.4143 145.629C53.4143 145.369 53.4143 144.992 53.4143 144.5C53.4143 143.504 53.4143 142.058 53.3928 140.228C53.3928 136.537 53.3714 131.264 53.3571 124.903L53.4321 124.981H27.4004L27.4897 124.888C27.4897 132.532 27.4897 139.744 27.4897 146.024L27.4075 145.942L46.2068 145.985L51.5347 146.006H52.964H53.3214H52.964H51.5633L46.2533 146.028L27.404 146.07H27.3218V145.988C27.3218 139.709 27.3218 132.496 27.3218 124.853V124.764H27.4147H53.4464H53.5215V124.838C53.5036 131.218 53.4893 136.508 53.4822 140.211C53.4822 142.047 53.4822 143.489 53.4607 144.483C53.4607 144.967 53.4607 145.34 53.4607 145.6C53.4607 145.86 53.4143 146.024 53.4143 146.024Z" fill="#E0E0E0"/>
<path d="M53.6179 128.025C53.6179 128.074 47.7397 128.117 40.493 128.117C33.2463 128.117 27.3682 128.074 27.3682 128.025C27.3682 127.975 33.2427 127.936 40.493 127.936C47.7433 127.936 53.6179 127.975 53.6179 128.025Z" fill="#E0E0E0"/>
<path d="M29.5052 126.483C29.5052 126.578 29.4675 126.668 29.4005 126.735C29.3335 126.802 29.2426 126.839 29.1479 126.839C29.0531 126.839 28.9622 126.802 28.8952 126.735C28.8282 126.668 28.7905 126.578 28.7905 126.483C28.7905 126.389 28.8282 126.298 28.8952 126.231C28.9622 126.165 29.0531 126.127 29.1479 126.127C29.2426 126.127 29.3335 126.165 29.4005 126.231C29.4675 126.298 29.5052 126.389 29.5052 126.483Z" fill="#E0E0E0"/>
<path d="M30.4305 126.832C30.6239 126.832 30.7807 126.676 30.7807 126.483C30.7807 126.29 30.6239 126.134 30.4305 126.134C30.2371 126.134 30.0803 126.29 30.0803 126.483C30.0803 126.676 30.2371 126.832 30.4305 126.832Z" fill="#E0E0E0"/>
<path d="M32.0601 126.483C32.0601 126.554 32.0392 126.622 31.9999 126.681C31.9606 126.74 31.9048 126.785 31.8395 126.812C31.7742 126.839 31.7024 126.846 31.6331 126.832C31.5638 126.819 31.5001 126.785 31.4501 126.735C31.4001 126.685 31.3661 126.622 31.3523 126.553C31.3385 126.484 31.3456 126.412 31.3727 126.347C31.3997 126.282 31.4455 126.226 31.5043 126.187C31.563 126.148 31.6321 126.127 31.7028 126.127C31.7976 126.127 31.8885 126.165 31.9555 126.231C32.0225 126.298 32.0601 126.389 32.0601 126.483Z" fill="#E0E0E0"/>
<path d="M260.496 159.869C260.496 159.922 206.006 159.961 138.806 159.961C71.606 159.961 17.1091 159.922 17.1091 159.869C17.1091 159.816 71.5846 159.776 138.806 159.776C206.028 159.776 260.496 159.819 260.496 159.869Z" fill="#263238"/>
<path d="M222.876 159.257H251.087V73.1544H222.876V159.257Z" fill="#EBEBEB"/>
<path d="M200.618 159.257H222.876L222.915 73.1545H200.618V159.257Z" fill="#E0E0E0"/>
<path d="M225.595 93.646H249.526V86.9318H225.595V93.646Z" fill="#263238"/>
<path d="M247.518 92.916H248.858V87.7789H247.518V92.916Z" fill="#455A64"/>
<path d="M245.938 88.8577C245.938 88.9425 245.962 89.0256 246.009 89.0964C246.056 89.1672 246.123 89.2225 246.201 89.2553C246.28 89.2881 246.366 89.2968 246.45 89.2804C246.533 89.2641 246.61 89.2233 246.67 89.1634C246.73 89.1034 246.771 89.027 246.788 88.9438C246.804 88.8606 246.795 88.7744 246.763 88.6962C246.73 88.618 246.674 88.5513 246.603 88.5046C246.532 88.4579 246.449 88.4334 246.363 88.4341C246.251 88.435 246.143 88.48 246.064 88.5592C245.984 88.6385 245.939 88.7457 245.938 88.8577Z" fill="white"/>
<path d="M245.938 90.6734C245.938 90.7582 245.962 90.8413 246.009 90.9121C246.056 90.9829 246.123 91.0382 246.201 91.071C246.28 91.1037 246.366 91.1125 246.45 91.0961C246.533 91.0798 246.61 91.039 246.67 90.979C246.73 90.9191 246.771 90.8426 246.788 90.7594C246.804 90.6762 246.795 90.59 246.763 90.5118C246.73 90.4336 246.674 90.367 246.603 90.3203C246.532 90.2736 246.449 90.2491 246.363 90.2498C246.308 90.2498 246.252 90.2607 246.201 90.282C246.149 90.3033 246.102 90.3345 246.063 90.3739C246.023 90.4132 245.992 90.4599 245.971 90.5113C245.949 90.5627 245.938 90.6178 245.938 90.6734Z" fill="white"/>
<path d="M242.919 92.3821H244.237V88.434H242.919V92.3821Z" fill="#455A64"/>
<path d="M241.014 92.3821H242.333V88.434H241.014V92.3821Z" fill="#455A64"/>
<path d="M239.113 92.3821H240.432V88.434H239.113V92.3821Z" fill="#455A64"/>
<path d="M237.212 92.3821H238.531V88.434H237.212V92.3821Z" fill="#455A64"/>
<path d="M235.308 92.3821H236.626V88.434H235.308V92.3821Z" fill="#455A64"/>
<path d="M233.407 92.3821H234.725V88.434H233.407V92.3821Z" fill="#455A64"/>
<path d="M231.506 92.3821H232.824V88.434H231.506V92.3821Z" fill="#455A64"/>
<path d="M229.601 92.3821H230.92V88.434H229.601V92.3821Z" fill="#455A64"/>
<path d="M227.7 92.3821H229.019V88.434H227.7V92.3821Z" fill="#455A64"/>
<path d="M225.799 92.3821H227.117V88.434H225.799V92.3821Z" fill="#455A64"/>
<path d="M225.595 103.29H249.526V96.5759H225.595V103.29Z" fill="#263238"/>
<path d="M247.518 102.557H248.858V97.4196H247.518V102.557Z" fill="#455A64"/>
<path d="M245.938 98.5018C245.938 98.5866 245.962 98.6697 246.009 98.7404C246.056 98.8112 246.123 98.8666 246.201 98.8993C246.28 98.9321 246.366 98.9409 246.45 98.9245C246.533 98.9081 246.61 98.8674 246.67 98.8074C246.73 98.7474 246.771 98.671 246.788 98.5878C246.804 98.5046 246.795 98.4184 246.763 98.3402C246.73 98.262 246.674 98.1953 246.603 98.1486C246.532 98.102 246.449 98.0774 246.363 98.0781C246.308 98.0781 246.252 98.0891 246.201 98.1104C246.149 98.1317 246.102 98.1629 246.063 98.2022C246.023 98.2416 245.992 98.2883 245.971 98.3397C245.949 98.3911 245.938 98.4461 245.938 98.5018Z" fill="white"/>
<path d="M245.938 100.317C245.938 100.402 245.962 100.485 246.009 100.556C246.056 100.627 246.123 100.682 246.201 100.715C246.28 100.748 246.366 100.757 246.45 100.74C246.533 100.724 246.61 100.683 246.67 100.623C246.73 100.563 246.771 100.487 246.788 100.403C246.804 100.32 246.795 100.234 246.763 100.156C246.73 100.078 246.674 100.011 246.603 99.9643C246.532 99.9177 246.449 99.8931 246.363 99.8938C246.308 99.8938 246.252 99.9048 246.201 99.9261C246.149 99.9473 246.102 99.9786 246.063 100.018C246.023 100.057 245.992 100.104 245.971 100.155C245.949 100.207 245.938 100.262 245.938 100.317Z" fill="white"/>
<path d="M242.919 102.022H244.237V98.078H242.919V102.022Z" fill="#455A64"/>
<path d="M241.014 102.022H242.333V98.078H241.014V102.022Z" fill="#455A64"/>
<path d="M239.113 102.022H240.432V98.078H239.113V102.022Z" fill="#455A64"/>
<path d="M237.212 102.022H238.531V98.078H237.212V102.022Z" fill="#455A64"/>
<path d="M235.308 102.022H236.626V98.078H235.308V102.022Z" fill="#455A64"/>
<path d="M233.407 102.022H234.725V98.078H233.407V102.022Z" fill="#455A64"/>
<path d="M231.506 102.022H232.824V98.078H231.506V102.022Z" fill="#455A64"/>
<path d="M229.601 102.022H230.92V98.078H229.601V102.022Z" fill="#455A64"/>
<path d="M227.7 102.022H229.019V98.078H227.7V102.022Z" fill="#455A64"/>
<path d="M225.799 102.022H227.117V98.078H225.799V102.022Z" fill="#455A64"/>
<path d="M225.595 113.012H249.526V106.298H225.595V113.012Z" fill="#263238"/>
<path d="M247.518 112.279H248.858V107.142H247.518V112.279Z" fill="#455A64"/>
<path d="M245.938 108.224C245.938 108.309 245.963 108.391 246.011 108.462C246.058 108.532 246.125 108.587 246.204 108.619C246.282 108.651 246.369 108.66 246.452 108.643C246.535 108.626 246.612 108.585 246.672 108.525C246.731 108.465 246.772 108.388 246.788 108.305C246.804 108.222 246.795 108.136 246.762 108.058C246.729 107.98 246.674 107.914 246.603 107.867C246.532 107.821 246.448 107.796 246.363 107.797C246.25 107.798 246.142 107.843 246.063 107.923C245.983 108.003 245.938 108.111 245.938 108.224Z" fill="white"/>
<path d="M245.938 110.036C245.938 110.121 245.962 110.204 246.009 110.275C246.056 110.346 246.123 110.401 246.201 110.434C246.28 110.467 246.366 110.475 246.45 110.459C246.533 110.443 246.61 110.402 246.67 110.342C246.73 110.282 246.771 110.205 246.788 110.122C246.804 110.039 246.795 109.953 246.763 109.875C246.73 109.796 246.674 109.73 246.603 109.683C246.532 109.636 246.449 109.612 246.363 109.613C246.251 109.613 246.143 109.658 246.064 109.738C245.984 109.817 245.939 109.924 245.938 110.036Z" fill="white"/>
<path d="M242.919 111.745H244.237V107.8H242.919V111.745Z" fill="#455A64"/>
<path d="M241.014 111.745H242.333V107.8H241.014V111.745Z" fill="#455A64"/>
<path d="M239.113 111.745H240.432V107.8H239.113V111.745Z" fill="#455A64"/>
<path d="M237.212 111.745H238.531V107.8H237.212V111.745Z" fill="#455A64"/>
<path d="M235.308 111.745H236.626V107.8H235.308V111.745Z" fill="#455A64"/>
<path d="M233.407 111.745H234.725V107.8H233.407V111.745Z" fill="#455A64"/>
<path d="M231.506 111.745H232.824V107.8H231.506V111.745Z" fill="#455A64"/>
<path d="M229.601 111.745H230.92V107.8H229.601V111.745Z" fill="#455A64"/>
<path d="M227.7 111.745H229.019V107.8H227.7V111.745Z" fill="#455A64"/>
<path d="M225.799 111.745H227.117V107.8H225.799V111.745Z" fill="#455A64"/>
<path d="M225.595 123.511H249.526V116.797H225.595V123.511Z" fill="#263238"/>
<path d="M247.518 122.777H248.858V117.64H247.518V122.777Z" fill="#455A64"/>
<path d="M245.938 118.722C245.938 118.807 245.962 118.89 246.009 118.961C246.056 119.032 246.123 119.087 246.201 119.12C246.28 119.153 246.366 119.162 246.45 119.145C246.533 119.129 246.61 119.088 246.67 119.028C246.73 118.968 246.771 118.892 246.788 118.809C246.804 118.725 246.795 118.639 246.763 118.561C246.73 118.483 246.674 118.416 246.603 118.369C246.532 118.323 246.449 118.298 246.363 118.299C246.308 118.299 246.252 118.31 246.201 118.331C246.149 118.352 246.102 118.384 246.063 118.423C246.023 118.462 245.992 118.509 245.971 118.56C245.949 118.612 245.938 118.667 245.938 118.722Z" fill="white"/>
<path d="M245.938 120.538C245.938 120.623 245.962 120.706 246.009 120.777C246.056 120.848 246.123 120.903 246.201 120.936C246.28 120.968 246.366 120.977 246.45 120.961C246.533 120.944 246.61 120.904 246.67 120.844C246.73 120.784 246.771 120.707 246.788 120.624C246.804 120.541 246.795 120.455 246.763 120.377C246.73 120.298 246.674 120.232 246.603 120.185C246.532 120.138 246.449 120.114 246.363 120.115C246.308 120.115 246.252 120.125 246.201 120.147C246.149 120.168 246.102 120.199 246.063 120.239C246.023 120.278 245.992 120.325 245.971 120.376C245.949 120.427 245.938 120.483 245.938 120.538Z" fill="white"/>
<path d="M242.919 122.243H244.237V118.299H242.919V122.243Z" fill="#455A64"/>
<path d="M241.014 122.243H242.333V118.299H241.014V122.243Z" fill="#455A64"/>
<path d="M239.113 122.243H240.432V118.299H239.113V122.243Z" fill="#455A64"/>
<path d="M237.212 122.243H238.531V118.299H237.212V122.243Z" fill="#455A64"/>
<path d="M235.308 122.243H236.626V118.299H235.308V122.243Z" fill="#455A64"/>
<path d="M233.407 122.243H234.725V118.299H233.407V122.243Z" fill="#455A64"/>
<path d="M231.506 122.243H232.824V118.299H231.506V122.243Z" fill="#455A64"/>
<path d="M229.601 122.243H230.92V118.299H229.601V122.243Z" fill="#455A64"/>
<path d="M227.7 122.243H229.019V118.299H227.7V122.243Z" fill="#455A64"/>
<path d="M225.799 122.243H227.117V118.299H225.799V122.243Z" fill="#455A64"/>
<path d="M225.595 134.116H249.526V127.402H225.595V134.116Z" fill="#263238"/>
<path d="M247.518 133.386H248.858V128.249H247.518V133.386Z" fill="#455A64"/>
<path d="M245.938 129.328C245.938 129.412 245.962 129.496 246.009 129.566C246.056 129.637 246.123 129.692 246.201 129.725C246.28 129.758 246.366 129.767 246.45 129.75C246.533 129.734 246.61 129.693 246.67 129.633C246.73 129.573 246.771 129.497 246.788 129.414C246.804 129.331 246.795 129.244 246.763 129.166C246.73 129.088 246.674 129.021 246.603 128.975C246.532 128.928 246.449 128.903 246.363 128.904C246.308 128.904 246.252 128.915 246.201 128.936C246.149 128.958 246.102 128.989 246.063 129.028C246.023 129.067 245.992 129.114 245.971 129.166C245.949 129.217 245.938 129.272 245.938 129.328Z" fill="white"/>
<path d="M245.938 131.143C245.938 131.228 245.962 131.311 246.009 131.382C246.056 131.453 246.123 131.508 246.201 131.541C246.28 131.574 246.366 131.582 246.45 131.566C246.533 131.55 246.61 131.509 246.67 131.449C246.73 131.389 246.771 131.313 246.788 131.229C246.804 131.146 246.795 131.06 246.763 130.982C246.73 130.904 246.674 130.837 246.603 130.79C246.532 130.744 246.449 130.719 246.363 130.72C246.308 130.72 246.252 130.731 246.201 130.752C246.149 130.773 246.102 130.804 246.063 130.844C246.023 130.883 245.992 130.93 245.971 130.981C245.949 131.033 245.938 131.088 245.938 131.143Z" fill="white"/>
<path d="M242.919 132.849H244.237V128.904H242.919V132.849Z" fill="#455A64"/>
<path d="M241.014 132.849H242.333V128.904H241.014V132.849Z" fill="#455A64"/>
<path d="M239.113 132.849H240.432V128.904H239.113V132.849Z" fill="#455A64"/>
<path d="M237.212 132.849H238.531V128.904H237.212V132.849Z" fill="#455A64"/>
<path d="M235.308 132.849H236.626V128.904H235.308V132.849Z" fill="#455A64"/>
<path d="M233.407 132.849H234.725V128.904H233.407V132.849Z" fill="#455A64"/>
<path d="M231.506 132.849H232.824V128.904H231.506V132.849Z" fill="#455A64"/>
<path d="M229.601 132.849H230.92V128.904H229.601V132.849Z" fill="#455A64"/>
<path d="M227.7 132.849H229.019V128.904H227.7V132.849Z" fill="#455A64"/>
<path d="M225.799 132.849H227.117V128.904H225.799V132.849Z" fill="#455A64"/>
<path d="M225.595 155.22H249.526V148.506H225.595V155.22Z" fill="#263238"/>
<path d="M247.518 154.486H248.858V149.349H247.518V154.486Z" fill="#455A64"/>
<path d="M245.938 150.431C245.938 150.516 245.962 150.599 246.009 150.67C246.056 150.741 246.123 150.796 246.201 150.829C246.28 150.862 246.366 150.871 246.45 150.854C246.533 150.838 246.61 150.797 246.67 150.737C246.73 150.677 246.771 150.601 246.788 150.517C246.804 150.434 246.795 150.348 246.763 150.27C246.73 150.192 246.674 150.125 246.603 150.078C246.532 150.032 246.449 150.007 246.363 150.008C246.308 150.008 246.252 150.019 246.201 150.04C246.149 150.061 246.102 150.093 246.063 150.132C246.023 150.171 245.992 150.218 245.971 150.269C245.949 150.321 245.938 150.376 245.938 150.431Z" fill="white"/>
<path d="M245.938 152.247C245.938 152.332 245.962 152.415 246.009 152.486C246.056 152.557 246.123 152.612 246.201 152.645C246.28 152.677 246.366 152.686 246.45 152.67C246.533 152.653 246.61 152.613 246.67 152.553C246.73 152.493 246.771 152.416 246.788 152.333C246.804 152.25 246.795 152.164 246.763 152.086C246.73 152.007 246.674 151.941 246.603 151.894C246.532 151.847 246.449 151.823 246.363 151.824C246.308 151.824 246.252 151.834 246.201 151.856C246.149 151.877 246.102 151.908 246.063 151.948C246.023 151.987 245.992 152.034 245.971 152.085C245.949 152.136 245.938 152.192 245.938 152.247Z" fill="white"/>
<path d="M242.919 153.952H244.237V150.008H242.919V153.952Z" fill="#455A64"/>
<path d="M241.014 153.952H242.333V150.008H241.014V153.952Z" fill="#455A64"/>
<path d="M239.113 153.952H240.432V150.008H239.113V153.952Z" fill="#455A64"/>
<path d="M237.212 153.952H238.531V150.008H237.212V153.952Z" fill="#455A64"/>
<path d="M235.308 153.952H236.626V150.008H235.308V153.952Z" fill="#455A64"/>
<path d="M233.407 153.952H234.725V150.008H233.407V153.952Z" fill="#455A64"/>
<path d="M231.506 153.952H232.824V150.008H231.506V153.952Z" fill="#455A64"/>
<path d="M229.601 153.952H230.92V150.008H229.601V153.952Z" fill="#455A64"/>
<path d="M227.7 153.952H229.019V150.008H227.7V153.952Z" fill="#455A64"/>
<path d="M225.799 153.952H227.117V150.008H225.799V153.952Z" fill="#455A64"/>
<path d="M225.595 144.678H249.526V137.964H225.595V144.678Z" fill="#263238"/>
<path d="M247.518 143.945H248.858V138.808H247.518V143.945Z" fill="#455A64"/>
<path d="M245.938 139.908C245.938 139.993 245.963 140.076 246.011 140.146C246.058 140.216 246.125 140.271 246.204 140.303C246.282 140.335 246.369 140.344 246.452 140.327C246.535 140.31 246.612 140.269 246.672 140.209C246.731 140.149 246.772 140.072 246.788 139.989C246.804 139.906 246.795 139.82 246.762 139.742C246.729 139.664 246.674 139.598 246.603 139.551C246.532 139.505 246.448 139.48 246.363 139.481C246.25 139.482 246.142 139.527 246.063 139.607C245.983 139.687 245.938 139.795 245.938 139.908Z" fill="white"/>
<path d="M245.938 141.688C245.938 141.773 245.962 141.856 246.009 141.927C246.056 141.998 246.123 142.053 246.201 142.086C246.28 142.118 246.366 142.127 246.45 142.111C246.533 142.094 246.61 142.054 246.67 141.994C246.73 141.934 246.771 141.857 246.788 141.774C246.804 141.691 246.795 141.605 246.763 141.526C246.73 141.448 246.674 141.382 246.603 141.335C246.532 141.288 246.449 141.264 246.363 141.264C246.251 141.265 246.143 141.31 246.064 141.39C245.984 141.469 245.939 141.576 245.938 141.688Z" fill="white"/>
<path d="M242.919 143.411H244.237V139.467H242.919V143.411Z" fill="#455A64"/>
<path d="M241.014 143.411H242.333V139.467H241.014V143.411Z" fill="#455A64"/>
<path d="M239.113 143.411H240.432V139.467H239.113V143.411Z" fill="#455A64"/>
<path d="M237.212 143.411H238.531V139.467H237.212V143.411Z" fill="#455A64"/>
<path d="M235.308 143.411H236.626V139.467H235.308V143.411Z" fill="#455A64"/>
<path d="M233.407 143.411H234.725V139.467H233.407V143.411Z" fill="#455A64"/>
<path d="M231.506 143.411H232.824V139.467H231.506V143.411Z" fill="#455A64"/>
<path d="M229.601 143.411H230.92V139.467H229.601V143.411Z" fill="#455A64"/>
<path d="M227.7 143.411H229.019V139.467H227.7V143.411Z" fill="#455A64"/>
<path d="M225.799 143.411H227.117V139.467H225.799V143.411Z" fill="#455A64"/>
<path d="M234.725 86.9352C234.742 86.8676 234.75 86.7983 234.75 86.7287C234.75 86.5887 234.757 86.3894 234.772 86.1307C234.772 85.8708 234.772 85.5539 234.804 85.1873C234.815 84.7746 234.869 84.3642 234.965 83.9626C235.102 83.4831 235.318 83.0296 235.604 82.6205C235.93 82.1471 236.385 81.7766 236.916 81.5525C237.514 81.3352 238.141 81.2081 238.777 81.1751L240.839 80.9971C243.662 80.7551 246.224 80.5984 248.082 80.5628C249.011 80.5628 249.762 80.5628 250.28 80.5628H250.88C250.949 80.5706 251.019 80.5706 251.088 80.5628L250.88 80.5415L250.284 80.5059C249.762 80.4845 249.011 80.4631 248.079 80.4667C246.221 80.4667 243.651 80.6127 240.825 80.8583L238.763 81.0399C238.113 81.0735 237.472 81.2068 236.862 81.435C236.31 81.6645 235.837 82.0492 235.501 82.5422C235.209 82.9651 234.993 83.4347 234.861 83.9306C234.769 84.3408 234.721 84.7597 234.718 85.1801C234.718 85.5361 234.718 85.8637 234.718 86.1235C234.718 86.3834 234.718 86.5685 234.718 86.7181C234.715 86.7905 234.717 86.8631 234.725 86.9352Z" fill="#263238"/>
<path d="M241.986 86.9354C241.992 86.8702 241.992 86.8047 241.986 86.7396C241.986 86.5936 241.986 86.4085 241.986 86.1771C241.986 85.9457 241.986 85.636 242.011 85.2942C242.029 84.9083 242.131 84.5307 242.308 84.1871C242.566 83.8022 242.942 83.5111 243.38 83.3576C243.883 83.1649 244.428 83.1096 244.959 83.1974C245.243 83.2468 245.516 83.3405 245.77 83.4751C246.035 83.6077 246.255 83.8143 246.403 84.0696C246.476 84.1983 246.514 84.3436 246.514 84.4914C246.514 84.6393 246.476 84.7846 246.403 84.9133C246.327 85.0466 246.224 85.163 246.101 85.2554C245.978 85.3478 245.838 85.4143 245.688 85.4509C245.539 85.4839 245.384 85.479 245.237 85.4367C245.091 85.3944 244.957 85.316 244.848 85.2088C244.629 85.0044 244.494 84.7257 244.47 84.4273C244.446 84.1289 244.535 83.8324 244.72 83.5961C244.884 83.3629 245.102 83.1725 245.356 83.0407C245.605 82.9268 245.872 82.8581 246.146 82.8378C246.417 82.7951 246.678 82.7595 246.932 82.7346C247.443 82.6776 247.918 82.642 248.361 82.6242C249.233 82.5922 249.94 82.6064 250.43 82.6064H250.991C251.056 82.611 251.122 82.611 251.188 82.6064C251.125 82.5896 251.06 82.5824 250.995 82.5851L250.43 82.5566C249.944 82.5388 249.233 82.5103 248.357 82.5281C247.922 82.5281 247.439 82.5673 246.928 82.6171C246.671 82.6456 246.406 82.6776 246.135 82.7168C245.996 82.7381 245.863 82.7524 245.72 82.7809C245.574 82.8096 245.432 82.8587 245.299 82.9268C245.024 83.0677 244.787 83.2729 244.609 83.5249C244.404 83.7899 244.305 84.1213 244.332 84.4548C244.358 84.7883 244.508 85.1002 244.752 85.3298C244.879 85.4528 245.034 85.5425 245.205 85.5909C245.375 85.6394 245.555 85.6451 245.728 85.6075C245.899 85.5676 246.061 85.4926 246.201 85.3872C246.342 85.2818 246.46 85.1483 246.546 84.9952C246.63 84.8451 246.675 84.676 246.675 84.5039C246.675 84.3318 246.63 84.1627 246.546 84.0126C246.382 83.7328 246.142 83.5054 245.853 83.3576C245.583 83.2158 245.292 83.1195 244.991 83.0728C244.436 82.9831 243.867 83.0446 243.344 83.2508C242.879 83.4156 242.481 83.7299 242.215 84.1443C242.038 84.504 241.942 84.8975 241.933 85.2978C241.911 85.6538 241.933 85.9457 241.933 86.1878C241.933 86.4299 241.933 86.6043 241.954 86.7503C241.958 86.813 241.969 86.875 241.986 86.9354Z" fill="#263238"/>
<path d="M232.771 86.9353C232.794 86.8623 232.811 86.7872 232.821 86.7111C232.846 86.5651 232.888 86.3551 232.946 86.0738C233.112 85.2949 233.351 84.5332 233.66 83.799C234.095 82.7037 234.814 81.7431 235.744 81.0151C236.306 80.6133 236.966 80.3676 237.655 80.3031C238.4 80.2203 239.15 80.1799 239.899 80.182C242.99 80.1215 245.795 80.1357 247.821 80.0574C248.836 80.0218 249.655 79.9755 250.223 79.9364L250.873 79.8794C250.949 79.8773 251.024 79.8677 251.098 79.8509C251.022 79.8462 250.946 79.8462 250.869 79.8509L250.219 79.8759C249.651 79.8972 248.833 79.9293 247.818 79.9506C245.792 80.0005 242.99 79.972 239.896 80.0289C239.14 80.0267 238.385 80.0683 237.634 80.1535C236.92 80.2282 236.239 80.4911 235.661 80.9154C235.151 81.3049 234.706 81.7722 234.343 82.3002C234.032 82.7619 233.771 83.2547 233.564 83.7705C233.262 84.513 233.039 85.285 232.899 86.0738C232.849 86.3515 232.817 86.5687 232.799 86.7182C232.786 86.79 232.776 86.8625 232.771 86.9353Z" fill="#263238"/>
<path d="M225.924 77.5903H249.197V74.2261H225.924V77.5903Z" fill="#263238"/>
<path d="M231.409 77.5938H244.08V75.9099H231.409V77.5938Z" fill="#455A64"/>
<path d="M216.426 144.034C216.426 144.052 216.683 144.077 217.141 144.205C217.769 144.395 218.363 144.685 218.899 145.063C219.269 145.321 219.602 145.629 219.889 145.978C220.044 146.171 220.18 146.38 220.292 146.601C220.401 146.841 220.486 147.092 220.546 147.349C220.814 148.417 220.732 149.63 220.678 150.909C220.625 152.187 220.71 153.44 221.211 154.469C221.439 154.949 221.762 155.379 222.161 155.732C222.508 156.037 222.901 156.286 223.326 156.469C223.676 156.623 224.043 156.733 224.42 156.797C224.703 156.839 224.991 156.851 225.277 156.832C225.457 156.82 225.635 156.792 225.81 156.747C225.872 156.736 225.933 156.718 225.992 156.694C225.992 156.676 225.738 156.754 225.277 156.772C224.996 156.781 224.715 156.76 224.437 156.711C224.068 156.643 223.708 156.529 223.365 156.373C222.956 156.186 222.576 155.939 222.24 155.64C221.857 155.295 221.548 154.876 221.332 154.408C220.853 153.422 220.771 152.19 220.825 150.93C220.878 149.67 220.957 148.438 220.675 147.341C220.611 147.076 220.521 146.817 220.407 146.569C220.288 146.339 220.144 146.123 219.978 145.925C219.682 145.571 219.338 145.261 218.956 145.003C218.412 144.626 217.808 144.346 217.169 144.173C216.994 144.128 216.816 144.095 216.637 144.073C216.568 144.053 216.497 144.04 216.426 144.034Z" fill="#263238"/>
<path d="M225.245 157.939H227.157V155.625H225.245V157.939Z" fill="#263238"/>
<path d="M205.717 149.88H216.43V138.185H205.717V149.88Z" fill="#455A64"/>
<path d="M214.338 145.427C215.079 143.632 214.22 141.579 212.418 140.841C210.617 140.103 208.556 140.959 207.815 142.754C207.074 144.548 207.933 146.602 209.735 147.34C211.536 148.078 213.597 147.222 214.338 145.427Z" fill="#263238"/>
<path d="M209.308 144.081C209.307 144.429 209.41 144.769 209.604 145.059C209.798 145.349 210.073 145.575 210.396 145.708C210.719 145.842 211.074 145.877 211.417 145.809C211.76 145.741 212.074 145.574 212.322 145.328C212.569 145.081 212.737 144.768 212.805 144.426C212.873 144.085 212.838 143.731 212.703 143.409C212.569 143.088 212.343 142.813 212.052 142.62C211.761 142.427 211.419 142.325 211.07 142.325C210.603 142.326 210.155 142.512 209.825 142.841C209.495 143.169 209.309 143.615 209.308 144.081Z" fill="#455A64"/>
<path d="M214.65 140.004C214.65 140.069 214.669 140.132 214.706 140.186C214.742 140.24 214.793 140.282 214.853 140.307C214.913 140.332 214.979 140.338 215.043 140.326C215.107 140.313 215.165 140.282 215.211 140.236C215.257 140.19 215.289 140.132 215.301 140.068C215.314 140.005 215.307 139.939 215.283 139.879C215.258 139.819 215.216 139.768 215.162 139.732C215.107 139.696 215.044 139.677 214.979 139.677C214.892 139.677 214.808 139.711 214.746 139.773C214.685 139.834 214.65 139.917 214.65 140.004Z" fill="#263238"/>
<path d="M207.353 140.332C207.535 140.332 207.682 140.185 207.682 140.004C207.682 139.823 207.535 139.677 207.353 139.677C207.172 139.677 207.025 139.823 207.025 140.004C207.025 140.185 207.172 140.332 207.353 140.332Z" fill="#263238"/>
<path d="M207.282 148.965C207.463 148.965 207.611 148.818 207.611 148.637C207.611 148.456 207.463 148.31 207.282 148.31C207.1 148.31 206.953 148.456 206.953 148.637C206.953 148.818 207.1 148.965 207.282 148.965Z" fill="#263238"/>
<path d="M214.65 148.773C214.65 148.837 214.669 148.901 214.706 148.955C214.742 149.008 214.793 149.05 214.853 149.075C214.913 149.1 214.979 149.106 215.043 149.094C215.107 149.081 215.165 149.05 215.211 149.004C215.257 148.958 215.289 148.9 215.301 148.836C215.314 148.773 215.307 148.707 215.283 148.647C215.258 148.587 215.216 148.536 215.162 148.5C215.107 148.464 215.044 148.445 214.979 148.445C214.892 148.445 214.808 148.48 214.746 148.541C214.685 148.602 214.65 148.686 214.65 148.773Z" fill="#263238"/>
<path d="M204.849 149.88H205.713V138.185H204.849V149.88Z" fill="#263238"/>
<path d="M49.637 57.4229H197.88C198.519 57.4229 199.132 57.6756 199.583 58.1256C200.035 58.5756 200.289 59.1859 200.289 59.8223V153.315C200.289 153.996 200.154 154.671 199.892 155.3C199.631 155.929 199.247 156.501 198.764 156.983C198.28 157.464 197.706 157.846 197.075 158.107C196.443 158.368 195.766 158.502 195.082 158.502H52.074C50.6932 158.502 49.369 157.955 48.3926 156.983C47.4162 156.01 46.8677 154.691 46.8677 153.315V60.1819C46.8677 59.4501 47.1594 58.7484 47.6788 58.2309C48.1981 57.7135 48.9025 57.4229 49.637 57.4229Z" fill="#455A64"/>
<path d="M40.4536 151.026H206.674V154.985C206.674 155.626 206.548 156.261 206.301 156.854C206.055 157.446 205.694 157.985 205.238 158.438C204.783 158.892 204.243 159.252 203.648 159.497C203.053 159.743 202.416 159.869 201.772 159.869H45.3562C44.7124 159.869 44.0749 159.743 43.4801 159.497C42.8853 159.252 42.3448 158.892 41.8896 158.438C41.4343 157.985 41.0732 157.446 40.8268 156.854C40.5804 156.261 40.4536 155.626 40.4536 154.985V151.026Z" fill="#455A64"/>
<path d="M195.744 61.4385H50.9878V146.797H195.744V61.4385Z" fill="#E0E0E0"/>
<path d="M108.454 151.026L110.519 154.294H139.542L141.457 151.026H108.454Z" fill="#263238"/>
<path d="M191.799 66.3833H55.283V146.797H191.799V66.3833Z" fill="#263238"/>
<path d="M65.7492 144.44C65.6778 144.44 65.6206 127.313 65.6206 106.191C65.6206 85.0699 65.6778 67.9392 65.7492 67.9392C65.8207 67.9392 65.8779 85.0628 65.8779 106.191C65.8779 127.32 65.8279 144.44 65.7492 144.44Z" fill="#E0E0E0"/>
<path d="M63.0014 74.874C63.0014 74.9416 62.008 74.9986 60.7859 74.9986C59.5639 74.9986 58.5669 74.9416 58.5669 74.874C58.5669 74.8064 59.5603 74.7458 60.7859 74.7458C62.0116 74.7458 63.0014 74.8028 63.0014 74.874Z" fill="#E0E0E0"/>
<path d="M63.1728 70.5307C63.1728 70.6019 62.1794 70.6589 60.9537 70.6589C59.7281 70.6589 58.7383 70.6019 58.7383 70.5307C58.7383 70.4595 59.7317 70.4026 60.9537 70.4026C62.1758 70.4026 63.1728 70.4595 63.1728 70.5307Z" fill="#E0E0E0"/>
<path d="M63.0014 79.5517C63.0014 79.6229 62.008 79.6799 60.7859 79.6799C59.5639 79.6799 58.5669 79.6229 58.5669 79.5517C58.5669 79.4805 59.5603 79.4236 60.7859 79.4236C62.0116 79.4236 63.0014 79.4805 63.0014 79.5517Z" fill="#E0E0E0"/>
<path d="M63.0014 84.2297C63.0014 84.3009 62.008 84.3579 60.7859 84.3579C59.5639 84.3579 58.5669 84.3009 58.5669 84.2297C58.5669 84.1585 59.5603 84.1016 60.7859 84.1016C62.0116 84.1016 63.0014 84.1585 63.0014 84.2297Z" fill="#E0E0E0"/>
<path d="M63.0014 88.9076C63.0014 88.9788 62.008 89.0357 60.7859 89.0357C59.5639 89.0357 58.5669 88.9788 58.5669 88.9076C58.5669 88.8364 59.5603 88.783 60.7859 88.783C62.0116 88.783 63.0014 88.8399 63.0014 88.9076Z" fill="#E0E0E0"/>
<path d="M63.0014 93.5889C63.0014 93.6601 62.008 93.717 60.7859 93.717C59.5639 93.717 58.5669 93.6601 58.5669 93.5889C58.5669 93.5177 59.5603 93.4607 60.7859 93.4607C62.0116 93.4607 63.0014 93.5177 63.0014 93.5889Z" fill="#E0E0E0"/>
<path d="M63.0014 98.2561C63.0014 98.3273 62.008 98.3842 60.7859 98.3842C59.5639 98.3842 58.5669 98.3273 58.5669 98.2561C58.5669 98.1849 59.5603 98.1279 60.7859 98.1279C62.0116 98.1279 63.0014 98.1956 63.0014 98.2561Z" fill="#E0E0E0"/>
<path d="M63.0014 102.945C63.0014 103.016 62.008 103.073 60.7859 103.073C59.5639 103.073 58.5669 103.016 58.5669 102.945C58.5669 102.873 59.5603 102.82 60.7859 102.82C62.0116 102.82 63.0014 102.884 63.0014 102.945Z" fill="#E0E0E0"/>
<path d="M63.0014 107.626C63.0014 107.694 62.008 107.751 60.7859 107.751C59.5639 107.751 58.5669 107.694 58.5669 107.626C58.5669 107.558 59.5603 107.498 60.7859 107.498C62.0116 107.498 63.0014 107.555 63.0014 107.626Z" fill="#E0E0E0"/>
<path d="M63.0014 112.304C63.0014 112.375 62.008 112.432 60.7859 112.432C59.5639 112.432 58.5669 112.375 58.5669 112.304C58.5669 112.232 59.5603 112.176 60.7859 112.176C62.0116 112.176 63.0014 112.232 63.0014 112.304Z" fill="#E0E0E0"/>
<path d="M63.0014 116.982C63.0014 117.053 62.008 117.11 60.7859 117.11C59.5639 117.11 58.5669 117.053 58.5669 116.982C58.5669 116.91 59.5603 116.854 60.7859 116.854C62.0116 116.854 63.0014 116.91 63.0014 116.982Z" fill="#E0E0E0"/>
<path d="M63.0014 121.663C63.0014 121.731 62.008 121.788 60.7859 121.788C59.5639 121.788 58.5669 121.731 58.5669 121.663C58.5669 121.595 59.5603 121.535 60.7859 121.535C62.0116 121.535 63.0014 121.592 63.0014 121.663Z" fill="#E0E0E0"/>
<path d="M63.0014 126.341C63.0014 126.412 62.008 126.469 60.7859 126.469C59.5639 126.469 58.5669 126.412 58.5669 126.341C58.5669 126.27 59.5603 126.213 60.7859 126.213C62.0116 126.213 63.0014 126.27 63.0014 126.341Z" fill="#E0E0E0"/>
<path d="M63.0014 131.008C63.0014 131.079 62.008 131.136 60.7859 131.136C59.5639 131.136 58.5669 131.079 58.5669 131.008C58.5669 130.937 59.5603 130.88 60.7859 130.88C62.0116 130.88 63.0014 130.948 63.0014 131.008Z" fill="#E0E0E0"/>
<path d="M63.0014 135.697C63.0014 135.768 62.008 135.825 60.7859 135.825C59.5639 135.825 58.5669 135.768 58.5669 135.697C58.5669 135.625 59.5603 135.572 60.7859 135.572C62.0116 135.572 63.0014 135.636 63.0014 135.697Z" fill="#E0E0E0"/>
<path d="M63.0014 140.378C63.0014 140.449 62.008 140.506 60.7859 140.506C59.5639 140.506 58.5669 140.449 58.5669 140.378C58.5669 140.307 59.5603 140.25 60.7859 140.25C62.0116 140.25 63.0014 140.307 63.0014 140.378Z" fill="#E0E0E0"/>
<path d="M80.7787 140.378C80.7787 140.449 78.2024 140.506 75.0221 140.506C71.8418 140.506 69.269 140.449 69.269 140.378C69.269 140.307 71.8454 140.25 75.0221 140.25C78.1988 140.25 80.7787 140.307 80.7787 140.378Z" fill="#FF6200"/>
<path d="M84.7558 74.1726C84.7558 74.2438 82.1794 74.3008 79.0027 74.3008C75.826 74.3008 73.2461 74.2438 73.2461 74.1726C73.2461 74.1014 75.8225 74.0444 79.0027 74.0444C82.183 74.0444 84.7558 74.1014 84.7558 74.1726Z" fill="#FF6200"/>
<path d="M96.8087 84.2297C96.8087 84.3009 91.9847 84.3579 86.0422 84.3579C80.0998 84.3579 75.2722 84.3009 75.2722 84.2297C75.2722 84.1585 80.0926 84.1016 86.0422 84.1016C91.9918 84.1016 96.8087 84.1585 96.8087 84.2297Z" fill="#FF6200"/>
<path d="M121.708 84.2297C121.708 84.3009 116.887 84.3579 110.941 84.3579C104.995 84.3579 100.175 84.3009 100.175 84.2297C100.175 84.1585 104.995 84.1016 110.941 84.1016C116.887 84.1016 121.708 84.1585 121.708 84.2297Z" fill="#E0E0E0"/>
<path d="M112.202 88.9076C112.202 88.9788 105.099 89.0357 96.3333 89.0357C87.5679 89.0357 80.4641 88.9788 80.4641 88.9076C80.4641 88.8364 87.5679 88.783 96.3333 88.783C105.099 88.783 112.202 88.8399 112.202 88.9076Z" fill="#E0E0E0"/>
<path d="M112.202 93.5889C112.202 93.6601 105.099 93.717 96.3333 93.717C87.5679 93.717 80.4641 93.6601 80.4641 93.5889C80.4641 93.5177 87.5679 93.4607 96.3333 93.4607C105.099 93.4607 112.202 93.5177 112.202 93.5889Z" fill="#E0E0E0"/>
<path d="M134.039 107.626C134.039 107.694 126.932 107.751 118.17 107.751C109.408 107.751 102.301 107.694 102.301 107.626C102.301 107.558 109.405 107.498 118.17 107.498C126.935 107.498 134.039 107.555 134.039 107.626Z" fill="#E0E0E0"/>
<path d="M124.613 98.2561C124.613 98.3273 117.505 98.3842 108.744 98.3842C99.9819 98.3842 92.8745 98.3273 92.8745 98.2561C92.8745 98.1849 99.9783 98.1279 108.744 98.1279C117.509 98.1279 124.613 98.1956 124.613 98.2561Z" fill="#E0E0E0"/>
<path d="M163.394 98.2561C163.394 98.3273 156.29 98.3842 147.525 98.3842C138.76 98.3842 131.656 98.3273 131.656 98.2561C131.656 98.1849 138.76 98.1279 147.525 98.1279C156.29 98.1279 163.394 98.1956 163.394 98.2561Z" fill="#E0E0E0"/>
<path d="M149.908 88.9076C149.908 88.9788 142.801 89.0357 134.039 89.0357C125.277 89.0357 118.17 88.9788 118.17 88.9076C118.17 88.8364 125.274 88.783 134.039 88.783C142.804 88.783 149.908 88.8399 149.908 88.9076Z" fill="#FAFAFA"/>
<path d="M171.831 107.626C171.831 107.694 164.724 107.751 155.962 107.751C147.2 107.751 140.093 107.694 140.093 107.626C140.093 107.558 147.196 107.498 155.962 107.498C164.727 107.498 171.831 107.555 171.831 107.626Z" fill="#FAFAFA"/>
<path d="M167.453 93.5889C167.453 93.6601 156.419 93.717 142.797 93.717C129.176 93.717 118.141 93.6601 118.141 93.5889C118.141 93.5177 129.172 93.4607 142.797 93.4607C156.422 93.4607 167.453 93.5177 167.453 93.5889Z" fill="#455A64"/>
<path d="M80.7787 135.697C80.7787 135.768 78.2024 135.825 75.0221 135.825C71.8418 135.825 69.269 135.768 69.269 135.697C69.269 135.625 71.8454 135.572 75.0221 135.572C78.1988 135.572 80.7787 135.636 80.7787 135.697Z" fill="#FAFAFA"/>
<path d="M86.4746 98.2561C86.4746 98.3273 83.8982 98.3842 80.7179 98.3842C77.5376 98.3842 74.9648 98.3273 74.9648 98.2561C74.9648 98.1849 77.5412 98.1279 80.7179 98.1279C83.8946 98.1279 86.4746 98.1956 86.4746 98.2561Z" fill="#FAFAFA"/>
<path d="M178.727 98.2561C178.727 98.3273 176.151 98.3842 172.974 98.3842C169.798 98.3842 167.232 98.338 167.232 98.2561C167.232 98.1742 169.808 98.1279 172.989 98.1279C176.169 98.1279 178.727 98.1956 178.727 98.2561Z" fill="#FF6200"/>
<path d="M96.8087 116.957C96.8087 117.024 91.9847 117.081 86.0422 117.081C80.0998 117.081 75.2722 117.024 75.2722 116.957C75.2722 116.889 80.0926 116.829 86.0422 116.829C91.9918 116.829 96.8087 116.886 96.8087 116.957Z" fill="#FF6200"/>
<path d="M121.708 116.957C121.708 117.024 116.887 117.081 110.941 117.081C104.995 117.081 100.175 117.024 100.175 116.957C100.175 116.889 104.995 116.829 110.941 116.829C116.887 116.829 121.708 116.886 121.708 116.957Z" fill="#E0E0E0"/>
<path d="M112.202 121.635C112.202 121.706 105.099 121.763 96.3333 121.763C87.5679 121.763 80.4641 121.706 80.4641 121.635C80.4641 121.563 87.5679 121.506 96.3333 121.506C105.099 121.506 112.202 121.563 112.202 121.635Z" fill="#E0E0E0"/>
<path d="M112.202 126.312C112.202 126.384 105.099 126.441 96.3333 126.441C87.5679 126.441 80.4641 126.384 80.4641 126.312C80.4641 126.241 87.5679 126.184 96.3333 126.184C105.099 126.184 112.202 126.241 112.202 126.312Z" fill="#E0E0E0"/>
<path d="M124.613 131.008C124.613 131.079 117.505 131.136 108.744 131.136C99.9819 131.136 92.8745 131.079 92.8745 131.008C92.8745 130.937 99.9783 130.884 108.744 130.884C117.509 130.884 124.613 130.923 124.613 131.008Z" fill="#E0E0E0"/>
<path d="M163.394 131.008C163.394 131.079 156.29 131.136 147.525 131.136C138.76 131.136 131.656 131.079 131.656 131.008C131.656 130.937 138.76 130.884 147.525 130.884C156.29 130.884 163.394 130.923 163.394 131.008Z" fill="#E0E0E0"/>
<path d="M117.891 135.579C117.891 135.65 110.788 135.707 102.026 135.707C93.264 135.707 86.1531 135.65 86.1531 135.579C86.1531 135.508 93.2569 135.451 102.026 135.451C110.795 135.451 117.891 135.508 117.891 135.579Z" fill="#E0E0E0"/>
<path d="M106.91 78.3201C106.91 78.3913 99.8031 78.4482 91.0413 78.4482C82.2795 78.4482 75.1721 78.3913 75.1721 78.3201C75.1721 78.2489 82.2759 78.1919 91.0413 78.1919C99.8067 78.1919 106.91 78.2595 106.91 78.3201Z" fill="#E0E0E0"/>
<path d="M149.908 121.635C149.908 121.706 142.801 121.763 134.039 121.763C125.277 121.763 118.17 121.706 118.17 121.635C118.17 121.563 125.274 121.506 134.039 121.506C142.804 121.506 149.908 121.563 149.908 121.635Z" fill="#FAFAFA"/>
<path d="M167.453 126.312C167.453 126.384 156.419 126.441 142.797 126.441C129.176 126.441 118.141 126.384 118.141 126.312C118.141 126.241 129.172 126.184 142.797 126.184C156.422 126.184 167.453 126.241 167.453 126.312Z" fill="#455A64"/>
<path d="M86.4746 131.008C86.4746 131.079 83.8982 131.136 80.7179 131.136C77.5376 131.136 74.9648 131.079 74.9648 131.008C74.9648 130.937 77.5412 130.884 80.7179 130.884C83.8946 130.884 86.4746 130.923 86.4746 131.008Z" fill="#FAFAFA"/>
<path d="M178.727 131.008C178.727 131.079 176.151 131.136 172.974 131.136C169.798 131.136 167.232 131.062 167.232 131.008C167.232 130.955 169.808 130.884 172.989 130.884C176.169 130.884 178.727 130.923 178.727 131.008Z" fill="#FF6200"/>
<path d="M135.047 43.9731C135.047 43.9731 135.047 43.8592 135.047 43.6171C135.047 43.375 135.047 43.0475 135.047 42.6061C135.047 42.1646 135.047 41.6093 135.047 40.9614C135.034 40.6063 135.094 40.2523 135.226 39.9218C135.384 39.5475 135.637 39.2209 135.962 38.9749C136.322 38.6943 136.759 38.5293 137.216 38.5014C137.691 38.5014 138.181 38.5014 138.699 38.5014H142.054H150.23L197.555 38.448H223.641H230.194C230.433 38.4394 230.673 38.4537 230.909 38.4907C231.381 38.5775 231.815 38.8051 232.153 39.1434C232.492 39.4816 232.72 39.9145 232.806 40.3846C232.842 40.6119 232.856 40.8419 232.849 41.0717V41.741C232.849 45.301 232.849 48.594 232.849 51.6164C232.849 57.6684 232.828 62.5314 232.821 65.9134C232.821 67.5973 232.821 68.9074 232.821 69.8009C232.821 70.2424 232.821 70.5806 232.821 70.812C232.821 71.0434 232.821 71.168 232.821 71.168C232.821 71.168 232.821 71.0505 232.821 70.812C232.821 70.5734 232.821 70.2424 232.821 69.8009C232.821 68.9074 232.821 67.5973 232.803 65.9134C232.803 62.5314 232.803 57.6506 232.774 51.6164C232.774 48.594 232.774 45.2903 232.774 41.741V41.0717C232.783 40.8514 232.77 40.6308 232.735 40.4131C232.655 39.9702 232.441 39.5622 232.122 39.2439C231.802 38.9257 231.393 38.7126 230.948 38.6331C230.721 38.5984 230.491 38.5853 230.262 38.594H223.63H197.545L150.191 38.5655H142.015H138.66C138.145 38.5655 137.648 38.5655 137.184 38.5655C136.742 38.5922 136.317 38.7496 135.965 39.0176C135.652 39.2563 135.406 39.5714 135.251 39.9325C135.122 40.255 135.061 40.6003 135.072 40.9471C135.072 41.595 135.072 42.1433 135.072 42.5918C135.072 43.0333 135.072 43.3679 135.072 43.6029C135.072 43.8378 135.047 43.9731 135.047 43.9731Z" fill="#263238"/>
<path d="M233.696 71.1752C233.696 71.3561 233.642 71.533 233.541 71.6835C233.44 71.8339 233.297 71.9512 233.129 72.0204C232.961 72.0897 232.777 72.1078 232.599 72.0725C232.42 72.0372 232.257 71.9501 232.128 71.8221C232 71.6942 231.912 71.5311 231.877 71.3537C231.842 71.1762 231.86 70.9922 231.929 70.825C231.999 70.6579 232.117 70.515 232.268 70.4144C232.419 70.3139 232.596 70.2603 232.778 70.2603C233.021 70.2603 233.255 70.3566 233.427 70.5282C233.599 70.6998 233.696 70.9325 233.696 71.1752Z" fill="#263238"/>
<path d="M135.965 43.9731C135.966 44.1542 135.913 44.3315 135.812 44.4824C135.712 44.6333 135.569 44.7511 135.401 44.8209C135.233 44.8907 135.048 44.9094 134.87 44.8745C134.692 44.8396 134.528 44.7527 134.399 44.6249C134.27 44.4971 134.182 44.3341 134.147 44.1565C134.111 43.9789 134.129 43.7948 134.198 43.6274C134.268 43.46 134.385 43.3169 134.536 43.2162C134.688 43.1155 134.865 43.0618 135.047 43.0618C135.29 43.0618 135.523 43.1577 135.695 43.3285C135.867 43.4993 135.964 43.7311 135.965 43.9731Z" fill="#263238"/>
<path d="M87.729 47.8572V126.102H158.309H167.089H217.838V47.8572H87.729Z" fill="#FAFAFA"/>
<path d="M217.838 47.8572H87.729V53.6422H217.838V47.8572Z" fill="#E0E0E0"/>
<path d="M91.0665 51.6022C91.4829 51.6022 91.8204 51.2659 91.8204 50.851C91.8204 50.4362 91.4829 50.0999 91.0665 50.0999C90.6501 50.0999 90.3125 50.4362 90.3125 50.851C90.3125 51.2659 90.6501 51.6022 91.0665 51.6022Z" fill="#263238"/>
<path d="M94.6256 50.851C94.6256 50.9996 94.5814 51.1448 94.4986 51.2683C94.4157 51.3919 94.298 51.4881 94.1602 51.545C94.0224 51.6018 93.8708 51.6167 93.7246 51.5877C93.5783 51.5588 93.444 51.4872 93.3385 51.3822C93.2331 51.2771 93.1613 51.1433 93.1322 50.9976C93.1031 50.8519 93.118 50.7008 93.1751 50.5636C93.2321 50.4263 93.3288 50.309 93.4528 50.2264C93.5767 50.1439 93.7225 50.0999 93.8717 50.0999C93.9707 50.0999 94.0687 50.1193 94.1602 50.157C94.2517 50.1948 94.3348 50.2501 94.4048 50.3199C94.4748 50.3896 94.5303 50.4724 94.5682 50.5636C94.6061 50.6547 94.6256 50.7524 94.6256 50.851Z" fill="#263238"/>
<path d="M96.6766 51.6022C97.093 51.6022 97.4306 51.2659 97.4306 50.851C97.4306 50.4362 97.093 50.0999 96.6766 50.0999C96.2602 50.0999 95.9226 50.4362 95.9226 50.851C95.9226 51.2659 96.2602 51.6022 96.6766 51.6022Z" fill="#263238"/>
<path d="M150.795 60.3063C150.795 60.3491 148.14 60.3847 144.867 60.3847C141.593 60.3847 138.935 60.3491 138.935 60.3063C138.935 60.2636 141.59 60.228 144.867 60.228C148.143 60.228 150.795 60.2636 150.795 60.3063Z" fill="#263238"/>
<path d="M166.571 60.3063C166.571 60.3491 163.916 60.3847 160.639 60.3847C157.363 60.3847 154.711 60.3491 154.711 60.3063C154.711 60.2636 157.366 60.228 160.639 60.228C163.913 60.228 166.571 60.2636 166.571 60.3063Z" fill="#FF6200"/>
<path d="M182.344 60.3063C182.344 60.3491 179.689 60.3847 176.415 60.3847C173.142 60.3847 170.487 60.3491 170.487 60.3063C170.487 60.2636 173.139 60.228 176.415 60.228C179.692 60.228 182.344 60.2636 182.344 60.3063Z" fill="#263238"/>
<path d="M198.259 60.3063C198.259 60.3491 195.604 60.3847 192.331 60.3847C189.058 60.3847 186.399 60.3491 186.399 60.3063C186.399 60.2636 189.054 60.228 192.331 60.228C195.608 60.228 198.259 60.2636 198.259 60.3063Z" fill="#263238"/>
<path d="M212.085 62.1861C212.085 62.1861 212.185 62.1861 212.367 62.1362C212.633 62.0721 212.871 61.9264 213.049 61.7197C213.178 61.5798 213.273 61.4132 213.328 61.232C213.376 60.9978 213.39 60.7581 213.371 60.52C213.339 60.0251 213.489 59.3808 213.039 58.9109C212.821 58.671 212.519 58.5233 212.195 58.4979C211.838 58.4979 211.481 58.4979 211.123 58.4979H208.708H203.151C202.922 58.4999 202.698 58.5639 202.503 58.6831C202.308 58.8022 202.149 58.972 202.044 59.1743C201.943 59.3763 201.896 59.6006 201.908 59.8258V60.5378C201.891 60.7594 201.905 60.9823 201.951 61.1999C202.005 61.4055 202.112 61.5934 202.262 61.7446C202.407 61.8933 202.588 62.0034 202.787 62.065C202.989 62.1137 203.197 62.1317 203.405 62.1184L207.922 62.1362L210.97 62.1611H211.795H212.013C212.037 62.1568 212.061 62.1568 212.085 62.1611H212.013H211.795H210.97L207.922 62.1861H203.405C203.183 62.2007 202.96 62.1802 202.744 62.1255C202.521 62.0578 202.318 61.9354 202.154 61.7695C201.901 61.5112 201.758 61.1657 201.754 60.8048C201.754 60.6909 201.754 60.5734 201.754 60.4488V59.7368C201.745 59.4904 201.798 59.2457 201.908 59.0248C202.028 58.7977 202.207 58.607 202.426 58.4729C202.646 58.3388 202.897 58.2662 203.155 58.2629H208.686H211.102C211.481 58.2629 211.838 58.2629 212.199 58.2629C212.554 58.2919 212.884 58.458 213.117 58.7257C213.338 58.9614 213.465 59.2688 213.475 59.5908C213.475 59.8792 213.475 60.1533 213.475 60.4061C213.489 60.6449 213.47 60.8845 213.418 61.1181C213.361 61.3152 213.259 61.4967 213.121 61.6485C212.932 61.8562 212.682 61.9984 212.406 62.0543C212.307 62.1159 212.199 62.1604 212.085 62.1861Z" fill="#263238"/>
<path d="M114.518 58.2061H100.665C99.3029 58.2061 98.199 59.3058 98.199 60.6625C98.199 62.0191 99.3029 63.1189 100.665 63.1189H114.518C115.88 63.1189 116.984 62.0191 116.984 60.6625C116.984 59.3058 115.88 58.2061 114.518 58.2061Z" fill="#E0E0E0"/>
<path d="M126.439 74.5H98.7671V101.172H126.439V74.5Z" fill="#FF6200"/>
<g opacity="0.3">
<path d="M100.915 98.8897L108.569 85.1624L114.833 93.9378L118.635 89.2777L124.295 98.8897H100.915Z" fill="black"/>
</g>
<g opacity="0.3">
<path d="M117.498 82.4922C117.499 82.8854 117.383 83.2699 117.164 83.5972C116.945 83.9244 116.634 84.1796 116.269 84.3303C115.905 84.4811 115.503 84.5208 115.116 84.4442C114.729 84.3677 114.374 84.1784 114.094 83.9004C113.815 83.6224 113.625 83.2681 113.549 82.8824C113.472 82.4968 113.512 82.097 113.663 81.7339C113.814 81.3708 114.07 81.0606 114.399 80.8426C114.727 80.6246 115.113 80.5086 115.508 80.5093C116.036 80.5102 116.541 80.7194 116.914 81.0911C117.287 81.4628 117.497 81.9666 117.498 82.4922Z" fill="black"/>
</g>
<path opacity="0.3" d="M124.295 76.5935L100.918 76.5757L100.782 76.711V82.6989C100.782 84.6593 100.782 86.5757 100.782 88.4483C100.782 92.1827 100.782 95.7142 100.782 98.9645V99.0784H100.897L117.877 99.0179L122.619 98.9894H123.859H124.177H124.277C124.239 98.9841 124.201 98.9841 124.163 98.9894H123.834H122.569L117.802 98.961L101.008 98.904C101.008 95.7 101.008 92.1934 101.008 88.5017V82.6989C101.008 81.7211 101.008 80.7314 101.008 79.7298V76.8391L124.145 76.8213C124.166 83.4322 124.188 88.9253 124.202 92.8128C124.202 94.7566 124.224 96.2838 124.231 97.3412C124.231 97.8574 124.231 98.2596 124.231 98.5444C124.231 98.6726 124.231 98.7723 124.231 98.8542C124.231 98.936 124.231 98.961 124.231 98.9645C124.234 98.9314 124.234 98.898 124.231 98.8648C124.231 98.7901 124.231 98.6904 124.231 98.5658C124.231 98.2881 124.231 97.8965 124.231 97.3874C124.231 96.3372 124.231 94.8171 124.263 92.884C124.263 88.968 124.295 83.4002 124.32 76.7074V76.5935H124.295Z" fill="black"/>
<path d="M122.973 105.269C122.973 105.319 118.328 105.362 112.582 105.362C106.836 105.362 102.198 105.319 102.198 105.269C102.198 105.219 106.843 105.177 112.589 105.177C118.335 105.177 122.973 105.216 122.973 105.269Z" fill="#263238"/>
<path d="M127.136 108.356C127.136 108.409 120.786 108.452 112.957 108.452C105.127 108.452 98.7812 108.409 98.7812 108.356C98.7812 108.302 105.127 108.263 112.957 108.263C120.786 108.263 127.136 108.306 127.136 108.356Z" fill="#263238"/>
<path d="M127.136 111.35C127.136 111.399 120.786 111.442 112.957 111.442C105.127 111.442 98.7812 111.399 98.7812 111.35C98.7812 111.3 105.127 111.257 112.957 111.257C120.786 111.257 127.136 111.296 127.136 111.35Z" fill="#263238"/>
<path d="M127.136 114.34C127.136 114.39 120.786 114.433 112.957 114.433C105.127 114.433 98.7812 114.39 98.7812 114.34C98.7812 114.29 105.127 114.248 112.957 114.248C120.786 114.248 127.136 114.276 127.136 114.34Z" fill="#263238"/>
<path d="M110.484 117.331C110.484 117.38 107.861 117.423 104.631 117.423C101.401 117.423 98.7812 117.38 98.7812 117.331C98.7812 117.281 101.401 117.238 104.631 117.238C107.861 117.238 110.484 117.277 110.484 117.331Z" fill="#263238"/>
<path d="M166.7 74.5H139.028V101.172H166.7V74.5Z" fill="#FF6200"/>
<g opacity="0.3">
<path d="M141.175 98.8897L148.829 85.1624L155.09 93.9378L158.895 89.2777L164.556 98.8897H141.175Z" fill="black"/>
</g>
<g opacity="0.3">
<path d="M157.759 82.4922C157.76 82.8854 157.644 83.2699 157.425 83.5972C157.206 83.9244 156.895 84.1796 156.53 84.3303C156.166 84.4811 155.764 84.5208 155.377 84.4442C154.99 84.3677 154.635 84.1784 154.355 83.9004C154.076 83.6224 153.886 83.2681 153.81 82.8824C153.733 82.4968 153.773 82.097 153.924 81.7339C154.075 81.3708 154.331 81.0606 154.66 80.8426C154.988 80.6246 155.374 80.5086 155.769 80.5093C156.297 80.5102 156.802 80.7194 157.175 81.0911C157.548 81.4628 157.758 81.9666 157.759 82.4922Z" fill="black"/>
</g>
<path opacity="0.3" d="M164.556 76.5935L141.179 76.5757L141.043 76.711V82.6989C141.043 84.6593 141.043 86.5757 141.043 88.4483C141.043 92.1827 141.043 95.7142 141.043 98.9645V99.0784H141.158L158.138 99.0179L162.88 98.9894H164.12H164.438H164.538C164.5 98.9841 164.461 98.9841 164.424 98.9894H164.095H162.83L158.063 98.961L141.268 98.904C141.268 95.7 141.268 92.1934 141.268 88.5017V82.6989C141.268 81.7211 141.268 80.7314 141.268 79.7298V76.8391L164.406 76.8213C164.427 83.4322 164.449 88.9253 164.463 92.8128C164.463 94.7566 164.484 96.2838 164.491 97.3412C164.491 97.8574 164.491 98.2596 164.491 98.5444C164.491 98.6726 164.491 98.7723 164.491 98.8542C164.491 98.936 164.491 98.961 164.491 98.9645C164.495 98.9314 164.495 98.898 164.491 98.8648C164.491 98.7901 164.491 98.6904 164.491 98.5658C164.491 98.2881 164.491 97.8965 164.491 97.3874C164.491 96.3372 164.509 94.8171 164.524 92.884C164.524 88.968 164.556 83.4002 164.581 76.7074V76.5935H164.556Z" fill="black"/>
<path d="M163.233 105.269C163.233 105.319 158.588 105.362 152.842 105.362C147.096 105.362 142.451 105.319 142.451 105.269C142.451 105.219 147.096 105.177 152.842 105.177C158.588 105.177 163.233 105.216 163.233 105.269Z" fill="#263238"/>
<path d="M167.396 108.356C167.396 108.409 161.047 108.452 153.217 108.452C145.388 108.452 139.042 108.409 139.042 108.356C139.042 108.302 145.388 108.263 153.217 108.263C161.047 108.263 167.396 108.306 167.396 108.356Z" fill="#263238"/>
<path d="M167.396 111.35C167.396 111.399 161.047 111.442 153.217 111.442C145.388 111.442 139.042 111.399 139.042 111.35C139.042 111.3 145.388 111.257 153.217 111.257C161.047 111.257 167.396 111.296 167.396 111.35Z" fill="#263238"/>
<path d="M167.396 114.34C167.396 114.39 161.047 114.433 153.217 114.433C145.388 114.433 139.042 114.39 139.042 114.34C139.042 114.29 145.388 114.248 153.217 114.248C161.047 114.248 167.396 114.276 167.396 114.34Z" fill="#263238"/>
<path d="M150.745 117.331C150.745 117.38 148.122 117.423 144.892 117.423C141.661 117.423 139.042 117.38 139.042 117.331C139.042 117.281 141.661 117.238 144.892 117.238C148.122 117.238 150.745 117.277 150.745 117.331Z" fill="#263238"/>
<path d="M206.214 74.5H178.542V101.172H206.214V74.5Z" fill="#FF6200"/>
<g opacity="0.3">
<path d="M180.686 98.8897L188.343 85.1624L194.604 93.9378L198.41 89.2777L204.07 98.8897H180.686Z" fill="black"/>
</g>
<g opacity="0.3">
<path d="M197.27 82.4922C197.27 82.8844 197.153 83.2678 196.934 83.5939C196.715 83.9199 196.405 84.1741 196.041 84.3242C195.677 84.4743 195.277 84.5135 194.891 84.437C194.505 84.3605 194.15 84.1717 193.872 83.8943C193.593 83.617 193.404 83.2637 193.327 82.879C193.25 82.4944 193.29 82.0957 193.44 81.7334C193.591 81.371 193.846 81.0613 194.173 80.8435C194.501 80.6256 194.886 80.5093 195.279 80.5093C195.807 80.5093 196.313 80.7182 196.687 81.0901C197.06 81.4619 197.27 81.9663 197.27 82.4922Z" fill="black"/>
</g>
<path opacity="0.3" d="M204.07 76.5935L180.689 76.5757L180.557 76.711V82.6989C180.557 84.6593 180.557 86.5757 180.557 88.4483C180.557 92.1827 180.557 95.7142 180.557 98.9645V99.0784H180.671L197.652 99.0179L202.394 98.9894H203.637H203.952H204.055C204.017 98.9846 203.979 98.9846 203.941 98.9894H203.612H202.347L197.605 98.9076L180.811 98.8506C180.811 95.6466 180.811 92.14 180.811 88.4483C180.811 86.5805 180.811 84.664 180.811 82.6989V76.8391L203.948 76.8213C203.973 83.4322 203.991 88.9253 204.005 92.8128C204.005 94.7566 204.03 96.2838 204.037 97.3412C204.037 97.8574 204.037 98.2596 204.037 98.5444C204.037 98.6726 204.037 98.7723 204.037 98.8542C204.035 98.8909 204.035 98.9278 204.037 98.9645C204.037 98.9645 204.037 98.9325 204.037 98.8648C204.037 98.7972 204.037 98.6904 204.037 98.5658C204.037 98.2881 204.037 97.8965 204.037 97.3874C204.037 96.3372 204.055 94.8171 204.066 92.884C204.066 88.968 204.102 83.4002 204.127 76.7074V76.5935H204.07Z" fill="black"/>
<path d="M202.744 105.269C202.744 105.319 198.098 105.362 192.356 105.362C186.614 105.362 181.965 105.319 181.965 105.269C181.965 105.219 186.61 105.177 192.356 105.177C198.102 105.177 202.744 105.216 202.744 105.269Z" fill="#263238"/>
<path d="M206.896 108.356C206.896 108.409 200.55 108.452 192.721 108.452C184.891 108.452 178.545 108.409 178.545 108.356C178.545 108.302 184.891 108.263 192.721 108.263C200.55 108.263 206.896 108.306 206.896 108.356Z" fill="#263238"/>
<path d="M206.896 111.35C206.896 111.399 200.55 111.442 192.721 111.442C184.891 111.442 178.545 111.399 178.545 111.35C178.545 111.3 184.891 111.257 192.721 111.257C200.55 111.257 206.896 111.296 206.896 111.35Z" fill="#263238"/>
<path d="M206.896 114.34C206.896 114.39 200.55 114.433 192.721 114.433C184.891 114.433 178.545 114.39 178.545 114.34C178.545 114.29 184.891 114.248 192.721 114.248C200.55 114.248 206.896 114.276 206.896 114.34Z" fill="#263238"/>
<path d="M190.255 117.331C190.255 117.38 187.636 117.423 184.405 117.423C181.175 117.423 178.556 117.38 178.556 117.331C178.556 117.281 181.172 117.238 184.405 117.238C187.639 117.238 190.255 117.277 190.255 117.331Z" fill="#263238"/>
<path d="M217.838 66.4651C217.838 66.515 188.733 66.5577 152.842 66.5577C116.952 66.5577 87.8398 66.515 87.8398 66.4651C87.8398 66.4153 116.937 66.3726 152.842 66.3726C188.747 66.3726 217.838 66.4153 217.838 66.4651Z" fill="#E0E0E0"/>
<path d="M87.729 47.8571L217.838 47.7681H217.923V47.8571C217.923 71.9262 217.923 98.377 217.923 126.092V126.195H217.831L87.7219 126.174H87.6504V126.102C87.6933 78.1669 87.7219 48.4409 87.7219 47.8571C87.7219 48.4409 87.7504 78.1669 87.7969 126.102L87.7219 126.028L217.838 126.024L217.745 126.117C217.745 98.402 217.745 71.9511 217.745 47.882L217.831 47.9674L87.729 47.8571Z" fill="#263238"/>
<path d="M31.113 87.9321H14.5756C14.3027 87.9321 14.0325 87.8783 13.7805 87.7738C13.5286 87.6693 13.2999 87.5162 13.1075 87.3233C12.9152 87.1304 12.7631 86.9015 12.66 86.6498C12.5569 86.398 12.5048 86.1285 12.5066 85.8566V63.0512C12.5066 62.5046 12.7246 61.9803 13.1126 61.5937C13.5006 61.2072 14.0269 60.99 14.5756 60.99H25.0633L33.1819 69.3275V85.8566C33.1838 86.1285 33.1317 86.398 33.0286 86.6498C32.9254 86.9015 32.7733 87.1304 32.581 87.3233C32.3887 87.5162 32.16 87.6693 31.9081 87.7738C31.6561 87.8783 31.3859 87.9321 31.113 87.9321Z" fill="#FF6200"/>
<g opacity="0.2">
<path d="M12.5066 79.7441H33.1819V84.7032C33.1819 85.553 32.8431 86.3679 32.24 86.9688C31.6368 87.5697 30.8188 87.9072 29.9659 87.9072H15.7762C14.9109 87.9072 14.0809 87.5655 13.468 86.9569C12.8552 86.3484 12.5094 85.5226 12.5066 84.6605V79.7441Z" fill="black"/>
</g>
<g opacity="0.2">
<path d="M25.0632 60.99V67.398C25.0632 67.9069 25.2662 68.395 25.6274 68.7548C25.9886 69.1147 26.4784 69.3168 26.9893 69.3168H33.1818L25.0632 60.99Z" fill="white"/>
</g>
<g opacity="0.2">
<path d="M25.149 67.9712C25.149 67.9712 25.0668 69.5269 26.8464 70.0396C26.913 70.06 26.9811 70.0755 27.05 70.0858C27.8576 70.2282 33.1819 71.1752 33.1819 71.0506V69.3276H26.9893C26.9893 69.3276 25.442 69.2742 25.149 67.9712Z" fill="black"/>
</g>
<path d="M18.4277 83.3041C18.4597 82.9649 18.5888 82.6419 18.7996 82.3736C19.0104 82.1053 19.294 81.9029 19.6169 81.7904C19.9397 81.678 20.2882 81.6602 20.6208 81.7392C20.9535 81.8182 21.2565 81.9907 21.4937 82.2361L21.0184 82.674C20.9193 82.5559 20.7951 82.4612 20.6549 82.3965C20.5146 82.3319 20.3618 82.299 20.2073 82.3002C19.9343 82.3002 19.6726 82.4082 19.4796 82.6005C19.2866 82.7928 19.1781 83.0536 19.1781 83.3255C19.1781 83.5974 19.2866 83.8582 19.4796 84.0505C19.6726 84.2427 19.9343 84.3508 20.2073 84.3508C20.3625 84.3524 20.5162 84.3189 20.6567 84.2529C20.7971 84.187 20.9208 84.0902 21.0184 83.9698L21.4937 84.4113C21.2574 84.6661 20.9508 84.8458 20.6125 84.9279C20.2741 85.0099 19.9189 84.9906 19.5915 84.8723C19.2641 84.7541 18.9791 84.5422 18.772 84.2633C18.565 83.9843 18.4452 83.6506 18.4277 83.3041Z" fill="#FAFAFA"/>
<path d="M21.7151 84.5927L21.9652 84.0338C22.2798 84.252 22.6539 84.3688 23.0372 84.3684C23.4803 84.3684 23.659 84.2224 23.659 84.0124C23.659 83.4108 21.7901 83.8237 21.7901 82.6347C21.7901 82.09 22.2296 81.6379 23.1444 81.6379C23.5347 81.6302 23.9198 81.7273 24.2593 81.9191L24.0306 82.4816C23.7601 82.3245 23.4539 82.2387 23.1408 82.2324C22.6978 82.2324 22.5298 82.3962 22.5298 82.5884C22.5298 83.1758 24.3987 82.77 24.3987 83.9448C24.3987 84.4823 23.952 84.938 23.0336 84.938C22.569 84.9603 22.1087 84.8397 21.7151 84.5927Z" fill="#FAFAFA"/>
<path d="M24.656 84.5929L24.9097 84.034C25.2242 84.2522 25.5984 84.369 25.9817 84.3686C26.4248 84.3686 26.6035 84.2226 26.6035 84.0126C26.6035 83.411 24.731 83.8239 24.731 82.6349C24.731 82.0902 25.1741 81.6381 26.0889 81.6381C26.4791 81.6307 26.8641 81.7278 27.2038 81.9193L26.9751 82.4818C26.7035 82.3242 26.396 82.2385 26.0818 82.2326C25.6422 82.2326 25.4707 82.3964 25.4707 82.5886C25.4707 83.176 27.3432 82.7702 27.3432 83.945C27.3432 84.4825 26.8965 84.9382 25.9781 84.9382C25.5124 84.9598 25.0512 84.8394 24.656 84.5929Z" fill="#FAFAFA"/>
<path d="M19.4747 72.9409C19.832 73.0441 19.9714 73.2542 19.9714 73.7633V74.9416C19.9639 75.0137 19.9728 75.0866 19.9974 75.1548C20.022 75.223 20.0617 75.2849 20.1135 75.3358C20.1652 75.3867 20.2278 75.4254 20.2966 75.449C20.3654 75.4725 20.4387 75.4804 20.5109 75.4721H20.6432V76.3692H20.2144C19.2924 76.3692 18.8172 75.8993 18.8172 75.052V73.7205C18.8172 73.4856 18.6921 73.3645 18.4956 73.3645H18.249V72.4639H18.4956C18.6921 72.4639 18.8172 72.3535 18.8172 72.1079V70.7764C18.8172 69.9291 19.2924 69.4592 20.2144 69.4592H20.6432V70.3564H20.5109C20.4373 70.3476 20.3627 70.3557 20.2927 70.38C20.2227 70.4044 20.1593 70.4444 20.1072 70.497C20.0551 70.5495 20.0158 70.6133 19.9923 70.6833C19.9687 70.7533 19.9616 70.8278 19.9714 70.901V72.0794C19.9714 72.6241 19.8177 72.8377 19.4747 72.9409Z" fill="#FAFAFA"/>
<path d="M27.4395 72.4888V73.3895H27.1966C27.15 73.3855 27.1031 73.3922 27.0595 73.4091C27.016 73.4261 26.977 73.4529 26.9455 73.4873C26.914 73.5218 26.891 73.563 26.8781 73.6078C26.8653 73.6526 26.863 73.6997 26.8714 73.7455V75.077C26.8714 75.9242 26.3997 76.3941 25.4742 76.3941H25.0454V75.4721H25.1812C25.254 75.4817 25.3281 75.4746 25.3978 75.4516C25.4675 75.4285 25.531 75.39 25.5836 75.3389C25.6363 75.2879 25.6766 75.2256 25.7016 75.1568C25.7266 75.088 25.7356 75.0144 25.7279 74.9417V73.7633C25.7279 73.2542 25.8816 73.0513 26.221 72.941C25.8637 72.8377 25.7279 72.6241 25.7279 72.115V70.9367C25.7377 70.8635 25.7306 70.789 25.707 70.719C25.6835 70.6489 25.6442 70.5852 25.5921 70.5326C25.54 70.48 25.4766 70.44 25.4066 70.4157C25.3366 70.3913 25.262 70.3832 25.1883 70.392H25.0526V69.4949H25.4814C26.4069 69.4949 26.8785 69.9648 26.8785 70.8121V72.1435C26.8701 72.1893 26.8724 72.2365 26.8853 72.2813C26.8981 72.326 26.9212 72.3673 26.9526 72.4017C26.9841 72.4362 27.0231 72.4629 27.0667 72.4799C27.1102 72.4968 27.1571 72.5036 27.2037 72.4995L27.4395 72.4888Z" fill="#FAFAFA"/>
<path d="M44.0341 93.1973C43.9163 93.2189 43.7965 93.2273 43.6768 93.2222L42.6656 93.2401L39.0029 93.2721H38.9493V93.1938C38.9493 91.1753 38.9493 88.6655 38.9493 85.9456C38.9493 84.2546 38.9493 82.6419 38.9493 81.1717C38.9493 80.4419 38.9493 79.7477 38.9493 79.0891C38.9623 78.9425 38.9407 78.795 38.886 78.6584C38.8314 78.5217 38.7454 78.3998 38.6348 78.3023C38.529 78.214 38.4065 78.1477 38.2746 78.1073C38.1426 78.0669 38.0039 78.0534 37.8666 78.0673L35.2294 78.0389L34.5148 78.0211C34.4317 78.031 34.3477 78.031 34.2646 78.0211C34.347 78.0052 34.431 77.9992 34.5148 78.0033H35.2294L37.8666 77.9748C38.0203 77.9576 38.176 77.9711 38.3245 78.0145C38.4729 78.0579 38.6112 78.1303 38.7313 78.2275C38.8552 78.3403 38.9517 78.4797 39.0136 78.6351C39.0755 78.7905 39.1012 78.9579 39.0886 79.1247C39.0886 79.7797 39.0886 80.4775 39.0886 81.2073C39.0886 82.6775 39.0886 84.2902 39.0886 85.9812C39.0886 88.7011 39.0886 91.2109 39.0886 93.2294L39.0136 93.1546L42.6763 93.1867L43.6875 93.208C43.8026 93.1956 43.9185 93.1921 44.0341 93.1973Z" fill="#263238"/>
<path d="M33.968 108.167C34.0343 108.157 34.1018 108.157 34.1681 108.167L34.7399 108.149L36.8481 108.121C37.2912 108.092 37.8022 108.196 38.2346 107.936C38.4642 107.802 38.6502 107.606 38.77 107.37C38.8899 107.133 38.9385 106.867 38.9099 106.604C38.9099 105.429 38.9099 104.141 38.9099 102.792C38.9099 100.097 38.9314 97.658 38.9385 95.8637C38.9385 94.9951 38.96 94.2831 38.9671 93.7633C38.9671 93.5319 38.9671 93.3433 38.9671 93.1937C38.9617 93.1274 38.9617 93.0607 38.9671 92.9944C38.9834 93.0595 38.9906 93.1266 38.9886 93.1937C38.9886 93.3433 38.9886 93.5319 38.9886 93.7633C38.9886 94.2831 38.9886 94.9951 39.0171 95.8637C39.0171 97.6437 39.035 100.097 39.0422 102.792C39.0422 104.141 39.0422 105.429 39.0422 106.604C39.0485 106.754 39.0389 106.905 39.0136 107.053C38.9856 107.199 38.935 107.339 38.8635 107.469C38.7337 107.713 38.5382 107.916 38.2989 108.055C38.0596 108.194 37.7861 108.264 37.5092 108.256H36.7945L34.6863 108.228L34.1145 108.21C34.0642 108.201 34.0151 108.187 33.968 108.167Z" fill="#263238"/>
<path d="M45.4921 93.1974C45.4921 93.3382 45.4502 93.4758 45.3716 93.5929C45.2931 93.71 45.1815 93.8013 45.0509 93.8551C44.9203 93.909 44.7766 93.9231 44.638 93.8957C44.4994 93.8682 44.372 93.8004 44.2721 93.7008C44.1721 93.6012 44.1041 93.4744 44.0765 93.3363C44.0489 93.1981 44.0631 93.055 44.1171 92.9249C44.1712 92.7948 44.2628 92.6836 44.3804 92.6053C44.4979 92.5271 44.6361 92.4854 44.7774 92.4854C44.967 92.4854 45.1487 92.5604 45.2828 92.6939C45.4168 92.8274 45.4921 93.0085 45.4921 93.1974Z" fill="#263238"/>
<path d="M31.0594 121.207H15.0437C14.512 121.207 14.0021 120.997 13.6262 120.622C13.2503 120.248 13.0391 119.74 13.0391 119.21V97.1383C13.0391 96.6086 13.2503 96.1006 13.6262 95.7261C14.0021 95.3515 14.512 95.1411 15.0437 95.1411H25.1991L33.0604 103.215V119.235C33.0539 119.76 32.8403 120.261 32.4658 120.63C32.0913 120.999 31.5861 121.207 31.0594 121.207Z" fill="#FF6200"/>
<g opacity="0.2">
<path d="M13.0391 113.293H33.0497V118.277C33.0497 119.053 32.7406 119.796 32.1905 120.344C31.6403 120.892 30.8941 121.2 30.116 121.2H15.9299C15.1632 121.2 14.4279 120.897 13.8858 120.357C13.3436 119.817 13.0391 119.084 13.0391 118.32V113.293Z" fill="black"/>
</g>
<path d="M20.1357 118.399L20.6396 117.797C20.7149 117.921 20.8193 118.024 20.9438 118.099C21.0684 118.173 21.2092 118.216 21.3542 118.224C21.7116 118.224 21.9117 118.007 21.9117 117.58V115.722H20.5431V115.01H22.8229V117.541C22.8229 118.505 22.3333 118.982 21.4114 118.982C21.168 118.989 20.9263 118.94 20.7051 118.839C20.4838 118.738 20.289 118.587 20.1357 118.399Z" fill="#FAFAFA"/>
<path d="M23.3623 118.619L23.6553 117.996C23.9714 118.186 24.3332 118.287 24.7023 118.288C25.1061 118.288 25.2562 118.181 25.2562 118.014C25.2562 117.523 23.4373 118.014 23.4373 116.825C23.4373 116.255 23.9519 115.853 24.8309 115.853C25.2326 115.846 25.63 115.936 25.9887 116.117L25.6993 116.736C25.4347 116.587 25.1351 116.509 24.8309 116.512C24.4379 116.512 24.2699 116.636 24.2699 116.793C24.2699 117.306 26.0888 116.793 26.0888 117.989C26.0888 118.548 25.5706 118.943 24.6594 118.943C24.206 118.95 23.7587 118.839 23.3623 118.619Z" fill="#FAFAFA"/>
<path d="M17.2805 109.139L17.9094 108.406C18.0766 108.674 18.3089 108.896 18.585 109.051C18.8611 109.205 19.172 109.289 19.4888 109.292C20.3429 109.292 20.7895 108.772 20.7895 107.761V103.532H18.0488V102.592H21.858V107.718C21.858 109.399 21.0361 110.228 19.4888 110.228C19.0596 110.239 18.6341 110.146 18.2493 109.956C17.8645 109.766 17.532 109.486 17.2805 109.139Z" fill="#FAFAFA"/>
<path d="M23.1909 109.538L23.6269 108.719C24.2253 109.108 24.9243 109.314 25.6387 109.313C26.6035 109.313 27.0037 109.022 27.0037 108.537C27.0037 107.252 23.3767 108.363 23.3767 106.088C23.3767 105.063 24.2951 104.372 25.7673 104.372C26.5026 104.358 27.2286 104.537 27.872 104.892L27.4289 105.711C26.9325 105.402 26.356 105.244 25.7709 105.259C24.8632 105.259 24.4201 105.593 24.4201 106.045C24.4201 107.395 28.0578 106.295 28.0578 108.516C28.0578 109.552 27.1037 110.207 25.5779 110.207C24.7322 110.233 23.8988 110 23.1909 109.538Z" fill="#FAFAFA"/>
<g opacity="0.3">
<path d="M25.1992 95.1267V101.342C25.1992 101.835 25.3957 102.308 25.7455 102.656C26.0954 103.005 26.5698 103.201 27.0645 103.201H33.0641L25.1992 95.1267Z" fill="white"/>
</g>
<g opacity="0.2">
<path d="M25.2812 101.887C25.2849 102.358 25.4498 102.813 25.7488 103.178C26.0477 103.542 26.4627 103.794 26.925 103.891L27.1215 103.938C27.9041 104.077 33.064 105.006 33.064 104.87V103.201H27.0643C27.0643 103.201 25.5671 103.151 25.2812 101.887Z" fill="black"/>
</g>
</svg>
