<svg width="405" height="469" viewBox="0 0 405 469" fill="none" xmlns="http://www.w3.org/2000/svg">
<g clip-path="url(#clip0_27_4646)">
<path fill-rule="evenodd" clip-rule="evenodd" d="M394.308 141.584L354.272 118.326L363.566 74.2271V74.2032L363.572 74.1912V74.1763H363.575V74.1614L363.581 74.1524V74.1345H363.584V74.1195L363.59 74.1106V74.1016L363.596 74.0867V74.0688L363.602 74.0628V74.0508L363.608 74.0389L363.614 74.018L363.62 74V73.9911L363.626 73.9821L363.632 73.9642L363.638 73.9463V73.9403L363.643 73.9284L363.649 73.9134L363.655 73.8925V73.8865L363.661 73.8716L363.667 73.8597V73.8537L363.676 73.8358L363.682 73.8178V73.8089L363.691 73.7999L363.7 73.782L363.709 73.7611V73.7551L363.718 73.7432L363.724 73.7282L363.733 73.7043L363.742 73.6864L363.748 73.6745V73.6655L363.763 73.6476L363.772 73.6296V73.6207L363.784 73.6087L363.793 73.5938L363.805 73.5729V73.5669L363.817 73.552L363.826 73.54V73.5341L363.841 73.5161L363.853 73.4982L363.859 73.4893L363.865 73.4803L363.877 73.4654L363.889 73.4474V73.4415L363.9 73.4295L363.915 73.4116L363.927 73.3937L363.939 73.3787L363.948 73.3698L363.954 73.3638L363.969 73.3489L363.984 73.3339L363.99 73.3279L363.999 73.319L364.011 73.307L364.026 73.2921H364.029L364.041 73.2772L364.053 73.2682H364.059L364.074 73.2503L364.089 73.2383L364.098 73.2324L364.107 73.2264L364.122 73.2144L364.14 73.2025H364.145L364.157 73.1905C364.319 73.0979 364.519 73.0711 364.755 73.1637L404.788 96.4214C403.476 95.7015 398.151 128.566 394.302 141.569L394.308 141.584Z" fill="url(#paint0_linear_27_4646)"/>
<path fill-rule="evenodd" clip-rule="evenodd" d="M363.569 74.2271C380.383 93.4881 400.44 105.386 398.48 122.102L394.311 141.584L354.275 118.326L363.572 74.2271H363.569Z" fill="#E23B93"/>
<path fill-rule="evenodd" clip-rule="evenodd" d="M393.753 92.3798L392.847 137.103L350.857 112.874L350.982 68.5336L393.753 92.3798Z" fill="#F2F4FF"/>
<path fill-rule="evenodd" clip-rule="evenodd" d="M392.973 92.7682L393.851 92.2574L393.726 136.598L392.847 137.103L392.973 92.7682Z" fill="#C5DBF1"/>
<path fill-rule="evenodd" clip-rule="evenodd" d="M350.982 68.5336L351.864 68.0228L393.851 92.2574L392.973 92.7682L350.982 68.5336Z" fill="#DCE8F8"/>
<path fill-rule="evenodd" clip-rule="evenodd" d="M391.374 127.512L391.365 130.307L352.5 107.877L352.509 105.081L391.374 127.512ZM391.461 95.3641V98.16L352.593 75.7297L352.602 72.9337L391.461 95.3641ZM391.449 99.9553L352.587 77.5249L352.578 80.3209L391.437 102.751L391.446 99.9553H391.449ZM391.437 104.549L352.572 82.1221V84.9181L391.428 107.345L391.437 104.549ZM391.425 109.144L352.56 86.7133L352.551 89.5093L391.416 111.94L391.425 109.144ZM391.413 113.735L352.548 91.3046L352.539 94.1005L391.404 116.531L391.413 113.735ZM391.401 118.329L352.536 95.8988L352.527 98.6947L391.392 121.125L391.401 118.329ZM391.389 122.923L352.524 100.493L352.515 103.289L391.38 125.719L391.389 122.923Z" fill="#C5DBF1"/>
<path fill-rule="evenodd" clip-rule="evenodd" d="M383.476 109.532L393.021 143.083C393.149 143.43 393.418 143.95 393.609 144.153L353.576 120.898C353.227 120.701 353.038 120.154 352.988 119.832L343.443 86.2802L343.452 86.2862L341.662 79.9953C341.57 79.5143 341.91 78.9587 342.006 78.8572C343.667 80.3717 352.545 85.8023 354.183 86.7641C356.926 88.9119 357.019 91.5644 361.172 95.9645C361.967 96.8068 362.242 97.0279 363.228 97.6104L383.479 109.535L383.476 109.532Z" fill="url(#paint1_linear_27_4646)"/>
<path fill-rule="evenodd" clip-rule="evenodd" d="M383.969 108.242C384.035 108.182 384.104 108.134 384.167 108.098C384.48 107.919 384.761 107.997 384.854 108.304L394.309 141.584L403.602 97.4849C403.686 97.0726 403.972 96.6694 404.28 96.4901C404.346 96.4543 404.412 96.4244 404.474 96.4065C404.857 96.3049 405.084 96.6305 404.973 97.1264L395.626 141.521C395.465 142.292 395.268 142.868 395.059 143.26C394.849 143.666 394.592 143.944 394.306 144.108C394.022 144.272 393.774 144.269 393.565 144.126C393.355 143.968 393.173 143.621 393.024 143.089L383.476 109.535C383.375 109.162 383.596 108.579 383.969 108.242Z" fill="#E23B93"/>
<path fill-rule="evenodd" clip-rule="evenodd" d="M364.474 96.3169L384.669 108.047C384.143 107.79 383.339 108.97 383.476 109.532L363.082 97.685C362.4 97.2907 361.979 97.0577 361.381 96.5857C358.483 94.2976 357.114 91.1611 355.22 88.625C354.679 87.9022 354.138 87.3943 353.597 86.9821C353.095 86.7073 352.826 86.5609 352.916 86.6057L341.659 79.9833C341.576 79.5053 341.91 78.9557 342.006 78.8541C342.218 78.6271 342.553 78.3493 342.855 78.5076L354.129 85.142C354.039 85.0972 354.305 85.2436 354.81 85.5184C355.351 85.9306 355.895 86.4385 356.433 87.1613C358.438 89.8468 359.872 92.8638 363.121 95.4237C363.584 95.7882 363.966 96.0242 364.471 96.3169H364.474Z" fill="#FB84B6"/>
<path fill-rule="evenodd" clip-rule="evenodd" d="M277.362 45.5775C266.652 39.3882 257.314 24.7931 256.496 12.9671C255.677 1.14699 263.688 -3.42929 274.395 2.76004C285.096 8.94638 294.443 23.5505 295.262 35.3705C296.08 47.1966 288.063 51.7609 277.362 45.5775Z" fill="url(#paint2_linear_27_4646)"/>
<path fill-rule="evenodd" clip-rule="evenodd" d="M282.607 15.7391L285.445 17.158L272.838 36.3414L261.707 19.8435L265.374 21.2743L271.251 26.8542L282.607 15.7391Z" fill="white"/>
<g style="mix-blend-mode:multiply" opacity="0.5">
<path fill-rule="evenodd" clip-rule="evenodd" d="M340.189 393.115L217.517 323.076C212.963 320.997 206.276 319.034 201.808 321.755L190.385 328.712C188.087 330.113 180.526 334.758 185.583 337.506C200.455 345.59 295.483 401.093 310.585 409.305C313.442 410.858 317.619 411.42 322.006 411.056C326.372 410.694 330.908 409.511 334.374 407.372L338.937 404.558C342.164 402.569 343.948 400.397 344.122 398.312C344.289 396.275 342.98 394.387 340.186 393.112L340.189 393.115Z" fill="#9E9BF5"/>
</g>
<path fill-rule="evenodd" clip-rule="evenodd" d="M336.768 385.527C336.75 391.49 334.622 395.687 331.225 397.661L325.828 400.905C307.319 393.01 314.189 299.25 313.059 272.596L318.743 132.712C313.965 124.366 295.581 117.08 299.872 100.036L245.628 74.6511C243.219 73.0142 179.917 36.3681 191.281 29.4947C193.182 28.3447 195.061 27.1887 196.938 26.0984C201.133 23.6161 206.479 25.1514 210.406 27.4157L318.345 89.306C328.939 95.4087 337.249 110.174 337.219 121.979L336.768 385.53V385.527Z" fill="url(#paint3_linear_27_4646)"/>
<path fill-rule="evenodd" clip-rule="evenodd" d="M185.765 41.6225C185.78 35.7767 187.806 31.6275 191.087 29.6053C194.544 27.4754 199.394 27.7055 204.758 30.8031L312.698 92.6904C323.144 98.7214 331.601 113.364 331.568 125.367L331.117 388.915C331.084 400.914 322.568 405.765 312.121 399.737L204.184 337.85C193.725 331.813 185.278 317.176 185.314 305.174L185.765 41.6255V41.6225Z" fill="white"/>
<path fill-rule="evenodd" clip-rule="evenodd" d="M185.765 41.6225C185.78 35.7767 187.806 31.6275 191.087 29.6053C194.544 27.4754 199.394 27.7055 204.758 30.8031L312.698 92.6904C323.144 98.7214 331.601 113.364 331.568 125.367L331.117 388.915C331.084 400.914 322.568 405.765 312.121 399.737L204.184 337.85C193.725 331.813 185.278 317.176 185.314 305.174L185.765 41.6255V41.6225Z" fill="url(#paint4_linear_27_4646)"/>
<path fill-rule="evenodd" clip-rule="evenodd" d="M316.496 114.676C319.325 116.31 321.623 114.995 321.632 111.748C321.641 108.498 319.355 104.543 316.528 102.909C313.702 101.279 311.401 102.587 311.392 105.837C311.383 109.087 313.669 113.042 316.496 114.676Z" fill="#485AF4"/>
<path fill-rule="evenodd" clip-rule="evenodd" d="M234.541 61.8603C234.541 60.9761 235.172 60.6266 235.943 61.0867C247.16 67.4224 265.541 77.7638 276.755 84.0995C277.526 84.5565 278.151 85.6468 278.148 86.534V88.2845C278.148 89.1686 277.517 89.5181 276.746 89.0581C265.529 82.7224 247.148 72.381 235.931 66.0453C235.16 65.5883 234.535 64.498 234.538 63.6138V61.8633L234.541 61.8603Z" fill="#485AF4"/>
<path fill-rule="evenodd" clip-rule="evenodd" d="M233.75 169.917C233.756 167.509 235.462 166.562 237.562 167.808L284.997 194.599C287.095 195.845 288.792 198.814 288.786 201.222V205.989C288.777 208.397 287.068 209.344 284.973 208.098L237.539 181.304C235.438 180.058 233.744 177.092 233.75 174.681V169.914V169.917Z" fill="#6BB6FF"/>
<path opacity="0.5" fill-rule="evenodd" clip-rule="evenodd" d="M208.989 177.677C208.995 175.556 210.498 174.723 212.348 175.819C239.242 191.009 283.318 215.808 310.209 230.997C312.055 232.097 313.552 234.71 313.546 236.831V241.031C313.541 243.152 312.034 243.985 310.188 242.889C283.294 227.7 239.218 202.9 212.327 187.708C210.477 186.609 208.983 183.998 208.989 181.874V177.674V177.677Z" fill="#6BB6FF"/>
<path style="mix-blend-mode:multiply" opacity="0.5" fill-rule="evenodd" clip-rule="evenodd" d="M214.23 218.891C214.239 215.766 216.454 214.502 219.176 216.074C248.024 232.613 276.812 249.736 305.663 266.278C308.383 267.85 310.585 271.661 310.576 274.786L310.717 388.945C310.708 392.069 308.49 393.33 305.771 391.762C276.923 375.219 248.129 358.097 219.284 341.557C216.561 339.986 214.362 336.174 214.371 333.05L214.23 218.891Z" fill="url(#paint5_linear_27_4646)"/>
<path fill-rule="evenodd" clip-rule="evenodd" d="M212.064 216.91L215.375 215.255C216.203 214.87 217.305 214.977 218.51 215.673C245.774 231.305 272.978 247.486 300.246 263.118C302.816 264.603 304.898 268.205 304.889 271.156L305.024 379.045C305.021 380.279 304.65 381.205 304.038 381.758C303.425 382.31 301.011 383.35 300.153 383.78C272.889 368.148 245.875 349.891 218.614 334.259C216.041 332.775 213.961 329.172 213.97 326.221L212.067 216.907L212.064 216.91Z" fill="url(#paint6_linear_27_4646)"/>
<path fill-rule="evenodd" clip-rule="evenodd" d="M210.588 219.96C210.597 217.006 212.689 215.811 215.261 217.298C242.526 232.93 269.733 249.111 296.998 264.743C299.568 266.228 301.647 269.83 301.641 272.781L301.776 380.67C301.767 383.622 299.672 384.817 297.102 383.332C269.838 367.7 242.627 351.516 215.366 335.887C212.793 334.403 210.713 330.8 210.722 327.849L210.588 219.963V219.96Z" fill="url(#paint7_linear_27_4646)"/>
<path fill-rule="evenodd" clip-rule="evenodd" d="M244.827 265.836C244.827 264.925 245.146 264.277 245.657 263.963C246.195 263.632 246.951 263.668 247.788 264.148L251.442 266.245C252.999 268.292 254.867 270.048 256.836 271.186C258.832 272.339 260.625 272.68 262.024 272.312L264.608 273.794C266.237 274.735 267.555 277.017 267.549 278.887L267.531 289.93C259.953 285.521 252.381 281.086 244.806 276.671L244.824 265.833L244.827 265.836ZM256.687 269.023C260.527 271.24 263.401 269.603 263.108 265.361C262.816 261.123 259.463 255.883 255.623 253.664C251.783 251.444 248.908 253.084 249.201 257.326C249.494 261.568 252.844 266.804 256.687 269.023Z" fill="white"/>
<path fill-rule="evenodd" clip-rule="evenodd" d="M215.289 270.777C215.292 269.552 216.158 269.056 217.225 269.675C243.183 284.557 269.133 299.444 295.089 314.329C296.152 314.945 297.016 316.438 297.013 317.66L297.07 329.77C297.067 330.994 296.197 331.487 295.133 330.875C269.175 315.99 243.225 301.102 217.27 286.22C216.203 285.605 215.342 284.112 215.345 282.89L215.289 270.78V270.777Z" fill="white"/>
<path fill-rule="evenodd" clip-rule="evenodd" d="M228.64 324.581C228.643 323.356 229.509 322.863 230.576 323.479C244.606 331.523 258.647 339.547 272.677 347.591C273.744 348.206 274.604 349.7 274.601 350.922L274.658 363.031C274.655 364.256 273.785 364.749 272.722 364.134C258.692 356.089 244.65 348.066 230.621 340.022C229.554 339.406 228.693 337.913 228.696 336.691L228.643 324.581H228.64Z" fill="url(#paint8_linear_27_4646)"/>
<path fill-rule="evenodd" clip-rule="evenodd" d="M215.289 292.882C215.292 291.657 216.158 291.161 217.225 291.779C243.183 306.661 269.133 321.552 295.089 336.434C296.152 337.049 297.016 338.543 297.013 339.765L297.07 351.874C297.067 353.099 296.197 353.592 295.133 352.977C269.175 338.092 243.225 323.207 217.27 308.322C216.203 307.707 215.342 306.213 215.345 304.992L215.289 292.882Z" fill="white"/>
<path fill-rule="evenodd" clip-rule="evenodd" d="M288.054 324.635C285.23 323.004 282.768 319.157 282.553 316.038C282.338 312.922 284.45 311.716 287.271 313.347C290.092 314.978 292.557 318.828 292.772 321.944C292.987 325.062 290.875 326.266 288.054 324.635Z" fill="url(#paint9_linear_27_4646)"/>
<path fill-rule="evenodd" clip-rule="evenodd" d="M289.437 316.77L290.185 317.143L286.862 322.2L283.927 317.851L284.892 318.23L286.443 319.7L289.437 316.77Z" fill="white"/>
<path fill-rule="evenodd" clip-rule="evenodd" d="M288.054 345.584C285.23 343.953 282.768 340.105 282.553 336.987C282.338 333.871 284.45 332.664 287.271 334.295C290.092 335.926 292.557 339.777 292.772 342.892C292.987 346.011 290.875 347.215 288.054 345.584Z" fill="url(#paint10_linear_27_4646)"/>
<path fill-rule="evenodd" clip-rule="evenodd" d="M289.437 337.716L290.185 338.092L286.862 343.149L283.927 338.8L284.892 339.176L286.443 340.649L289.437 337.716Z" fill="white"/>
<path fill-rule="evenodd" clip-rule="evenodd" d="M221.928 277.8C221.907 277.492 222.14 277.226 222.448 277.205C222.756 277.184 223.022 277.417 223.043 277.725L223.231 280.434L224.824 279.517C225.09 279.365 225.43 279.457 225.586 279.723C225.738 279.989 225.649 280.33 225.38 280.485L223.853 281.363L226.142 282.687C226.408 282.842 226.5 283.182 226.345 283.448C226.189 283.714 225.849 283.807 225.583 283.651L224.408 282.973L225.64 284.933C225.804 285.193 225.726 285.539 225.463 285.704C225.203 285.868 224.857 285.79 224.692 285.527L223.446 283.544L223.542 284.927C223.563 285.235 223.33 285.5 223.022 285.521C222.714 285.542 222.448 285.309 222.427 285.002L222.239 282.292L220.858 283.087C220.592 283.239 220.252 283.147 220.096 282.881C219.944 282.615 220.037 282.274 220.303 282.119L221.617 281.36L219.328 280.037C219.063 279.882 218.97 279.541 219.125 279.275C219.281 279.009 219.621 278.917 219.887 279.072L221.062 279.75L219.831 277.791C219.666 277.531 219.744 277.184 220.007 277.02C220.267 276.856 220.613 276.933 220.778 277.196L222.024 279.18L221.928 277.797V277.8Z" fill="#9ED7FA"/>
<path fill-rule="evenodd" clip-rule="evenodd" d="M233.669 284.509C233.648 284.201 233.881 283.935 234.189 283.914C234.497 283.893 234.763 284.126 234.784 284.434L234.972 287.143L236.565 286.226C236.831 286.074 237.171 286.167 237.327 286.432C237.479 286.698 237.386 287.039 237.12 287.194L235.593 288.072L237.882 289.396C238.148 289.551 238.241 289.891 238.086 290.157C237.93 290.423 237.59 290.516 237.321 290.36L236.146 289.682L237.377 291.642C237.542 291.902 237.464 292.248 237.201 292.413C236.941 292.577 236.594 292.499 236.43 292.236L235.184 290.253L235.28 291.636C235.301 291.944 235.067 292.209 234.76 292.23C234.452 292.251 234.186 292.018 234.165 291.711L233.977 289.001L232.596 289.796C232.33 289.948 231.99 289.856 231.834 289.59C231.682 289.324 231.774 288.983 232.04 288.828L233.355 288.072L231.066 286.749C230.8 286.594 230.708 286.253 230.863 285.987C231.018 285.721 231.359 285.629 231.625 285.784L232.799 286.462L231.568 284.503C231.404 284.243 231.482 283.896 231.745 283.732C232.005 283.568 232.351 283.645 232.516 283.908L233.762 285.892L233.666 284.509H233.669Z" fill="#9ED7FA"/>
<path fill-rule="evenodd" clip-rule="evenodd" d="M245.146 291.036C245.126 290.728 245.359 290.462 245.666 290.441C245.974 290.42 246.24 290.653 246.261 290.961L246.449 293.67L248.042 292.753C248.308 292.601 248.649 292.693 248.804 292.959C248.956 293.225 248.864 293.566 248.598 293.721L247.071 294.599L249.36 295.923C249.626 296.078 249.718 296.418 249.563 296.684C249.408 296.95 249.067 297.043 248.801 296.887L247.627 296.209L248.858 298.169C249.022 298.429 248.945 298.775 248.682 298.94C248.422 299.104 248.075 299.026 247.911 298.763L246.665 296.78L246.76 298.163C246.781 298.471 246.548 298.736 246.24 298.757C245.932 298.778 245.666 298.545 245.646 298.238L245.457 295.528L244.077 296.323C243.811 296.475 243.47 296.383 243.315 296.117C243.162 295.851 243.255 295.51 243.521 295.355L244.836 294.596L242.547 293.273C242.281 293.118 242.188 292.777 242.344 292.511C242.499 292.245 242.84 292.153 243.106 292.308L244.28 292.986L243.049 291.027C242.884 290.767 242.962 290.42 243.225 290.256C243.485 290.092 243.832 290.169 243.996 290.432L245.242 292.416L245.146 291.033V291.036Z" fill="#9ED7FA"/>
<path fill-rule="evenodd" clip-rule="evenodd" d="M256.624 297.563C256.603 297.255 256.836 296.989 257.144 296.968C257.452 296.947 257.718 297.18 257.739 297.488L257.927 300.197L259.52 299.28C259.786 299.128 260.126 299.217 260.282 299.486C260.434 299.752 260.341 300.093 260.075 300.248L258.548 301.126L260.837 302.449C261.103 302.605 261.196 302.945 261.041 303.211C260.885 303.477 260.545 303.57 260.276 303.414L259.101 302.736L260.332 304.696C260.497 304.956 260.419 305.302 260.156 305.466C259.896 305.631 259.55 305.553 259.385 305.29L258.139 303.307L258.235 304.69C258.256 304.997 258.023 305.263 257.715 305.284C257.407 305.305 257.141 305.072 257.12 304.764L256.932 302.055L255.551 302.85C255.285 303.002 254.945 302.912 254.789 302.644C254.637 302.378 254.73 302.037 254.996 301.882L256.31 301.126L254.021 299.803C253.755 299.648 253.663 299.307 253.818 299.041C253.974 298.775 254.314 298.683 254.58 298.838L255.755 299.516L254.523 297.557C254.359 297.297 254.437 296.95 254.7 296.786C254.96 296.622 255.306 296.699 255.471 296.962L256.717 298.946L256.621 297.563H256.624Z" fill="#9ED7FA"/>
<path fill-rule="evenodd" clip-rule="evenodd" d="M221.928 299.695C221.907 299.388 222.14 299.122 222.448 299.101C222.756 299.08 223.022 299.313 223.043 299.621L223.231 302.33L224.824 301.413C225.09 301.261 225.43 301.353 225.586 301.619C225.738 301.885 225.649 302.225 225.38 302.381L223.853 303.259L226.142 304.582C226.408 304.738 226.5 305.078 226.345 305.344C226.189 305.61 225.849 305.702 225.583 305.547L224.408 304.869L225.64 306.829C225.804 307.088 225.726 307.435 225.463 307.599C225.203 307.764 224.857 307.686 224.692 307.423L223.446 305.44L223.542 306.823C223.563 307.13 223.33 307.396 223.022 307.417C222.714 307.438 222.448 307.205 222.427 306.897L222.239 304.188L220.858 304.983C220.592 305.135 220.252 305.045 220.096 304.776C219.944 304.511 220.037 304.17 220.303 304.015L221.617 303.259L219.328 301.936C219.063 301.78 218.97 301.44 219.125 301.174C219.281 300.908 219.621 300.815 219.887 300.971L221.062 301.649L219.831 299.689C219.666 299.429 219.744 299.083 220.007 298.919C220.267 298.754 220.613 298.832 220.778 299.095L222.024 301.078L221.928 299.695Z" fill="#9ED7FA"/>
<path fill-rule="evenodd" clip-rule="evenodd" d="M233.669 306.404C233.648 306.097 233.881 305.831 234.189 305.81C234.497 305.789 234.763 306.022 234.784 306.33L234.972 309.039L236.565 308.122C236.831 307.97 237.171 308.062 237.327 308.328C237.479 308.594 237.386 308.935 237.12 309.09L235.593 309.968L237.882 311.291C238.148 311.447 238.241 311.787 238.086 312.056C237.93 312.322 237.59 312.415 237.321 312.259L236.146 311.581L237.377 313.541C237.542 313.801 237.464 314.147 237.201 314.311C236.941 314.476 236.594 314.398 236.43 314.135L235.184 312.152L235.28 313.535C235.301 313.842 235.067 314.108 234.76 314.129C234.452 314.15 234.186 313.917 234.165 313.609L233.977 310.9L232.596 311.695C232.33 311.847 231.99 311.754 231.834 311.489C231.682 311.223 231.774 310.882 232.04 310.727L233.355 309.968L231.066 308.645C230.8 308.489 230.708 308.149 230.863 307.883C231.018 307.617 231.359 307.525 231.625 307.68L232.799 308.358L231.568 306.398C231.404 306.139 231.482 305.792 231.745 305.628C232.005 305.463 232.351 305.541 232.516 305.804L233.762 307.787L233.666 306.404H233.669Z" fill="#9ED7FA"/>
<path fill-rule="evenodd" clip-rule="evenodd" d="M245.146 312.931C245.126 312.624 245.359 312.358 245.666 312.337C245.974 312.316 246.24 312.549 246.261 312.857L246.449 315.566L248.042 314.649C248.308 314.497 248.649 314.589 248.804 314.855C248.956 315.121 248.864 315.461 248.598 315.617L247.071 316.495L249.36 317.818C249.626 317.974 249.718 318.314 249.563 318.58C249.408 318.846 249.067 318.938 248.801 318.783L247.627 318.105L248.858 320.065C249.022 320.324 248.945 320.671 248.682 320.835C248.422 321 248.075 320.922 247.911 320.659L246.665 318.676L246.76 320.059C246.781 320.366 246.548 320.632 246.24 320.653C245.932 320.674 245.666 320.441 245.646 320.133L245.457 317.424L244.077 318.219C243.811 318.371 243.47 318.281 243.315 318.012C243.162 317.747 243.255 317.406 243.521 317.251L244.836 316.495L242.547 315.172C242.281 315.016 242.188 314.676 242.344 314.41C242.499 314.144 242.84 314.051 243.106 314.207L244.28 314.885L243.049 312.925C242.884 312.665 242.962 312.319 243.225 312.155C243.485 311.99 243.832 312.068 243.996 312.331L245.242 314.314L245.146 312.931Z" fill="#9ED7FA"/>
<path fill-rule="evenodd" clip-rule="evenodd" d="M256.624 319.458C256.603 319.15 256.836 318.885 257.144 318.864C257.452 318.843 257.718 319.076 257.739 319.383L257.927 322.093L259.52 321.176C259.786 321.023 260.126 321.116 260.282 321.382C260.434 321.648 260.341 321.988 260.075 322.144L258.548 323.022L260.837 324.345C261.103 324.5 261.196 324.841 261.041 325.107C260.885 325.373 260.545 325.465 260.276 325.31L259.101 324.632L260.332 326.591C260.497 326.851 260.419 327.198 260.156 327.362C259.896 327.526 259.55 327.449 259.385 327.186L258.139 325.202L258.235 326.585C258.256 326.893 258.023 327.159 257.715 327.18C257.407 327.201 257.141 326.968 257.12 326.66L256.932 323.951L255.551 324.745C255.285 324.898 254.945 324.805 254.789 324.539C254.637 324.273 254.73 323.933 254.996 323.778L256.31 323.022L254.021 321.698C253.755 321.543 253.663 321.203 253.818 320.937C253.974 320.671 254.314 320.578 254.58 320.734L255.755 321.412L254.523 319.452C254.359 319.192 254.437 318.846 254.7 318.681C254.96 318.517 255.306 318.595 255.471 318.858L256.717 320.841L256.621 319.458H256.624Z" fill="#9ED7FA"/>
<path fill-rule="evenodd" clip-rule="evenodd" d="M237.446 139.206C237.446 138.053 237.655 137.043 238.025 136.21C238.468 135.215 239.137 134.442 239.983 133.919C240.882 133.363 241.934 133.118 243.07 133.22C244.029 133.303 245.057 133.638 246.109 134.241L253.483 138.468L253.728 138.791C255.193 140.714 256.794 142.489 258.474 144.027C260.078 145.497 261.779 146.772 263.524 147.782C265.221 148.762 266.817 149.401 268.278 149.718C269.688 150.022 270.944 150.025 272.01 149.748L272.799 149.541C273.854 150.148 278.049 152.373 278.477 152.8C280.344 153.879 282.015 155.695 283.207 157.756C284.393 159.814 285.129 162.162 285.123 164.313L285.096 179.084C285.2 183.042 285.072 185.133 283.111 185.987C281.444 186.713 279.418 185.722 275.71 183.541C271.583 181.112 266.736 178.269 259.938 174.296C253.962 170.804 248.574 167.67 244.139 165.113L243.419 164.701V164.707C237.757 161.46 237.404 161.257 237.419 153.867L237.443 139.212L237.446 139.206ZM241.662 137.811C241.501 138.175 241.411 138.644 241.411 139.206L241.387 153.861C241.378 158.945 241.611 159.082 245.394 161.251V161.26L246.118 161.675C252.24 165.206 257.398 168.199 261.946 170.858C265.672 173.035 271.341 176.366 277.718 180.118C280.261 181.614 281.519 182.352 281.531 182.346C281.812 182.224 281.193 181.366 281.136 179.171L281.163 164.31C281.166 162.864 280.637 161.218 279.777 159.728C278.922 158.249 277.763 156.967 276.502 156.236L272.178 153.759C270.722 154.01 269.13 153.962 267.441 153.595C265.595 153.195 263.61 152.406 261.537 151.208C259.561 150.067 257.634 148.618 255.802 146.94C254.018 145.309 252.345 143.475 250.827 141.518L244.13 137.677C243.607 137.375 243.135 137.214 242.732 137.178C242.451 137.154 242.224 137.193 242.069 137.288C241.913 137.384 241.776 137.56 241.665 137.808L241.662 137.811ZM263.524 145.915C266.748 148.23 269.16 148.538 271.236 148.063C272.587 147.97 273.809 147.588 274.867 146.937C275.931 146.282 276.815 145.365 277.488 144.203C278.545 142.372 279.05 139.947 278.847 137.022C278.543 132.613 276.672 127.723 273.896 123.386C271.126 119.058 267.429 115.234 263.467 112.943C260.655 111.318 258.02 110.637 255.751 110.792C254.401 110.885 253.179 111.267 252.121 111.919C251.057 112.573 250.173 113.49 249.5 114.652C248.442 116.483 247.937 118.908 248.141 121.833C248.445 126.245 250.316 131.135 253.089 135.472C255.856 139.797 259.552 143.621 263.521 145.915H263.524ZM256.433 133.342C258.874 137.157 262.092 140.502 265.514 142.48C267.606 143.69 269.467 144.203 270.973 144.102C271.661 144.054 272.273 143.866 272.787 143.552C273.295 143.242 273.723 142.791 274.054 142.217C274.721 141.061 275.031 139.403 274.885 137.288C274.625 133.545 272.99 129.322 270.555 125.516C268.114 121.701 264.895 118.353 261.477 116.378C259.382 115.169 257.524 114.652 256.017 114.756C255.33 114.804 254.721 114.992 254.207 115.306C253.699 115.617 253.271 116.065 252.94 116.641C252.27 117.797 251.962 119.455 252.109 121.57C252.369 125.316 254.003 129.54 256.436 133.345L256.433 133.342Z" fill="#6BB6FF"/>
<path style="mix-blend-mode:multiply" opacity="0.5" fill-rule="evenodd" clip-rule="evenodd" d="M296.161 130.884L301.119 128.058L337.195 226.962L337.01 269.146L331.308 271.303C321.286 265.46 311.258 259.635 301.226 253.885C298.495 252.308 296.29 248.487 296.299 245.354L296.158 130.881L296.161 130.884Z" fill="url(#paint11_linear_27_4646)"/>
<path fill-rule="evenodd" clip-rule="evenodd" d="M296.776 128.557L299.047 127.356C299.839 127.093 300.846 127.24 301.94 127.867C329.1 143.439 356.203 159.557 383.366 175.132C385.926 176.611 387.997 180.198 387.991 183.141L388.126 290.618C388.123 291.953 387.689 292.93 386.975 293.455C386.121 294.089 384.358 295.457 382.962 294.65C355.802 279.078 329.201 261.574 302.045 246.002C299.481 244.523 297.41 240.936 297.419 237.993L296.776 128.551V128.557Z" fill="#F2F4FF"/>
<path fill-rule="evenodd" clip-rule="evenodd" d="M295.393 131.547C295.402 128.605 297.485 127.416 300.049 128.894C327.208 144.466 354.311 160.585 381.474 176.16C384.035 177.638 386.106 181.226 386.1 184.168L386.234 291.645C386.225 294.587 384.14 295.773 381.579 294.298C354.419 278.726 327.31 262.604 300.153 247.032C297.589 245.554 295.519 241.966 295.528 239.024L295.396 131.547H295.393Z" fill="white"/>
<path fill-rule="evenodd" clip-rule="evenodd" d="M295.396 131.547C295.405 128.605 297.488 127.416 300.052 128.894C327.211 144.466 354.314 160.585 381.477 176.16C384.038 177.638 386.109 181.226 386.103 184.168L386.199 268.623L295.492 216.617L295.396 131.547Z" fill="url(#paint12_linear_27_4646)"/>
<path opacity="0.25" fill-rule="evenodd" clip-rule="evenodd" d="M302.131 227.974C302.134 226.705 303.034 226.206 304.142 226.863L329.157 240.992C330.262 241.65 331.159 243.215 331.156 244.484V246.996C331.153 248.266 330.25 248.765 329.145 248.108L304.13 233.979C303.022 233.321 302.128 231.756 302.131 230.487V227.974Z" fill="#A67EF6"/>
<path opacity="0.25" fill-rule="evenodd" clip-rule="evenodd" d="M302.131 238.997C302.131 237.877 302.926 237.438 303.903 238.017C318.085 246.029 341.328 259.106 355.51 267.115C356.484 267.694 357.273 269.074 357.27 270.191V272.405C357.267 273.525 356.472 273.964 355.498 273.385C341.316 265.373 318.073 252.296 303.891 244.287C302.914 243.708 302.128 242.331 302.131 241.21V238.997Z" fill="#A67EF6"/>
<path opacity="0.5" fill-rule="evenodd" clip-rule="evenodd" d="M373.251 180.745C376.867 181.701 380.103 185.978 380.476 190.301C380.85 194.623 378.223 197.35 374.608 196.395C370.992 195.439 367.756 191.161 367.382 186.839C367.009 182.516 369.635 179.789 373.251 180.745Z" fill="white"/>
<path fill-rule="evenodd" clip-rule="evenodd" d="M373.585 184.604C375.417 185.088 377.058 187.257 377.249 189.449C377.44 191.642 376.107 193.022 374.273 192.538C372.441 192.054 370.8 189.886 370.609 187.696C370.418 185.506 371.751 184.123 373.585 184.607V184.604Z" fill="white"/>
<path fill-rule="evenodd" clip-rule="evenodd" d="M304.955 202.231C303.479 197.691 299.729 188.574 299.316 183.819C298.895 178.977 301.842 175.921 305.891 176.993C309.943 178.066 313.564 182.857 313.986 187.696C314.434 192.87 308.257 198.214 304.955 202.231ZM305.831 180.327C303.392 179.682 301.617 181.522 301.871 184.437C302.125 187.353 304.307 190.238 306.745 190.883C309.184 191.529 310.956 189.688 310.705 186.773C310.454 183.858 308.269 180.972 305.831 180.327Z" fill="white"/>
<path fill-rule="evenodd" clip-rule="evenodd" d="M304.226 207.692C303.653 208.43 304.803 209.43 305.463 208.582C306.058 207.764 306.656 206.954 307.265 206.145C307.866 205.371 306.683 204.412 306.049 205.225C305.433 206.043 304.827 206.861 304.226 207.689V207.692ZM372.74 193.53C372.835 192.472 371.311 192.401 371.225 193.345C371.12 194.307 370.935 195.319 370.711 196.263C370.463 197.168 371.915 197.646 372.196 196.613C372.429 195.609 372.626 194.551 372.74 193.527V193.53ZM370.723 201.081C371.09 200.161 369.787 199.549 369.324 200.472C368.945 201.356 368.476 202.261 367.968 203.077C367.433 203.967 368.762 204.717 369.262 203.883C369.808 202.996 370.31 202.04 370.72 201.081H370.723ZM366.246 207.578C367.029 206.796 365.867 205.804 365.227 206.446C364.51 207.094 363.76 207.644 362.903 208.095C362.033 208.528 362.679 209.911 363.608 209.445C364.576 208.935 365.437 208.31 366.246 207.578ZM358.857 210.643C359.879 210.643 359.858 209.12 358.872 209.12C358.127 209.12 356.774 208.967 356.098 208.687C355.106 208.415 354.688 209.795 355.626 210.135C356.669 210.464 357.763 210.643 358.857 210.643ZM351.368 207.928C352.118 208.51 353.107 207.348 352.268 206.697C351.479 206.124 350.726 205.481 350.026 204.797C349.327 204.098 348.234 205.162 348.957 205.885C349.716 206.619 350.511 207.304 351.365 207.928H351.368ZM345.87 202.369C346.503 203.181 347.687 202.222 347.086 201.449C346.479 200.651 345.909 199.842 345.356 199.005C344.788 198.151 343.533 199.017 344.077 199.836C344.642 200.699 345.242 201.547 345.87 202.369ZM341.704 195.893C342.224 196.759 343.527 195.97 343.016 195.113C342.511 194.259 341.884 193.267 341.253 192.505C340.646 191.726 339.43 192.646 340.058 193.452C340.62 194.295 341.175 194.994 341.707 195.893H341.704ZM336.962 190.405C337.787 190.955 338.656 189.793 337.841 189.16C336.932 188.512 336.033 188.022 334.993 187.618C334.037 187.272 333.532 188.709 334.464 189.049C335.354 189.384 336.188 189.856 336.962 190.405ZM330.277 188.41C331.35 188.311 331.129 186.803 330.2 186.887C329.115 186.949 328.075 187.131 327.029 187.424C326.082 187.681 326.459 189.16 327.448 188.891C328.38 188.628 329.312 188.467 330.277 188.41ZM323.402 190.597C324.262 190.08 323.575 188.807 322.663 189.264C321.749 189.763 320.868 190.331 320.01 190.925C319.191 191.561 320.064 192.72 320.885 192.174C321.683 191.612 322.544 191.066 323.399 190.6L323.402 190.597ZM317.368 194.955C318.089 194.235 317.162 193.186 316.358 193.811C315.578 194.498 314.843 195.203 314.096 195.92C313.382 196.634 314.464 197.709 315.172 197.001C315.874 196.299 316.621 195.606 317.368 194.952V194.955ZM312.058 200.287C312.689 199.567 311.67 198.521 310.917 199.277C310.236 200.045 309.572 200.821 308.915 201.61C308.26 202.449 309.509 203.331 310.089 202.584C310.735 201.807 311.389 201.043 312.061 200.29L312.058 200.287Z" fill="white"/>
<path opacity="0.5" fill-rule="evenodd" clip-rule="evenodd" d="M303.658 204.803C305.427 205.269 307.008 207.36 307.19 209.475C307.373 211.587 306.088 212.922 304.322 212.453C302.553 211.987 300.972 209.893 300.79 207.781C300.607 205.67 301.892 204.334 303.658 204.803Z" fill="white"/>
<path fill-rule="evenodd" clip-rule="evenodd" d="M303.823 206.688C304.719 206.924 305.52 207.985 305.613 209.057C305.705 210.129 305.054 210.804 304.158 210.565C303.261 210.329 302.46 209.269 302.368 208.197C302.275 207.127 302.926 206.449 303.823 206.688Z" fill="white"/>
<path style="mix-blend-mode:multiply" opacity="0.5" fill-rule="evenodd" clip-rule="evenodd" d="M193.579 42.7128C201.713 47.4504 209.853 52.17 217.993 56.8389C220.482 58.2757 222.499 61.7677 222.49 64.6293L222.618 169.164C222.609 172.026 220.581 173.182 218.088 171.742L185.601 152.908L185.55 127.069L193.573 42.7158L193.579 42.7128Z" fill="url(#paint13_linear_27_4646)"/>
<path fill-rule="evenodd" clip-rule="evenodd" d="M134.834 11.3211L136.908 10.2248C137.631 9.98585 138.551 10.1203 139.549 10.6938C164.351 24.9125 189.103 39.6331 213.905 53.8548C216.242 55.205 218.136 58.4819 218.127 61.1673L218.25 159.312C218.247 160.534 217.849 161.424 217.201 161.905C216.421 162.482 214.81 163.733 213.537 162.999C188.735 148.777 164.444 132.793 139.645 118.574C137.305 117.224 135.414 113.947 135.423 111.261L134.837 11.3211H134.834Z" fill="#F2F4FF"/>
<path fill-rule="evenodd" clip-rule="evenodd" d="M133.573 14.0544C133.582 11.3689 135.485 10.2816 137.825 11.6318C162.627 25.8505 187.375 40.5711 212.18 54.7928C214.517 56.143 216.412 59.4199 216.403 62.1053L216.525 160.25C216.516 162.936 214.613 164.02 212.273 162.67C187.471 148.448 162.717 133.728 137.918 119.509C135.575 118.159 133.686 114.882 133.692 112.196L133.57 14.0514L133.573 14.0544Z" fill="white"/>
<path fill-rule="evenodd" clip-rule="evenodd" d="M133.573 14.0544C133.582 11.3689 135.485 10.2816 137.825 11.6318C162.627 25.8505 187.378 40.5711 212.18 54.7928C214.517 56.143 216.412 59.4199 216.403 62.1053L216.489 139.227L133.659 91.7346L133.57 14.0514L133.573 14.0544Z" fill="url(#paint14_linear_27_4646)"/>
<path opacity="0.25" fill-rule="evenodd" clip-rule="evenodd" d="M139.726 102.106C139.726 100.947 140.55 100.49 141.56 101.09L164.402 113.992C165.412 114.592 166.231 116.02 166.225 117.182V119.476C166.222 120.635 165.397 121.092 164.387 120.492L141.546 107.59C140.536 106.99 139.717 105.562 139.72 104.4V102.106H139.726Z" fill="#F786DC"/>
<path opacity="0.25" fill-rule="evenodd" clip-rule="evenodd" d="M139.726 112.172C139.726 111.151 140.452 110.748 141.342 111.279C154.293 118.595 175.518 130.537 188.469 137.85C189.36 138.379 190.08 139.636 190.077 140.661V142.683C190.074 143.705 189.348 144.105 188.46 143.576C175.509 136.261 154.284 124.318 141.333 117.003C140.443 116.474 139.723 115.216 139.726 114.195V112.172Z" fill="#F786DC"/>
<path fill-rule="evenodd" clip-rule="evenodd" d="M198.572 77.2231L198.486 125.994L212.177 133.973L212.264 85.2018L198.572 77.2231ZM157.455 38.4293L157.317 103.71L171.009 111.689L171.146 46.4079L157.455 38.4293ZM177.966 61.5706L177.861 115.679L191.553 123.658L191.658 69.5492L177.966 61.5706ZM136.872 42.9757L136.785 91.7466L150.477 99.7252L150.564 50.9544L136.872 42.9757Z" fill="#F786DC"/>
<g style="mix-blend-mode:multiply" opacity="0.5">
<path fill-rule="evenodd" clip-rule="evenodd" d="M136.71 62.0784C136.325 61.7169 136.355 61.1583 136.779 60.8298C137.203 60.5012 137.858 60.5281 138.243 60.8895L151.215 73.0352L157.499 75.7116L170.97 72.9635L179.149 64.0081C179.501 63.6227 180.153 63.554 180.607 63.8527C180.697 63.9125 180.774 63.9842 180.834 64.0618L200.06 84.688L211.78 87.5765C212.351 87.5586 212.832 87.9409 212.853 88.4278C212.874 88.9147 212.425 89.324 211.855 89.3419L199.636 86.4683C199.304 86.4862 198.97 86.3667 198.751 86.1277L179.974 65.9945L172.395 74.2928C172.255 74.4421 172.055 74.5586 171.819 74.6064L157.622 77.5009C157.395 77.5487 157.147 77.5278 156.92 77.4322L150.19 74.5676C150.053 74.5198 149.924 74.4451 149.817 74.3435L136.719 62.0814L136.71 62.0784Z" fill="#955CF1"/>
</g>
<path fill-rule="evenodd" clip-rule="evenodd" d="M136.71 62.3351C136.325 61.9109 136.355 61.2568 136.779 60.8714C137.203 60.4861 137.858 60.5159 138.243 60.9401L151.215 75.1947L157.499 78.3342L170.97 75.1081L179.149 64.5964C179.501 64.1423 180.153 64.0617 180.607 64.4141C180.697 64.4858 180.774 64.5665 180.834 64.6591L199.059 88.1678L211.926 87.6869C212.497 87.666 212.978 88.114 212.999 88.6846C213.02 89.2551 212.572 89.736 212.001 89.7569L198.632 90.2558C198.3 90.2767 197.966 90.1393 197.747 89.8555L179.971 66.9263L172.392 76.6674C172.252 76.8436 172.052 76.981 171.816 77.0348L157.619 80.4341C157.392 80.4879 157.144 80.467 156.917 80.3535L150.187 76.99C150.05 76.9332 149.921 76.8466 149.814 76.7301L136.716 62.3381L136.71 62.3351Z" fill="white"/>
<g style="mix-blend-mode:multiply" opacity="0.5">
<path fill-rule="evenodd" clip-rule="evenodd" d="M5.01429 329.919L58.034 299.734C63.8131 297.094 72.0875 294.994 77.9772 298.056C83.344 300.849 92.1831 306.56 96.0917 308.788C99.059 310.482 109.365 316.653 102.947 320.142C84.0642 330.406 65.379 341.948 46.2067 352.374C42.579 354.345 37.2749 355.059 31.7079 354.596C26.1648 354.136 20.4782 352.523 16.0049 349.921C12.8195 348.069 9.68485 346.244 6.60103 344.452C2.44145 342.032 0.236155 339.167 0.0180164 336.524C-0.194146 333.937 1.46729 331.541 5.01429 329.922V329.919Z" fill="#FFF2F0"/>
</g>
<path fill-rule="evenodd" clip-rule="evenodd" d="M75.509 188.076C75.754 190.391 75.4014 193.927 75.5807 202.632C75.7062 208.788 74.8815 219.539 74.236 228.769C73.9701 232.59 73.4352 235.968 73.0975 238.943C72.8525 241.106 71.9082 243.23 71.5945 245.336C69.2547 261.147 66.2426 275.515 64.4467 294.626C64.0343 299.02 63.5711 301.279 64.3451 305.643C64.4975 306.491 64.9188 307.346 65.0264 308.2C65.5673 312.415 65.9766 316.609 67.6261 320.113C67.8652 320.62 68.2387 321.968 68.5345 322.523C68.5345 322.523 64.7574 323.838 64.2973 323.903C63.8371 323.969 57.7471 322.275 57.7471 322.275C57.7471 322.275 55.4821 312.116 55.5149 311.528C55.9094 304.869 51.2866 306.094 55.3894 301.052C55.7749 300.421 55.6763 300.365 55.6703 299.621C55.6195 293.034 54.499 283.481 53.6593 274.932C51.2568 250.504 55.3386 252.257 56.25 240.583C54.5707 226.535 51.1641 206.587 51.5257 189.297L75.506 188.082L75.509 188.076Z" fill="url(#paint15_linear_27_4646)"/>
<path fill-rule="evenodd" clip-rule="evenodd" d="M66.8251 318.258C67.4795 319.458 68.1847 321.182 68.7883 322.481C69.5623 324.154 69.9418 325.259 70.3243 326.571C70.5155 327.231 70.4587 327.846 70.1868 328.214C68.7166 330.185 61.3477 326.589 58.8764 324.408C57.2807 322.998 57.2509 321.334 56.8773 319.3C56.3156 316.247 56.2199 315.904 55.4878 312.767L54.6571 321.284L53.9549 321.708C53.8025 318.24 53.4379 313.651 52.903 310.685C52.6879 309.502 52.3233 308.155 52.2725 307.501C51.9677 303.645 53.8772 301.748 55.6313 300.663C54.9858 303.008 56.6861 306.823 57.46 311.623C58.2698 316.648 61.0519 322.144 63.2422 322.607C64.1656 322.804 66.2035 321.654 67.3121 321.021C67.7335 320.782 67.2554 319.342 66.8251 318.252V318.258Z" fill="#273087"/>
<path fill-rule="evenodd" clip-rule="evenodd" d="M45.6837 180.718C43.1856 188.831 38.2072 196.266 37.2301 202.632C36.244 209.045 36.7789 215.115 38.019 224.695C38.8617 231.207 42.1696 245.9 41.4674 251.477C40.4364 259.638 37.4662 264.474 36.4801 274.03C35.6882 281.725 36.9552 292.903 37.3377 303.555C37.4811 307.605 37.1345 307.665 36.1693 311.333C35.8705 312.466 35.6493 313.723 35.482 315.136C35.1085 318.275 34.8485 322.018 35.2161 326.66C35.3445 328.288 35.9482 329.068 36.1006 331.293L45.1638 334.179C44.9546 332.255 44.6827 329.31 44.5602 326.063C44.4526 323.159 44.4795 320.017 44.4884 317.137C44.5004 313.009 44.094 310.416 44.8261 306.512C47.2645 293.524 51.0416 282.098 53.5995 271.422C54.9352 265.842 55.3296 260.881 57.2929 252.905C58.0937 249.652 58.7571 246.387 58.9513 243.057C59.4683 234.179 61.1686 223.53 61.2224 214.419C68.5584 203.788 73.3246 198.566 75.3147 193.028C75.6942 189.426 74.4362 185.079 74.4362 185.079L45.6897 180.718H45.6837Z" fill="url(#paint16_linear_27_4646)"/>
<path fill-rule="evenodd" clip-rule="evenodd" d="M37.0237 308.203C36.2438 310.001 35.4968 310.918 35.0844 313.454C34.672 315.993 35.3294 320.128 34.8214 323.27L34.0116 328.259C33.5425 331.162 34.0206 333.283 37.0207 336.124C39.74 338.699 42.5519 339.974 44.2432 339.406C45.4893 338.988 46.6935 337.044 45.6058 331.365C44.7004 326.634 44.7422 322.153 44.5032 317.117C44.1835 321.995 44.058 323.658 44.6108 328.545C44.7632 329.913 44.8468 332.118 43.2452 332.139C36.6203 332.222 36.5217 330.433 36.2438 328.354C35.5087 322.81 35.6999 313.138 37.0207 308.2L37.0237 308.203Z" fill="#273087"/>
<path fill-rule="evenodd" clip-rule="evenodd" d="M45.6834 180.718C43.1853 188.831 38.207 196.266 37.2298 202.632C35.7626 212.194 37.4509 219.784 40.0387 240.595C40.3764 243.305 39.9819 245.888 39.4799 248.236C37.935 255.48 45.0649 257.511 53.5364 254.832C63.8846 251.558 73.4199 243.83 74.0325 240.264C75.1889 230.104 78.0726 210.787 77.8933 202.082C77.714 193.378 75.7537 190.391 75.5087 188.079L75.422 185.838C75.1352 184.04 49.3559 181.277 45.6804 180.721L45.6834 180.718Z" fill="url(#paint17_linear_27_4646)"/>
<path fill-rule="evenodd" clip-rule="evenodd" d="M27.3423 138.158C46.3174 148.359 54.266 128.853 56.2262 114.138C57.0689 107.802 56.8508 101.75 54.1106 97.9568C51.233 93.975 46.41 92.3649 41.6797 92.5501C31.4272 92.9504 25.9229 102.679 28.3971 112.854C30.8146 122.789 35.5808 133.554 27.3453 138.161L27.3423 138.158Z" fill="url(#paint18_linear_27_4646)"/>
<path fill-rule="evenodd" clip-rule="evenodd" d="M52.4191 98.3959C47.2406 95.7344 39.8119 101.721 42.2353 109.867C43.0332 105.565 45.5462 100.804 52.4191 98.3959Z" fill="#F58C7E"/>
<path fill-rule="evenodd" clip-rule="evenodd" d="M51.8036 97.694C70.0077 91.6629 83.0094 119.781 62.1816 128.494C42.2444 136.834 31.5914 104.391 51.8036 97.694Z" fill="url(#paint19_linear_27_4646)"/>
<path fill-rule="evenodd" clip-rule="evenodd" d="M123.144 148.158C124.226 149.724 122.191 150.808 121.276 150.859C119.818 151.05 117.738 150.306 117.221 151.28C116.642 152.373 109.814 150.118 109.888 150.052C112.691 148.033 115.276 147.546 115.721 147.576C120.09 147.863 118.817 148.846 123.144 148.161V148.158Z" fill="url(#paint20_linear_27_4646)"/>
<path fill-rule="evenodd" clip-rule="evenodd" d="M110.862 156.403C104.599 158.171 96.0379 164.289 90.0794 165.636C88.1968 166.06 85.2564 166.885 83.7743 165.287C76.1095 157.006 86.7655 159.731 87.6619 156.6C93.1154 152.544 101.65 154.458 108.633 150.7C109.099 150.393 109.556 150.118 109.996 149.9C112.733 148.535 114.266 148.648 119.02 151.035C120.407 151.731 121.118 151.641 122.328 151.606L127.109 150.99C128.576 150.936 129.509 151.286 129.739 151.767C129.993 152.302 129.467 155.322 128.612 156.51V156.516C128.424 157.072 127.342 157.496 125.636 157.52L118.647 159.662L118.321 159.477C114.158 157.114 112.38 156.331 110.865 156.406L110.862 156.403Z" fill="#FFA698"/>
<path fill-rule="evenodd" clip-rule="evenodd" d="M81.0879 166.019C75.4432 160.752 67.4288 153.102 64.5632 147.053C62.7015 143.122 62.3519 132.088 68.3612 130.696C70.3722 129.429 73.4292 137.647 75.488 140.965C79.2083 146.958 81.9635 150.542 86.3322 156.077C90.9729 153.069 97.3736 152.771 103.401 151.277C104.384 151.032 105.277 151.002 106.174 151.199C106.903 151.062 107.602 150.769 108.272 150.468C108.956 150.653 111.215 154.56 110.83 156.863C110.348 156.997 109.288 157.326 108.786 157.502C108.071 157.753 107.671 158.434 106.966 158.817C104.566 160.107 93.7938 165.463 88.427 166.676C86.383 167.136 83.096 168.199 81.4883 166.464C81.3479 166.314 81.2164 166.168 81.0879 166.021V166.019Z" fill="url(#paint21_linear_27_4646)"/>
<g style="mix-blend-mode:multiply" opacity="0.35">
<path fill-rule="evenodd" clip-rule="evenodd" d="M81.0878 166.019C79.2172 164.274 77.0866 162.267 74.971 160.143C79.4174 156.254 79.008 149.353 76.1304 145.15C74.2419 142.39 73.1392 140.407 72.1979 138.208C71.9111 136.527 71.6212 135.159 71.3224 134.233C71.1909 133.689 70.9518 133.169 70.668 132.685C71.5853 133.847 72.1292 136.117 73.6353 139.302C76.2111 144.747 80.1226 147.923 80.4364 154.33C80.6695 159.059 82.827 164.636 86.3471 167.154C84.5751 167.518 82.6148 167.679 81.4853 166.458C81.3448 166.308 81.2133 166.162 81.0848 166.016L81.0878 166.019Z" fill="#F969AC"/>
</g>
<path fill-rule="evenodd" clip-rule="evenodd" d="M41.9247 172.333C45.403 180.381 39.4894 184.835 41.6199 190.379L40.9625 194.133C47.3125 198.692 70.0198 199.029 75.7123 189.996L75.8319 185.489C76.812 183.332 76.1665 177.877 75.8797 176.441C74.9653 171.867 75.3926 169.439 74.8936 164.149C74.7681 162.81 74.5171 161.971 74.3945 160.615C79.4506 156.836 79.1338 149.53 76.1367 145.153C74.2451 142.393 73.1455 140.41 72.2042 138.211C71.9173 136.53 71.6275 135.162 71.3286 134.236C71.1404 133.45 70.722 132.709 70.2708 132.064C68.8275 130.003 66.4937 129.758 61.7276 130.851C52.2818 133.017 42.5552 137.922 38.2134 142.543C35.0549 145.903 35.1804 149.634 36.9912 157.699C38.1566 162.882 40.1617 168.25 41.9277 172.336L41.9247 172.333Z" fill="url(#paint22_linear_27_4646)"/>
<g style="mix-blend-mode:multiply" opacity="0.35">
<path fill-rule="evenodd" clip-rule="evenodd" d="M41.8559 172.286C45.3342 180.333 39.564 184.93 41.6946 190.474L41.0372 194.181C47.3871 199.122 70.0945 198.886 75.79 189.853L75.6704 185.922C75.6704 185.766 64.5215 195.806 51.8306 190.223C49.0724 189.011 46.5773 182.98 50.1452 171.464C50.4859 170.368 54.5289 170.293 60.2573 166.075C56.029 167.868 48.0535 170.323 47.659 159.566C47.4827 154.757 46.7745 151.143 44.3122 147.8C43.1199 146.178 36.1186 154.682 37.1854 158.76C38.545 163.96 40.5411 169.245 41.8589 172.289L41.8559 172.286Z" fill="#F969AC"/>
</g>
<path fill-rule="evenodd" clip-rule="evenodd" d="M66.8105 134.241C67.5904 136.801 68.0207 149.425 66.5296 155.002C61.4646 149.273 46.658 141.808 48.5555 137.763C50.9102 132.739 65.4478 129.779 66.8105 134.241Z" fill="#FF7B7B"/>
<path fill-rule="evenodd" clip-rule="evenodd" d="M66.0663 134.8C66.7655 137.088 66.9986 148.499 66.0125 153.428C62.1189 148.78 47.8472 141.688 49.5774 137.698C51.5466 133.151 64.8501 130.815 66.0663 134.8Z" fill="#FFA698"/>
<path fill-rule="evenodd" clip-rule="evenodd" d="M53.0317 124.145C53.7638 128.303 53.3783 132.24 52.0874 136.276C55.491 139.427 61.548 138.089 62.9555 135.233C62.6567 133.387 62.313 131.691 62.1128 129.794L53.0317 124.148V124.145Z" fill="#FFA698"/>
<path fill-rule="evenodd" clip-rule="evenodd" d="M53.0317 124.145C53.3814 126.14 53.477 128.085 53.3365 130.015C54.3346 134.05 61.8888 136.775 62.6747 133.566C62.4595 132.327 62.2503 131.108 62.1129 129.791L53.0317 124.145Z" fill="url(#paint23_linear_27_4646)"/>
<path fill-rule="evenodd" clip-rule="evenodd" d="M67.0972 106.551C68.7945 109.248 69.6999 111.952 69.3055 115.787C69.2068 116.761 69.3473 117.373 69.6222 117.994C71.2089 121.576 71.0685 122.687 70.2826 125.558C69.5176 128.351 69.5684 129.809 68.6152 130.767C67.638 131.75 66.1768 131.977 64.9337 132.055C62.3937 132.216 58.028 130.54 55.494 129.151C53.6144 128.124 53.6861 127.422 52.8913 125.639C50.2377 123.332 51.956 121.648 52.8464 121.474C55.3954 120.979 55.8077 123.915 57.3198 124.566C57.0688 119.404 66.9059 110.694 67.0972 106.551Z" fill="#FFA698"/>
<path fill-rule="evenodd" clip-rule="evenodd" d="M68.2267 108.618C69.171 110.688 69.6013 112.922 69.3085 115.787C69.2099 116.761 69.3503 117.373 69.6252 117.995C71.212 121.576 71.0715 122.687 70.2856 125.558C69.942 126.81 69.7627 127.792 69.5864 128.584C68.9798 129.492 67.7696 129.952 66.6191 129.441C65.5583 128.972 64.5154 127.715 64.2524 125.624C64.0672 124.139 61.0222 123.159 60.3947 121.651C59.8747 120.399 61.2792 119.001 62.1308 118.281C65.113 115.757 66.9717 112.331 68.2297 108.621L68.2267 108.618Z" fill="url(#paint24_linear_27_4646)"/>
<path fill-rule="evenodd" clip-rule="evenodd" d="M67.0972 106.551C65.6689 112.886 57.3915 117.684 57.3198 124.566C59.5849 117.415 67.6142 112.516 67.0972 106.551Z" fill="#FF8F7F"/>
<path fill-rule="evenodd" clip-rule="evenodd" d="M37.7711 188.377C38.8976 189.058 40.9505 189.721 41.7723 190.214C42.1996 190.468 45.2595 192.374 46.9837 193.53C48.8244 194.767 49.3444 196.553 50.4441 198.536C51.2329 200.155 51.5706 201.323 51.6842 202.133C51.8007 202.969 49.6761 204.576 48.7736 204.376C46.7237 203.922 44.629 201.404 44.0881 201.126C39.4953 198.746 37.293 198.51 35.6345 196.616C34.9263 195.806 34.493 193.44 33.0288 191.314L35.8467 188.766L37.7741 188.38L37.7711 188.377Z" fill="url(#paint25_linear_27_4646)"/>
<path fill-rule="evenodd" clip-rule="evenodd" d="M37.7709 142.504C30.3303 145.613 23.9684 160.17 17.2091 168.853C15.8734 170.571 15.8435 172.268 16.5487 173.531C16.8266 174.221 17.2569 175.01 17.8785 175.921C21.0908 180.641 23.7114 184.658 30.5753 190.492C31.0893 190.928 31.5764 191.11 32.3414 191.319C32.7717 191.675 33.3753 192.317 33.8355 192.691C33.2647 191.956 36.6802 188.279 38.2281 188.524C37.8307 188.031 37.4243 187.496 37.0119 186.931C36.9581 186.226 36.9253 186.011 36.5517 185.468C33.686 181.322 30.907 175.795 27.36 171.912C33.3753 167.055 36.979 163.73 41.9335 157.699C48.899 149.219 43.4455 140.135 37.7709 142.504Z" fill="url(#paint26_linear_27_4646)"/>
<g style="mix-blend-mode:multiply" opacity="0.5">
<path fill-rule="evenodd" clip-rule="evenodd" d="M78.6045 414.694C100.12 402.276 134.914 402.276 156.289 414.694C177.684 427.123 177.574 447.272 156.056 459.686C134.541 472.104 99.746 472.104 78.3505 459.674C56.9759 447.257 57.0894 427.108 78.6045 414.691V414.694Z" fill="#FFE4E0"/>
</g>
<g style="mix-blend-mode:multiply" opacity="0.5">
<path fill-rule="evenodd" clip-rule="evenodd" d="M238.198 421.469L181.617 389.256C175.449 386.439 166.619 384.195 160.335 387.466C154.609 390.444 145.176 396.541 141.007 398.919C137.84 400.726 126.843 407.31 133.692 411.035C153.841 421.986 173.782 434.304 194.242 445.432C198.112 447.534 203.771 448.296 209.715 447.803C215.631 447.313 221.7 445.59 226.473 442.815C229.873 440.837 233.217 438.893 236.507 436.978C240.944 434.394 243.299 431.341 243.532 428.515C243.759 425.755 241.987 423.198 238.201 421.472L238.198 421.469Z" fill="#FFF2F0"/>
</g>
<path fill-rule="evenodd" clip-rule="evenodd" d="M160.293 432.306L160.377 436.551C160.398 442.964 156.163 449.386 147.692 454.276C134.179 462.073 114.735 463.315 99.4982 459.334C89.4399 456.711 74.3674 449.18 74.3674 436.784L74.2808 432.539L160.293 432.306Z" fill="#FF6200"/>
<path fill-rule="evenodd" clip-rule="evenodd" d="M86.9715 414.807C103.813 405.087 131.051 405.087 147.784 414.807C164.533 424.536 164.447 440.309 147.602 450.029C130.761 459.749 103.523 459.749 86.7713 450.02C70.0374 440.3 70.127 424.528 86.9715 414.807Z" fill="url(#paint27_linear_27_4646)"/>
<path fill-rule="evenodd" clip-rule="evenodd" d="M121.823 328.007L121.832 429.28C121.832 430.069 121.315 430.857 120.275 431.458C118.617 432.417 116.226 432.569 114.356 432.079C113.118 431.756 111.269 430.833 111.269 429.31L111.257 328.037L121.82 328.007H121.823Z" fill="#A94506"/>
<path fill-rule="evenodd" clip-rule="evenodd" d="M172.428 348.852C167.241 362.183 164.39 380.987 161.24 395.645C160.756 397.372 159.878 399.552 157.526 400.768C153.86 402.662 149.748 402.256 148.753 399.522C148.839 385.808 147.994 375.685 148.424 368.161C148.905 359.734 152.07 346.898 155.297 341.99C157.687 330.627 177.956 334.979 172.428 348.852Z" fill="url(#paint28_linear_27_4646)"/>
<g style="mix-blend-mode:multiply" opacity="0.3">
<path fill-rule="evenodd" clip-rule="evenodd" d="M172.954 347.274C172.781 347.863 172.605 348.395 172.425 348.852L172.207 349.416L172.159 349.539C171.29 351.842 170.486 354.297 169.736 356.86L169.7 356.98L169.521 357.595L169.464 357.789L169.342 358.225C165.929 370.326 163.544 384.703 161.076 396.198C159.785 378.947 162.615 361.705 167.208 346.794C167.486 342.794 167.316 339.245 166.924 335.989C171.185 337.312 174.586 341.273 172.945 347.272L172.954 347.274Z" fill="#1E2353"/>
</g>
<path fill-rule="evenodd" clip-rule="evenodd" d="M166.117 408.433C163.736 410.763 162.295 409.263 161.306 413.487C158.722 417.442 156.34 418.649 154.185 418.207C151.451 417.645 149.318 416.537 148.92 413.499C148.457 408.427 148.355 407.474 149.685 403.74L150.053 403.495C150.337 403.173 150.695 403.059 151.146 403.167C153.528 403.734 154.257 405.204 155.118 406.025C156.973 407.797 158.76 406.378 159.549 404.326L159.555 404.302L159.57 404.245L159.576 404.227L159.603 404.125L159.612 404.09L159.645 403.955V403.934L159.678 403.806L159.687 403.764V403.752L159.696 403.716L159.711 403.648L159.723 403.576L159.758 403.376L159.788 403.179V403.149C159.809 403.029 159.824 402.907 159.839 402.784L159.845 402.739L159.86 402.593V402.566L159.866 402.536L159.875 402.45V402.417L159.887 402.321L159.905 402.088V402.031L159.914 401.978L159.926 401.79L159.935 401.652L159.944 401.461C159.929 401.353 159.914 401.249 159.893 401.147C159.845 400.311 159.899 399.737 160.006 399.361C160.012 399.161 160.021 398.964 160.03 398.767C162.627 397.315 166.542 393.363 169.318 392.61C171.308 392.069 172.425 394.898 172.503 396.224C172.685 399.397 168.684 405.625 166.123 408.418L166.117 408.433Z" fill="white"/>
<path fill-rule="evenodd" clip-rule="evenodd" d="M159.37 397.849C159.25 400.729 159.474 403.889 157.356 405.568C155.506 407.032 152.309 407.596 150.363 404.666C149.545 403.432 149.634 401.303 149.338 398.68C149.329 400.61 159.495 399.848 159.37 397.849Z" fill="#FFA495"/>
<path fill-rule="evenodd" clip-rule="evenodd" d="M165.475 407.211C163.093 409.541 161.653 408.042 160.664 412.265C158.076 416.22 155.697 417.427 153.543 416.985C150.809 416.423 148.675 415.315 148.278 412.277C147.814 407.205 147.713 406.255 149.043 402.518L149.41 402.273C149.694 401.951 150.053 401.837 150.504 401.945C152.885 402.512 153.615 403.982 154.475 404.804C156.331 406.575 158.115 405.156 158.907 403.104L158.913 403.08L158.928 403.023L158.934 403.005L158.96 402.904L158.969 402.868L159.002 402.733L159.008 402.713L159.035 402.587L159.044 402.545V402.533L159.053 402.497L159.068 402.429L159.08 402.357L159.116 402.157L159.146 401.96V401.93C159.167 401.81 159.182 401.688 159.197 401.565L159.203 401.521L159.217 401.374V401.347L159.223 401.318L159.232 401.231V401.198L159.244 401.103L159.262 400.869V400.813L159.268 400.759L159.28 400.571L159.289 400.433L159.298 400.242C159.283 400.135 159.268 400.03 159.247 399.929C159.2 399.092 159.253 398.519 159.361 398.142C159.367 397.942 159.376 397.745 159.385 397.548C161.982 396.096 165.806 393.252 168.585 392.497C170.576 391.956 171.78 393.679 171.858 395.006C172.04 398.178 168.039 404.406 165.478 407.199L165.475 407.211Z" fill="#193161"/>
<path fill-rule="evenodd" clip-rule="evenodd" d="M169.261 393.225C169.963 394.014 171.523 393.497 172.273 395.239C172.312 394.092 171.14 392.452 169.912 392.452C169.673 392.452 168.917 392.912 169.264 393.225H169.261Z" fill="white"/>
<path fill-rule="evenodd" clip-rule="evenodd" d="M161.808 392.957C161.62 393.868 161.432 394.764 161.244 395.645C160.759 397.372 159.881 399.552 157.529 400.768C153.863 402.662 149.751 402.255 148.756 399.522C148.765 398.336 148.559 397.174 148.556 396.042C150.588 398.554 157.517 400.06 161.811 392.96L161.808 392.957Z" fill="url(#paint29_linear_27_4646)"/>
<path fill-rule="evenodd" clip-rule="evenodd" d="M121.378 331.702C109.846 328.491 87.8144 340.765 66.9955 363.037C48.1998 383.147 120.009 404.302 134.272 398.841C147.829 393.65 182.221 376.453 179.328 369.2C173.677 355.041 142.241 337.515 121.378 331.705V331.702Z" fill="#161D5C"/>
<path fill-rule="evenodd" clip-rule="evenodd" d="M130.65 333.686C120.379 334.024 108.833 333.653 99.6653 337.02C91.1041 340.165 92.4637 352.517 100.254 359.62C107.082 365.848 118.643 367.677 135.685 360.684C140.983 358.509 146.048 356.499 153.982 355.591C161.617 354.715 166.583 356.269 170.782 349.079C173.755 343.983 172.831 337.961 165.788 335.672C155.467 332.318 141.219 333.339 130.647 333.686H130.65Z" fill="url(#paint30_linear_27_4646)"/>
<path fill-rule="evenodd" clip-rule="evenodd" d="M222.708 394.961C225.567 400.096 226.954 402.106 227.692 403.188C229.356 405.631 225.845 409.634 223.496 410.918C221.127 412.215 217.403 412.235 215.775 408.549C215.144 407.122 214.926 405.198 214.254 403.397C215.434 405.311 220.655 399.648 222.708 394.961Z" fill="#FFA495"/>
<path fill-rule="evenodd" clip-rule="evenodd" d="M219.176 410.622C220.374 410.321 227.54 412.905 227.877 403.848C233.023 405.111 241.333 401.067 246.001 401.123C246.832 401.132 248.242 400.203 248.669 400.675C250.011 402.154 251.511 404.481 249.542 406.673C248.093 408.287 244.764 410.745 242.534 412.152C240.171 413.648 236.095 416.083 233.247 417.218C230.095 418.473 228.651 419.022 227.644 420.244C226.096 421.522 224.375 422.311 223.329 422.38C221.094 422.526 218.294 421.836 216.585 419.641C216.038 418.939 215.246 415.512 215.166 413.188C215.1 411.357 215.602 409.141 215.945 407.098L219.176 410.619V410.622Z" fill="white"/>
<path fill-rule="evenodd" clip-rule="evenodd" d="M228.98 402.695C231.81 402.862 239.02 400.681 243.742 400.003C245.771 399.711 247.552 399.289 248.893 400.887C250.127 402.354 250.005 403.884 248.376 405.694C246.927 407.307 244.315 409.365 242.086 410.775C239.722 412.271 235.647 414.709 232.799 415.841C229.646 417.096 228.203 417.645 227.193 418.867C225.645 420.145 223.924 420.934 222.878 421.003C220.643 421.149 217.786 420.202 216.077 418.01C215.53 417.308 214.798 414.135 214.714 411.814C214.669 410.518 214.493 408.597 214.571 407.447C214.699 405.562 215.479 405.279 216.379 405.535C218.052 406.013 218.946 407.358 219.785 408.436C220.496 409.35 221.36 409.831 222.242 409.903C224.145 410.058 225.543 408.699 226.246 406.936C226.601 405.783 226.67 404.472 226.661 403.128C226.64 403.008 226.613 402.889 226.586 402.772C226.24 399.645 227.785 399.576 227.704 400.269C227.632 400.905 228.03 402.259 228.974 402.698L228.98 402.695Z" fill="#193161"/>
<path fill-rule="evenodd" clip-rule="evenodd" d="M247.51 400.657C247.743 401.843 249.339 400.642 249.865 403.656C250.872 402.235 249.255 400.332 248.105 399.994C247.842 399.917 247.271 399.779 247.51 400.657Z" fill="white"/>
<path fill-rule="evenodd" clip-rule="evenodd" d="M190.145 346.029C198.386 360.086 213.65 381.086 222.167 393.659C224.339 397.742 220.661 404.042 213.91 404.95C204.249 393.435 193.002 386.92 183.46 372.677C181.656 369.983 178.324 364.316 176.229 360.233C173.623 360.549 170.097 361.096 166.278 361.726C158.398 363.026 151.878 364.863 146.714 367.339C130.106 375.306 118.458 374.153 111.28 368.328C103.093 361.687 101.022 349.434 109.386 345.799C118.341 341.904 128.567 341.076 138.796 340.147C148.143 339.296 166.822 337.489 178.249 339.015C179.142 339.135 179.991 339.275 180.786 339.436C183.831 339.968 185.899 340.721 188.164 343.092C189.072 343.995 189.724 344.989 190.145 346.032V346.029Z" fill="url(#paint31_linear_27_4646)"/>
<path fill-rule="evenodd" clip-rule="evenodd" d="M221.091 391.194C221.581 392.004 223.362 394.605 223.825 395.385C225.095 398.775 220.544 404.594 213.749 405.114C213.235 404.424 211.346 402.411 210.817 401.748C216.952 400.015 220.828 396.583 221.091 391.197V391.194Z" fill="url(#paint32_linear_27_4646)"/>
<path fill-rule="evenodd" clip-rule="evenodd" d="M119.435 276.823C121.216 273.755 123.018 271.171 124.984 268.414C126.595 266.156 127.142 266.213 129.637 265.505C132.383 264.728 132.966 264.922 135.416 265.654C137.547 266.29 139.333 267.799 139.865 268.755C141.557 271.799 134.517 272.462 133.91 272.734C132.762 274.953 132.449 276.689 130.399 277.943C127.004 280.019 125.633 280.094 124.372 282.573L119.435 276.82V276.823Z" fill="#FFA698"/>
<path fill-rule="evenodd" clip-rule="evenodd" d="M126.957 272.778C129.141 270.227 129.272 269.639 132.123 267.291C132.24 267.246 132.353 267.204 132.464 267.166L134.902 267.303C136.109 268.564 138.231 269.818 139.615 268.396C139.674 268.48 139.734 268.564 139.788 268.65C140.792 270.245 139.779 272.318 138.853 272.462C136.614 272.802 134.863 272.309 133.91 272.734C132.763 274.956 132.449 276.689 130.399 277.943C127.004 280.019 125.633 280.094 124.372 282.573L121.246 278.932L126.954 272.775L126.957 272.778Z" fill="#FF9281"/>
<path fill-rule="evenodd" clip-rule="evenodd" d="M105.659 307.483C107.865 304.37 119.701 291.887 122.617 286.767C123.048 286.014 123.257 284.213 123.242 283.894L124.832 281.838C124.533 279.383 121.849 276.548 119.456 276.229L117.738 277.63C116.569 277.567 114.711 277.967 113.707 278.556C105.737 283.216 91.4056 296.413 91.4773 305.897C91.5251 312.466 102.596 310.249 105.662 307.48L105.659 307.483Z" fill="url(#paint33_linear_27_4646)"/>
<path fill-rule="evenodd" clip-rule="evenodd" d="M139.916 255.555L119.133 288.667L152.885 296.983L173.668 263.871L139.916 255.555Z" fill="url(#paint34_linear_27_4646)"/>
<path fill-rule="evenodd" clip-rule="evenodd" d="M123.517 278.98C128.256 279.44 127.5 276.713 129.174 273.576C130.01 273.185 130.647 272.477 131.445 271.775C134.687 271.228 135.096 269.738 134.687 268.181C133.593 268.199 131.436 268.202 130.506 268.31C126.042 270.21 122.725 270.353 120.792 275.273C120.09 277.059 122.113 276.766 123.517 278.98Z" fill="#FFA698"/>
<path fill-rule="evenodd" clip-rule="evenodd" d="M146.816 293.593C146.666 294.065 146.926 294.572 147.401 294.722C147.873 294.871 148.378 294.611 148.531 294.139C149.188 292.081 150.124 287.636 150.103 284.04C150.088 281.426 149.547 279.189 148.029 278.34C145.495 276.925 143.854 277.982 142.202 279.051C141.909 279.237 141.613 279.428 141.368 279.568C140.681 279.962 140.113 280.154 139.65 280.181C139.148 280.21 138.759 280.028 138.467 279.706C138.108 279.311 137.857 278.714 137.699 278.018C137.397 276.695 137.442 275.093 137.699 273.806C137.839 273.113 138.003 272.42 138.168 271.733C139.07 267.945 139.934 264.319 136.536 262.9C136.076 262.709 135.55 262.927 135.359 263.387C135.168 263.847 135.386 264.373 135.846 264.564C137.833 265.391 137.143 268.292 136.42 271.318C136.249 272.035 136.076 272.76 135.936 273.459C135.634 274.959 135.586 276.847 135.948 278.421C136.172 279.398 136.557 280.276 137.137 280.915C137.785 281.629 138.646 282.039 139.755 281.973C140.49 281.928 141.323 281.665 142.259 281.127C142.602 280.93 142.886 280.745 143.167 280.563C144.365 279.786 145.555 279.019 147.144 279.909C147.99 280.381 148.292 282.041 148.304 284.055C148.322 287.436 147.437 291.642 146.813 293.593H146.816Z" fill="white"/>
<path fill-rule="evenodd" clip-rule="evenodd" d="M93.4139 339.899L94.0743 342.743C99.5218 351.486 120.033 357.299 134.597 344.706C134.26 343.311 134.056 342.352 133.952 341.085C134.29 340.093 134.257 338.522 134.033 336.252C133.477 330.663 131.406 320.889 131.382 320.426C130.737 308.095 133.435 295.851 127.969 287.081C126.795 285.199 125.223 284.473 123.415 283.508C119.483 281.405 101.793 275.957 92.6071 274.631C87.0849 273.833 81.0218 274.881 79.0436 281.25C76.3453 289.946 81.9661 302.823 86.5889 314.987C92.634 330.893 89.852 333.328 93.4139 339.896V339.899Z" fill="url(#paint35_linear_27_4646)"/>
<g style="mix-blend-mode:multiply" opacity="0.35">
<path fill-rule="evenodd" clip-rule="evenodd" d="M134.119 337.214C134.095 336.909 134.066 336.586 134.033 336.252C133.477 330.663 131.406 320.889 131.382 320.426C130.737 308.095 133.809 295.609 127.97 287.081C124.551 282.086 117.137 282.956 114.499 289.124C112.5 293.799 114.313 300.484 116.737 311.536C118.455 319.372 121.542 337.692 126.186 339.615C127.763 340.27 130.453 339.418 134.116 337.214H134.119Z" fill="#3469C0"/>
</g>
<path fill-rule="evenodd" clip-rule="evenodd" d="M107.24 266.607C107.575 269.582 108.51 273.782 109.613 276.656C103.541 277.594 94.857 277.591 93.0969 273.268L92.7354 264.767C97.5792 258.981 106.986 266.67 107.24 266.607Z" fill="url(#paint36_linear_27_4646)"/>
<path fill-rule="evenodd" clip-rule="evenodd" d="M92.9926 273.122C91.3102 274.009 89.9865 276.157 90.5333 277.274C93.6769 284.204 107.438 283.801 115.392 280.494C114.301 278.672 111.355 276.351 109.673 276.133C104.557 277.624 95.4071 277.11 92.9926 273.122Z" fill="#4A9FF8"/>
<path fill-rule="evenodd" clip-rule="evenodd" d="M106.424 272.342C104.611 271.915 103.571 269.714 102.916 265.971C102.36 262.798 93.4198 266.807 93.5662 266.598C92.7564 263.713 89.9505 261.529 89.317 257.514C88.4295 251.901 89.81 245.978 95.377 242.647C105.546 236.566 116.617 243.319 118.183 254.396C118.488 256.558 116.692 257.469 116.516 259.262C116.48 259.611 116.895 260.038 117.167 260.86C117.544 261.998 116.453 269.125 114.409 271.903C113.56 273.059 107.793 272.889 106.427 272.342H106.424Z" fill="#FFA698"/>
<path fill-rule="evenodd" clip-rule="evenodd" d="M114.403 271.903C114.056 272.402 111.442 271.838 110.477 271.395C114.561 266.258 109.834 262.105 114.021 257.21C116.537 254.27 113.94 250.999 116.743 249.452C117.436 250.967 117.929 252.624 118.177 254.396C118.482 256.558 116.686 257.469 116.51 259.262C116.474 259.611 116.889 260.038 117.161 260.86C117.538 261.998 116.375 269.071 114.403 271.903Z" fill="url(#paint37_linear_27_4646)"/>
<path fill-rule="evenodd" clip-rule="evenodd" d="M108.654 265.152C109.329 263.853 108.979 263.3 108.358 263.369C107.677 263.444 106.613 264.268 105.937 265.618C104.847 267.796 105.594 270.831 107.949 269.998C106.036 269.854 106.517 267.593 107.273 266.258C107.787 265.353 108.474 264.752 108.654 265.155V265.152Z" fill="#FFB49C"/>
<path fill-rule="evenodd" clip-rule="evenodd" d="M107.7 265.657C108.101 266.715 108.205 267.327 107.99 267.644C107.841 267.865 107.437 268.086 106.917 267.426C106.992 266.739 107.315 266.135 107.7 265.657Z" fill="#FF9D8E"/>
<path fill-rule="evenodd" clip-rule="evenodd" d="M92.3082 267.022C91.6837 263.796 89.078 260.806 88.4983 257.147C87.9275 253.538 87.9484 248.562 91.6179 245.751C93.9667 236.703 105.925 235.881 113.683 238.866C119.235 241.001 118.855 248.156 114.451 250.387C114.998 253.622 113.214 256.319 112.64 256.941C110.892 258.844 110.775 259.151 110.45 261.194C110.193 262.807 109.61 266.736 108.385 263.247C107.593 260.991 104.733 263.073 104.058 265.335C103.75 266.362 103.353 267.656 102.062 269.266C99.0586 273.008 92.6519 268.815 92.3052 267.022H92.3082Z" fill="#562E65"/>
<path fill-rule="evenodd" clip-rule="evenodd" d="M96.0586 243.776C99.0229 235.448 110.952 237.793 114.762 240.069C118.62 242.373 117.66 250.501 111.827 249.769C107.85 249.27 103.532 242.632 96.0586 243.773V243.776Z" fill="url(#paint38_linear_27_4646)"/>
<path fill-rule="evenodd" clip-rule="evenodd" d="M156.229 288.655L159.824 288.231L163.003 285.59L163.174 280.715L160.583 279.156C157.861 279.485 156.268 278.729 155.697 279.249C155.064 279.825 155.38 282.956 156.229 288.655Z" fill="#FF9584"/>
<path fill-rule="evenodd" clip-rule="evenodd" d="M148.465 297.183C149.099 296.433 149.637 295.678 150.046 294.901C149.924 291.977 150.71 290.131 151.992 288.386C154.086 285.536 154.382 285.163 154.824 283.042C155.01 282.161 155.111 281.483 155.279 281.083C155.736 279.98 156.997 280.291 157.43 281.414C157.771 282.295 157.699 283.505 157.538 284.258L156.979 285.74L160.804 281.39C161.419 280.437 154.047 281.426 155.7 279.18C156.635 278.663 157.938 278.57 159.483 278.448C160.959 278.329 162.229 278.43 162.821 278.481C164.348 278.609 164.945 284.876 164.969 286.507C164.978 287.188 164.954 288.356 164.593 289.118C163.69 291.018 162.501 292.831 161.21 293.984C158.727 296.2 156.501 295.923 154.597 300.102L148.459 297.183H148.465Z" fill="#FFA698"/>
<path fill-rule="evenodd" clip-rule="evenodd" d="M167.763 276.133C160.986 278.869 151.678 282.331 148.352 285.256C151.998 285.223 161.685 280.871 168.484 278.048C170.166 277.349 169.344 275.494 167.766 276.133H167.763Z" fill="#273087"/>
<path fill-rule="evenodd" clip-rule="evenodd" d="M151.992 288.386C154.086 285.536 154.382 285.163 154.825 283.042C155.01 282.161 155.111 281.483 155.279 281.083C155.736 279.98 156.997 280.291 157.43 281.414C157.771 282.295 157.699 283.505 157.538 284.258L156.857 286.639L151.989 288.386H151.992Z" fill="#FFA698"/>
<path fill-rule="evenodd" clip-rule="evenodd" d="M135.425 309.132C139.008 304.385 143.051 299.146 145.474 297.001C146.126 296.425 147.841 295.851 148.158 295.8L149.84 293.823C152.305 293.611 155.631 295.651 156.438 297.927L155.419 299.899C155.721 301.028 155.712 302.931 155.344 304.033C152.461 312.669 142.725 329.074 133.534 331.323C132.571 331.589 131.403 331.619 129.978 331.311C128.283 330.947 127.542 328.706 126.852 327.273C121.381 315.925 118.718 311.856 115.183 300.439C112.852 292.915 113.635 288.622 116.298 286.044C119.632 282.812 124.62 282.794 127.297 286.244C131.334 291.448 133.835 301.297 135.419 309.132H135.425Z" fill="url(#paint39_linear_27_4646)"/>
<path fill-rule="evenodd" clip-rule="evenodd" d="M172.183 382.305L146.613 399.203C131.493 408.621 110.369 409.018 94.8335 400.251L65.9824 383.9C55.4729 377.943 52.7985 368.809 53.9728 356.355C54.8573 346.973 62.54 322.723 67.1926 313.123C78.9811 288.79 116.609 313.855 122.905 331.007C126.804 341.635 131.538 348.517 138.073 355.208C154.439 371.96 158.536 357.096 169.987 353.067C180.652 349.315 181.306 361.404 180.798 370.703C180.499 376.196 177.58 378.786 172.183 382.302V382.305Z" fill="url(#paint40_linear_27_4646)"/>
<path style="mix-blend-mode:multiply" opacity="0.5" fill-rule="evenodd" clip-rule="evenodd" d="M172.183 382.304L146.613 399.203C131.493 408.621 110.369 409.018 94.8335 400.251L65.9824 383.9C55.4729 377.943 52.7985 368.809 53.9728 356.355C54.1701 354.246 54.7139 351.382 55.4879 348.105C58.0906 351.367 95.2907 384.022 123.377 386.146C140.891 387.472 158.769 381.955 180.798 370.705C180.499 376.199 177.58 378.789 172.183 382.304Z" fill="url(#paint41_linear_27_4646)"/>
</g>
<defs>
<linearGradient id="paint0_linear_27_4646" x1="385.792" y1="114.858" x2="363.052" y2="87.676" gradientUnits="userSpaceOnUse">
<stop stop-color="#FA5DB1"/>
<stop offset="1" stop-color="#FEBFBF"/>
</linearGradient>
<linearGradient id="paint1_linear_27_4646" x1="388.974" y1="130.23" x2="343.766" y2="96.2028" gradientUnits="userSpaceOnUse">
<stop stop-color="#FA5DB1"/>
<stop offset="1" stop-color="#FEBFBF"/>
</linearGradient>
<linearGradient id="paint2_linear_27_4646" x1="280.793" y1="5.71132" x2="270.341" y2="44.982" gradientUnits="userSpaceOnUse">
<stop stop-color="#FA5DB1"/>
<stop offset="1" stop-color="#FEBFBF"/>
</linearGradient>
<linearGradient id="paint3_linear_27_4646" x1="283.865" y1="139.23" x2="223.522" y2="347.286" gradientUnits="userSpaceOnUse">
<stop stop-color="#D1E8FF"/>
<stop offset="1" stop-color="#EAEFFF"/>
</linearGradient>
<linearGradient id="paint4_linear_27_4646" x1="221.728" y1="243.131" x2="350.381" y2="145.416" gradientUnits="userSpaceOnUse">
<stop stop-color="#6D6AFE"/>
<stop offset="1" stop-color="#3FB0F7"/>
</linearGradient>
<linearGradient id="paint5_linear_27_4646" x1="278.77" y1="318.233" x2="91.9491" y2="153.985" gradientUnits="userSpaceOnUse">
<stop stop-color="#6D6AFE"/>
<stop offset="1" stop-color="#3FB0F7"/>
</linearGradient>
<linearGradient id="paint6_linear_27_4646" x1="264.668" y1="380.906" x2="256.26" y2="248.893" gradientUnits="userSpaceOnUse">
<stop stop-color="#D1E8FF"/>
<stop offset="1" stop-color="#EAEFFF"/>
</linearGradient>
<linearGradient id="paint7_linear_27_4646" x1="267.794" y1="279.547" x2="243.567" y2="322.895" gradientUnits="userSpaceOnUse">
<stop stop-color="#D1E8FF"/>
<stop offset="1" stop-color="#EAEFFF"/>
</linearGradient>
<linearGradient id="paint8_linear_27_4646" x1="250.041" y1="347.367" x2="255.677" y2="334.876" gradientUnits="userSpaceOnUse">
<stop stop-color="#6D6AFE"/>
<stop offset="1" stop-color="#3FB0F7"/>
</linearGradient>
<linearGradient id="paint9_linear_27_4646" x1="291.475" y1="320.498" x2="280.184" y2="316.032" gradientUnits="userSpaceOnUse">
<stop stop-color="#6D6AFE"/>
<stop offset="1" stop-color="#3FB0F7"/>
</linearGradient>
<linearGradient id="paint10_linear_27_4646" x1="291.475" y1="341.446" x2="280.184" y2="336.981" gradientUnits="userSpaceOnUse">
<stop stop-color="#6D6AFE"/>
<stop offset="1" stop-color="#3FB0F7"/>
</linearGradient>
<linearGradient id="paint11_linear_27_4646" x1="310.012" y1="140.777" x2="317.187" y2="242.558" gradientUnits="userSpaceOnUse">
<stop stop-color="#D870AC"/>
<stop offset="1" stop-color="#58469C"/>
</linearGradient>
<linearGradient id="paint12_linear_27_4646" x1="331.849" y1="230.558" x2="353.714" y2="155.138" gradientUnits="userSpaceOnUse">
<stop stop-color="#A77EF7"/>
<stop offset="1" stop-color="#5E65D6"/>
</linearGradient>
<linearGradient id="paint13_linear_27_4646" x1="200.225" y1="54.3058" x2="206.702" y2="146.387" gradientUnits="userSpaceOnUse">
<stop stop-color="#D870AC"/>
<stop offset="1" stop-color="#58469C"/>
</linearGradient>
<linearGradient id="paint14_linear_27_4646" x1="185.878" y1="27.7653" x2="166.346" y2="115.354" gradientUnits="userSpaceOnUse">
<stop stop-color="#965CF2"/>
<stop offset="1" stop-color="#FF8ADC"/>
</linearGradient>
<linearGradient id="paint15_linear_27_4646" x1="57.5529" y1="239.645" x2="70.2788" y2="261.431" gradientUnits="userSpaceOnUse">
<stop stop-color="#FF8A78"/>
<stop offset="1" stop-color="#FFA799"/>
</linearGradient>
<linearGradient id="paint16_linear_27_4646" x1="56.9074" y1="259.083" x2="37.3648" y2="248.445" gradientUnits="userSpaceOnUse">
<stop stop-color="#FFB89E"/>
<stop offset="1" stop-color="#FFA799"/>
</linearGradient>
<linearGradient id="paint17_linear_27_4646" x1="71.5463" y1="208.272" x2="46.2332" y2="219.399" gradientUnits="userSpaceOnUse">
<stop stop-color="#3E4795"/>
<stop offset="1" stop-color="#273088"/>
</linearGradient>
<linearGradient id="paint18_linear_27_4646" x1="42.7913" y1="107.892" x2="35.9171" y2="134.007" gradientUnits="userSpaceOnUse">
<stop stop-color="#5A2D68"/>
<stop offset="1" stop-color="#22043D"/>
</linearGradient>
<linearGradient id="paint19_linear_27_4646" x1="58.799" y1="108.561" x2="52.444" y2="123.678" gradientUnits="userSpaceOnUse">
<stop stop-color="#5A2D68"/>
<stop offset="1" stop-color="#22043D"/>
</linearGradient>
<linearGradient id="paint20_linear_27_4646" x1="117.129" y1="151.119" x2="116.505" y2="148.854" gradientUnits="userSpaceOnUse">
<stop stop-color="#FF8A78"/>
<stop offset="1" stop-color="#FFA799"/>
</linearGradient>
<linearGradient id="paint21_linear_27_4646" x1="94.1459" y1="208.024" x2="44.2986" y2="190.234" gradientUnits="userSpaceOnUse">
<stop stop-color="#FE9656"/>
<stop offset="1" stop-color="#FF6200"/>
</linearGradient>
<linearGradient id="paint22_linear_27_4646" x1="63.3134" y1="271.13" x2="14.4451" y2="262.535" gradientUnits="userSpaceOnUse">
<stop stop-color="#FE9656"/>
<stop offset="1" stop-color="#FF6200"/>
</linearGradient>
<linearGradient id="paint23_linear_27_4646" x1="57.6395" y1="129.916" x2="56.9497" y2="133.369" gradientUnits="userSpaceOnUse">
<stop stop-color="#FF8A78"/>
<stop offset="1" stop-color="#FFA799"/>
</linearGradient>
<linearGradient id="paint24_linear_27_4646" x1="69.93" y1="116.459" x2="64.6108" y2="125.076" gradientUnits="userSpaceOnUse">
<stop stop-color="#FFB89E"/>
<stop offset="1" stop-color="#FFA799"/>
</linearGradient>
<linearGradient id="paint25_linear_27_4646" x1="43.371" y1="195.49" x2="42.2718" y2="197.01" gradientUnits="userSpaceOnUse">
<stop stop-color="#FFB89E"/>
<stop offset="1" stop-color="#FFA799"/>
</linearGradient>
<linearGradient id="paint26_linear_27_4646" x1="34.9589" y1="248.399" x2="1.36959" y2="243.043" gradientUnits="userSpaceOnUse">
<stop stop-color="#FE9656"/>
<stop offset="1" stop-color="#FF6200"/>
</linearGradient>
<linearGradient id="paint27_linear_27_4646" x1="130.009" y1="512.179" x2="47.2075" y2="472.584" gradientUnits="userSpaceOnUse">
<stop stop-color="#FE9656"/>
<stop offset="1" stop-color="#FF6200"/>
</linearGradient>
<linearGradient id="paint28_linear_27_4646" x1="168.935" y1="352.018" x2="147.126" y2="386.285" gradientUnits="userSpaceOnUse">
<stop stop-color="#235DA3"/>
<stop offset="1" stop-color="#123A76"/>
</linearGradient>
<linearGradient id="paint29_linear_27_4646" x1="155.844" y1="395.818" x2="150.138" y2="401.529" gradientUnits="userSpaceOnUse">
<stop stop-color="#235DA3"/>
<stop offset="1" stop-color="#123A76"/>
</linearGradient>
<linearGradient id="paint30_linear_27_4646" x1="164.724" y1="336.736" x2="101.984" y2="353.959" gradientUnits="userSpaceOnUse">
<stop stop-color="#235DA3"/>
<stop offset="1" stop-color="#123A76"/>
</linearGradient>
<linearGradient id="paint31_linear_27_4646" x1="163.302" y1="355.904" x2="163.55" y2="398.925" gradientUnits="userSpaceOnUse">
<stop stop-color="#235DA3"/>
<stop offset="1" stop-color="#123A76"/>
</linearGradient>
<linearGradient id="paint32_linear_27_4646" x1="218.159" y1="396.425" x2="215.866" y2="405.918" gradientUnits="userSpaceOnUse">
<stop stop-color="#235DA3"/>
<stop offset="1" stop-color="#123A76"/>
</linearGradient>
<linearGradient id="paint33_linear_27_4646" x1="106.819" y1="291.305" x2="114.261" y2="306.983" gradientUnits="userSpaceOnUse">
<stop stop-color="#6D6AFE"/>
<stop offset="1" stop-color="#3FB0F7"/>
</linearGradient>
<linearGradient id="paint34_linear_27_4646" x1="139.214" y1="289.853" x2="154.568" y2="260.81" gradientUnits="userSpaceOnUse">
<stop stop-color="#A77EF7"/>
<stop offset="1" stop-color="#5E65D6"/>
</linearGradient>
<linearGradient id="paint35_linear_27_4646" x1="99.6085" y1="284.948" x2="121.8" y2="342.351" gradientUnits="userSpaceOnUse">
<stop stop-color="#6D6AFE"/>
<stop offset="1" stop-color="#3FB0F7"/>
</linearGradient>
<linearGradient id="paint36_linear_27_4646" x1="102.229" y1="266.756" x2="100.309" y2="273.95" gradientUnits="userSpaceOnUse">
<stop stop-color="#FF8A78"/>
<stop offset="1" stop-color="#FFA799"/>
</linearGradient>
<linearGradient id="paint37_linear_27_4646" x1="117.212" y1="259.737" x2="109.331" y2="264.342" gradientUnits="userSpaceOnUse">
<stop stop-color="#FFB89E"/>
<stop offset="1" stop-color="#FFA799"/>
</linearGradient>
<linearGradient id="paint38_linear_27_4646" x1="120.499" y1="244.338" x2="103.054" y2="243.612" gradientUnits="userSpaceOnUse">
<stop stop-color="#8A4791"/>
<stop offset="1" stop-color="#562E65"/>
</linearGradient>
<linearGradient id="paint39_linear_27_4646" x1="130.653" y1="289.187" x2="144.414" y2="318.996" gradientUnits="userSpaceOnUse">
<stop stop-color="#6D6AFE"/>
<stop offset="1" stop-color="#3FB0F7"/>
</linearGradient>
<linearGradient id="paint40_linear_27_4646" x1="136.135" y1="520.626" x2="1.28026" y2="474.758" gradientUnits="userSpaceOnUse">
<stop stop-color="#FE9656"/>
<stop offset="1" stop-color="#FF6200"/>
</linearGradient>
<linearGradient id="paint41_linear_27_4646" x1="108.645" y1="410.3" x2="114.985" y2="376.314" gradientUnits="userSpaceOnUse">
<stop stop-color="#965CF2"/>
<stop offset="1" stop-color="#FF8ADC"/>
</linearGradient>
<clipPath id="clip0_27_4646">
<rect width="405" height="469" fill="white"/>
</clipPath>
</defs>
</svg>
