<svg width="422" height="612" viewBox="0 0 422 612" fill="none" xmlns="http://www.w3.org/2000/svg">
<g clip-path="url(#clip0_27_4525)">
<path fill-rule="evenodd" clip-rule="evenodd" d="M51.8409 246.218C51.8131 245.318 51.0593 244.548 50.1587 244.497C49.0677 244.429 48.1909 245.294 48.2266 246.385C48.3338 248.836 48.5321 251.279 48.8019 253.719C49.0677 255.678 51.7298 255.904 52.3328 254.04C52.3963 253.794 52.432 253.564 52.3963 253.314C52.1305 250.962 51.9401 248.59 51.8369 246.222L51.8409 246.218ZM185.905 57.1876C187.499 58.1633 189.511 56.2039 188.21 54.4666C188.059 54.2921 187.928 54.181 187.726 54.0581L181.469 50.4169C179.874 49.4412 177.863 51.4006 179.164 53.1379C179.315 53.3124 179.446 53.4234 179.648 53.5464L185.905 57.1876ZM170.265 48.0847C171.86 49.0604 173.872 47.101 172.57 45.3637C172.42 45.1892 172.289 45.0781 172.086 44.9552L165.83 41.314C164.235 40.3383 162.224 42.2977 163.525 44.035C163.676 44.2095 163.807 44.3206 164.009 44.4435L170.265 48.0847ZM154.626 38.9818C156.221 39.9575 158.233 37.9981 156.931 36.2608C156.78 36.0863 156.65 35.9752 156.447 35.8523L150.191 32.2111C148.596 31.2354 146.584 33.1948 147.886 34.9321C148.037 35.1066 148.167 35.2177 148.37 35.3406L154.626 38.9818ZM138.987 29.8789C140.582 30.8546 142.593 28.8952 141.292 27.1579C141.141 26.9834 141.01 26.8724 140.808 26.7494L134.552 23.1082C132.957 22.1325 130.945 24.0919 132.247 25.8292C132.397 26.0037 132.528 26.1148 132.731 26.2377L138.987 29.8789ZM123.348 20.776C124.943 21.7517 126.954 19.7923 125.653 18.055C125.502 17.8805 125.371 17.7695 125.169 17.6465L118.912 14.0053C117.318 13.0296 115.306 14.989 116.607 16.7263C116.758 16.9008 116.889 17.0119 117.091 17.1348L123.348 20.776ZM107.709 11.6731C109.304 12.6488 111.315 10.6894 110.014 8.95215C109.863 8.77762 109.732 8.66656 109.53 8.54361L108.205 7.77412L108.217 7.78206C106.526 6.81425 104.781 5.87025 103.015 5.04921C101.23 4.20436 99.5082 6.50488 101.004 8.00021C101.163 8.13903 101.282 8.23026 101.48 8.32545C103.17 9.1346 104.793 9.99134 106.415 10.9234H106.411L107.709 11.6771V11.6731ZM91.6212 4.73189C93.7556 5.26339 94.8347 2.1815 92.7321 1.29699C92.6527 1.26922 92.5813 1.24146 92.5019 1.22163C89.9827 0.618735 87.634 0.202263 85.0473 -2.39874e-05C82.8971 -0.10315 82.3654 2.89148 84.4165 3.54197C84.5514 3.5737 84.6705 3.60544 84.8093 3.61337C87.2016 3.81962 89.2845 4.17263 91.6212 4.73189ZM74.6569 4.50581C76.8152 3.85929 76.1447 0.654432 73.8555 0.983644C71.4831 1.52704 68.6782 2.77249 66.5834 4.00604C64.7624 5.1206 66.0042 7.93278 68.095 7.27039C68.214 7.22676 68.3251 7.17916 68.4362 7.11173C70.396 5.95355 72.459 5.11267 74.653 4.50581H74.6569ZM60.934 13.8507C62.1995 12.1967 60.0255 9.99531 58.3235 11.3796C58.2124 11.4748 58.1291 11.562 58.0418 11.6771C56.5064 13.7039 55.2052 15.8973 54.134 18.2058C53.2612 20.0501 55.7566 21.7478 57.1571 20.1334C57.2642 19.9986 57.3435 19.8796 57.4189 19.7209C58.3989 17.6306 59.5375 15.695 60.934 13.8546V13.8507ZM54.2689 29.625C54.6735 27.499 51.6623 26.5907 50.8173 28.5938C50.7737 28.7128 50.738 28.808 50.7142 28.9349C50.2341 31.3504 49.9088 33.877 49.7461 36.3322C49.6787 37.7601 51.1148 38.6922 52.3844 38.0576C52.9358 37.7641 53.3247 37.1969 53.3564 36.5702C53.519 34.2538 53.8126 31.9057 54.2649 29.625H54.2689ZM53.1501 47.3112C53.1501 45.1971 50.131 44.7807 49.5835 46.867C49.5557 47.0137 49.5319 47.1327 49.5319 47.2874L49.4843 54.5221C49.4843 56.6362 52.5034 57.0527 53.0509 54.9664C53.0787 54.8196 53.1025 54.7006 53.1025 54.5459L53.1501 47.3112ZM53.0311 65.402C53.0311 63.2879 50.0119 62.8714 49.4644 64.9577C49.4367 65.1045 49.4129 65.2235 49.4129 65.3782L49.3653 72.6129C49.3653 74.727 52.3844 75.1435 52.9319 73.0571C52.9597 72.9104 52.9835 72.7914 52.9835 72.6367L53.0311 65.402ZM52.912 83.4927C52.912 81.3786 49.8929 80.9622 49.3454 83.0485C49.3177 83.1953 49.2938 83.3143 49.2938 83.4689L49.2462 90.7037C49.2462 92.8177 52.2654 93.2342 52.8129 91.1479C52.8406 91.0011 52.8644 90.8821 52.8644 90.7275L52.912 83.4927ZM52.793 101.583C52.793 99.4694 49.7739 99.0529 49.2264 101.139C49.1986 101.286 49.1748 101.405 49.1748 101.56L49.1272 108.794C49.1272 110.909 52.1464 111.325 52.6938 109.239C52.7216 109.092 52.7454 108.973 52.7454 108.818L52.793 101.583ZM52.678 119.674C52.678 117.56 49.6588 117.144 49.1114 119.23C49.0836 119.377 49.0598 119.496 49.0598 119.65L49.0122 126.885C49.0122 128.999 52.0313 129.416 52.5788 127.329C52.6066 127.183 52.6304 127.064 52.6304 126.909L52.678 119.674ZM52.5629 137.765C52.5629 135.651 49.5438 135.234 48.9963 137.321C48.9685 137.468 48.9447 137.587 48.9447 137.741L48.8971 144.976C48.8971 147.09 51.9163 147.507 52.4637 145.42C52.4915 145.273 52.5153 145.154 52.5153 145L52.5629 137.765ZM52.4439 155.856C52.4439 153.742 49.4248 153.325 48.8773 155.412C48.8495 155.558 48.8257 155.677 48.8257 155.832L48.7781 163.067C48.7781 165.181 51.7972 165.597 52.3447 163.511C52.3725 163.364 52.3963 163.245 52.3963 163.09L52.4439 155.856ZM52.3288 173.947C52.3288 171.832 49.3097 171.416 48.7622 173.502C48.7345 173.649 48.7107 173.768 48.7107 173.923L48.663 181.157C48.663 183.272 51.6822 183.688 52.2297 181.602C52.2574 181.455 52.2812 181.336 52.2812 181.181L52.3288 173.947ZM52.2138 192.037C52.2138 189.923 49.1947 189.507 48.6472 191.593C48.6194 191.74 48.5956 191.859 48.5956 192.014L48.548 199.248C48.548 201.362 51.5671 201.779 52.1146 199.692C52.1424 199.546 52.1662 199.427 52.1662 199.272L52.2138 192.037ZM52.0987 210.128C52.0987 208.014 49.0796 207.597 48.5321 209.684C48.5044 209.831 48.4805 209.95 48.4805 210.104L48.4329 217.339C48.4329 219.453 51.4521 219.87 51.9996 217.783C52.0273 217.636 52.0511 217.517 52.0511 217.363L52.0987 210.128ZM51.9797 228.219C51.9797 226.105 48.9606 225.688 48.4131 227.775C48.3853 227.921 48.3615 228.04 48.3615 228.195L48.3139 235.43C48.3139 237.544 51.3331 237.96 51.8805 235.874C51.9083 235.727 51.9321 235.608 51.9321 235.454L51.9797 228.219ZM53.6817 263.897C53.5111 263.012 52.6502 262.37 51.7536 262.457C50.6626 262.56 49.9326 263.548 50.1389 264.622C50.6269 267.026 51.2061 269.41 51.8528 271.778C52.4201 273.674 55.0861 273.483 55.3916 271.544C55.4154 271.294 55.4154 271.06 55.344 270.818C54.7172 268.533 54.1578 266.221 53.6857 263.901L53.6817 263.897ZM58.6448 280.976C58.0259 279.203 55.2448 279.508 55.1417 281.555C55.1417 281.829 55.1695 281.999 55.2567 282.253C56.1176 284.55 57.05 286.803 58.0339 289.048C59.0614 291.217 62.267 289.773 61.3386 287.576C60.3666 285.43 59.47 283.181 58.6409 280.976H58.6448ZM66.0637 297.187C65.7503 296.623 65.1949 296.278 64.5561 296.247C63.1557 296.171 62.2075 297.702 62.8859 298.92C64.0523 301.07 65.2742 303.18 66.5477 305.27C66.9921 305.996 67.9046 306.317 68.706 306.024C69.7851 305.627 70.2294 304.354 69.6303 303.374C68.3846 301.347 67.1944 299.281 66.0597 297.187H66.0637ZM75.5893 312.271C74.4744 310.692 71.86 311.823 72.3876 313.83C72.459 314.056 72.5305 314.21 72.6693 314.409C74.1094 316.384 75.6091 318.328 77.1603 320.216C77.684 320.862 78.6124 321.06 79.3622 320.684C80.4056 320.16 80.6912 318.819 79.9533 317.911C78.4457 316.083 76.9858 314.187 75.5893 312.271ZM87.0905 325.872C86.4399 325.221 85.3925 325.142 84.6705 325.729C83.8453 326.399 83.75 327.649 84.5118 328.41C86.2614 330.191 88.0546 331.774 89.8438 333.487C90.5699 334.122 91.645 334.086 92.3274 333.404C93.0574 332.674 93.0177 331.456 92.2401 330.774C90.4707 329.195 88.7489 327.565 87.0905 325.872Z" fill="url(#paint0_linear_27_4525)"/>
<path fill-rule="evenodd" clip-rule="evenodd" d="M221.717 31.4932C226.792 34.3014 229.759 37.5816 233.052 42.262C233.012 41.4449 232.973 44.4435 233.001 39.8108C233.028 35.178 230.366 27.6934 233.992 23.9412C235.429 22.4538 242.427 19.7249 244.109 19.2926C247.334 18.4636 251.076 19.0229 255.067 21.2044C261.141 24.5243 266.639 30.9895 270.631 38.7557C274.63 46.5417 277.117 59.5159 277.109 64.2041C277.101 68.8924 277.085 65.8224 277.038 66.6117C280.418 65.5963 283.453 65.6082 288.67 68.4958C293.891 71.3833 300.465 78.507 304.543 86.416C308.63 94.3448 311.2 103.638 311.22 112.293C311.236 119.052 309.693 124.418 307.07 128.131C304.428 131.875 299.318 134.088 295.696 135.286C285.314 138.891 265.299 117.846 254.734 111.868C243.526 105.526 232.37 99.2195 221.281 92.9487C215.235 89.5296 209.816 83.0128 205.935 75.2307C202.063 67.4685 199.727 58.4211 199.806 49.9846C199.854 45.0543 196.247 37.661 200.913 34.119C208.161 28.6176 215.905 28.2725 221.71 31.4853L221.717 31.4932Z" fill="#D0E7FF"/>
<path fill-rule="evenodd" clip-rule="evenodd" d="M215.842 34.0436C220.916 36.8518 223.884 40.132 227.177 44.8124C227.137 43.9953 227.097 46.9939 227.125 42.3612C227.153 37.7284 229.66 27.6061 233.647 24.2387C237.635 20.8712 243.121 20.4389 249.195 23.7587C255.269 27.0786 260.768 33.5399 264.759 41.3101C268.762 49.1001 271.246 62.0702 271.238 66.7585C271.234 71.4468 271.214 68.3768 271.166 69.1661C274.547 68.1507 277.582 68.1626 282.799 71.0501C288.02 73.9377 294.593 81.0613 298.672 88.9704C302.758 96.8992 305.329 106.157 305.349 114.847C305.369 123.542 302.834 130.015 298.743 133.422C294.665 136.821 289.011 137.138 282.799 133.624C271.444 127.199 260.113 120.793 248.866 114.427C237.658 108.084 226.502 101.778 215.414 95.507C209.367 92.0879 203.948 85.5672 200.068 77.7891C196.196 70.0268 193.859 60.9795 193.938 52.5429C194.018 44.1064 196.489 37.8395 200.441 34.4958C204.4 31.1481 210.768 31.2354 215.842 34.0436Z" fill="url(#paint1_linear_27_4525)"/>
<path fill-rule="evenodd" clip-rule="evenodd" d="M227.562 75.8376L217.159 69.8364L233.52 98.1684L249.985 88.7839L239.586 82.7788L239.618 56.1047L227.593 49.1635L227.562 75.8376Z" fill="white"/>
<path fill-rule="evenodd" clip-rule="evenodd" d="M263.613 87.3957L274.015 93.3969L257.654 65.0688L241.189 74.4494L251.588 80.4545L251.556 107.129L263.581 114.07L263.613 87.3957Z" fill="white"/>
<g style="mix-blend-mode:multiply" opacity="0.5">
<path fill-rule="evenodd" clip-rule="evenodd" d="M351.255 587.059L181.747 490.267C175.455 487.392 166.211 484.682 160.042 488.439L144.256 498.057C141.078 499.993 130.636 506.41 137.622 510.21C158.173 521.384 289.483 598.086 310.352 609.438C314.299 611.584 320.071 612.361 326.134 611.857C332.168 611.357 338.432 609.723 343.225 606.768L349.533 602.881C353.992 600.133 356.46 597.13 356.698 594.25C356.932 591.434 355.123 588.828 351.259 587.063L351.255 587.059Z" fill="#9E9BF5"/>
</g>
<path fill-rule="evenodd" clip-rule="evenodd" d="M349.707 574.149C349.684 582.399 346.74 588.206 342.039 590.938L334.576 595.424C308.971 584.501 318.473 454.776 316.914 417.896L324.777 224.356C318.167 212.809 292.737 202.731 298.672 179.147L223.63 144.028C220.297 141.763 132.727 91.0606 148.445 81.5532C151.076 79.9627 153.678 78.3602 156.273 76.853C162.077 73.4181 169.472 75.5441 174.907 78.6736L324.229 164.304C338.885 172.745 350.382 193.176 350.338 209.509L349.711 574.153L349.707 574.149Z" fill="url(#paint2_linear_27_4525)"/>
<path fill-rule="evenodd" clip-rule="evenodd" d="M140.812 98.3271C140.836 90.2396 143.637 84.4962 148.175 81.6999C152.956 78.7529 159.665 79.0702 167.088 83.3579L316.41 168.985C330.859 177.33 342.562 197.59 342.515 214.194L341.892 578.837C341.844 595.44 330.065 602.151 315.612 593.806L166.294 508.179C151.825 499.826 140.142 479.574 140.185 462.97L140.812 98.3271Z" fill="white"/>
<path fill-rule="evenodd" clip-rule="evenodd" d="M140.812 98.3271C140.836 90.2396 143.637 84.4962 148.175 81.6999C152.956 78.7529 159.665 79.0702 167.088 83.3579L316.41 168.985C330.859 177.33 342.562 197.59 342.515 214.194L341.892 578.837C341.844 595.44 330.065 602.151 315.612 593.806L166.294 508.179C151.825 499.826 140.142 479.574 140.185 462.97L140.812 98.3271Z" fill="url(#paint3_linear_27_4525)"/>
<path fill-rule="evenodd" clip-rule="evenodd" d="M321.666 199.403C325.578 201.66 328.76 199.847 328.776 195.353C328.788 190.855 325.626 185.382 321.714 183.125C317.802 180.868 314.62 182.681 314.605 187.175C314.593 191.668 317.755 197.146 321.666 199.403Z" fill="#485AF4"/>
<path fill-rule="evenodd" clip-rule="evenodd" d="M208.288 126.33C208.288 125.104 209.157 124.624 210.224 125.259C225.74 134.025 251.171 148.335 266.687 157.101C267.754 157.736 268.615 159.243 268.611 160.469V162.892C268.611 164.118 267.738 164.598 266.671 163.963C251.155 155.197 225.725 140.887 210.208 132.121C209.141 131.486 208.28 129.979 208.284 128.753V126.33H208.288Z" fill="#485AF4"/>
<path style="mix-blend-mode:multiply" opacity="0.5" fill-rule="evenodd" clip-rule="evenodd" d="M141.264 139.613L251.849 198.812C261.784 204.547 266.771 221.869 266.739 233.28L266.31 290.571C266.279 301.982 258.181 306.599 248.247 300.864L140.844 238.337L141.264 139.613Z" fill="url(#paint4_linear_27_4525)"/>
<path fill-rule="evenodd" clip-rule="evenodd" d="M107.895 132.589C107.907 128.749 106.547 126.37 108.193 124.267C109.24 122.931 112.886 121.312 114.43 120.781C117.413 119.746 121.202 120.281 125.32 122.661L244.391 191.97C253.972 197.503 261.732 210.937 261.701 221.948L261.288 277.216C261.28 280.631 260.566 285.002 257.947 287.398C256.083 289.103 252.81 290.817 250.382 291.011C247.886 291.213 246.922 288.909 243.863 287.144L124.792 217.835C115.199 212.298 107.447 198.867 107.479 187.857L107.891 132.589H107.895Z" fill="#F2F4FF"/>
<path fill-rule="evenodd" clip-rule="evenodd" d="M105.122 134.223C105.154 123.212 112.954 118.758 122.547 124.295L241.618 193.604C251.199 199.137 258.959 212.571 258.927 223.582L258.515 278.85C258.483 289.861 250.671 294.311 241.09 288.778L122.019 219.469C112.426 213.932 104.674 200.502 104.706 189.491L105.122 134.223Z" fill="url(#paint5_linear_27_4525)"/>
<path opacity="0.2" fill-rule="evenodd" clip-rule="evenodd" d="M160.268 184.894C160.276 181.955 162.359 180.8 164.918 182.324L242.507 226.323C245.066 227.842 247.137 231.463 247.125 234.402V240.217C247.117 243.156 245.03 244.311 242.475 242.787L164.886 198.788C162.327 197.269 160.256 193.648 160.268 190.709V184.894Z" fill="white"/>
<path opacity="0.2" fill-rule="evenodd" clip-rule="evenodd" d="M160.268 206.277C160.272 204.543 161.502 203.861 163.013 204.758L208.832 230.741C210.344 231.638 211.566 233.776 211.562 235.513V238.948C211.558 240.681 210.324 241.364 208.816 240.467L162.998 214.483C161.486 213.587 160.264 211.449 160.268 209.712V206.281V206.277Z" fill="white"/>
<path fill-rule="evenodd" clip-rule="evenodd" d="M133.314 189.031C128.529 186.266 124.36 179.745 123.995 174.462C123.63 169.183 127.208 167.136 131.989 169.901C136.769 172.665 140.943 179.19 141.308 184.469C141.673 189.753 138.095 191.791 133.314 189.031ZM151.091 187.389L147.981 185.592C147.394 182.685 146.271 179.666 144.752 176.755L146.787 175.597C145.636 173.471 144.311 171.4 142.855 169.449L140.824 170.607C138.805 167.985 136.496 165.641 134.044 163.8L133.806 160.362C132.953 159.747 132.088 159.184 131.211 158.676C130.334 158.168 129.474 157.74 128.64 157.375L128.878 160.814C126.49 159.858 124.324 159.616 122.515 160.024L120.146 156.32C118.849 156.677 117.714 157.327 116.774 158.244L119.143 161.944C117.917 163.269 117.135 165.189 116.921 167.632L113.811 165.835C113.759 166.7 113.763 167.616 113.83 168.584C113.898 169.552 114.025 170.543 114.207 171.543L117.318 173.34C117.901 176.243 119.028 179.266 120.543 182.173L118.508 183.331C119.658 185.457 120.983 187.528 122.439 189.479L124.471 188.321C126.49 190.943 128.799 193.287 131.251 195.127L131.489 198.562C132.342 199.181 133.207 199.744 134.088 200.252C134.964 200.759 135.821 201.188 136.654 201.549L136.416 198.114C138.805 199.07 140.971 199.312 142.776 198.903L145.148 202.608C146.446 202.251 147.58 201.6 148.521 200.684L146.148 196.979C147.374 195.659 148.156 193.739 148.37 191.296L151.48 193.092C151.532 192.228 151.528 191.307 151.46 190.34C151.393 189.372 151.266 188.384 151.084 187.385L151.091 187.389Z" fill="white"/>
<path style="mix-blend-mode:multiply" opacity="0.5" fill-rule="evenodd" clip-rule="evenodd" d="M288.618 212.73C288.654 200.01 297.664 194.865 308.745 201.263L349.37 224.316L350.152 295.981L342.36 298.464L308.138 279.044C297.053 272.646 288.103 257.134 288.138 244.418L288.618 212.734V212.73Z" fill="url(#paint6_linear_27_4525)"/>
<path fill-rule="evenodd" clip-rule="evenodd" d="M295.609 211.544C295.621 207.705 294.724 205.309 296.387 203.223C297.652 201.632 300.6 200.268 302.143 199.736C305.127 198.705 308.915 199.236 313.034 201.616L351.068 223.201C360.649 228.734 368.409 242.169 368.378 253.179L367.965 280.611C367.957 284.026 367.239 288.397 364.625 290.793C362.76 292.498 359.487 294.208 357.059 294.406C354.563 294.608 353.599 292.304 350.541 290.539L312.506 268.954C302.913 263.417 295.161 249.986 295.192 238.976L295.605 211.544H295.609Z" fill="#F2F4FF"/>
<path fill-rule="evenodd" clip-rule="evenodd" d="M292.832 213.178C292.863 202.168 300.663 197.713 310.256 203.25L348.291 224.835C357.872 230.369 365.632 243.803 365.6 254.814L365.188 282.245C365.156 293.256 357.344 297.706 347.763 292.173L309.729 270.588C300.136 265.051 292.383 251.617 292.415 240.61L292.832 213.178Z" fill="url(#paint7_linear_27_4525)"/>
<path fill-rule="evenodd" clip-rule="evenodd" d="M336.806 239.364L358.797 263.028L358.781 269.057L336.73 267.347L336.746 260.236L352.155 262.159L336.786 246.448L336.806 239.364Z" fill="white"/>
<path fill-rule="evenodd" clip-rule="evenodd" d="M333.592 232.752C333.989 233.395 334.179 234.045 334.179 234.755C334.179 235.263 334.009 236.128 333.695 237.318L327.474 262.778C327.276 263.631 327.082 264.277 326.939 264.741C326.768 265.213 326.546 265.499 326.213 265.63C325.911 265.769 325.463 265.674 324.852 265.321C323.38 264.472 322.63 263.27 322.638 261.81C322.638 261.426 322.781 260.545 323.087 259.157L329.28 233.681C329.593 232.328 329.906 231.451 330.208 231.051C330.49 230.634 331.073 230.686 331.902 231.166C332.652 231.598 333.207 232.11 333.592 232.752Z" fill="white"/>
<path fill-rule="evenodd" clip-rule="evenodd" d="M297.985 233.962L298.001 227.866L320.06 229.607L320.04 236.782L304.686 234.728L320 250.538L319.98 257.65L297.985 233.962Z" fill="white"/>
<path style="mix-blend-mode:multiply" opacity="0.5" fill-rule="evenodd" clip-rule="evenodd" d="M301.802 334.661C288.801 327.145 277.462 309.423 276.467 295.061C275.471 280.706 285.199 275.153 298.2 282.666C311.193 290.178 322.539 307.912 323.535 322.266C324.531 336.628 314.795 342.17 301.802 334.661Z" fill="url(#paint8_linear_27_4525)"/>
<path fill-rule="evenodd" clip-rule="evenodd" d="M278.355 284.109C279.724 281.793 284.242 279.961 286.908 279.449C290.019 278.85 293.899 279.687 298.192 282.166C309.455 288.675 319.294 304.052 320.155 316.495C320.413 320.192 319.901 323.246 318.635 325.467C317.453 327.541 312.676 330.6 310.236 331.143C295.855 335.296 274.324 290.928 278.355 284.113V284.109Z" fill="#F2F4FF"/>
<path fill-rule="evenodd" clip-rule="evenodd" d="M297.926 328.672C286.655 322.159 276.824 306.793 275.963 294.343C275.102 281.9 283.532 277.085 294.804 283.598C306.067 290.107 315.906 305.484 316.767 317.927C317.632 330.377 309.189 335.181 297.926 328.672Z" fill="#D1E7FF"/>
<path fill-rule="evenodd" clip-rule="evenodd" d="M303.448 297.262L306.436 298.757L293.165 318.95L281.454 301.585L285.31 303.093L291.495 308.963L303.448 297.262Z" fill="white"/>
<path style="mix-blend-mode:multiply" opacity="0.5" fill-rule="evenodd" clip-rule="evenodd" d="M214.608 314.294C214.636 303.902 221.999 299.697 231.053 304.925L349.775 372.981L349.787 482.104L341.943 486.515L230.557 422.878C221.499 417.65 214.188 404.974 214.215 394.582L214.608 314.294Z" fill="url(#paint9_linear_27_4525)"/>
<path fill-rule="evenodd" clip-rule="evenodd" d="M223.336 314.762C223.344 312.116 221.269 309.962 222.186 308.261C223.178 306.42 227.268 305.29 229.026 304.731C231.521 303.934 234.655 304.413 238.059 306.377L376.737 386.395C384.834 391.071 391.388 402.423 391.364 411.724L391.015 483.175C391.003 487.733 389.412 490.961 386.838 492.516C385.267 493.468 380.843 495.205 378.673 494.833C377.149 494.571 377.994 492.548 376.293 491.56L237.615 411.542C229.506 406.862 222.96 395.514 222.987 386.213L223.336 314.762Z" fill="url(#paint10_linear_27_4525)"/>
<path fill-rule="evenodd" clip-rule="evenodd" d="M219.702 316.075C219.73 306.773 226.32 303.005 234.425 307.686L373.103 387.704C381.2 392.38 387.754 403.732 387.73 413.033L387.381 484.484C387.353 493.785 380.756 497.546 372.658 492.873L233.981 412.855C225.875 408.175 219.325 396.827 219.353 387.525L219.702 316.075Z" fill="white"/>
<path fill-rule="evenodd" clip-rule="evenodd" d="M249.707 344.43C236.742 336.946 226.209 342.959 226.165 357.841C226.125 372.739 236.587 390.869 249.553 398.354C262.506 405.83 273.051 399.825 273.091 384.927C273.134 370.045 262.661 351.907 249.703 344.43H249.707Z" fill="url(#paint11_linear_27_4525)"/>
<path fill-rule="evenodd" clip-rule="evenodd" d="M239.618 351.102L239.646 378.046L262.898 379.95L239.618 351.102Z" fill="white"/>
<path opacity="0.5" fill-rule="evenodd" clip-rule="evenodd" d="M277.216 364.965C277.22 363.053 278.573 362.303 280.239 363.295L374.713 417.4C376.376 418.388 377.724 420.744 377.717 422.652V426.432C377.709 428.344 376.356 429.093 374.693 428.106L280.22 374C278.553 373.012 277.208 370.66 277.216 368.748V364.969V364.965Z" fill="#44A7F7"/>
<path opacity="0.5" fill-rule="evenodd" clip-rule="evenodd" d="M277.216 386.978C277.22 385.066 278.573 384.317 280.239 385.304L374.713 439.41C376.376 440.398 377.724 442.754 377.717 444.661V448.441C377.709 450.353 376.356 451.103 374.693 450.115L280.22 396.01C278.553 395.022 277.208 392.67 277.216 390.758V386.978Z" fill="#6D6AFD"/>
<path opacity="0.5" fill-rule="evenodd" clip-rule="evenodd" d="M277.216 408.27C277.22 406.358 278.573 405.608 280.239 406.596L374.713 460.702C376.376 461.689 377.724 464.045 377.717 465.953V469.733C377.709 471.645 376.356 472.395 374.693 471.407L280.22 417.301C278.553 416.314 277.208 413.962 277.216 412.05V408.27Z" fill="#6D6AFD"/>
<path style="mix-blend-mode:multiply" opacity="0.5" fill-rule="evenodd" clip-rule="evenodd" d="M140.241 301.788L167.31 317.086C177.736 323.107 186.178 337.723 186.147 349.706L185.698 403.542C185.663 415.52 177.165 420.363 166.734 414.346L140.241 399.373V301.792V301.788Z" fill="url(#paint12_linear_27_4525)"/>
<path fill-rule="evenodd" clip-rule="evenodd" d="M94.9298 295.985C94.9417 292.145 94.0451 289.75 95.7074 287.663C96.973 286.073 99.9246 284.708 101.464 284.177C104.447 283.146 108.236 283.677 112.354 286.057L163.061 314.71C172.642 320.243 180.402 333.678 180.37 344.688L179.957 391.607C179.949 395.022 179.231 399.393 176.617 401.789C174.752 403.494 171.479 405.208 169.051 405.402C166.556 405.604 165.592 403.3 162.533 401.535L111.831 372.881C102.238 367.34 94.4854 353.914 94.5172 342.903L94.9298 295.989V295.985Z" fill="#F2F4FF"/>
<path fill-rule="evenodd" clip-rule="evenodd" d="M92.1568 297.615C92.1886 286.604 99.9883 282.146 109.581 287.687L160.288 316.34C169.869 321.874 177.629 335.308 177.597 346.318L177.184 393.233C177.153 404.244 169.341 408.694 159.76 403.161L109.058 374.508C99.4647 368.971 91.7125 355.536 91.7442 344.53L92.1608 297.611L92.1568 297.615Z" fill="url(#paint13_linear_27_4525)"/>
<path fill-rule="evenodd" clip-rule="evenodd" d="M145.569 338.413L145.541 347.976L150.306 350.725C153.182 352.387 154.904 353.315 155.626 353.597C156.872 354.188 157.82 354.255 158.542 353.847C159.264 353.434 159.625 352.554 159.629 351.253C159.637 349.948 159.332 348.75 158.733 347.576C158.149 346.414 157.205 345.39 156.011 344.569C155.293 344.089 153.21 342.824 149.751 340.825L145.569 338.413ZM111.085 336.664L120.98 342.376L115.953 324.126L111.085 336.664ZM112.16 312.188L119.916 316.662L134.274 366.503L126.423 361.974L123.289 350.697L108.796 342.332L105.801 350.071L98.0444 345.593L112.164 312.188H112.16ZM159.931 372.413C160.573 371.894 160.938 370.93 160.942 369.431C160.946 368.193 160.724 367.035 160.177 365.833C159.649 364.635 158.875 363.58 157.931 362.62C156.908 361.617 154.773 360.165 151.425 358.234L145.521 354.826L145.49 365.996L152.282 369.915C154.912 371.434 156.578 372.33 157.3 372.524C158.379 372.949 159.268 372.921 159.935 372.413H159.931ZM166.751 366.944C167.881 369.383 168.46 371.783 168.456 374.178C168.449 376.09 168.088 377.732 167.302 379.065C166.524 380.402 165.517 381.255 164.188 381.512C162.823 381.838 161.212 381.58 159.244 380.664C158.05 380.104 155.138 378.553 150.484 375.868L138.15 368.748L138.265 327.26L152.742 335.613C155.618 337.271 157.753 338.659 159.113 339.706C160.55 340.821 161.799 342.082 162.93 343.629C164.005 345.144 164.949 346.866 165.663 348.714C166.437 350.598 166.794 352.367 166.786 354.148C166.782 356.147 166.282 357.627 165.39 358.698C164.497 359.816 163.243 360.332 161.688 360.197C163.882 362.204 165.56 364.481 166.751 366.948V366.944Z" fill="white"/>
<path style="mix-blend-mode:multiply" opacity="0.5" fill-rule="evenodd" clip-rule="evenodd" d="M175.562 421.204C175.574 416.833 178.672 415.06 182.481 417.262C222.844 440.409 263.125 464.367 303.496 487.514C307.301 489.712 310.383 495.047 310.371 499.418L310.129 572.875C310.118 577.246 307.015 579.015 303.21 576.818C262.843 553.67 222.559 529.709 182.195 506.565C178.387 504.364 175.308 499.033 175.32 494.662L175.566 421.204H175.562Z" fill="url(#paint14_linear_27_4525)"/>
<path fill-rule="evenodd" clip-rule="evenodd" d="M172.531 418.436L177.161 416.119C178.319 415.58 179.862 415.73 181.548 416.706C219.694 438.581 257.765 461.225 295.914 483.1C299.509 485.178 302.421 490.22 302.409 494.349L302.595 556.244C302.591 557.97 302.072 559.271 301.215 560.04C300.358 560.81 296.982 562.265 295.78 562.872C257.63 540.997 219.833 515.446 181.691 493.575C178.089 491.497 175.185 486.455 175.197 482.326L172.531 418.436Z" fill="url(#paint15_linear_27_4525)"/>
<path fill-rule="evenodd" clip-rule="evenodd" d="M170.464 422.699C170.476 418.566 173.404 416.893 177.002 418.975C215.148 440.85 253.218 463.494 291.368 485.369C294.962 487.447 297.874 492.488 297.862 496.617L298.049 558.513C298.037 562.646 295.105 564.312 291.511 562.238C253.361 540.363 215.291 517.715 177.145 495.844C173.543 493.766 170.638 488.724 170.65 484.595L170.464 422.699Z" fill="url(#paint16_linear_27_4525)"/>
<path fill-rule="evenodd" clip-rule="evenodd" d="M177.042 430.097C177.045 428.383 178.259 427.689 179.751 428.554C216.072 449.381 252.377 470.217 288.698 491.041C290.19 491.901 291.396 493.992 291.392 495.705L291.471 529.352C291.467 531.066 290.249 531.756 288.761 530.895C252.44 510.067 216.132 492.016 179.815 471.189C178.323 470.328 177.117 468.238 177.121 466.528L177.042 430.097Z" fill="url(#paint17_linear_27_4525)"/>
<path opacity="0.5" fill-rule="evenodd" clip-rule="evenodd" d="M181.152 481.184C181.156 479.272 182.509 478.523 184.175 479.51L278.649 533.616C280.311 534.604 281.66 536.96 281.652 538.867V542.647C281.644 544.559 280.291 545.309 278.629 544.321L184.155 490.216C182.489 489.228 181.144 486.876 181.152 484.964V481.184Z" fill="#04C6DF"/>
<path fill-rule="evenodd" clip-rule="evenodd" d="M309.84 116.414C311.244 117.195 312.887 115.922 312.478 114.367C312.315 113.883 312.081 113.522 311.621 113.265L310.689 112.737C308.634 112.551 308.253 115.851 309.84 116.414ZM321.071 118.611C319.667 117.83 318.024 119.103 318.433 120.658C318.596 121.142 318.83 121.503 319.29 121.761L325.59 125.326C326.995 126.108 328.637 124.835 328.228 123.28C328.066 122.796 327.832 122.435 327.371 122.177L321.071 118.611ZM336.818 127.524C335.413 126.742 333.771 128.016 334.179 129.57C334.342 130.054 334.576 130.415 335.036 130.673L341.336 134.239C342.741 135.02 344.383 133.747 343.975 132.192C343.812 131.708 343.578 131.347 343.118 131.09L336.818 127.524ZM352.568 136.436C351.163 135.655 349.521 136.928 349.93 138.483C350.092 138.967 350.326 139.328 350.787 139.586L357.087 143.151C358.491 143.933 360.134 142.66 359.725 141.105C359.562 140.621 359.328 140.26 358.868 140.002L352.568 136.436ZM368.318 145.349C366.914 144.567 365.271 145.841 365.68 147.395C365.843 147.879 366.077 148.24 366.537 148.498L372.837 152.064C374.241 152.845 375.884 151.572 375.475 150.017C375.313 149.533 375.079 149.172 374.618 148.915L368.318 145.349ZM384.064 154.261C382.66 153.48 381.018 154.753 381.426 156.308C381.589 156.792 381.823 157.153 382.283 157.411L388.583 160.976C389.988 161.758 391.63 160.485 391.222 158.93C391.059 158.446 390.825 158.085 390.365 157.827L384.064 154.261ZM399.882 163.34C399.608 163.146 399.315 163.067 398.994 163.031C397.137 162.94 396.339 165.268 397.851 166.331C399.775 167.616 401.525 169.112 403.195 170.714C404.587 172.106 407.011 170.484 406.055 168.568C405.956 168.39 405.861 168.263 405.722 168.124C403.917 166.383 401.973 164.737 399.886 163.34H399.882ZM412.871 176.759C411.518 174.843 408.686 176.668 409.797 178.663C411.098 180.761 412.276 182.597 413.395 184.822C413.649 185.358 414.224 185.751 414.803 185.81C416.255 185.961 417.251 184.513 416.632 183.2C415.502 180.967 414.268 178.837 412.871 176.759ZM420.635 193.671C420.147 191.72 417.188 191.942 417.077 194.06C417.077 194.262 417.088 194.397 417.136 194.592C417.723 196.841 418.14 199.078 418.334 201.398C418.537 203.54 421.611 203.639 421.933 201.481C421.944 201.354 421.952 201.231 421.941 201.104C421.718 198.558 421.278 196.143 420.635 193.675V193.671ZM422.004 212.115C422.004 209.997 418.985 209.589 418.437 211.671C418.41 211.818 418.386 211.937 418.386 212.091L418.33 219.326C418.33 221.444 421.349 221.853 421.897 219.77C421.925 219.624 421.948 219.505 421.948 219.35L422.004 212.115ZM421.869 230.206C421.869 228.088 418.85 227.679 418.302 229.762C418.275 229.909 418.251 230.028 418.251 230.182L418.195 237.417C418.195 239.535 421.214 239.944 421.762 237.861C421.79 237.714 421.814 237.595 421.814 237.441L421.869 230.206ZM421.734 248.297C421.734 246.179 418.715 245.77 418.168 247.853C418.14 247.999 418.116 248.118 418.116 248.273L418.06 255.508C418.06 257.626 421.08 258.034 421.627 255.952C421.655 255.805 421.679 255.686 421.679 255.531L421.734 248.297ZM421.599 266.388C421.599 264.269 418.58 263.861 418.033 265.943C418.005 266.09 417.981 266.209 417.981 266.364L417.926 273.598C417.926 275.716 420.945 276.125 421.492 274.043C421.52 273.896 421.544 273.777 421.544 273.622L421.599 266.388ZM420.885 284.819C421.341 282.9 418.656 281.646 417.517 283.578C417.438 283.737 417.394 283.856 417.35 284.026C416.866 286.184 416.097 288.096 414.752 289.861C413.431 291.59 415.732 293.859 417.485 292.225L417.604 292.086C419.274 289.92 420.282 287.477 420.877 284.819H420.885ZM406.746 297.31C408.844 297.31 409.261 294.263 407.158 293.74C407.015 293.708 406.888 293.692 406.738 293.692C404.52 293.692 402.433 293.173 400.382 292.36C398.577 291.598 396.899 293.998 398.585 295.461C398.728 295.568 398.855 295.644 399.017 295.711C401.509 296.707 404.052 297.314 406.75 297.314L406.746 297.31ZM389.274 290.384C390.868 291.36 392.88 289.401 391.579 287.663C391.428 287.489 391.297 287.378 391.095 287.255L384.838 283.614C383.243 282.638 381.232 284.597 382.533 286.335C382.684 286.509 382.815 286.62 383.017 286.743L389.274 290.384ZM373.634 281.281C375.229 282.257 377.241 280.298 375.939 278.56C375.789 278.386 375.658 278.275 375.455 278.152L368.096 273.813C366.505 273.107 365.347 276.526 367.378 277.64L373.634 281.281Z" fill="url(#paint18_linear_27_4525)"/>
<g style="mix-blend-mode:multiply" opacity="0.5">
<path fill-rule="evenodd" clip-rule="evenodd" d="M6.1019 570.301L70.5986 533.576C77.6287 530.363 87.6938 527.809 94.8549 531.534C101.381 534.929 112.137 541.882 116.889 544.591C120.5 546.65 133.036 554.158 125.229 558.402C102.262 570.888 79.5291 584.933 56.2092 597.614C51.7975 600.013 45.3466 600.878 38.5705 600.319C31.826 599.76 24.907 597.796 19.4678 594.631C15.5917 592.378 11.7791 590.157 8.03002 587.975C2.97169 585.028 0.289776 581.55 0.0239655 578.329C-0.237878 575.184 1.78546 572.269 6.1019 570.297V570.301Z" fill="#9E9BF5"/>
</g>
<path style="mix-blend-mode:multiply" opacity="0.5" fill-rule="evenodd" clip-rule="evenodd" d="M140.479 291.209L140.495 286.652L140.336 243.831L142.613 242.748C155.606 250.26 166.953 267.994 167.948 282.348C169.238 300.939 152.599 301.339 140.479 291.209Z" fill="url(#paint19_linear_27_4525)"/>
<path fill-rule="evenodd" clip-rule="evenodd" d="M122.769 244.188C124.137 241.871 128.656 240.039 131.322 239.527C134.432 238.928 138.312 239.765 142.605 242.244C153.868 248.753 163.707 264.131 164.568 276.573C164.826 280.27 164.314 283.32 163.049 285.545C161.866 287.62 157.09 290.678 154.65 291.221C140.268 295.374 118.738 251.006 122.769 244.192V244.188Z" fill="#F2F4FF"/>
<path fill-rule="evenodd" clip-rule="evenodd" d="M142.339 288.754C131.068 282.241 121.237 266.875 120.376 254.425C119.515 241.982 127.946 237.167 139.217 243.68C150.48 250.189 160.319 265.567 161.18 278.009C162.045 290.46 153.603 295.263 142.339 288.754Z" fill="#A0D3FB"/>
<path fill-rule="evenodd" clip-rule="evenodd" d="M150.441 267.05L144.855 263.972C143.962 263.48 143.133 262.405 142.788 261.322L140.642 254.536C140.253 253.314 139.384 252.331 138.555 251.875C137.726 251.414 136.936 251.482 136.706 252.362L135.425 257.253C135.218 258.03 134.48 258.237 133.564 257.733L127.99 254.643C125.986 253.536 125.356 255.904 127.081 258.102L131.858 264.178C132.628 265.162 133.013 266.36 132.802 267.157L131.497 272.016C131.14 273.361 132.402 275.395 133.695 276.109C134.1 276.331 134.508 276.427 134.873 276.327L139.11 275.213C139.451 275.118 139.868 275.209 140.3 275.447C140.729 275.685 141.169 276.066 141.554 276.565L146.323 282.658C146.732 283.185 147.16 283.554 147.569 283.78C148.858 284.494 149.905 283.737 149.314 281.876L147.16 275.094C146.803 273.987 147.033 273.127 147.719 272.948L151.968 271.861C153.5 271.465 152.46 268.168 150.445 267.058L150.441 267.05Z" fill="url(#paint20_linear_27_4525)"/>
<path fill-rule="evenodd" clip-rule="evenodd" d="M108.427 196.888C107.947 197.904 107.487 198.927 106.983 199.93L104.916 204.063C104.476 202.037 102.857 201.263 101.611 202.283C101.234 202.592 100.854 203.044 100.604 203.635C100.405 203.084 98.8382 201.834 96.7236 204.845C95.4025 204.702 94.7082 205.261 94.1488 206.328C93.8155 206.967 93.5259 207.732 93.2601 208.494C92.8832 209.573 92.6372 210.493 92.6412 211.429C92.6571 213.424 92.7404 215.586 92.6849 217.966C92.6253 220.552 89.6895 223.824 88.0986 225.708L97.6956 228.75C99.1635 226.91 99.953 225.577 101.433 224.078C102.94 222.551 104.841 222.368 106.281 221.194C107.086 220.536 107.546 219.663 108.911 217.728C110.042 216.125 110.661 214.392 111.74 212.643C112.791 210.826 112.728 211.227 112.835 209.192C112.918 207.617 113.426 206.066 113.553 205.115C111.581 204.131 110.03 206.566 110.042 208.938C108.911 209.573 108.173 211.132 107.915 211.826C106.348 209.775 107.281 208.918 107.915 206.289C108.911 204.46 109.621 202.85 110.173 201.005C110.478 200.196 110.784 199.355 111.113 198.447C111.561 196.972 110.99 195.924 110.542 195.635C110.173 195.393 109.221 195.504 108.419 196.888H108.427Z" fill="url(#paint21_linear_27_4525)"/>
<path fill-rule="evenodd" clip-rule="evenodd" d="M112.426 204.912C111.026 205.115 110.034 207.046 110.046 208.938C108.99 209.533 108.272 210.933 107.975 211.679C108.55 210.941 110.018 209.359 110.494 209.168C110.641 207.344 111.291 205.848 112.422 204.908L112.426 204.912ZM105.095 203.71L104.916 204.067C104.809 203.564 104.626 203.139 104.392 202.798C104.337 204.178 103.571 205.17 103.024 205.84C104.261 205.285 104.761 204.619 105.091 203.71H105.095ZM100.592 203.607C100.524 203.445 100.346 203.238 100.084 203.092C99.8299 204.313 99.5442 204.884 99.0047 205.84C99.8815 205.154 100.306 204.412 100.592 203.607ZM96.7671 204.785L96.7235 204.849C96.5013 204.825 96.299 204.821 96.1085 204.833C95.9181 206.162 95.6444 206.987 94.9897 207.907C96.0054 206.915 96.5211 206.241 96.7671 204.785Z" fill="#FF8978"/>
<path fill-rule="evenodd" clip-rule="evenodd" d="M72.1857 252.323C77.0139 243.91 80.7987 233.367 87.5472 224.824C88.1105 224.11 89.4316 223.566 89.9196 222.817C90.6258 221.73 91.328 220.659 92.0223 219.612C95.1842 219.667 99.0722 221.297 101.738 223.991C101.361 225.117 100.988 226.24 100.623 227.354C100.195 228.655 101.016 231.432 100.643 232.733C97.3187 244.422 92.546 252.668 87.6344 263.401C80.9416 272.032 44.4184 324.84 36.817 308.253C34.3533 302.878 36.3965 295.802 39.9988 290.011C41.9904 286.807 44.7596 284.145 46.7948 282.031C51.6865 276.958 64.8422 259.895 72.1857 252.323Z" fill="url(#paint22_linear_27_4525)"/>
<path fill-rule="evenodd" clip-rule="evenodd" d="M52.9995 551.604C54.0707 551.401 58.8513 550.053 59.3036 549.894C62.3584 548.831 66.3139 547.241 71.3246 546.491C74.8436 545.963 79.7472 546.995 78.1722 552.333C76.0655 559.485 69.9082 564.701 63.866 567.223C61.7237 568.12 59.0298 568.326 56.459 569.615C54.4674 570.611 54.031 572.261 52.5512 573.367C49.3178 575.787 45.5846 575.545 42.9305 574.637C39.7447 573.546 38.5783 572.201 37.8166 568.35C37.1183 564.816 37.0231 558.418 37.8959 555.915L38.011 555.923C38.1459 558.358 39.4908 559.933 42.4782 560.504C46.5447 561.286 53.8327 557.367 53.1542 553.059C53.0789 552.587 53.0313 552.099 52.9956 551.6L52.9995 551.604Z" fill="#1C236C"/>
<path fill-rule="evenodd" clip-rule="evenodd" d="M77.6566 548.038C79.3269 550.005 78.2398 553.345 77.2757 555.431C74.6494 561.123 69.0356 565.434 63.8662 567.592C61.7238 568.489 59.0657 568.992 56.4989 570.277C54.5073 571.273 54.1066 572.665 52.6268 573.772C49.3934 576.191 45.442 576.025 42.7878 575.112C39.7766 574.081 38.7055 572.395 37.9517 568.965C38.7134 570.694 39.8718 571.733 41.9745 572.451C44.6287 573.363 48.5801 573.526 51.8135 571.11C53.2933 570.004 53.694 568.616 55.6856 567.616C58.2564 566.331 61.2795 566.045 63.4258 565.153C69.4681 562.63 75.9943 558.116 78.1009 550.965C78.2795 550.366 78.4461 549.176 77.6566 548.034V548.038Z" fill="#E5E5E5"/>
<path fill-rule="evenodd" clip-rule="evenodd" d="M37.5626 544.599C38.0505 548.399 38.4711 550.675 38.0585 554.503C37.7133 557.752 38.9511 559.826 42.4781 560.504C46.5446 561.286 53.8325 557.363 53.1541 553.059C52.559 549.263 53.4517 544.547 53.6739 540.902L37.5586 544.595L37.5626 544.599Z" fill="url(#paint23_linear_27_4525)"/>
<path fill-rule="evenodd" clip-rule="evenodd" d="M55.2053 552.821C55.8957 553.024 56.9708 553.353 57.9983 553.226C59.9503 560.536 44.5928 576.255 37.4516 565.748C37.035 564.018 36.8247 555.824 37.5547 554.015C38.0427 552.805 38.9393 552.778 40.3993 553.202C43.5057 554.102 44.4658 558.188 46.6002 558.604C49.1393 559.1 50.754 557.272 51.6824 555.3C52.6821 553.182 52.3965 550.806 52.9202 549.755C53.5113 548.569 54.6102 549.291 54.4158 549.843C54.1778 550.521 54.273 552.107 55.2014 552.825L55.2053 552.821Z" fill="#1C236C"/>
<path fill-rule="evenodd" clip-rule="evenodd" d="M76.3553 548.335C76.9861 548.482 77.8073 548.958 78.0414 549.743C78.3033 550.62 78.0533 552.552 78.0493 553.198C79.7315 549.37 78.0176 547.364 76.395 546.733C76.0577 546.602 75.5618 546.439 74.9707 546.495C75.3357 546.713 75.3357 546.868 75.3238 547.054C75.2881 547.653 75.6134 548.169 76.3553 548.339V548.335Z" fill="#E5E5E5"/>
<path fill-rule="evenodd" clip-rule="evenodd" d="M44.5612 359.947C59.6211 357.892 65.096 370.609 66.9527 386.49C69.2141 405.858 73.9194 422.049 68.4643 444.78C65.3182 457.889 61.1803 465.941 60.1012 473.422C59.0538 480.708 58.3318 491.437 57.7248 499.894C57.09 508.759 52.5276 538.217 52.3967 544.385C52.1308 550.58 41.7484 553.686 37.3407 548.478C35.9323 538.09 32.6632 503.686 33.2067 494.222C34.0399 479.736 38.0429 473.501 39.6179 458.889C41.2326 443.872 36.817 427.499 35.1983 412.462C29.2751 401.261 29.9257 392.507 33.0758 384.765C36.698 375.86 41.3635 372.485 44.5572 359.943L44.5612 359.947Z" fill="url(#paint24_linear_27_4525)"/>
<g style="mix-blend-mode:multiply" opacity="0.3">
<path fill-rule="evenodd" clip-rule="evenodd" d="M65.6514 379.367C66.2227 381.596 66.6512 383.979 66.9527 386.49C69.1665 405.862 73.9193 422.049 68.4642 444.78C65.3182 457.889 61.1802 465.941 60.1011 473.422C59.0538 480.708 58.3317 491.437 57.7247 499.894C57.0899 508.759 52.1665 538.848 52.0395 545.015C51.9046 548.177 50.1749 550.084 47.0328 550.866C45.7751 530.681 44.7833 512.761 47.2272 493.936C48.826 481.601 52.3133 468.599 53.0671 459.163C54.7333 438.323 49.9408 421.843 41.3198 415.167C45.5847 416.79 49.548 416.222 52.9282 414.449C51.5396 402.3 58.6015 389.532 65.6514 379.363V379.367Z" fill="#1E2353"/>
</g>
<path fill-rule="evenodd" clip-rule="evenodd" d="M53.8646 540.422C53.7218 542.183 53.4996 543.853 53.4798 544.75C53.214 550.945 41.7524 553.694 37.3447 548.486C37.186 547.316 36.6901 545.305 36.4917 543.595C40.3241 546.483 47.5923 548.676 53.8646 540.422Z" fill="url(#paint25_linear_27_4525)"/>
<path fill-rule="evenodd" clip-rule="evenodd" d="M63.5527 549.609C64.2866 542.513 70.0988 528.888 71.4754 524.993L57.4509 517.782C55.0705 526.726 55.9076 533.037 50.4883 537.039L63.5527 549.612V549.609Z" fill="url(#paint26_linear_27_4525)"/>
<path fill-rule="evenodd" clip-rule="evenodd" d="M60.9538 544.932C58.5219 542.382 59.9898 540.692 59.0614 536.504C58.6012 534.421 57.2841 532.954 56.0343 532.513C53.8087 531.724 53.2533 533.326 51.5592 534.449C49.3296 535.924 48.0561 535.809 46.5683 537.92C40.3317 539.506 39.8397 545.091 41.3156 550.687C42.6843 555.879 44.1562 556.395 44.2514 559.128C44.2831 560.024 43.9737 561.016 43.4817 562.694C42.2162 567.005 45.029 572.201 46.9928 574.843C50.0199 578.92 57.4665 581.891 62.9415 581.391C63.9968 581.296 64.5085 580.32 64.5998 579.035C64.8735 575.164 63.2668 568.544 62.8026 564.237C62.6201 562.555 62.6796 559.41 63.1835 556.177C63.8539 551.893 65.0441 547.371 64.8418 545.202C64.6196 542.786 63.8896 548.006 60.9499 544.928L60.9538 544.932Z" fill="#293288"/>
<path fill-rule="evenodd" clip-rule="evenodd" d="M48.5481 537.67C40.2723 538.082 39.7605 544.698 41.3197 550.683C42.6725 555.879 44.1603 556.391 44.2555 559.124C44.2872 560.02 43.9778 561.012 43.4858 562.69C42.2202 567.001 45.0331 572.197 46.9969 574.839C50.024 578.916 57.4706 581.887 62.9455 581.387C63.5049 581.336 63.9215 581.018 64.227 580.531C64.7943 579.622 63.1796 574.454 62.525 573.209C61.1325 570.563 59.3868 567.648 58.3633 563.602C57.6055 560.607 58.1768 555.994 57.5897 552.5C56.1098 543.71 54.8998 538.594 48.5521 537.67H48.5481Z" fill="white"/>
<path fill-rule="evenodd" clip-rule="evenodd" d="M40.5381 545.821C40.5857 547.399 40.8992 549.065 41.3197 550.687C42.6726 555.883 44.1603 556.395 44.2555 559.128C44.2873 560.024 43.9778 561.016 43.4859 562.694C42.2203 567.005 45.0331 572.201 46.9969 574.843C50.024 578.92 57.4707 581.891 62.9456 581.391C63.2312 581.364 63.4812 581.268 63.6954 581.114C63.7787 580.233 63.5288 579.21 62.9218 577.81C60.6564 572.586 55.0823 565.137 54.4833 560.207C54.1937 557.831 54.642 555.931 54.5388 553.789C54.3682 550.096 53.6105 546.491 51.2816 543.357C48.0324 538.986 40.2882 537.693 40.5381 545.821Z" fill="#EAEAED"/>
<path fill-rule="evenodd" clip-rule="evenodd" d="M76.6171 464.624C74.9667 450.726 70.2615 437.193 66.0006 424.032C45.9061 411.836 48.9768 391.9 57.443 378.062L78.811 370.906C80.9772 374.361 82.5998 363.905 84.0916 366.226C87.3844 371.342 93.8274 386.641 96.3506 395.72C101.552 414.441 103.103 432.322 101.076 455.882C100.897 457.965 100.58 461.17 100.381 464.248C100.373 464.803 99.9846 468.436 99.8855 468.94C99.1317 476.075 73.3917 525.901 67.4328 537.793C66.8932 532.676 58.8316 527.516 54.4557 529.669C57.1415 511.71 60.8113 495.039 63.4377 488.577C68.8015 475.369 73.1536 471.292 76.6171 464.62V464.624Z" fill="url(#paint27_linear_27_4525)"/>
<path fill-rule="evenodd" clip-rule="evenodd" d="M70.4161 532.727C69.333 534.873 68.4761 535.71 67.4327 537.793C66.8931 532.676 58.8315 527.516 54.4556 529.669C54.8126 527.278 54.4675 526.615 54.8563 524.291C59.0418 522.355 70.309 527.551 70.4121 532.723L70.4161 532.727Z" fill="url(#paint28_linear_27_4525)"/>
<path fill-rule="evenodd" clip-rule="evenodd" d="M88.4753 372.941C87.8048 371.315 87.654 369.764 87.1224 368.019C91.1532 354.993 81.8895 351.122 89.3282 334.939C94.4421 323.805 95.8386 317.154 93.4304 311.66C88.1261 299.566 54.8086 284.728 41.9227 283.272C33.02 282.269 27.9538 291.638 28.0291 301.236C28.2235 326.895 36.7215 329.469 37.8007 356.334C37.884 358.452 39.0226 361.609 40.4112 364.679C40.4786 366.273 40.5143 368.84 40.5738 370.299C44.2079 381.778 88.0428 385.427 88.4753 372.937V372.941Z" fill="url(#paint29_linear_27_4525)"/>
<g style="mix-blend-mode:multiply" opacity="0.5">
<path fill-rule="evenodd" clip-rule="evenodd" d="M88.4753 372.941C87.9198 371.596 87.7215 370.299 87.3684 368.903C78.9735 376.519 61.8387 374.008 52.202 370.264C51.234 360.804 49.6749 356.865 51.6625 351.011C61.9339 346.192 70.4478 341.662 76.0536 336.514C85.9798 327.395 86.7772 316.336 71.999 298.297L73.3518 294.965C62.0331 288.833 48.9449 284.066 41.9227 283.273C33.02 282.265 27.9538 291.638 28.0291 301.236C28.2235 326.895 36.7215 329.469 37.8007 356.334C37.884 358.452 39.0226 361.609 40.4112 364.679C40.4786 366.273 40.5143 368.84 40.5738 370.299C44.2039 381.778 88.0428 385.427 88.4753 372.937V372.941Z" fill="#FF8FD5"/>
</g>
<path fill-rule="evenodd" clip-rule="evenodd" d="M152.282 280.115C151.972 280.885 151.96 281.333 151.853 282.154C151.337 283.407 151.04 284.375 150.865 285.244C150.544 286.874 150.663 288.163 150.615 290.333C150.588 291.59 150.79 292.237 151.06 293.462C149.786 295.953 147.783 297.48 145.914 299.535L151.972 304.156C154.527 302.47 156.527 300.701 158.729 299.233C160.514 298.527 161.145 298.127 161.68 297.567C163.085 296.104 167.215 291.757 167.453 290.051C167.714 288.155 167.211 283.772 166.782 281.361C165.687 275.221 163.346 268.771 162.946 271.619C162.359 272.301 162.839 277.85 162.47 278.671C161.037 280.322 160.351 281 158.554 282.971C157.439 283.606 156.705 284.268 156.166 284.415C155.547 284.581 155.206 284.149 155.182 283.606C155.158 282.999 155.547 281.92 155.868 280.333C155.864 277.704 155.213 276.212 153.809 276.351C153.083 276.423 152.67 276.807 152.488 277.581C152.345 278.196 152.381 279.044 152.282 280.119V280.115Z" fill="url(#paint30_linear_27_4525)"/>
<path fill-rule="evenodd" clip-rule="evenodd" d="M90.0264 304.85C98.3697 306.135 115.643 316.34 126.752 321.318C132.949 312.493 141.074 301.915 146.089 298.353C146.664 297.944 148.132 297.115 148.584 296.564C149.314 295.671 150.024 294.759 150.707 293.815C153.841 294.251 158.379 298.162 158.32 300.011C157.816 300.935 157.3 301.899 156.777 302.894C156.42 303.577 156.55 305.072 156.34 305.837C154.638 312.017 145.259 326.292 140.887 332.662C138.36 336.343 137.472 338.501 135.762 339.599C133.016 341.364 129.335 340.401 122.237 338.616C116.266 337.116 96.9811 333.757 88.1102 329.076C81.8537 325.776 77.0533 319.684 79.5408 312.838C81.1357 308.451 84.6547 304.021 90.0185 304.85H90.0264Z" fill="url(#paint31_linear_27_4525)"/>
<path fill-rule="evenodd" clip-rule="evenodd" d="M49.5679 290.047C48.5801 294.228 63.8463 298.741 69.0792 296.469L69.1903 295.457C70.5392 289.222 71.8643 283.923 72.7966 279.54C75.2286 280.575 81.1994 280.881 81.727 280.044C65.6356 267.193 46.8146 257.693 44.3945 264.182C45.9894 268.882 50.1075 272.222 52.1705 275.284C52.718 276.097 53.1464 277.791 53.2496 279.489C52.6545 282.801 51.3969 285.978 49.5679 290.047Z" fill="url(#paint32_linear_27_4525)"/>
<path fill-rule="evenodd" clip-rule="evenodd" d="M81.6356 280.119C80.247 281.024 70.3962 277.747 69.6027 277.787C61.9378 278.168 53.6898 277.545 52.1703 275.284C50.1113 272.222 45.9892 268.882 44.3944 264.182C41.8473 256.67 42.3432 248.202 49.2107 242.304C61.1563 232.05 79.8939 239.563 82.5759 251.176C83.6748 255.94 82.314 256.337 82.5362 259.526C82.9527 265.404 83.6193 263.187 83.0757 272.488C82.8694 276.034 82.552 279.516 81.6316 280.115L81.6356 280.119Z" fill="#FFA698"/>
<path fill-rule="evenodd" clip-rule="evenodd" d="M51.7738 284.447C52.1943 288.25 62.9021 290.932 69.3966 289.42C70.0909 289.258 70.5233 289.127 70.7733 288.687C71.7254 289.21 74.328 292.966 74.6256 294.835C69.0118 300.245 51.2739 297.072 49.1157 290.733C48.5999 289.218 48.1238 286.358 51.7698 284.447H51.7738Z" fill="#FF89DB"/>
<path fill-rule="evenodd" clip-rule="evenodd" d="M22.2092 271.837C11.9973 280.373 6.24472 295.751 10.8905 304.469C15.0998 312.374 25.3712 317.023 22.2092 322.028C19.5987 326.165 13.4494 330.314 20.7611 336.989C24.5261 340.428 33.7224 349.65 52.4958 344.875C70.793 340.218 89.9949 324.416 74.5818 307.134C58.3595 288.952 67.8493 284.93 77.1527 270.632C82.0721 263.072 86.4719 248.13 82.2546 242.569C75.0262 233.038 70.2217 239.904 63.267 236.536C49.9963 230.111 39.114 234.704 32.8734 244.751C27.2874 253.743 30.3224 265.051 22.2013 271.837H22.2092Z" fill="url(#paint33_linear_27_4525)"/>
<g style="mix-blend-mode:screen">
<path fill-rule="evenodd" clip-rule="evenodd" d="M66.1511 239.194C57.5659 233.399 47.3659 232.13 39.1139 238.853C30.6674 245.734 28.0093 259.954 31.1475 272.571C32.6313 278.537 45.6837 280.726 56.0861 273.364C67.7182 265.13 76.2638 246.508 66.1472 239.198L66.1511 239.194Z" fill="url(#paint34_linear_27_4525)"/>
<path fill-rule="evenodd" clip-rule="evenodd" d="M68.7575 237.845C77.3547 253.497 69.3526 265.443 60.1206 277.787L61.9218 287.322C72.0027 275.982 97.9966 239.908 68.7614 237.845H68.7575Z" fill="url(#paint35_linear_27_4525)"/>
</g>
</g>
<defs>
<linearGradient id="paint0_linear_27_4525" x1="77.2754" y1="32.4094" x2="133.679" y2="204.738" gradientUnits="userSpaceOnUse">
<stop stop-color="#FD90DA"/>
<stop offset="1" stop-color="#8E6DFD"/>
</linearGradient>
<linearGradient id="paint1_linear_27_4525" x1="246.152" y1="92.2942" x2="269.907" y2="35.2534" gradientUnits="userSpaceOnUse">
<stop stop-color="#6D6AFE"/>
<stop offset="1" stop-color="#3FB0F7"/>
</linearGradient>
<linearGradient id="paint2_linear_27_4525" x1="276.526" y1="233.375" x2="193.026" y2="521.231" gradientUnits="userSpaceOnUse">
<stop stop-color="#D1E8FF"/>
<stop offset="1" stop-color="#EAEFFF"/>
</linearGradient>
<linearGradient id="paint3_linear_27_4525" x1="190.562" y1="377.129" x2="368.558" y2="241.954" gradientUnits="userSpaceOnUse">
<stop stop-color="#6D6AFE"/>
<stop offset="1" stop-color="#3FB0F7"/>
</linearGradient>
<linearGradient id="paint4_linear_27_4525" x1="217.508" y1="265.114" x2="164.24" y2="131.64" gradientUnits="userSpaceOnUse">
<stop stop-color="#965CF2"/>
<stop offset="1" stop-color="#FF8ADC"/>
</linearGradient>
<linearGradient id="paint5_linear_27_4525" x1="201.334" y1="184.315" x2="157.137" y2="234.662" gradientUnits="userSpaceOnUse">
<stop stop-color="#1C8EF4"/>
<stop offset="1" stop-color="#00CFDD"/>
</linearGradient>
<linearGradient id="paint6_linear_27_4525" x1="330.878" y1="274.542" x2="305.454" y2="195.58" gradientUnits="userSpaceOnUse">
<stop stop-color="#965CF2"/>
<stop offset="1" stop-color="#FF8ADC"/>
</linearGradient>
<linearGradient id="paint7_linear_27_4525" x1="344.895" y1="221.619" x2="322.182" y2="258.939" gradientUnits="userSpaceOnUse">
<stop stop-color="#FD90DA"/>
<stop offset="1" stop-color="#8E6DFD"/>
</linearGradient>
<linearGradient id="paint8_linear_27_4525" x1="296.275" y1="319.823" x2="307.439" y2="286.392" gradientUnits="userSpaceOnUse">
<stop stop-color="#965CF2"/>
<stop offset="1" stop-color="#FF8ADC"/>
</linearGradient>
<linearGradient id="paint9_linear_27_4525" x1="269.484" y1="315.987" x2="292.972" y2="445.413" gradientUnits="userSpaceOnUse">
<stop stop-color="#FD90DA"/>
<stop offset="1" stop-color="#8E6DFD"/>
</linearGradient>
<linearGradient id="paint10_linear_27_4525" x1="311.117" y1="360.415" x2="296.822" y2="472.3" gradientUnits="userSpaceOnUse">
<stop stop-color="#D1E8FF"/>
<stop offset="1" stop-color="#EAEFFF"/>
</linearGradient>
<linearGradient id="paint11_linear_27_4525" x1="246.057" y1="375.761" x2="258.186" y2="360.904" gradientUnits="userSpaceOnUse">
<stop stop-color="#6D6AFE"/>
<stop offset="1" stop-color="#3FB0F7"/>
</linearGradient>
<linearGradient id="paint12_linear_27_4525" x1="166.112" y1="379.89" x2="126.919" y2="271.51" gradientUnits="userSpaceOnUse">
<stop stop-color="#965CF2"/>
<stop offset="1" stop-color="#FF8ADC"/>
</linearGradient>
<linearGradient id="paint13_linear_27_4525" x1="154.876" y1="309.114" x2="129.221" y2="355.236" gradientUnits="userSpaceOnUse">
<stop stop-color="#FD90DA"/>
<stop offset="1" stop-color="#8E6DFD"/>
</linearGradient>
<linearGradient id="paint14_linear_27_4525" x1="253.413" y1="503.094" x2="-6.7782" y2="354.088" gradientUnits="userSpaceOnUse">
<stop stop-color="#6D6AFE"/>
<stop offset="1" stop-color="#3FB0F7"/>
</linearGradient>
<linearGradient id="paint15_linear_27_4525" x1="241.61" y1="560.544" x2="237.034" y2="445.213" gradientUnits="userSpaceOnUse">
<stop stop-color="#D1E8FF"/>
<stop offset="1" stop-color="#EAEFFF"/>
</linearGradient>
<linearGradient id="paint16_linear_27_4525" x1="241.542" y1="469.582" x2="226.346" y2="513.461" gradientUnits="userSpaceOnUse">
<stop stop-color="#D1E8FF"/>
<stop offset="1" stop-color="#EAEFFF"/>
</linearGradient>
<linearGradient id="paint17_linear_27_4525" x1="236.488" y1="475" x2="225.733" y2="497.805" gradientUnits="userSpaceOnUse">
<stop stop-color="#1C8EF4"/>
<stop offset="1" stop-color="#00CFDD"/>
</linearGradient>
<linearGradient id="paint18_linear_27_4525" x1="340.559" y1="123.181" x2="389.91" y2="226.538" gradientUnits="userSpaceOnUse">
<stop stop-color="#FD90DA"/>
<stop offset="1" stop-color="#8E6DFD"/>
</linearGradient>
<linearGradient id="paint19_linear_27_4525" x1="150.258" y1="285.204" x2="157.959" y2="245.829" gradientUnits="userSpaceOnUse">
<stop stop-color="#965CF2"/>
<stop offset="1" stop-color="#FF8ADC"/>
</linearGradient>
<linearGradient id="paint20_linear_27_4525" x1="137.797" y1="258.058" x2="145.145" y2="281.588" gradientUnits="userSpaceOnUse">
<stop stop-color="#6D6AFE"/>
<stop offset="1" stop-color="#3FB0F7"/>
</linearGradient>
<linearGradient id="paint21_linear_27_4525" x1="93.2165" y1="223.895" x2="104.905" y2="207.186" gradientUnits="userSpaceOnUse">
<stop stop-color="#FF8A78"/>
<stop offset="1" stop-color="#FFA799"/>
</linearGradient>
<linearGradient id="paint22_linear_27_4525" x1="63.7313" y1="269.033" x2="112.779" y2="231.853" gradientUnits="userSpaceOnUse">
<stop stop-color="#FF66BC"/>
<stop offset="0.56" stop-color="#FF8ADC"/>
<stop offset="1" stop-color="#FFBBA8"/>
</linearGradient>
<linearGradient id="paint23_linear_27_4525" x1="37.5626" y1="550.755" x2="53.6778" y2="550.755" gradientUnits="userSpaceOnUse">
<stop stop-color="#FF8A78"/>
<stop offset="1" stop-color="#FFA799"/>
</linearGradient>
<linearGradient id="paint24_linear_27_4525" x1="62.1761" y1="402.3" x2="28.829" y2="509.366" gradientUnits="userSpaceOnUse">
<stop stop-color="#3E4795"/>
<stop offset="1" stop-color="#273088"/>
</linearGradient>
<linearGradient id="paint25_linear_27_4525" x1="52.964" y1="542.616" x2="39.2222" y2="548.389" gradientUnits="userSpaceOnUse">
<stop stop-color="#3E4795"/>
<stop offset="1" stop-color="#273088"/>
</linearGradient>
<linearGradient id="paint26_linear_27_4525" x1="50.4883" y1="533.695" x2="71.4754" y2="533.695" gradientUnits="userSpaceOnUse">
<stop stop-color="#FF8A78"/>
<stop offset="1" stop-color="#FFA799"/>
</linearGradient>
<linearGradient id="paint27_linear_27_4525" x1="83.3497" y1="413.541" x2="51.0959" y2="485.45" gradientUnits="userSpaceOnUse">
<stop stop-color="#3E4795"/>
<stop offset="1" stop-color="#273088"/>
</linearGradient>
<linearGradient id="paint28_linear_27_4525" x1="65.937" y1="526.294" x2="61.7881" y2="530.412" gradientUnits="userSpaceOnUse">
<stop stop-color="#3E4795"/>
<stop offset="1" stop-color="#273088"/>
</linearGradient>
<linearGradient id="paint29_linear_27_4525" x1="61.549" y1="319.565" x2="76.8206" y2="378.627" gradientUnits="userSpaceOnUse">
<stop stop-color="#FF66BC"/>
<stop offset="0.56" stop-color="#FF8ADC"/>
<stop offset="1" stop-color="#FFBBA8"/>
</linearGradient>
<linearGradient id="paint30_linear_27_4525" x1="152.131" y1="294.355" x2="163.03" y2="279.95" gradientUnits="userSpaceOnUse">
<stop stop-color="#FF8A78"/>
<stop offset="1" stop-color="#FFA799"/>
</linearGradient>
<linearGradient id="paint31_linear_27_4525" x1="106.197" y1="324.475" x2="159.982" y2="301.398" gradientUnits="userSpaceOnUse">
<stop stop-color="#FF66BC"/>
<stop offset="0.56" stop-color="#FF8ADC"/>
<stop offset="1" stop-color="#FFBBA8"/>
</linearGradient>
<linearGradient id="paint32_linear_27_4525" x1="63.2314" y1="278.311" x2="67.1931" y2="290.052" gradientUnits="userSpaceOnUse">
<stop stop-color="#FF8A78"/>
<stop offset="1" stop-color="#FFA799"/>
</linearGradient>
<linearGradient id="paint33_linear_27_4525" x1="63.9415" y1="248.44" x2="38.9301" y2="325.855" gradientUnits="userSpaceOnUse">
<stop stop-color="#5A2D68"/>
<stop offset="1" stop-color="#22043D"/>
</linearGradient>
<linearGradient id="paint34_linear_27_4525" x1="55.4275" y1="194.671" x2="49.2929" y2="266.114" gradientUnits="userSpaceOnUse">
<stop stop-color="#8A4791"/>
<stop offset="1"/>
</linearGradient>
<linearGradient id="paint35_linear_27_4525" x1="76.9659" y1="196.519" x2="70.8273" y2="267.962" gradientUnits="userSpaceOnUse">
<stop stop-color="#8A4791"/>
<stop offset="1"/>
</linearGradient>
<clipPath id="clip0_27_4525">
<rect width="422" height="612" fill="white"/>
</clipPath>
</defs>
</svg>
