<svg width="246" height="188" viewBox="0 0 246 188" fill="none" xmlns="http://www.w3.org/2000/svg">
<path d="M221.351 171.284H205.056V171.407H221.351V171.284Z" fill="#EBEBEB"/>
<path d="M162.96 172.621H158.685V172.744H162.96V172.621Z" fill="#EBEBEB"/>
<path d="M204.564 166.723H195.122V166.846H204.564V166.723Z" fill="#EBEBEB"/>
<path d="M47.0598 167.549H25.8103V167.671H47.0598V167.549Z" fill="#EBEBEB"/>
<path d="M54.558 167.549H51.4436V167.671H54.558V167.549Z" fill="#EBEBEB"/>
<path d="M110.774 169.623H64.6833V169.745H110.774V169.623Z" fill="#EBEBEB"/>
<path d="M116.604 141.455H21.6037C20.8595 141.453 20.1462 141.157 19.6204 140.631C19.0946 140.105 18.7993 139.392 18.7993 138.648V5.23943C18.8058 4.50022 19.104 3.79341 19.629 3.27254C20.1541 2.75166 20.8637 2.45879 21.6037 2.45752H116.604C117.349 2.45752 118.064 2.7532 118.59 3.27952C119.117 3.80584 119.413 4.51968 119.413 5.264V138.648C119.413 139.392 119.117 140.106 118.59 140.633C118.064 141.159 117.349 141.455 116.604 141.455ZM21.6037 2.55582C20.8921 2.55712 20.2101 2.84043 19.7074 3.34357C19.2047 3.8467 18.9223 4.52854 18.9223 5.23943V138.648C18.9223 139.359 19.2047 140.041 19.7074 140.544C20.2101 141.047 20.8921 141.33 21.6037 141.332H116.604C117.316 141.33 117.999 141.047 118.502 140.544C119.006 140.041 119.289 139.359 119.29 138.648V5.23943C119.289 4.52809 119.006 3.84626 118.502 3.34327C117.999 2.84027 117.316 2.55712 116.604 2.55582H21.6037Z" fill="#EBEBEB"/>
<path d="M223.029 141.455H128.023C127.279 141.453 126.565 141.157 126.038 140.631C125.512 140.105 125.215 139.392 125.214 138.648V5.23943C125.222 4.49977 125.521 3.79297 126.047 3.27223C126.573 2.75149 127.283 2.45877 128.023 2.45752H223.029C223.768 2.46008 224.476 2.75353 225 3.27426C225.524 3.795 225.822 4.50107 225.828 5.23943V138.648C225.828 139.391 225.533 140.103 225.009 140.629C224.484 141.155 223.772 141.452 223.029 141.455ZM128.023 2.55582C127.311 2.55712 126.629 2.84027 126.125 3.34327C125.622 3.84626 125.338 4.52809 125.337 5.23943V138.648C125.338 139.359 125.622 140.041 126.125 140.544C126.629 141.047 127.311 141.33 128.023 141.332H223.029C223.741 141.33 224.423 141.047 224.927 140.544C225.43 140.041 225.714 139.359 225.715 138.648V5.23943C225.714 4.52809 225.43 3.84626 224.927 3.34327C224.423 2.84027 223.741 2.55712 223.029 2.55582H128.023Z" fill="#EBEBEB"/>
<path d="M246 163.376H0V163.499H246V163.376Z" fill="#EBEBEB"/>
<path d="M224.185 10.5034H189.13V129.305H224.185V10.5034Z" fill="#FAFAFA"/>
<path d="M225.075 52.5564H181.248V128.268H225.075V52.5564Z" fill="#E0E0E0"/>
<path d="M189.666 41.9792V60.966H193.125H213.203H216.662V41.9792H189.666Z" fill="#E0E0E0"/>
<path d="M189.666 55.363H184.057V60.9662H189.666V55.363Z" fill="#FAFAFA"/>
<path d="M200.534 55.363H194.926V60.9662H200.534V55.363Z" fill="#FAFAFA"/>
<path d="M211.402 55.363H205.794V60.9662H211.402V55.363Z" fill="#FAFAFA"/>
<path d="M222.276 55.363H216.662V60.9662H222.276V55.363Z" fill="#F0F0F0"/>
<path d="M189.666 65.5469H184.057V71.1549H189.666V65.5469Z" fill="#F0F0F0"/>
<path d="M200.534 65.5469H194.926V71.1549H200.534V65.5469Z" fill="#F0F0F0"/>
<path d="M211.402 65.5469H205.794V71.1549H211.402V65.5469Z" fill="#FAFAFA"/>
<path d="M222.276 65.5469H216.662V71.1549H222.276V65.5469Z" fill="#FAFAFA"/>
<path d="M189.666 75.7307H184.057V81.3338H189.666V75.7307Z" fill="#F0F0F0"/>
<path d="M200.534 75.7307H194.926V81.3338H200.534V75.7307Z" fill="#FAFAFA"/>
<path d="M211.402 75.7307H205.794V81.3338H211.402V75.7307Z" fill="#FAFAFA"/>
<path d="M200.534 46.5552H194.926V52.1583H200.534V46.5552Z" fill="#FAFAFA"/>
<path d="M211.402 46.5552H205.794V52.1583H211.402V46.5552Z" fill="#F0F0F0"/>
<path d="M222.276 75.7307H216.662V81.3338H222.276V75.7307Z" fill="#F0F0F0"/>
<path d="M189.666 85.9148H184.057V91.5179H189.666V85.9148Z" fill="#FAFAFA"/>
<path d="M200.534 85.9148H194.926V91.5179H200.534V85.9148Z" fill="#F0F0F0"/>
<path d="M211.402 85.9148H205.794V91.5179H211.402V85.9148Z" fill="#F0F0F0"/>
<path d="M222.276 85.9148H216.662V91.5179H222.276V85.9148Z" fill="#FAFAFA"/>
<path d="M189.666 96.1035H184.057V101.712H189.666V96.1035Z" fill="#F0F0F0"/>
<path d="M200.534 96.1035H194.926V101.712H200.534V96.1035Z" fill="#FAFAFA"/>
<path d="M211.402 96.1035H205.794V101.712H211.402V96.1035Z" fill="#FAFAFA"/>
<path d="M222.276 96.1035H216.662V101.712H222.276V96.1035Z" fill="#F0F0F0"/>
<path d="M189.666 106.288H184.057V111.891H189.666V106.288Z" fill="#F0F0F0"/>
<path d="M200.534 106.288H194.926V111.891H200.534V106.288Z" fill="#FAFAFA"/>
<path d="M211.402 106.288H205.794V111.891H211.402V106.288Z" fill="#F0F0F0"/>
<path d="M222.276 106.288H216.662V111.891H222.276V106.288Z" fill="#FAFAFA"/>
<path d="M189.666 116.471H184.057V122.079H189.666V116.471Z" fill="#FAFAFA"/>
<path d="M200.534 116.471H194.926V122.079H200.534V116.471Z" fill="#FAFAFA"/>
<path d="M211.402 116.471H205.794V122.079H211.402V116.471Z" fill="#F0F0F0"/>
<path d="M222.276 116.471H216.662V122.079H222.276V116.471Z" fill="#F0F0F0"/>
<path opacity="0.1" d="M224.116 10.5034H189.061V129.305H224.116V10.5034Z" fill="white"/>
<g opacity="0.3">
<path d="M220.687 10.5034H209.508L197.282 129.305H208.456L220.687 10.5034Z" fill="white"/>
</g>
<path d="M224.48 8.99951H188.834V12.0124H224.48V8.99951Z" fill="#E0E0E0"/>
<path d="M224.48 128.268H188.834V131.28H224.48V128.268Z" fill="#EBEBEB"/>
<path d="M225.862 133.851H187.221V6.0603H225.862V133.851ZM190.168 130.902H222.92V9.00932H190.168V130.902Z" fill="#EBEBEB"/>
<path d="M185.947 10.5034H150.892V129.305H185.947V10.5034Z" fill="#FAFAFA"/>
<path d="M183.295 91.9307H153.317V128.68H183.295V91.9307Z" fill="#E6E6E6"/>
<path d="M180.687 96.0054H173.71H171.792H169.873V99.8391H171.792H173.71H180.687V96.0054Z" fill="#E6E6E6"/>
<path d="M180.687 103.432H173.71H171.792H169.873V107.266H171.792H173.71H180.687V103.432Z" fill="#FAFAFA"/>
<path d="M180.687 110.859H173.71H171.792H169.873V114.692H171.792H173.71H180.687V110.859Z" fill="#E6E6E6"/>
<path d="M180.687 118.285H173.71H170.749H169.873V122.119H170.749H173.71H180.687V118.285Z" fill="#FAFAFA"/>
<path d="M166.739 96.0054H159.767H157.848H155.929V99.8391H157.848H159.767H166.739V96.0054Z" fill="#FAFAFA"/>
<path d="M166.739 103.432H159.767H157.061H155.929V107.266H157.061H159.767H166.739V103.432Z" fill="#FAFAFA"/>
<path d="M166.739 110.859H159.767H157.848H155.929V114.692H157.848H159.767H166.739V110.859Z" fill="#E6E6E6"/>
<path d="M166.739 118.285H159.767H157.848H155.929V122.119H157.848H159.767H166.739V118.285Z" fill="#FAFAFA"/>
<path opacity="0.1" d="M185.833 10.5034H150.778V129.305H185.833V10.5034Z" fill="white"/>
<g opacity="0.3">
<path d="M182.448 10.5034H171.275L159.044 129.305H170.222L182.448 10.5034Z" fill="white"/>
</g>
<path d="M186.242 8.99951H150.596V12.0124H186.242V8.99951Z" fill="#E0E0E0"/>
<path d="M186.242 128.268H150.596V131.28H186.242V128.268Z" fill="#EBEBEB"/>
<path d="M187.629 133.851H148.988V6.0603H187.629V133.851ZM151.93 130.902H184.682V9.00932H151.93V130.902Z" fill="#EBEBEB"/>
<path d="M94.095 10.5034H59.04V129.305H94.095V10.5034Z" fill="#FAFAFA"/>
<path opacity="0.1" d="M94.0262 10.5034H58.9712V129.305H94.0262V10.5034Z" fill="white"/>
<g opacity="0.3">
<path d="M90.6017 10.5034H79.4235L67.1973 129.305H78.3706L90.6017 10.5034Z" fill="white"/>
</g>
<path d="M94.3952 8.99951H58.7498V12.0124H94.3952V8.99951Z" fill="#E0E0E0"/>
<path d="M94.3952 128.268H58.7498V131.28H94.3952V128.268Z" fill="#EBEBEB"/>
<path d="M95.7777 133.851H57.136V6.0603H95.7777V133.851ZM60.0831 130.902H92.8306V9.00932H60.0831V130.902Z" fill="#EBEBEB"/>
<path d="M55.911 10.5034H20.856V129.305H55.911V10.5034Z" fill="#FAFAFA"/>
<path d="M50.6267 60.8137H23.4929V83.5605H50.6267V60.8137Z" fill="#E6E6E6"/>
<path d="M28.7033 63.6497H25.2297V67.1197H28.7033V63.6497Z" fill="#FAFAFA"/>
<path d="M35.4337 63.6497H31.9602V67.1197H35.4337V63.6497Z" fill="#FAFAFA"/>
<path d="M42.1644 63.6497H38.6909V67.1197H42.1644V63.6497Z" fill="#FAFAFA"/>
<path d="M48.89 63.6497H45.4165V67.1197H48.89V63.6497Z" fill="#FAFAFA"/>
<path d="M28.7033 69.9556H25.2297V73.4256H28.7033V69.9556Z" fill="#FAFAFA"/>
<path d="M35.4337 69.9556H31.9602V73.4256H35.4337V69.9556Z" fill="#FAFAFA"/>
<path d="M42.1644 69.9556H38.6909V73.4256H42.1644V69.9556Z" fill="#FAFAFA"/>
<path d="M48.89 69.9556H45.4165V73.4256H48.89V69.9556Z" fill="#E6E6E6"/>
<path d="M28.7033 76.2568H25.2297V79.7269H28.7033V76.2568Z" fill="#E6E6E6"/>
<path d="M35.4337 76.2568H31.9602V79.7269H35.4337V76.2568Z" fill="#E6E6E6"/>
<path d="M42.1644 76.2568H38.6909V79.7269H42.1644V76.2568Z" fill="#FAFAFA"/>
<path d="M48.89 76.2568H45.4165V79.7269H48.89V76.2568Z" fill="#E6E6E6"/>
<path d="M50.6267 83.2754H23.4929V106.022H50.6267V83.2754Z" fill="#E6E6E6"/>
<path d="M28.7033 86.1064H25.2297V89.5765H28.7033V86.1064Z" fill="#FAFAFA"/>
<path d="M35.4337 86.1064H31.9602V89.5765H35.4337V86.1064Z" fill="#FAFAFA"/>
<path d="M42.1644 86.1064H38.6909V89.5765H42.1644V86.1064Z" fill="#FAFAFA"/>
<path d="M48.89 86.1064H45.4165V89.5765H48.89V86.1064Z" fill="#FAFAFA"/>
<path d="M28.7033 92.4124H25.2297V95.8824H28.7033V92.4124Z" fill="#FAFAFA"/>
<path d="M35.4337 92.4124H31.9602V95.8824H35.4337V92.4124Z" fill="#FAFAFA"/>
<path d="M42.1644 92.4124H38.6909V95.8824H42.1644V92.4124Z" fill="#FAFAFA"/>
<path d="M48.89 92.4124H45.4165V95.8824H48.89V92.4124Z" fill="#E6E6E6"/>
<path d="M28.7033 98.7185H25.2297V102.189H28.7033V98.7185Z" fill="#E6E6E6"/>
<path d="M35.4337 98.7185H31.9602V102.189H35.4337V98.7185Z" fill="#E6E6E6"/>
<path d="M42.1644 98.7185H38.6909V102.189H42.1644V98.7185Z" fill="#FAFAFA"/>
<path d="M48.89 98.7185H45.4165V102.189H48.89V98.7185Z" fill="#E6E6E6"/>
<path d="M50.6267 105.732H23.4929V128.479H50.6267V105.732Z" fill="#E6E6E6"/>
<path d="M28.7033 108.568H25.2297V112.038H28.7033V108.568Z" fill="#FAFAFA"/>
<path d="M35.4337 108.568H31.9602V112.038H35.4337V108.568Z" fill="#FAFAFA"/>
<path d="M42.1644 108.568H38.6909V112.038H42.1644V108.568Z" fill="#FAFAFA"/>
<path d="M48.89 108.568H45.4165V112.038H48.89V108.568Z" fill="#FAFAFA"/>
<path d="M28.7033 114.874H25.2297V118.344H28.7033V114.874Z" fill="#FAFAFA"/>
<path d="M35.4337 114.874H31.9602V118.344H35.4337V114.874Z" fill="#FAFAFA"/>
<path d="M42.1644 114.874H38.6909V118.344H42.1644V114.874Z" fill="#FAFAFA"/>
<path d="M48.89 114.874H45.4165V118.344H48.89V114.874Z" fill="#E6E6E6"/>
<path d="M28.7033 121.18H25.2297V124.65H28.7033V121.18Z" fill="#E6E6E6"/>
<path d="M35.4337 121.18H31.9602V124.65H35.4337V121.18Z" fill="#E6E6E6"/>
<path d="M42.1644 121.18H38.6909V124.65H42.1644V121.18Z" fill="#FAFAFA"/>
<path d="M48.89 121.18H45.4165V124.65H48.89V121.18Z" fill="#E6E6E6"/>
<path opacity="0.1" d="M55.4483 10.5034H20.3933V129.305H55.4483V10.5034Z" fill="white"/>
<g opacity="0.3">
<path d="M52.4127 10.5034H41.2394L29.0132 129.305H40.1865L52.4127 10.5034Z" fill="white"/>
</g>
<path d="M56.2111 8.99951H20.5657V12.0124H56.2111V8.99951Z" fill="#E0E0E0"/>
<path d="M56.2111 128.268H20.5657V131.28H56.2111V128.268Z" fill="#EBEBEB"/>
<path d="M57.5936 133.851H18.9519V6.0603H57.5936V133.851ZM21.899 130.902H54.6465V9.00932H21.899V130.902Z" fill="#EBEBEB"/>
<path d="M119.812 149.717L119.418 149.766C119.394 149.564 117.002 129.57 121.937 113.232C126.857 97.0128 123.462 86.6421 123.413 86.5438L123.792 86.416C123.826 86.5192 127.236 96.9882 122.316 113.345C117.406 129.604 119.787 149.52 119.812 149.717Z" fill="#E0E0E0"/>
<path d="M124.132 88.7704C123.272 87.7479 122.106 87.0292 120.806 86.7208L120.899 86.3325C122.283 86.6607 123.523 87.4261 124.437 88.5148L124.132 88.7704Z" fill="#E0E0E0"/>
<path d="M125.819 90.4246L124.684 91.0654L124.88 91.412L126.015 90.7713L125.819 90.4246Z" fill="#E0E0E0"/>
<path d="M123.704 99.6425C122.714 97.3887 120.881 95.6107 118.597 94.6882L118.744 94.3245C121.124 95.2839 123.034 97.134 124.068 99.4803L123.704 99.6425Z" fill="#E0E0E0"/>
<path d="M122.641 112.131H122.242C122.229 111.327 122.038 110.536 121.682 109.815C121.327 109.093 120.816 108.459 120.186 107.959L120.432 107.649C121.108 108.187 121.657 108.868 122.039 109.643C122.421 110.418 122.627 111.268 122.641 112.131Z" fill="#E0E0E0"/>
<path d="M121.755 115.326L121.381 115.184C121.586 114.677 121.892 114.217 122.281 113.833C122.67 113.45 123.134 113.15 123.645 112.952L123.782 113.326C123.325 113.502 122.909 113.771 122.56 114.115C122.211 114.459 121.937 114.872 121.755 115.326Z" fill="#E0E0E0"/>
<path d="M119.177 135.591L118.872 135.34C119.364 134.755 119.723 132.539 119.92 131.349C119.964 131.064 120.004 130.823 120.038 130.646L120.427 130.72C120.397 130.892 120.358 131.133 120.309 131.413C120.018 133.197 119.689 134.977 119.177 135.591Z" fill="#E0E0E0"/>
<path d="M118.951 141.956C118.674 141.177 118.158 140.505 117.477 140.036C116.796 139.567 115.985 139.324 115.157 139.341V138.943C116.072 138.921 116.97 139.189 117.723 139.708C118.476 140.227 119.045 140.971 119.349 141.833L118.951 141.956Z" fill="#E0E0E0"/>
<path d="M121.987 146.114L119.187 149.243L119.484 149.508L122.284 146.379L121.987 146.114Z" fill="#E0E0E0"/>
<path d="M123.984 125.702C124.619 127.751 120.196 131.659 120.196 131.659C120.196 131.659 114.336 130.927 113.701 128.872C113.067 126.818 114.552 123.466 117.391 122.591C120.23 121.716 123.33 123.652 123.984 125.702Z" fill="#F0F0F0"/>
<path d="M128.875 100.812C128.314 102.99 124.122 104.538 124.122 104.538C124.122 104.538 121.199 101.161 121.76 98.9839C122.321 96.8065 124.638 94.4031 126.602 94.9093C128.565 95.4156 129.435 98.6349 128.875 100.812Z" fill="#EBEBEB"/>
<path d="M112.063 133.36C114.69 134.387 116.304 139.032 116.304 139.032C116.304 139.032 111.969 141.366 109.337 140.344C106.705 139.322 103.925 136.412 104.673 134.51C105.421 132.608 109.431 132.337 112.063 133.36Z" fill="#F5F5F5"/>
<path d="M117.829 107.787C118.36 108.233 118.969 108.578 119.625 108.804C119.956 108.91 120.309 108.923 120.647 108.844C120.985 108.764 121.295 108.594 121.544 108.352C122.109 107.703 121.957 106.7 121.603 105.919C120.899 104.371 118.306 101.746 116.314 102.478C113.44 103.584 116.545 106.838 117.829 107.787Z" fill="#E6E6E6"/>
<path d="M123.713 111.733C123.335 112.2 122.936 112.785 123.143 113.35C123.26 113.59 123.453 113.784 123.693 113.902C123.933 114.019 124.205 114.053 124.466 113.999C124.986 113.878 125.472 113.641 125.888 113.306C126.902 112.598 128.983 111.124 127.654 109.743C126.326 108.362 124.506 110.745 123.713 111.733Z" fill="#EBEBEB"/>
<path d="M115.222 92.0733C115.003 92.0852 114.793 92.1657 114.623 92.3034C114.452 92.441 114.33 92.6288 114.272 92.8401C114.188 93.3316 114.607 93.7837 115.01 94.0934C116.019 94.87 119.044 96.9638 119.723 94.9437C120.363 93.0367 116.56 91.9111 115.222 92.0733Z" fill="#E0E0E0"/>
<path d="M120.806 85.4281C120.181 85.487 119.556 85.261 118.931 85.3003C118.306 85.3396 117.608 85.8409 117.75 86.4553C117.893 87.0697 118.582 87.2073 119.158 87.2466C120.146 87.3055 121.139 87.2361 122.11 87.0402C122.339 87.0196 122.552 86.9123 122.705 86.7404C122.961 86.3668 122.557 85.8655 122.124 85.7574C121.678 85.7002 121.24 85.5964 120.816 85.4477L120.806 85.4281Z" fill="#E6E6E6"/>
<path d="M126.936 89.7238C127.566 89.7238 128.171 89.4731 128.801 89.4731C129.431 89.4731 130.154 89.9253 130.055 90.5446C129.957 91.1639 129.273 91.3556 128.697 91.4293C127.718 91.5591 126.725 91.5591 125.745 91.4293C125.513 91.4243 125.292 91.3311 125.126 91.1688C124.85 90.81 125.219 90.289 125.618 90.1268C126.06 90.0412 126.493 89.9077 126.907 89.7287L126.936 89.7238Z" fill="#F0F0F0"/>
<path d="M126.291 135.906C126.434 135.758 126.624 135.664 126.828 135.64C126.962 135.655 127.087 135.715 127.183 135.809C127.279 135.904 127.341 136.028 127.359 136.161C127.388 136.429 127.354 136.7 127.261 136.952C126.833 138.373 122.06 148.67 120.958 146.822C120.309 145.726 121.908 142.108 122.38 141.081C123.288 139.09 124.624 137.324 126.291 135.906Z" fill="#F0F0F0"/>
<path d="M123.438 85.8165C123.746 84.9445 124.273 84.1661 124.968 83.5556C125.721 83.01 126.936 82.9707 127.477 83.7227C128.092 84.5632 127.477 85.8411 126.538 86.2883C125.598 86.7356 124.501 86.598 123.468 86.4555C123.468 86.3031 123.468 86.1507 123.443 85.9984L123.438 85.8165Z" fill="#E6E6E6"/>
<path d="M126.774 163.449C121.661 164.319 116.438 164.319 111.325 163.449L105.318 145.755H132.786L126.774 163.449Z" fill="#F0F0F0"/>
<path d="M123.29 30.9549C128.923 30.9549 133.489 26.3932 133.489 20.766C133.489 15.1389 128.923 10.5771 123.29 10.5771C117.657 10.5771 113.091 15.1389 113.091 20.766C113.091 26.3932 117.657 30.9549 123.29 30.9549Z" fill="#E0E0E0"/>
<path d="M132.677 21.9764C133.579 16.4219 129.804 11.1882 124.243 10.2866C118.683 9.385 113.444 13.1569 112.542 18.7113C111.639 24.2658 115.415 29.4995 120.975 30.4011C126.535 31.3027 131.774 27.5308 132.677 21.9764Z" fill="#EBEBEB"/>
<path opacity="0.8" d="M130.788 20.4071C130.788 22.0247 130.308 23.606 129.409 24.9509C128.509 26.2959 127.23 27.3442 125.734 27.9632C124.238 28.5822 122.592 28.7442 121.004 28.4286C119.416 28.113 117.957 27.3341 116.812 26.1903C115.667 25.0465 114.888 23.5892 114.572 22.0027C114.256 20.4162 114.418 18.7718 115.038 17.2773C115.657 15.7829 116.707 14.5055 118.053 13.6069C119.399 12.7082 120.982 12.2285 122.601 12.2285C124.773 12.2285 126.855 13.0902 128.39 14.624C129.926 16.1578 130.788 18.238 130.788 20.4071Z" fill="white"/>
<path d="M122.159 21.179C122.004 21.023 121.917 20.812 121.917 20.5923C121.918 20.3726 122.006 20.1621 122.161 20.0067C122.317 19.8514 122.527 19.7639 122.747 19.7634C122.967 19.763 123.178 19.8496 123.334 20.0043C123.412 20.0813 123.474 20.1729 123.516 20.2738C123.558 20.3747 123.58 20.483 123.58 20.5923C123.581 20.7017 123.559 20.81 123.517 20.9111C123.476 21.0122 123.414 21.1041 123.337 21.1814C123.259 21.2588 123.168 21.3201 123.066 21.3618C122.965 21.4036 122.857 21.4249 122.747 21.4247C122.638 21.4245 122.529 21.4027 122.428 21.3605C122.327 21.3183 122.236 21.2566 122.159 21.179Z" fill="#E0E0E0"/>
<path d="M122.601 20.3088L127.433 20.1614L127.448 20.6627L123.069 20.7954L122.597 28.4039L122.1 28.3744L122.601 20.3088Z" fill="#E0E0E0"/>
<path d="M123 185.302C175.685 185.302 218.394 182.811 218.394 179.738C218.394 176.665 175.685 174.174 123 174.174C70.3155 174.174 27.6062 176.665 27.6062 179.738C27.6062 182.811 70.3155 185.302 123 185.302Z" fill="#F5F5F5"/>
<path d="M211.732 153.796L214.231 114.053C214.451 110.558 213.952 107.055 212.764 103.76C211.576 100.465 209.725 97.4479 207.325 94.8951C204.925 92.3424 202.027 90.3079 198.81 88.9172C195.592 87.5265 192.124 86.8092 188.618 86.8093C182.063 86.8102 175.756 89.317 170.993 93.8155C166.229 98.3139 163.369 104.463 162.999 111.001L160.392 157.419H207.87C208.854 157.418 209.801 157.043 210.518 156.371C211.235 155.698 211.67 154.777 211.732 153.796Z" fill="#FF6200"/>
<path opacity="0.1" d="M211.821 152.366L214.231 114.063C214.451 110.568 213.952 107.065 212.764 103.77C211.576 100.475 209.725 97.4577 207.325 94.9049C204.925 92.3521 202.027 90.3176 198.81 88.927C195.592 87.5363 192.124 86.8189 188.618 86.8191C182.063 86.82 175.756 89.3268 170.993 93.8252C166.229 98.3237 163.369 104.473 162.999 111.011L160.392 157.419H206.438C207.809 157.414 209.127 156.89 210.126 155.952C211.125 155.014 211.731 153.733 211.821 152.366Z" fill="black"/>
<path d="M204.027 157.419L206.753 114.053C206.972 110.558 206.472 107.055 205.284 103.761C204.096 100.466 202.245 97.4493 199.845 94.8967C197.445 92.3441 194.547 90.3096 191.33 88.9186C188.113 87.5277 184.645 86.8099 181.139 86.8093C174.584 86.809 168.277 89.3154 163.513 93.8141C158.749 98.3128 155.889 104.463 155.521 111.001L152.899 157.419H204.027Z" fill="#FF6200"/>
<path d="M204.844 164.885H205.498C205.675 164.875 205.842 164.803 205.97 164.681C206.098 164.56 206.179 164.397 206.197 164.221L207.181 157.424H203.196L204.18 164.221C204.198 164.391 204.274 164.549 204.395 164.67C204.515 164.791 204.674 164.866 204.844 164.885Z" fill="#FF6200"/>
<path opacity="0.7" d="M204.844 164.885H205.498C205.675 164.875 205.842 164.803 205.97 164.681C206.098 164.56 206.179 164.397 206.197 164.221L207.181 157.424H203.196L204.18 164.221C204.198 164.391 204.274 164.549 204.395 164.67C204.515 164.791 204.674 164.866 204.844 164.885Z" fill="white"/>
<path d="M140.564 164.885H141.155C141.322 164.867 141.478 164.791 141.594 164.67C141.711 164.548 141.78 164.389 141.789 164.221L142.68 157.424H139.059L139.94 164.221C139.949 164.387 140.017 164.545 140.131 164.667C140.245 164.788 140.399 164.865 140.564 164.885Z" fill="#FF6200"/>
<path opacity="0.5" d="M140.564 164.885H141.155C141.322 164.867 141.478 164.791 141.594 164.67C141.711 164.548 141.78 164.389 141.789 164.221L142.68 157.424H139.059L139.94 164.221C139.949 164.387 140.017 164.545 140.131 164.667C140.245 164.788 140.399 164.865 140.564 164.885Z" fill="white"/>
<path d="M159.068 164.885H159.664C159.831 164.867 159.987 164.791 160.103 164.67C160.22 164.548 160.289 164.389 160.298 164.221L161.174 157.424H157.558L158.424 164.221C158.434 164.39 158.504 164.551 158.623 164.672C158.741 164.794 158.899 164.87 159.068 164.885Z" fill="#FF6200"/>
<path opacity="0.7" d="M159.068 164.885H159.664C159.831 164.867 159.987 164.791 160.103 164.67C160.22 164.548 160.289 164.389 160.298 164.221L161.174 157.424H157.558L158.424 164.221C158.434 164.39 158.504 164.551 158.623 164.672C158.741 164.794 158.899 164.87 159.068 164.885Z" fill="white"/>
<path d="M184.918 164.885H185.573C185.749 164.874 185.917 164.802 186.045 164.681C186.174 164.559 186.256 164.397 186.276 164.221L187.26 157.424H183.27L184.254 164.221C184.271 164.391 184.347 164.55 184.468 164.671C184.589 164.792 184.748 164.867 184.918 164.885Z" fill="#FF6200"/>
<path opacity="0.5" d="M184.918 164.885H185.573C185.749 164.874 185.917 164.802 186.045 164.681C186.174 164.559 186.256 164.397 186.276 164.221L187.26 157.424H183.27L184.254 164.221C184.271 164.391 184.347 164.55 184.468 164.671C184.589 164.792 184.748 164.867 184.918 164.885Z" fill="white"/>
<path d="M163.255 141.062H145.76L144.604 124.213L144.353 120.595L144.24 118.929C144.208 118.492 144.151 118.057 144.067 117.627C144.067 117.533 144.028 117.43 144.008 117.337C143.998 117.266 143.98 117.197 143.954 117.13C143.483 115.413 142.564 113.851 141.293 112.604C139.825 111.155 137.885 110.283 135.826 110.146H152.284C152.461 110.146 152.643 110.146 152.825 110.146C155.056 110.156 157.195 111.038 158.783 112.604C160.056 113.851 160.976 115.413 161.45 117.13C161.475 117.197 161.493 117.266 161.504 117.337C161.619 117.861 161.697 118.393 161.735 118.929L161.848 120.595L163.255 141.062Z" fill="#FF6200"/>
<path opacity="0.1" d="M163.255 141.062H145.76L144.604 124.213L144.353 120.595L144.24 118.929C144.208 118.492 144.151 118.057 144.067 117.627C144.067 117.533 144.028 117.43 144.008 117.337C143.998 117.266 143.98 117.197 143.954 117.13C143.483 115.413 142.564 113.851 141.293 112.604C139.825 111.155 137.885 110.283 135.826 110.146H152.284C152.461 110.146 152.643 110.146 152.825 110.146C155.056 110.156 157.195 111.038 158.783 112.604C160.056 113.851 160.976 115.413 161.45 117.13C161.475 117.197 161.493 117.266 161.504 117.337C161.619 117.861 161.697 118.393 161.735 118.929L161.848 120.595L163.255 141.062Z" fill="black"/>
<g opacity="0.1">
<path d="M177.12 132.067H184.146C185.858 132.067 187.24 133.148 187.24 134.48V138.628C187.24 139.965 185.858 141.042 184.146 141.042H177.12V132.067Z" fill="black"/>
</g>
<path d="M148.431 141.042H179.378C180.851 141.042 182.045 139.849 182.045 138.378V134.726C182.045 133.255 180.851 132.062 179.378 132.062H148.431C146.959 132.062 145.765 133.255 145.765 134.726V138.378C145.765 139.849 146.959 141.042 148.431 141.042Z" fill="#FF6200"/>
<path d="M221.4 120.06C221.404 122.41 220.576 124.685 219.062 126.484C217.549 128.283 215.447 129.489 213.129 129.89L211.333 153.841C211.176 155.875 209.695 157.433 207.924 157.433H188.628C190.399 157.433 191.875 155.875 192.032 153.841L193.016 141.061L193.848 129.875C195.364 129.615 196.8 129.006 198.04 128.097C199.281 127.187 200.293 126.002 200.997 124.635C201.093 124.462 201.18 124.283 201.257 124.1C201.826 122.829 202.118 121.452 202.113 120.06C202.112 119.378 202.043 118.698 201.907 118.03C201.853 117.764 201.784 117.499 201.71 117.238C201.36 116.068 200.799 114.97 200.057 113.999C199.126 112.788 197.929 111.806 196.558 111.13C195.187 110.453 193.679 110.1 192.15 110.097H211.447C212.993 110.091 214.519 110.452 215.899 111.149C217.248 111.82 218.426 112.79 219.343 113.985C220.682 115.727 221.405 117.863 221.4 120.06Z" fill="#FF6200"/>
<path opacity="0.1" d="M221.4 120.06C221.404 122.41 220.576 124.685 219.062 126.484C217.549 128.283 215.447 129.489 213.129 129.89L211.333 153.841C211.176 155.875 209.695 157.433 207.924 157.433H188.628C190.399 157.433 191.875 155.875 192.032 153.841L193.016 141.061L193.848 129.875C195.364 129.615 196.8 129.006 198.04 128.097C199.281 127.187 200.293 126.002 200.997 124.635C201.093 124.462 201.18 124.283 201.257 124.1C201.826 122.829 202.118 121.452 202.113 120.06C202.112 119.378 202.043 118.698 201.907 118.03C201.853 117.764 201.784 117.499 201.71 117.238C201.36 116.068 200.799 114.97 200.057 113.999C199.126 112.788 197.929 111.806 196.558 111.13C195.187 110.453 193.679 110.1 192.15 110.097H211.447C212.993 110.091 214.519 110.452 215.899 111.149C217.248 111.82 218.426 112.79 219.343 113.985C220.682 115.727 221.405 117.863 221.4 120.06Z" fill="black"/>
<path d="M202.118 120.064C202.118 124.98 198.876 129.074 194.62 129.895L192.977 153.841C192.834 155.875 191.501 157.438 189.887 157.438H138.355C136.751 157.438 135.403 155.875 135.265 153.841L133.617 129.85C129.445 128.975 126.291 124.935 126.291 120.079C126.282 118.04 126.861 116.042 127.959 114.324C128.79 113.013 129.935 111.931 131.29 111.173C132.523 110.48 133.914 110.116 135.329 110.116C137.561 110.13 139.7 111.011 141.292 112.574C142.564 113.82 143.483 115.38 143.954 117.096C143.98 117.166 143.998 117.238 144.008 117.312C144.125 117.835 144.202 118.365 144.24 118.9L144.358 120.566L145.76 141.061H182.483L184.003 118.944C184.219 115.818 185.745 113.213 187.86 111.979C189.197 110.91 190.83 110.277 192.539 110.166C192.719 110.147 192.9 110.139 193.08 110.141C194.454 110.133 195.808 110.471 197.016 111.124C197.054 111.141 197.09 111.16 197.125 111.183C198.372 111.875 199.443 112.846 200.254 114.019C201.475 115.798 202.125 117.907 202.118 120.064Z" fill="#FF6200"/>
<path opacity="0.1" d="M181.631 157.424H138.335C136.732 157.424 135.383 155.861 135.246 153.826L133.597 129.836C129.425 128.961 126.272 124.921 126.272 120.065C126.262 118.026 126.841 116.027 127.939 114.309C128.771 112.999 129.915 111.916 131.27 111.159C132.504 110.466 133.895 110.102 135.31 110.102C137.542 110.115 139.681 110.997 141.273 112.559C142.544 113.805 143.463 115.365 143.934 117.081C143.96 117.151 143.978 117.224 143.989 117.297C144.105 117.82 144.182 118.351 144.22 118.885L144.338 120.551L145.76 141.062H182.483L181.631 157.424Z" fill="white"/>
<path d="M176.018 89.3161C175.162 89.8076 174.379 90.2155 173.558 90.6333C172.736 91.0511 171.929 91.4344 171.098 91.8178C169.445 92.5698 167.772 93.2923 166.05 93.9165C164.314 94.5614 162.547 95.1192 160.756 95.5876C158.893 96.088 156.99 96.4284 155.068 96.6051L154.66 96.6444H154.468C152.731 96.4429 151.191 96.1529 149.647 95.8088C148.102 95.4648 146.572 95.1256 145.056 94.7373C143.541 94.3491 142.035 93.9509 140.53 93.5184C139.024 93.0859 137.533 92.6386 136.043 92.1324L136.727 88.7213C139.821 88.9179 142.911 89.2128 145.971 89.5323L150.542 89.9894C152.047 90.1369 153.587 90.2647 154.936 90.3138H154.34C155.884 90.039 157.407 89.6546 158.896 89.1637C160.436 88.6722 161.976 88.1119 163.516 87.4533C165.056 86.7946 166.581 86.1164 168.097 85.3939C168.874 85.04 169.627 84.6664 170.365 84.2978C171.103 83.9292 171.89 83.536 172.564 83.187L176.018 89.3161Z" fill="#263238"/>
<path opacity="0.1" d="M176.018 89.3161C175.162 89.8076 174.379 90.2155 173.558 90.6333C172.736 91.0511 171.929 91.4344 171.098 91.8178C169.445 92.5698 167.772 93.2923 166.05 93.9165C164.314 94.5614 162.547 95.1192 160.756 95.5876C158.893 96.088 156.99 96.4284 155.068 96.6051L154.66 96.6444H154.468C152.731 96.4429 151.191 96.1529 149.647 95.8088C148.102 95.4648 146.572 95.1256 145.056 94.7373C143.541 94.3491 142.035 93.9509 140.53 93.5184C139.024 93.0859 137.533 92.6386 136.043 92.1324L136.727 88.7213C139.821 88.9179 142.911 89.2128 145.971 89.5323L150.542 89.9894C152.047 90.1369 153.587 90.2647 154.936 90.3138H154.34C155.884 90.039 157.407 89.6546 158.896 89.1637C160.436 88.6722 161.976 88.1119 163.516 87.4533C165.056 86.7946 166.581 86.1164 168.097 85.3939C168.874 85.04 169.627 84.6664 170.365 84.2978C171.103 83.9292 171.89 83.536 172.564 83.187L176.018 89.3161Z" fill="black"/>
<path d="M136.102 86.8487C135.374 86.3387 134.571 85.9472 133.721 85.6887L132.446 90.6578L136.264 92.2601L136.697 91.7293C136.991 91.3748 137.209 90.9642 137.338 90.5227C137.468 90.0811 137.506 89.6178 137.45 89.1611C137.394 88.7043 137.246 88.2637 137.014 87.8662C136.783 87.4686 136.472 87.1224 136.102 86.8487Z" fill="#FFC3BD"/>
<path d="M132.446 90.6578L133.721 85.6888L130.158 83.7473L129.086 87.2468L132.446 90.6578Z" fill="#FFC3BD"/>
<path opacity="0.2" d="M164.038 94.3688H164.175H164.234C166.114 94.1673 171.639 93.2383 175.634 89.3014C175.039 88.1513 174.222 87.2617 173.223 87.0601C170.468 86.5392 167.093 88.5101 164.038 94.3688Z" fill="black"/>
<path d="M167.28 120.06C171.993 107.344 168.894 95.6515 169.484 89.1784C169.629 87.5828 170.29 86.0778 171.368 84.8912C172.446 83.7046 173.881 82.901 175.457 82.6021C178.675 81.9828 182.655 81.2849 186.448 80.7737C187.508 80.6276 188.587 80.7122 189.611 81.0218C190.636 81.3314 191.581 81.8586 192.382 82.5674C193.183 83.2761 193.821 84.1495 194.252 85.1278C194.684 86.106 194.898 87.1659 194.881 88.2347C194.551 107.403 188.401 120.06 188.401 120.06L178.463 120.015L167.28 120.06Z" fill="#FF6200"/>
<path opacity="0.8" d="M167.28 120.06C171.993 107.344 168.894 95.6515 169.484 89.1784C169.629 87.5828 170.29 86.0778 171.368 84.8912C172.446 83.7046 173.881 82.901 175.457 82.6021C178.675 81.9828 182.655 81.2849 186.448 80.7737C187.508 80.6276 188.587 80.7122 189.611 81.0218C190.636 81.3314 191.581 81.8586 192.382 82.5674C193.183 83.2761 193.821 84.1495 194.252 85.1278C194.684 86.106 194.898 87.1659 194.881 88.2347C194.551 107.403 188.401 120.06 188.401 120.06L178.463 120.015L167.28 120.06Z" fill="white"/>
<path d="M129.573 163.444L128.313 171.716H132.313L134.941 163.444H129.573Z" fill="#FFC3BD"/>
<path d="M127.802 169.873L133.15 169.745C133.192 169.741 133.234 169.745 133.274 169.757C133.314 169.77 133.351 169.791 133.383 169.818C133.414 169.846 133.44 169.88 133.457 169.919C133.475 169.957 133.484 169.998 133.484 170.04V173.972C133.46 174.19 133.358 174.392 133.196 174.539C133.033 174.687 132.823 174.77 132.604 174.773C130.744 174.773 129.858 174.705 127.507 174.773C125.003 174.766 122.502 174.601 120.018 174.282C118.114 173.958 118.631 172.173 119.492 172.144C123.379 172.001 125.553 171.19 126.951 170.178C127.194 169.987 127.493 169.881 127.802 169.873Z" fill="#263238"/>
<path opacity="0.2" d="M129.066 166.762L129.573 163.444H134.941L133.652 167.583L129.066 166.762Z" fill="black"/>
<path d="M164.82 117.081C164.82 117.081 132.274 117.405 131.767 127.702C131.049 142.506 128.545 165.057 128.545 165.057L134.68 166.742C134.68 166.742 143.438 144.364 143.777 132.799C152.933 130.981 176.465 132.799 179.231 126.793C180.582 123.736 180.946 120.335 180.274 117.061L164.82 117.081Z" fill="#FF6200"/>
<path opacity="0.6" d="M164.82 117.081C164.82 117.081 132.274 117.405 131.767 127.702C131.049 142.506 128.545 165.057 128.545 165.057L134.68 166.742C134.68 166.742 143.438 144.364 143.777 132.799C152.933 130.981 176.465 132.799 179.231 126.793C180.582 123.736 180.946 120.335 180.274 117.061L164.82 117.081Z" fill="black"/>
<path d="M158.208 166.644L160.377 172.257H164.766L163.255 166.354L158.208 166.644Z" fill="#FFC3BD"/>
<path opacity="0.2" d="M163.664 167.947L162.812 163.626L157.268 164.314L158.689 168.069L163.664 167.947Z" fill="black"/>
<path d="M159.186 170.399H164.79C164.881 170.392 164.971 170.422 165.04 170.481C165.109 170.539 165.152 170.623 165.159 170.714L165.43 174.906C165.425 175.133 165.331 175.349 165.168 175.507C165.005 175.665 164.786 175.753 164.559 175.752C162.591 175.717 161.676 175.609 159.211 175.609C157.701 175.609 154.64 175.757 152.549 175.757C150.458 175.757 150.517 173.791 151.398 173.638C155.383 172.842 156.923 171.746 158.325 170.689C158.575 170.504 158.876 170.403 159.186 170.399Z" fill="#263238"/>
<path d="M173.573 117.081C173.573 117.081 144.053 119.081 144.781 129.368C145.573 140.634 157.396 166.757 157.396 166.757H163.344C163.344 166.757 159.408 143.057 157.597 131.575C165.922 131.575 185.213 132.829 187.988 126.808C189.334 123.749 189.695 120.348 189.021 117.076L173.573 117.081Z" fill="#FF6200"/>
<path opacity="0.5" d="M173.573 117.081C173.573 117.081 144.053 119.081 144.781 129.368C145.573 140.634 157.396 166.757 157.396 166.757H163.344C163.344 166.757 159.408 143.057 157.597 131.575C165.922 131.575 185.213 132.829 187.988 126.808C189.334 123.749 189.695 120.348 189.021 117.076L173.573 117.081Z" fill="black"/>
<path d="M178.045 75.4065C178.724 78.0311 178.935 81.3046 175.265 82.6562C174.247 84.2781 173.75 85.9886 177.671 85.3791C180.792 84.976 183.633 83.3711 185.587 80.9064C183.24 78.852 183.668 72.5509 184.264 68.9973L178.045 75.4065Z" fill="#FFC3BD"/>
<path d="M177.612 80.1838C174.242 80.7589 171.472 83.3639 169.986 86.4358C168.5 89.5077 168.141 93.0072 168.17 96.4231C168.2 99.839 168.589 103.24 168.495 106.651C168.392 110.583 167.442 113.37 166.084 117.076C166.084 117.956 167.418 118.452 168.544 118.683C170.896 113.557 172.441 108.652 172.279 103.019C172.156 98.9298 172.101 94.2703 172.771 90.24C173.44 86.2097 178.266 80.9457 178.035 80.2182L177.612 80.1838Z" fill="#263238"/>
<path opacity="0.3" d="M180.908 77.3332C180.555 77.5953 180.152 77.7834 179.725 77.8865C179.297 77.9895 178.853 78.0053 178.419 77.9328C178.427 77.2944 178.381 76.6565 178.281 76.0258L182.355 72.6836C182.444 73.118 182.501 73.5582 182.527 74.0008C182.571 74.649 182.445 75.2974 182.161 75.8819C181.877 76.4664 181.445 76.9666 180.908 77.3332Z" fill="black"/>
<path d="M174.817 59.8848C170.512 62.3177 170.468 69.1938 171.796 73.1554C172.131 74.1948 172.746 75.1223 173.573 75.8364C174.4 76.5505 175.408 77.0236 176.486 77.2043C177.564 77.3849 178.671 77.2659 179.686 76.8604C180.701 76.455 181.585 75.7785 182.242 74.9051C184.347 72.2461 184.042 69.5625 183.939 64.9423C183.836 60.3222 179.127 57.4567 174.817 59.8848Z" fill="#FFC3BD"/>
<path opacity="0.2" d="M176.205 72.251C174.817 72.8457 173.297 73.6174 171.895 73.4503C172.272 74.4464 172.91 75.3231 173.742 75.989C174.574 76.655 175.569 77.0857 176.625 77.2363C177.68 77.3869 178.757 77.2519 179.742 76.8453C180.727 76.4387 181.585 75.7755 182.227 74.9248C183.964 72.7425 184.5 71.268 184.008 67.2966C181.312 70.4521 179.171 70.9731 176.205 72.251Z" fill="black"/>
<path d="M180.367 61.438C179.92 62.1636 179.721 63.0145 179.8 63.8628C179.879 64.7111 180.232 65.5109 180.805 66.1417C181.194 66.5496 181.671 66.8642 182.045 67.282C182.628 67.9375 182.932 68.7946 182.891 69.6707C182.979 69.107 183.26 68.5914 183.686 68.212C184.112 67.8327 184.658 67.6134 185.228 67.5916C184.644 69.3971 184.06 71.1992 183.477 72.9981C184.632 72.4596 185.631 71.6352 186.378 70.603C187.126 69.5709 187.597 68.3651 187.747 67.1001C188.121 63.6104 183.811 56.1347 180.367 61.438Z" fill="#263238"/>
<path d="M170.32 61.6788C169.991 62.0442 169.756 62.4847 169.637 62.9616C169.579 63.1979 169.595 63.4461 169.683 63.6728C169.771 63.8996 169.927 64.0939 170.129 64.2297C170.501 64.3797 170.914 64.4004 171.3 64.2887L175.236 63.6055C177.489 63.2123 179.742 62.824 181.966 62.2883C182.95 62.0523 184.087 61.6739 184.48 60.7302C185.754 57.6583 180.313 57.2602 178.493 57.3437C175.393 57.5059 172.259 59.2852 170.32 61.6788Z" fill="#263238"/>
<path d="M184.638 66.8051C183.349 67.0951 182.798 68.9481 182.832 70.1375C182.832 71.4892 183.816 72.369 184.958 71.5531C185.805 70.9236 186.382 69.996 186.571 68.9579C186.803 67.6849 185.932 66.5151 184.638 66.8051Z" fill="#FFC3BD"/>
<path d="M175.531 71.4991C175.335 71.6291 175.114 71.7146 174.882 71.7494C174.649 71.7842 174.412 71.7676 174.188 71.7006C174.68 70.5898 174.62 70.8405 174.773 68.9531L175.531 71.4991Z" fill="#ED847E"/>
<path d="M177.799 65.37C177.43 64.9572 176.421 64.7999 175.875 64.8785C175.82 64.8857 175.764 64.8713 175.719 64.8383C175.674 64.8054 175.644 64.7564 175.634 64.7016C175.627 64.6426 175.642 64.583 175.677 64.5347C175.711 64.4865 175.763 64.453 175.821 64.4411C176.51 64.3379 177.656 64.5443 178.124 65.0604C178.164 65.1017 178.187 65.1573 178.187 65.2152C178.187 65.2731 178.164 65.3287 178.124 65.37C178.096 65.3985 178.063 65.4204 178.025 65.4339C177.985 65.4462 177.943 65.4467 177.903 65.4354C177.863 65.424 177.827 65.4013 177.799 65.37Z" fill="#263238"/>
<path d="M171.432 66.2891C171.386 66.2572 171.354 66.2086 171.343 66.1536C171.332 66.0986 171.343 66.0414 171.373 65.9942C171.546 65.6841 171.788 65.4182 172.081 65.2178C172.374 65.0173 172.709 64.8877 173.061 64.8392C173.088 64.8385 173.114 64.8432 173.14 64.8531C173.165 64.8629 173.187 64.8777 173.207 64.8964C173.226 64.9152 173.241 64.9376 173.252 64.9624C173.262 64.9872 173.267 65.0138 173.267 65.0407C173.27 65.1004 173.25 65.1588 173.21 65.2037C173.171 65.2486 173.115 65.2765 173.056 65.2815C172.779 65.3258 172.515 65.4324 172.285 65.5933C172.055 65.7542 171.864 65.9653 171.728 66.2105C171.71 66.2425 171.684 66.2696 171.653 66.2893C171.622 66.3091 171.587 66.3208 171.55 66.3235C171.508 66.327 171.466 66.3147 171.432 66.2891Z" fill="#263238"/>
<path d="M175.152 73.4994C175.625 74.1011 176.06 74.7314 176.456 75.3868L176.761 75.259C178.148 74.6594 178.542 73.8238 178.561 73.0817C178.545 72.4912 178.362 71.9173 178.035 71.4253C177.543 72.2756 176.298 72.9539 175.619 73.2832C175.329 73.4257 175.152 73.4994 175.152 73.4994Z" fill="#2E353A"/>
<path d="M175.609 73.2832L175.811 73.5584C175.866 73.6323 175.945 73.6855 176.034 73.7095C176.123 73.7336 176.218 73.7271 176.303 73.6911C177.326 73.1996 178.005 72.7081 178.271 72.1527C178.295 72.1003 178.308 72.0433 178.308 71.9856C178.308 71.9279 178.295 71.8709 178.271 71.8185C178.205 71.6821 178.13 71.5507 178.045 71.4253C177.528 72.2756 176.288 72.9539 175.609 73.2832Z" fill="white"/>
<path d="M176.751 75.2591C178.138 74.6595 178.532 73.824 178.552 73.0818C178.025 73.3247 177.556 73.6784 177.179 74.1189C176.919 74.4441 176.769 74.8434 176.751 75.2591Z" fill="#DE5753"/>
<path d="M173.012 67.8274C172.771 67.8716 172.638 68.2157 172.707 68.5843C172.775 68.9529 173.036 69.2183 173.277 69.1692C173.518 69.12 173.651 68.7858 173.582 68.4172C173.513 68.0486 173.253 67.8274 173.012 67.8274Z" fill="#263238"/>
<path d="M177.233 67.1492C176.992 67.1934 176.859 67.5326 176.928 67.9061C176.997 68.2796 177.258 68.5401 177.499 68.491C177.74 68.4418 177.873 68.1027 177.804 67.7341C177.735 67.3654 177.474 67.1049 177.233 67.1492Z" fill="#263238"/>
<path opacity="0.9" d="M171.152 69.8229L174.256 69.125L174.311 70.4422L171.422 71.1303L171.152 69.8229Z" fill="white"/>
<g opacity="0.8">
<path opacity="0.9" d="M175.201 68.9187L175.57 70.1278L179.555 69.2726L179.319 67.8767L175.201 68.9187Z" fill="white"/>
</g>
<path d="M174.276 69.6117L174.256 69.1251L175.201 68.9187L175.339 69.3758L174.276 69.6117Z" fill="#263238"/>
<path d="M173.145 119.494C173.145 119.494 178.748 121.662 180.033 122.085C181.509 122.662 183.062 123.018 184.643 123.141C185.444 123.195 186.247 123.078 187 122.797C187.752 122.517 188.436 122.08 189.007 121.514C190.345 120.089 190.763 117.927 191.112 115.897C192.136 109.936 193.162 103.976 194.192 98.0157C194.684 95.0667 195.978 90.6432 195.87 88.977C195.668 85.8805 193.695 82.2237 188.672 80.2135C186.704 79.432 184.79 79.722 183.147 81.688C182.163 82.8578 179.299 85.679 178.596 90.6481C178.035 94.6293 177.159 99.7851 177.213 103.83C177.277 109.148 175.152 115.852 173.145 119.494Z" fill="#263238"/>
<path d="M195.595 87.3401C196.165 92.5205 193.297 105.58 192.746 106.366C190.394 113.94 183.934 109.856 182.999 109.507C181.371 108.907 179.713 107.733 178.163 106.951C175.157 105.477 172.308 104.258 169.514 102.405L171.088 99.2983C174.153 100.34 182.827 102.582 184.259 102.931C184.879 103.093 187.295 104.356 187.27 102.69C187.609 102.134 188.082 91.3163 189.12 87.4924C189.238 87.0633 189.444 86.6634 189.725 86.3177L189.819 86.1998C190.197 85.7253 190.7 85.364 191.27 85.1553C191.841 84.9465 192.457 84.8983 193.054 85.016C193.65 85.1336 194.202 85.4126 194.65 85.8225C195.098 86.2323 195.425 86.7573 195.595 87.3401Z" fill="#263238"/>
<path opacity="0.1" d="M195.595 87.3401C196.165 92.5205 193.297 105.58 192.746 106.366C190.394 113.94 183.934 109.856 182.999 109.507C181.371 108.907 179.713 107.733 178.163 106.951C175.157 105.477 172.308 104.258 169.514 102.405L171.088 99.2983C174.153 100.34 182.827 102.582 184.259 102.931C184.879 103.093 187.295 104.356 187.27 102.69C187.609 102.134 188.082 91.3163 189.12 87.4924C189.238 87.0633 189.444 86.6634 189.725 86.3177L189.819 86.1998C190.197 85.7253 190.7 85.364 191.27 85.1553C191.841 84.9465 192.457 84.8983 193.054 85.016C193.65 85.1336 194.202 85.4126 194.65 85.8225C195.098 86.2323 195.425 86.7573 195.595 87.3401Z" fill="white"/>
<path d="M169.858 106.902H155.295L153.632 87.9202H168.195L169.858 106.902Z" fill="#263238"/>
<path opacity="0.5" d="M169.858 106.902H155.295L153.632 87.9202H168.195L169.858 106.902Z" fill="white"/>
<path d="M169.341 106.809H154.778L153.115 87.8267H167.678L169.341 106.809Z" fill="#FF6200"/>
<path opacity="0.8" d="M169.341 106.809H154.778L153.115 87.8267H167.678L169.341 106.809Z" fill="white"/>
<path d="M163.565 89.0114H157.44L157.233 86.6375H163.354L163.565 89.0114Z" fill="#FF6200"/>
<path d="M157.233 86.6373L157.833 86.4309H164.175L164.264 87.4385L163.792 87.9841L163.762 88.8098L163.565 89.0113L163.354 86.6373H157.233Z" fill="#FF6200"/>
<path opacity="0.5" d="M157.233 86.6373L157.833 86.4309H164.175L164.264 87.4385L163.792 87.9841L163.762 88.8098L163.565 89.0113L163.354 86.6373H157.233Z" fill="black"/>
<path d="M172.249 100.326L172.579 102.1C171.791 104.149 167.28 103.609 167.28 103.609V98.3645L171.26 99.2885C171.507 99.3488 171.731 99.4785 171.907 99.6623C172.082 99.8462 172.201 100.076 172.249 100.326Z" fill="#FFC3BD"/>
<path d="M167.27 98.3645L167.29 103.619L163.295 103.717L162.38 99.0968L167.27 98.3645Z" fill="#FFC3BD"/>
<path d="M182.483 141.062L184.003 118.944C184.22 115.818 185.745 113.213 187.86 111.979C189.197 110.911 190.831 110.278 192.539 110.166C192.719 110.148 192.9 110.139 193.08 110.141C194.454 110.133 195.808 110.472 197.016 111.124C197.054 111.141 197.09 111.161 197.125 111.183C198.372 111.875 199.443 112.846 200.254 114.019C201.481 115.803 202.133 117.919 202.123 120.084C202.123 124.999 198.881 129.093 194.625 129.914L192.977 153.841C192.834 155.875 191.501 157.438 189.887 157.438H181.632L182.483 141.062Z" fill="#FF6200"/>
<path opacity="0.1" d="M182.483 141.062L184.003 118.944C184.22 115.818 185.745 113.213 187.86 111.979C189.197 110.911 190.831 110.278 192.539 110.166C192.719 110.148 192.9 110.139 193.08 110.141C194.454 110.133 195.808 110.472 197.016 111.124C197.054 111.141 197.09 111.161 197.125 111.183C198.372 111.875 199.443 112.846 200.254 114.019C201.481 115.803 202.133 117.919 202.123 120.084C202.123 124.999 198.881 129.093 194.625 129.914L192.977 153.841C192.834 155.875 191.501 157.438 189.887 157.438H181.632L182.483 141.062Z" fill="white"/>
<path d="M107.404 38.1406V58.6903C107.404 59.2117 107.196 59.7118 106.827 60.0805C106.458 60.4492 105.957 60.6563 105.436 60.6563H84.3681L76.8405 66.4708C76.6269 66.632 76.3725 66.7303 76.106 66.7548C75.8395 66.7793 75.5715 66.7289 75.3321 66.6093C75.0927 66.4897 74.8915 66.3057 74.7512 66.0781C74.6109 65.8504 74.537 65.5881 74.5379 65.3207V60.6563H73.362C72.8401 60.6563 72.3395 60.4492 71.9705 60.0805C71.6014 59.7118 71.394 59.2117 71.394 58.6903V38.1357C71.3953 37.8797 71.4474 37.6265 71.5472 37.3907C71.6471 37.155 71.7927 36.9413 71.9757 36.7622C72.1587 36.583 72.3755 36.4419 72.6134 36.3469C72.8514 36.2519 73.1058 36.2051 73.362 36.209H105.47C105.983 36.209 106.475 36.4125 106.837 36.7747C107.2 37.137 107.404 37.6283 107.404 38.1406V38.1406Z" stroke="#FF6200" stroke-miterlimit="10"/>
<path d="M87.6744 33.3142H83.6548V33.8057H87.6744V33.3142Z" fill="#FF6200"/>
<path d="M68.8799 39.1039H68.3879V36.6808C68.3892 35.7861 68.7459 34.9285 69.3797 34.2963C70.0134 33.6642 70.8724 33.3091 71.768 33.3091H80.7371V33.8006H71.7581C70.9934 33.8019 70.2603 34.1056 69.7192 34.6453C69.178 35.185 68.8727 35.9169 68.8701 36.6808L68.8799 39.1039Z" fill="#FF6200"/>
<path d="M97.3027 51.2638C97.0889 51.2651 96.8771 51.2221 96.6807 51.1376C96.4843 51.0531 96.3076 50.929 96.1615 50.7729C96.0155 50.6169 95.9034 50.4324 95.8322 50.2309C95.761 50.0295 95.7323 49.8156 95.748 49.6025C96.2744 43.6111 101.027 43.0606 101.622 36.2484C101.795 34.2824 101.076 33.5451 99.7036 33.5451C98.331 33.5451 97.4847 34.2873 97.3125 36.2484L97.2141 37.369C97.1698 37.8753 96.9369 38.3465 96.5616 38.6896C96.1863 39.0327 95.6958 39.2227 95.1871 39.222C94.9055 39.2217 94.627 39.1629 94.3694 39.0494C94.1117 38.9359 93.8805 38.7702 93.6903 38.5627C93.5002 38.3552 93.3553 38.1105 93.2649 37.844C93.1744 37.5776 93.1404 37.2954 93.165 37.0151L93.2092 36.5236C93.593 32.1394 95.9694 29.6426 100.166 29.6426C104.363 29.6426 106.296 32.1492 105.913 36.5236C105.288 43.6258 100.097 44.7268 99.6544 49.7352C99.6569 49.7597 99.6569 49.7844 99.6544 49.809C99.6319 50.2063 99.4585 50.58 99.1696 50.854C98.8807 51.128 98.4981 51.2816 98.0997 51.2835L97.3027 51.2638ZM99.433 55.4318C99.3887 55.9472 99.1522 56.4272 98.7704 56.7767C98.3886 57.1262 97.8894 57.3198 97.3716 57.3191C97.0846 57.3196 96.8007 57.2603 96.5379 57.1451C96.2751 57.0298 96.0393 56.8612 95.8453 56.6499C95.6514 56.4386 95.5036 56.1892 95.4115 55.9177C95.3193 55.6462 95.2848 55.3585 95.3101 55.073C95.3545 54.5567 95.5917 54.076 95.9745 53.7264C96.3573 53.3767 96.8578 53.1837 97.3765 53.1856C97.6628 53.1866 97.9458 53.2469 98.2077 53.3626C98.4695 53.4784 98.7045 53.6472 98.8977 53.8582C99.091 54.0693 99.2383 54.3181 99.3305 54.5889C99.4226 54.8598 99.4575 55.1468 99.433 55.4318Z" fill="#FF6200"/>
<path d="M91.758 46.4521H80.442C80.181 46.4521 79.9307 46.3485 79.7462 46.1642C79.5617 45.9798 79.458 45.7298 79.458 45.4691C79.458 45.2084 79.5617 44.9583 79.7462 44.774C79.9307 44.5896 80.181 44.4861 80.442 44.4861H91.758C92.019 44.4861 92.2693 44.5896 92.4538 44.774C92.6383 44.9583 92.742 45.2084 92.742 45.4691C92.742 45.7298 92.6383 45.9798 92.4538 46.1642C92.2693 46.3485 92.019 46.4521 91.758 46.4521Z" fill="#FF6200"/>
<path d="M90.1933 50.3447H80.4615C80.2006 50.3447 79.9503 50.2411 79.7658 50.0568C79.5812 49.8724 79.4775 49.6224 79.4775 49.3617C79.4775 49.101 79.5812 48.8509 79.7658 48.6666C79.9503 48.4822 80.2006 48.3787 80.4615 48.3787H90.1933C90.4543 48.3787 90.7046 48.4822 90.8891 48.6666C91.0736 48.8509 91.1773 49.101 91.1773 49.3617C91.1773 49.6224 91.0736 49.8724 90.8891 50.0568C90.7046 50.2411 90.4543 50.3447 90.1933 50.3447Z" fill="#FF6200"/>
<path d="M88.6287 54.2324H80.4615C80.2006 54.2324 79.9503 54.1288 79.7658 53.9445C79.5812 53.7601 79.4775 53.5101 79.4775 53.2494C79.4775 52.9887 79.5812 52.7386 79.7658 52.5543C79.9503 52.3699 80.2006 52.2664 80.4615 52.2664H88.6287C88.8897 52.2664 89.14 52.3699 89.3245 52.5543C89.5091 52.7386 89.6127 52.9887 89.6127 53.2494C89.6127 53.5101 89.5091 53.7601 89.3245 53.9445C89.14 54.1288 88.8897 54.2324 88.6287 54.2324Z" fill="#FF6200"/>
<path d="M65.4753 134.431H58.2871C56.5356 134.431 55.1187 135.537 55.1187 136.888V141.135C55.1187 142.501 56.5356 143.593 58.2871 143.593H65.4753V134.431Z" fill="#FF6200"/>
<path d="M32.0687 154.43L29.5693 114.687C29.3495 111.192 29.8488 107.69 31.0363 104.396C32.2239 101.101 34.0745 98.0847 36.4741 95.5324C38.8736 92.98 41.7712 90.9459 44.9881 89.5555C48.2049 88.1651 51.6728 87.4478 55.1779 87.448C61.7339 87.4476 68.0415 89.9539 72.8063 94.4525C77.5711 98.951 80.4317 105.101 80.8012 111.64L83.4187 158.057H35.9161C34.9338 158.053 33.99 157.676 33.2756 157.002C32.5612 156.329 32.1298 155.409 32.0687 154.43Z" fill="#FF6200"/>
<path opacity="0.1" d="M31.9801 152.99L29.5693 114.687C29.3495 111.192 29.8488 107.69 31.0363 104.396C32.2239 101.101 34.0745 98.0847 36.4741 95.5324C38.8736 92.98 41.7712 90.9459 44.9881 89.5555C48.2049 88.1651 51.6728 87.4478 55.1779 87.448C61.7339 87.4476 68.0415 89.9539 72.8063 94.4525C77.5711 98.951 80.4317 105.101 80.8012 111.64L83.4187 158.057H37.3921C36.0137 158.06 34.6861 157.537 33.6804 156.596C32.6747 155.654 32.0666 154.364 31.9801 152.99Z" fill="black"/>
<path d="M39.7732 158.057L37.0476 114.687C36.8278 111.192 37.3272 107.689 38.515 104.394C39.7029 101.1 41.554 98.083 43.954 95.5306C46.3541 92.9782 49.2523 90.9442 52.4697 89.554C55.6872 88.1639 59.1556 87.4472 62.6611 87.448C69.2163 87.4489 75.5226 89.9557 80.2863 94.4542C85.0501 98.9526 87.91 105.102 88.2795 111.64L90.9019 158.057H39.7732Z" fill="#FF6200"/>
<path d="M38.9567 165.523H38.3023C38.1252 165.512 37.9578 165.439 37.8293 165.316C37.7007 165.194 37.6191 165.031 37.5987 164.855L36.6147 158.057H40.6049L39.6209 164.855C39.6038 165.026 39.5284 165.185 39.4075 165.307C39.2865 165.429 39.1274 165.505 38.9567 165.523Z" fill="#FF6200"/>
<path opacity="0.7" d="M38.9567 165.523H38.3023C38.1252 165.512 37.9578 165.439 37.8293 165.316C37.7007 165.194 37.6191 165.031 37.5987 164.855L36.6147 158.057H40.6049L39.6209 164.855C39.6038 165.026 39.5284 165.185 39.4075 165.307C39.2865 165.429 39.1274 165.505 38.9567 165.523Z" fill="white"/>
<path d="M103.236 165.523H102.641C102.473 165.505 102.317 165.428 102.201 165.305C102.085 165.183 102.016 165.023 102.006 164.855L101.131 158.057H104.747L103.871 164.855C103.862 165.023 103.793 165.183 103.676 165.305C103.56 165.428 103.404 165.505 103.236 165.523Z" fill="#FF6200"/>
<path opacity="0.5" d="M103.236 165.523H102.641C102.473 165.505 102.317 165.428 102.201 165.305C102.085 165.183 102.016 165.023 102.006 164.855L101.131 158.057H104.747L103.871 164.855C103.862 165.023 103.793 165.183 103.676 165.305C103.56 165.428 103.404 165.505 103.236 165.523Z" fill="white"/>
<path d="M84.7323 165.523H84.1321C83.9642 165.505 83.8083 165.428 83.6921 165.305C83.5758 165.183 83.5069 165.023 83.4974 164.855L82.6167 158.057H86.2378L85.3621 164.855C85.3518 165.022 85.2832 165.181 85.1682 165.303C85.0531 165.425 84.8989 165.503 84.7323 165.523Z" fill="#FF6200"/>
<path opacity="0.7" d="M84.7323 165.523H84.1321C83.9642 165.505 83.8083 165.428 83.6921 165.305C83.5758 165.183 83.5069 165.023 83.4974 164.855L82.6167 158.057H86.2378L85.3621 164.855C85.3518 165.022 85.2832 165.181 85.1682 165.303C85.0531 165.425 84.8989 165.503 84.7323 165.523Z" fill="white"/>
<path d="M58.8824 165.523H58.2281C58.0507 165.513 57.8828 165.44 57.754 165.318C57.6252 165.195 57.544 165.031 57.5245 164.855L56.5405 158.057H60.5306L59.5466 164.855C59.5296 165.026 59.4542 165.185 59.3333 165.307C59.2123 165.429 59.0531 165.505 58.8824 165.523Z" fill="#FF6200"/>
<path opacity="0.5" d="M58.8824 165.523H58.2281C58.0507 165.513 57.8828 165.44 57.754 165.318C57.6252 165.195 57.544 165.031 57.5245 164.855L56.5405 158.057H60.5306L59.5466 164.855C59.5296 165.026 59.4542 165.185 59.3333 165.307C59.2123 165.429 59.0531 165.505 58.8824 165.523Z" fill="white"/>
<path d="M80.5454 141.676H98.0409L99.1971 124.842L99.4431 121.224L99.5612 119.558C99.5915 119.121 99.6473 118.686 99.7285 118.256C99.7285 118.162 99.7728 118.064 99.7924 117.97C99.8029 117.898 99.8211 117.827 99.8466 117.759C100.318 116.043 101.237 114.483 102.508 113.237C103.974 111.79 105.913 110.917 107.969 110.78H91.5121C91.33 110.78 91.1529 110.78 90.9709 110.78C88.7385 110.791 86.5987 111.673 85.0078 113.237C83.7361 114.483 82.8177 116.043 82.3461 117.759C82.3206 117.827 82.3025 117.898 82.292 117.97C82.1764 118.493 82.0991 119.024 82.0608 119.558L81.9476 121.224L80.5454 141.676Z" fill="#FF6200"/>
<path opacity="0.1" d="M80.5454 141.676H98.0409L99.1971 124.842L99.4431 121.224L99.5612 119.558C99.5915 119.121 99.6473 118.686 99.7285 118.256C99.7285 118.162 99.7728 118.064 99.7924 117.97C99.8029 117.898 99.8211 117.827 99.8466 117.759C100.318 116.043 101.237 114.483 102.508 113.237C103.974 111.79 105.913 110.917 107.969 110.78H91.5121C91.33 110.78 91.1529 110.78 90.9709 110.78C88.7385 110.791 86.5987 111.673 85.0078 113.237C83.7361 114.483 82.8177 116.043 82.3461 117.759C82.3206 117.827 82.3025 117.898 82.292 117.97C82.1764 118.493 82.0991 119.024 82.0608 119.558L81.9476 121.224L80.5454 141.676Z" fill="black"/>
<g opacity="0.1">
<path d="M66.6807 132.706H59.6501C57.9428 132.706 56.5603 133.787 56.5603 135.119V139.272C56.5603 140.604 57.9428 141.685 59.6501 141.685H66.6807V132.706Z" fill="black"/>
</g>
<path d="M95.3693 132.701H64.4225C62.9498 132.701 61.7559 133.893 61.7559 135.365V139.017C61.7559 140.488 62.9498 141.68 64.4225 141.68H95.3693C96.842 141.68 98.0359 140.488 98.0359 139.017V135.365C98.0359 133.893 96.842 132.701 95.3693 132.701Z" fill="#FF6200"/>
<path d="M22.386 120.698C22.3818 123.048 23.2097 125.324 24.7233 127.123C26.2369 128.922 28.3385 130.128 30.6565 130.528L32.472 154.46C32.6294 156.494 34.1054 158.057 35.8766 158.057H55.1778C53.4066 158.057 51.9306 156.494 51.7732 154.46L50.7892 141.681L49.9429 130.519C48.4286 130.254 46.9962 129.643 45.7577 128.733C44.5192 127.823 43.5083 126.639 42.804 125.274C42.7105 125.097 42.6269 124.915 42.5482 124.734C41.9774 123.465 41.6838 122.089 41.6872 120.698C41.6873 120.015 41.7582 119.333 41.8987 118.663C41.9528 118.398 42.0217 118.133 42.0906 117.877C42.4437 116.705 43.0053 115.606 43.7486 114.633C44.6682 113.441 45.8455 112.471 47.1926 111.797C48.5666 111.107 50.0828 110.747 51.6206 110.745H32.3539C31.353 110.745 30.3577 110.896 29.4019 111.193C27.4336 111.799 25.7024 113.001 24.4475 114.633C23.1088 116.372 22.3839 118.505 22.386 120.698Z" fill="#FF6200"/>
<path opacity="0.1" d="M22.386 120.698C22.3818 123.048 23.2097 125.324 24.7233 127.123C26.2369 128.922 28.3385 130.128 30.6565 130.528L32.472 154.46C32.6294 156.494 34.1054 158.057 35.8766 158.057H55.1778C53.4066 158.057 51.9306 156.494 51.7732 154.46L50.7892 141.681L49.9429 130.519C48.4286 130.254 46.9962 129.643 45.7577 128.733C44.5192 127.823 43.5083 126.639 42.804 125.274C42.7105 125.097 42.6269 124.915 42.5482 124.734C41.9774 123.465 41.6838 122.089 41.6872 120.698C41.6873 120.015 41.7582 119.333 41.8987 118.663C41.9528 118.398 42.0217 118.133 42.0906 117.877C42.4437 116.705 43.0053 115.606 43.7486 114.633C44.6682 113.441 45.8455 112.471 47.1926 111.797C48.5666 111.107 50.0828 110.747 51.6206 110.745H32.3539C31.353 110.745 30.3577 110.896 29.4019 111.193C27.4336 111.799 25.7024 113.001 24.4475 114.633C23.1088 116.372 22.3839 118.505 22.386 120.698Z" fill="black"/>
<path d="M41.6823 120.698C41.6823 125.613 44.9246 129.712 49.1804 130.528L50.8236 154.479C50.9663 156.519 52.2996 158.077 53.9134 158.077H105.445C107.049 158.077 108.397 156.519 108.535 154.479L110.183 130.494C114.351 129.619 117.504 125.579 117.504 120.718C117.516 118.68 116.938 116.681 115.841 114.962C115.008 113.652 113.862 112.57 112.506 111.812C111.273 111.123 109.884 110.761 108.471 110.76C106.239 110.77 104.099 111.652 102.508 113.218C101.236 114.463 100.316 116.023 99.8416 117.739C99.82 117.808 99.8036 117.879 99.7924 117.951C99.6744 118.473 99.5971 119.004 99.5612 119.538L99.4431 121.204L98.0409 141.671H61.318L59.7977 119.553C59.5763 116.427 58.056 113.822 55.9404 112.588C54.6012 111.523 52.9693 110.891 51.2615 110.775C51.0795 110.775 50.9024 110.775 50.7203 110.775C49.3465 110.767 47.9929 111.105 46.7843 111.758C46.7448 111.772 46.7069 111.79 46.6712 111.812C45.4265 112.508 44.3565 113.478 43.542 114.648C42.3196 116.428 41.6707 118.539 41.6823 120.698Z" fill="#FF6200"/>
<path opacity="0.1" d="M62.1641 158.057H105.46C107.064 158.057 108.412 156.499 108.55 154.46L110.198 130.474C114.365 129.599 117.519 125.559 117.519 120.698C117.53 118.66 116.953 116.662 115.856 114.943C115.023 113.633 113.876 112.55 112.52 111.792C111.287 111.104 109.898 110.742 108.486 110.74C106.253 110.751 104.113 111.633 102.523 113.198C101.25 114.444 100.33 116.004 99.8562 117.72C99.8347 117.789 99.8182 117.86 99.807 117.931C99.6891 118.454 99.6118 118.984 99.5758 119.519L99.4577 121.185L98.0555 141.651H61.3179L62.1641 158.057Z" fill="white"/>
<path d="M75.3398 166.516L79.5366 167.676L83.3053 157.822L79.1086 156.662L75.3398 166.516Z" fill="#FFC3BD"/>
<path d="M81.4162 166.369C81.085 165.94 80.6064 165.649 80.073 165.553L75.768 164.712C75.6675 164.683 75.5596 164.695 75.4676 164.744C75.3755 164.794 75.3067 164.878 75.276 164.978L73.9427 168.91C73.9045 169.017 73.8879 169.13 73.8937 169.243C73.8995 169.356 73.9277 169.467 73.9767 169.57C74.0256 169.672 74.0943 169.764 74.1788 169.839C74.2633 169.915 74.362 169.973 74.4691 170.011H74.4986C76.0927 170.64 77.1702 170.424 79.6597 170.905C81.1997 171.2 84.4223 172.222 86.5772 172.134C88.7322 172.046 88.7273 169.917 87.822 169.76C84.624 169.269 82.164 167.342 81.4162 166.369Z" fill="#263238"/>
<g opacity="0.2">
<path d="M83.3054 157.826L81.362 162.909L77.1653 161.739L79.1038 156.662L83.3054 157.826Z" fill="black"/>
</g>
<path d="M69.2983 120.418C69.2983 120.418 94.5674 120.281 93.7802 128.734C93.2489 134.446 90.5035 140.447 88.3682 146.242C85.2637 154.642 82.5725 161.97 82.5725 161.97L76.8161 159.979C76.8161 159.979 81.987 135.689 85.4704 133.202H64.1028C57.0328 133.202 53.9774 125.446 60.8605 116.403C65.0671 116.417 69.2983 120.418 69.2983 120.418Z" fill="#FF6200"/>
<path opacity="0.6" d="M69.2983 120.418C69.2983 120.418 94.5674 120.28 93.7802 128.734C94.1689 133.988 82.5676 161.96 82.5676 161.96L76.8112 159.969C76.8112 159.969 81.9821 135.679 85.4654 133.192H64.1028C57.0328 133.192 53.9774 125.436 60.8605 116.393C65.0671 116.417 69.2983 120.418 69.2983 120.418Z" fill="black"/>
<path d="M87.1184 105.068C84.009 107.904 77.9032 101.19 76.9192 100.394C74.8135 98.674 68.6241 92.9037 68.9488 90.8984C69.9328 85.0003 79.6154 93.3559 82.4149 99.1163L87.1184 105.068Z" fill="#263238"/>
<path d="M59.9059 87.3204C58.3463 87.6497 56.6587 87.0894 55.5616 88.2444C54.4644 89.3994 54.0069 91.0214 53.8494 92.604C53.7109 94.8152 53.8264 97.0348 54.1938 99.2197C54.5218 101.884 54.8646 104.546 55.2221 107.207C55.4439 109.398 55.3595 111.61 54.9712 113.778C54.9302 114.008 54.9669 114.246 55.0756 114.453C55.1842 114.66 55.3586 114.826 55.5714 114.923C55.5714 114.923 67.6697 115.336 71.1875 115.203C73.0571 115.135 71.773 110.22 72.3486 107.339C72.4765 106.7 73.7262 104.076 73.9132 103.407C74.7791 100.237 74.2035 98.0548 73.4212 94.8699C72.8357 92.5549 72.5946 89.2176 71.4138 88.9718C69.2884 88.5344 64.2454 86.3964 59.9059 87.3204Z" fill="#FF6200"/>
<path opacity="0.8" d="M59.9059 87.3204C58.3463 87.6497 56.6587 87.0894 55.5616 88.2444C54.4644 89.3994 54.0069 91.0214 53.8494 92.604C53.7109 94.8152 53.8264 97.0348 54.1938 99.2197C54.5218 101.884 54.8646 104.546 55.2221 107.207C55.4439 109.398 55.3595 111.61 54.9712 113.778C54.9302 114.008 54.9669 114.246 55.0756 114.453C55.1842 114.66 55.3586 114.826 55.5714 114.923C55.5714 114.923 67.6697 115.336 71.1875 115.203C73.0571 115.135 71.773 110.22 72.3486 107.339C72.4765 106.7 73.7262 104.076 73.9132 103.407C74.7791 100.237 74.2035 98.0548 73.4212 94.8699C72.8357 92.5549 72.5946 89.2176 71.4138 88.9718C69.2884 88.5344 64.2454 86.3964 59.9059 87.3204Z" fill="white"/>
<path d="M58.1789 89.591C58.0165 89.3453 53.7509 85.7671 52.9883 89.9007C51.9108 95.6562 54.1396 101.318 54.1396 101.318C54.1396 101.318 54.6316 107.546 56.4618 108.17C58.2921 108.794 59.9944 108.946 60.6045 107.88C60.999 107.048 61.2072 106.141 61.2145 105.221C61.2145 105.221 61.0079 93.8769 58.1789 89.591Z" fill="#263238"/>
<path d="M61.1261 79.4219C61.564 82.0711 61.933 86.9124 60.0388 88.6179C60.0388 88.6179 64.6685 91.041 67.7091 95.2679C68.3842 94.7646 68.8835 94.0616 69.1361 93.2587C69.3887 92.4559 69.3817 91.5939 69.1162 90.7953C68.9638 90.2913 68.7108 89.8233 68.3726 89.4196C68.0344 89.0158 67.6179 88.6846 67.1482 88.4459C65.3524 87.4629 65.5246 85.605 66.0166 83.8651L61.1261 79.4219Z" fill="#E8BFBF"/>
<path opacity="0.2" d="M61.7312 83.9192L63.4581 84.5827C64.1975 84.8682 64.9886 84.9955 65.7804 84.9563C65.6572 85.4966 65.6572 86.0576 65.7804 86.5979C65.1612 86.767 64.5063 86.753 63.8949 86.5576C63.2836 86.3622 62.7422 85.9937 62.3364 85.4969C62.0573 85.004 61.8533 84.4722 61.7312 83.9192Z" fill="black"/>
<path d="M104.599 158.043H109.303L104.378 146.261L101.19 151.668L104.599 158.043Z" fill="#FFC3BD"/>
<path d="M108.914 156.927L103.399 155.674C103.304 155.65 103.204 155.662 103.119 155.709C103.033 155.755 102.968 155.832 102.936 155.924L101.396 160.161C101.366 160.268 101.356 160.38 101.369 160.49C101.381 160.601 101.415 160.708 101.469 160.805C101.523 160.902 101.596 160.988 101.683 161.057C101.77 161.126 101.87 161.177 101.977 161.208C103.91 161.611 104.86 161.699 107.286 162.255C108.762 162.594 112.56 163.587 114.621 164.054C116.683 164.521 117.224 162.505 116.402 162.122C112.722 160.422 110.73 158.795 109.662 157.409C109.476 157.167 109.211 156.997 108.914 156.927Z" fill="#263238"/>
<g opacity="0.2">
<path d="M104.378 146.261L106.474 151.279L102.243 153.639L101.19 151.673L104.378 146.261Z" fill="black"/>
</g>
<path d="M54.8778 114.977L54.3858 116.58C54.3218 116.702 54.4645 116.83 54.6711 116.84L72.8751 117.391C73.0424 117.391 73.1753 117.322 73.19 117.218L73.4016 115.606C73.4016 115.498 73.2737 115.4 73.1015 115.39L55.1927 114.849C55.1335 114.84 55.0729 114.847 55.0175 114.87C54.962 114.892 54.9137 114.929 54.8778 114.977Z" fill="#263238"/>
<path d="M77.6474 128.125C71.6598 130.676 65.1653 133.222 61.6328 133.222C54.5578 133.222 48.275 128.12 54.9711 116.511C59.1826 116.511 66.4987 116.629 66.4987 116.629C66.4987 116.629 80.2747 112.697 90.3016 113.857C92.6777 114.134 94.9047 115.156 96.6629 116.776C98.4211 118.397 99.62 120.532 100.088 122.876C102.626 135.655 106.538 149.476 106.538 149.476L101.504 152.916C101.504 152.916 93.6571 136.436 89.1405 123.367C86.7494 124.119 82.3558 126.12 77.6474 128.125Z" fill="#FF6200"/>
<path opacity="0.5" d="M100.088 122.876C99.622 120.53 98.4239 118.393 96.6655 116.77C94.9072 115.148 92.6791 114.124 90.3018 113.847C80.2945 112.706 66.4988 116.619 66.4988 116.619C66.4988 116.619 59.1828 116.486 54.9712 116.501C48.1669 128.061 54.558 133.212 61.6329 133.212C65.1655 133.212 71.6599 130.666 77.6475 128.115C82.356 126.11 86.7495 124.109 89.1406 123.343C93.6572 136.426 101.505 152.911 101.505 152.911L106.538 149.471C106.538 149.471 102.626 135.655 100.088 122.876Z" fill="black"/>
<path d="M93.78 128.774C93.6201 130.416 93.3737 132.048 93.042 133.664C93.0174 133.61 92.9978 133.561 92.9781 133.507C92.9584 133.453 92.9781 133.482 92.9781 133.468C92.9619 133.413 92.9405 133.361 92.9141 133.31C91.5759 129.988 90.2672 126.582 89.1602 123.372H89.1946C92.058 124.586 94.0113 126.316 93.78 128.774Z" fill="#FF6200"/>
<path opacity="0.6" d="M93.78 128.774C93.6201 130.416 93.3737 132.048 93.042 133.664C93.0174 133.61 92.9978 133.561 92.9781 133.507C92.9584 133.453 92.9781 133.482 92.9781 133.468C92.9619 133.413 92.9405 133.361 92.9141 133.31C91.5759 129.988 90.2672 126.582 89.1602 123.372H89.1946C92.058 124.586 94.0113 126.316 93.78 128.774Z" fill="black"/>
<path d="M57.8985 76.8758C59.3745 81.029 59.9157 82.8181 62.6807 84.3761C66.8479 86.7255 71.6203 83.9927 71.4137 79.4611C71.2267 75.4062 68.8405 69.2919 64.2157 68.8004C63.1954 68.6857 62.1627 68.8338 61.2159 69.2305C60.269 69.6272 59.4395 70.2593 58.8063 71.0668C58.1731 71.8742 57.7573 72.8301 57.5984 73.8434C57.4395 74.8568 57.5428 75.8939 57.8985 76.8561V76.8758Z" fill="#E8BFBF"/>
<path d="M65.3721 76.3352C65.4754 76.694 65.7361 76.9053 65.9625 76.8267C66.1888 76.7481 66.2773 76.4335 66.1888 76.0845C66.1002 75.7356 65.8296 75.5144 65.5984 75.593C65.3671 75.6717 65.2737 75.9911 65.3721 76.3352Z" fill="#263238"/>
<path d="M69.2343 75.1162C69.3376 75.4799 69.5984 75.6913 69.8247 75.6077C70.051 75.5242 70.1396 75.2145 70.051 74.8655C69.9624 74.5166 69.6869 74.2954 69.4655 74.374C69.2441 74.4527 69.1359 74.7771 69.2343 75.1162Z" fill="#263238"/>
<path d="M69.3721 74.428L70.1297 73.9365C70.1297 73.9365 69.8887 74.7082 69.3721 74.428Z" fill="#263238"/>
<path d="M67.8518 75.9026C68.3842 76.6007 69.0099 77.2225 69.7116 77.7506C69.5707 77.9246 69.3932 78.0655 69.1916 78.1631C68.9901 78.2608 68.7695 78.313 68.5455 78.3159L67.8518 75.9026Z" fill="#ED847E"/>
<path d="M55.1827 79.6232C55.485 80.371 55.714 81.1463 55.8666 81.9382C55.9085 82.7346 55.652 83.5181 55.1472 84.136C54.6424 84.7539 53.9255 85.1618 53.136 85.2804C53.8235 85.4634 54.5532 85.4034 55.2015 85.1105C55.8497 84.8176 56.3767 84.3098 56.6931 83.6732C56.317 84.6738 55.5726 85.4931 54.612 85.9636C55.2986 85.9711 55.9776 85.8202 56.5963 85.5227C57.215 85.2252 57.7566 84.7891 58.179 84.2483C57.9477 84.8479 57.687 85.4426 57.4803 86.0423C58.6486 85.3355 59.6079 84.3313 60.2601 83.1326C60.5209 82.6411 60.7177 82.0021 60.3733 81.5696C60.0289 81.1371 59.4828 81.1665 58.9809 81.1567C58.4791 81.1469 57.8739 81.0289 57.6919 80.562C57.5099 80.0951 57.8444 79.6281 58.2085 79.3087C58.5726 78.9892 59.0105 78.6943 59.1433 78.2274C59.2063 77.8895 59.1826 77.5411 59.0744 77.2149C58.8481 76.3105 58.6251 75.4045 58.4053 74.4968C58.3456 74.1764 58.2307 73.8688 58.0658 73.5876C57.0818 72.1131 55.9847 74.2757 55.6058 75.008C54.8967 76.4407 54.7459 78.0856 55.1827 79.6232Z" fill="#263238"/>
<path d="M57.6082 80.9455C58.1654 81.669 58.9856 82.1441 59.8911 82.2676C61.0965 82.4151 61.5196 81.2846 61.0374 80.2574C60.5995 79.3137 59.4483 78.1095 58.3117 78.429C57.1752 78.7485 56.9292 80.0411 57.6082 80.9455Z" fill="#E8BFBF"/>
<path d="M65.4361 73.3666C65.4281 73.4124 65.4065 73.4547 65.374 73.4881C65.3415 73.5214 65.2997 73.5441 65.2541 73.5533C64.2701 73.7401 63.6994 74.9246 63.6994 74.9345C63.6747 74.9881 63.6299 75.0299 63.5748 75.051C63.5196 75.0721 63.4584 75.0709 63.4042 75.0475C63.3517 75.0229 63.311 74.9788 63.2908 74.9246C63.2706 74.8704 63.2724 74.8104 63.2959 74.7575C63.3402 74.7133 63.9503 73.3518 65.1704 73.1159C65.2276 73.1071 65.286 73.1206 65.3336 73.1535C65.3812 73.1864 65.4144 73.2363 65.4263 73.2928C65.4368 73.3159 65.4402 73.3416 65.4361 73.3666Z" fill="#263238"/>
<path d="M68.0634 72.3835C68.0305 72.3784 67.9969 72.3801 67.9648 72.3885C67.9326 72.397 67.9025 72.412 67.8764 72.4327C67.8223 72.4916 67.6403 72.5949 67.7436 72.6489C68.3438 72.9537 69.1753 73.455 69.8149 73.3518C69.9231 73.3518 70.179 73.2387 70.1249 73.1601C70.0879 73.1204 70.0413 73.091 69.9895 73.0746C69.9378 73.0583 69.8827 73.0555 69.8297 73.0667C69.3377 73.1355 68.6439 72.6588 68.1716 72.413C68.1369 72.3986 68.1006 72.3887 68.0634 72.3835Z" fill="#263238"/>
<path d="M65.5049 75.6421L66.2675 75.1506C66.2675 75.1506 66.0264 75.9321 65.5049 75.6421Z" fill="#263238"/>
<path d="M65.4359 66.9818C63.7582 66.6771 63.5417 66.564 61.8394 66.6722C60.12 66.7259 58.4574 67.3001 57.0719 68.3187C55.7775 69.3875 54.8644 70.8463 54.4692 72.4768C54.0825 74.1015 54.0389 75.7888 54.3413 77.4312C54.3956 78.2157 54.7351 78.9534 55.2958 79.5053C55.3529 78.6221 55.503 77.7473 55.7435 76.8954C55.9944 76.0355 56.511 75.2768 57.2195 74.7279C57.5322 74.559 57.8016 74.3201 58.0067 74.03C58.1132 73.7432 58.173 73.4412 58.1838 73.1354C58.3381 72.4473 58.75 71.8441 59.3351 71.4496C59.9162 71.0643 60.5383 70.7445 61.1899 70.4961C63.2613 69.6064 65.5195 69.0953 67.4285 67.896C66.8039 67.5116 66.1348 67.2046 65.4359 66.9818Z" fill="#263238"/>
<path d="M56.8507 73.5582C57.3012 74.1047 57.9178 74.4895 58.6071 74.6542C59.4238 74.841 61.4656 74.7919 61.5886 74.5805C61.7116 74.3692 60.9835 72.0787 60.1569 71.9411C60.7271 72.491 61.4081 72.9133 62.1544 73.1797C62.9989 73.3484 63.8684 73.3484 64.7128 73.1797C65.1458 73.0814 64.1765 71.2923 63.473 70.7812C65.5935 71.2235 67.837 71.7298 69.377 73.2387C70.9169 74.7476 71.5811 77.1363 71.5024 79.3628C71.8633 79.0725 72.1531 78.7038 72.3501 78.2848C72.547 77.8658 72.6458 77.4075 72.6389 76.9446C73.0104 78.0959 73.1465 79.31 73.0392 80.5149C72.9318 81.7197 72.5832 82.8907 72.0141 83.9584C74.2675 82.1103 75.1088 78.8812 74.5184 76.0304C73.928 73.1797 72.0584 70.6976 69.7903 68.8742C67.8223 67.3161 65.4803 66.1512 62.9859 66.0922C59.7141 65.9939 53.6527 69.7097 56.8507 73.5582Z" fill="#263238"/>
<path d="M59.5025 86.701C59.5025 86.5388 59.5418 86.3226 59.5615 86.0965C59.6045 85.5774 59.4532 85.0609 59.1369 84.6469C58.8206 84.2329 58.3618 83.9508 57.8493 83.8552C57.6972 83.8281 57.555 83.7609 57.4374 83.6607C57.3199 83.5605 57.2311 83.4309 57.1802 83.2851C56.8014 82.1841 56.6538 81.8499 56.2897 80.7686C55.3057 80.5278 54.12 80.8964 53.0917 81.0045C52.8066 82.238 52.7864 83.5178 53.0327 84.7596C53.0721 85.0374 53.1804 85.3009 53.3475 85.5263C54.2813 86.2906 55.3139 86.9254 56.4176 87.4137C57.3032 87.684 58.548 86.7846 59.5025 86.701Z" fill="#E8BFBF"/>
<path d="M56.521 87.4382C56.521 87.4382 53.8101 104.911 56.6047 107.59C58.243 109.153 59.66 108.288 60.5407 107.31C60.8635 106.945 61.1064 106.517 61.2538 106.053C61.4013 105.59 61.4499 105.1 61.3967 104.616L59.4927 86.7157C59.4927 86.7157 57.6231 85.6098 56.521 87.4382Z" fill="#E8BFBF"/>
<path d="M85.6474 103.215C86.7606 102.245 87.5588 100.965 87.9401 99.539C88.0271 99.036 88.0601 98.5252 88.0385 98.0153C88.0139 94.85 87.1185 89.0454 87.1185 89.0454L84.5453 88.1951C84.5453 88.1951 83.7434 92.6186 83.5613 95.0368C83.5269 95.5283 83.4728 96.0739 83.4137 96.6686C83.3006 97.7499 83.1628 98.9393 83.0398 99.9272L85.6474 103.215Z" fill="#E8BFBF"/>
<path d="M87.1184 105.068C87.9105 104.346 88.0434 103.471 88.4517 101.628C88.8404 99.8684 88.4025 97.6959 88.0385 98.0252C87.993 98.0666 87.9591 98.1191 87.9401 98.1776C87.3152 99.6521 84.8847 98.3595 84.1959 97.6222C83.8993 97.3405 83.6382 97.0236 83.4186 96.6785C83.3282 96.5468 83.2799 96.3909 83.2799 96.2313C83.2799 96.0716 83.3282 95.9157 83.4186 95.784C82.6707 95.4743 82.0705 98.4135 82.4346 99.136L82.6215 99.6816C82.9179 100.567 83.3749 101.39 83.9696 102.11L85.3226 103.737L87.1184 105.068Z" fill="#263238"/>
<path d="M84.4764 88.5639L84.1714 84.0715C84.9672 84.4499 85.7893 84.7702 86.6314 85.03C87.8811 85.4576 89.5834 84.7056 89.1898 85.5215C88.5622 86.7353 87.8623 87.9105 87.0939 89.0406L84.4764 88.5639Z" fill="#E8BFBF"/>
<path d="M84.1714 84.0715L86.1 79.5742L88.6191 81.1126C89.3128 82.6166 89.2291 85.5362 89.2291 85.5362C89.2291 85.5362 85.7261 85.6738 84.1714 84.0715Z" fill="#E8BFBF"/>
<path d="M67.5564 80.6063C67.6204 80.9258 67.8516 81.1519 68.0484 81.0978C68.2452 81.0437 68.3682 80.7587 68.2993 80.4392C68.2304 80.1197 68.0041 79.8936 67.8073 79.9477C67.6105 80.0018 67.4875 80.3065 67.5564 80.6063Z" fill="#263238"/>
<path d="M61.3181 141.676L59.7978 119.558C59.5764 116.432 58.0561 113.827 55.9405 112.593C54.6013 111.528 52.9693 110.896 51.2616 110.78C51.0796 110.78 50.9024 110.78 50.7204 110.78C49.3466 110.772 47.993 111.11 46.7844 111.763C46.7449 111.777 46.7069 111.795 46.6712 111.817C45.4265 112.513 44.3565 113.483 43.5421 114.653C42.3133 116.436 41.6609 118.553 41.6725 120.718C41.6725 125.633 44.9148 129.732 49.1706 130.548L50.8139 154.499C50.9566 156.539 52.2899 158.097 53.9036 158.097H62.1545L61.3181 141.676Z" fill="#FF6200"/>
<path opacity="0.1" d="M61.3181 141.676L59.7978 119.558C59.5764 116.432 58.0561 113.827 55.9405 112.593C54.6013 111.528 52.9693 110.896 51.2616 110.78C51.0796 110.78 50.9024 110.78 50.7204 110.78C49.3466 110.772 47.993 111.11 46.7844 111.763C46.7449 111.777 46.7069 111.795 46.6712 111.817C45.4265 112.513 44.3565 113.483 43.5421 114.653C42.3133 116.436 41.6609 118.553 41.6725 120.718C41.6725 125.633 44.9148 129.732 49.1706 130.548L50.8139 154.499C50.9566 156.539 52.2899 158.097 53.9036 158.097H62.1545L61.3181 141.676Z" fill="white"/>
<path d="M120.127 182.087C129.241 182.087 136.629 180.199 136.629 177.87C136.629 175.541 129.241 173.653 120.127 173.653C111.013 173.653 103.625 175.541 103.625 177.87C103.625 180.199 111.013 182.087 120.127 182.087Z" fill="#263238"/>
<path opacity="0.3" d="M120.127 180.682C129.241 180.682 136.629 179.108 136.629 177.167C136.629 175.226 129.241 173.653 120.127 173.653C111.013 173.653 103.625 175.226 103.625 177.167C103.625 179.108 111.013 180.682 120.127 180.682Z" fill="white"/>
<path d="M121.49 177.162H118.764L115.615 143.239H124.639L121.49 177.162Z" fill="#263238"/>
<path d="M124.639 143.239C124.639 144.222 122.621 145.028 120.127 145.028C117.632 145.028 115.615 144.227 115.615 143.239C115.615 142.251 117.637 141.45 120.127 141.45C122.616 141.45 124.639 142.251 124.639 143.239Z" fill="#263238"/>
<path opacity="0.7" d="M124.639 143.239C124.639 144.222 122.621 145.028 120.127 145.028C117.632 145.028 115.615 144.227 115.615 143.239C115.615 142.251 117.637 141.45 120.127 141.45C122.616 141.45 124.639 142.251 124.639 143.239Z" fill="white"/>
<path opacity="0.7" d="M64.9441 143.77C64.9564 143.567 65.0094 143.368 65.0998 143.186C65.1902 143.003 65.3163 142.841 65.4705 142.708C69.2835 146.542 93.4752 149.496 122.749 149.496C152.023 149.496 176.215 146.547 180.033 142.708C180.187 142.841 180.313 143.003 180.403 143.186C180.494 143.368 180.547 143.567 180.559 143.77C180.559 148.1 154.675 151.634 122.749 151.634C90.8233 151.634 64.9441 148.1 64.9441 143.77Z" fill="white"/>
<path opacity="0.7" d="M65.4902 144.748C69.3032 140.914 93.4949 137.965 122.769 137.965C152.043 137.965 176.234 140.914 180.052 144.748C176.234 148.582 152.043 151.535 122.769 151.535C93.4949 151.535 69.3032 148.582 65.4902 144.748Z" fill="white"/>
<path opacity="0.7" d="M64.9441 143.617C64.9441 139.282 90.8233 135.753 122.749 135.753C154.675 135.753 180.559 139.263 180.559 143.617C180.547 143.82 180.495 144.018 180.404 144.199C180.314 144.381 180.187 144.542 180.033 144.674C176.215 140.84 152.023 137.891 122.749 137.891C93.4752 137.891 69.2835 140.84 65.4705 144.674C65.316 144.542 65.1897 144.381 65.0992 144.199C65.0087 144.018 64.956 143.82 64.9441 143.617Z" fill="white"/>
<path d="M145.066 139.798L120.879 139.341C120.814 139.334 120.751 139.315 120.694 139.283C120.636 139.252 120.585 139.209 120.545 139.158C120.504 139.107 120.474 139.048 120.456 138.985C120.438 138.922 120.433 138.856 120.442 138.791C120.436 138.725 120.444 138.659 120.465 138.597C120.485 138.535 120.518 138.477 120.561 138.428C120.604 138.378 120.657 138.338 120.715 138.309C120.774 138.28 120.839 138.263 120.904 138.26L145.091 138.717C145.156 138.723 145.22 138.742 145.278 138.773C145.336 138.805 145.388 138.847 145.429 138.898C145.47 138.95 145.501 139.009 145.519 139.072C145.537 139.136 145.542 139.202 145.534 139.267C145.539 139.333 145.531 139.399 145.51 139.462C145.489 139.525 145.456 139.582 145.413 139.632C145.369 139.681 145.316 139.722 145.256 139.75C145.197 139.779 145.132 139.795 145.066 139.798Z" fill="#263238"/>
<path opacity="0.2" d="M145.066 139.798L120.879 139.341C120.814 139.334 120.751 139.315 120.694 139.283C120.636 139.252 120.585 139.209 120.545 139.158C120.504 139.107 120.474 139.048 120.456 138.985C120.438 138.922 120.433 138.856 120.442 138.791C120.436 138.725 120.444 138.659 120.465 138.597C120.485 138.535 120.518 138.477 120.561 138.428C120.604 138.378 120.657 138.338 120.715 138.309C120.774 138.28 120.839 138.263 120.904 138.26L145.091 138.717C145.156 138.723 145.22 138.742 145.278 138.773C145.336 138.805 145.388 138.847 145.429 138.898C145.47 138.95 145.501 139.009 145.519 139.072C145.537 139.136 145.542 139.202 145.534 139.267C145.539 139.333 145.531 139.399 145.51 139.462C145.489 139.525 145.456 139.582 145.413 139.632C145.369 139.681 145.316 139.722 145.256 139.75C145.197 139.779 145.132 139.795 145.066 139.798Z" fill="white"/>
<path d="M156.81 138.034L145.248 139.779C145.122 139.779 145.001 139.73 144.909 139.644C144.817 139.557 144.763 139.438 144.756 139.312C144.736 139.18 144.766 139.045 144.839 138.933C144.913 138.821 145.025 138.741 145.155 138.707L156.717 136.962C156.843 136.962 156.965 137.011 157.056 137.098C157.148 137.184 157.203 137.303 157.209 137.429C157.229 137.561 157.199 137.696 157.126 137.808C157.052 137.92 156.94 138 156.81 138.034Z" fill="#263238"/>
<path d="M156.707 136.962H132.265L120.904 138.26L144.432 138.702L156.707 136.962Z" fill="#263238"/>
<path opacity="0.6" d="M156.707 136.962H132.265L120.904 138.26L144.432 138.702L156.707 136.962Z" fill="white"/>
<path opacity="0.5" d="M156.81 138.034L145.248 139.779C145.122 139.779 145.001 139.73 144.909 139.644C144.817 139.557 144.763 139.438 144.756 139.312C144.736 139.18 144.766 139.045 144.839 138.933C144.913 138.821 145.025 138.741 145.155 138.707L156.717 136.962C156.843 136.962 156.965 137.011 157.056 137.098C157.148 137.184 157.203 137.303 157.209 137.429C157.229 137.561 157.199 137.696 157.126 137.808C157.052 137.92 156.94 138 156.81 138.034Z" fill="white"/>
<path d="M144.432 138.702L121.878 138.279C121.453 138.225 121.063 138.017 120.781 137.695C120.499 137.372 120.345 136.958 120.348 136.53L119.669 122.925C119.62 121.976 120.235 121.214 121.027 121.229L143.58 121.657C144.007 121.709 144.398 121.916 144.681 122.239C144.963 122.562 145.116 122.978 145.111 123.407L145.794 137.006C145.839 137.955 145.229 138.717 144.432 138.702Z" fill="#FF6200"/>
<path opacity="0.2" d="M144.432 138.702L121.878 138.279C121.453 138.225 121.063 138.017 120.781 137.695C120.499 137.372 120.345 136.958 120.348 136.53L119.669 122.925C119.62 121.976 120.235 121.214 121.027 121.229L143.58 121.657C144.007 121.709 144.398 121.916 144.681 122.239C144.963 122.562 145.116 122.978 145.111 123.407L145.794 137.006C145.839 137.955 145.229 138.717 144.432 138.702Z" fill="white"/>
<path d="M143.772 138.633L121.219 138.206C120.793 138.153 120.401 137.945 120.118 137.623C119.835 137.3 119.681 136.885 119.684 136.456L119.005 122.876C118.956 121.927 119.571 121.165 120.368 121.18L142.916 121.603C143.342 121.656 143.734 121.863 144.017 122.186C144.3 122.508 144.454 122.924 144.451 123.353L145.14 136.938C145.179 137.886 144.564 138.648 143.772 138.633Z" fill="#FF6200"/>
<path opacity="0.6" d="M143.772 138.633L121.219 138.206C120.793 138.153 120.401 137.945 120.118 137.623C119.835 137.3 119.681 136.885 119.684 136.456L119.005 122.876C118.956 121.927 119.571 121.165 120.368 121.18L142.916 121.603C143.342 121.656 143.734 121.863 144.017 122.186C144.3 122.508 144.454 122.924 144.451 123.353L145.14 136.938C145.179 137.886 144.564 138.648 143.772 138.633Z" fill="white"/>
<path d="M129.081 129.673C129.147 130.321 129.449 130.921 129.928 131.361C130.408 131.802 131.033 132.051 131.684 132.062C131.99 132.067 132.294 132.007 132.575 131.886C132.857 131.765 133.109 131.586 133.316 131.36C133.522 131.134 133.678 130.867 133.774 130.576C133.869 130.285 133.901 129.978 133.868 129.673C133.797 129.029 133.493 128.434 133.014 127.997C132.536 127.56 131.914 127.312 131.266 127.299C130.961 127.294 130.658 127.354 130.378 127.474C130.098 127.594 129.846 127.772 129.64 127.997C129.434 128.221 129.277 128.486 129.181 128.775C129.085 129.064 129.051 129.37 129.081 129.673Z" fill="white"/>
</svg>
