<svg width="56" height="40" viewBox="0 0 56 40" fill="none" xmlns="http://www.w3.org/2000/svg">
<path d="M22.7282 0H1.64062C0.734436 0 0 0.731062 0 1.63309V22.6238C0 23.5258 0.734436 24.2569 1.64062 24.2569H10.5436V38.3669C10.5436 39.2685 11.278 40 12.1842 40H17.4564C18.1622 40 18.7894 39.55 19.0125 38.8832L24.2842 23.1405C24.3402 22.9738 24.3688 22.7994 24.3688 22.6238V1.63309C24.3688 0.731062 23.6344 0 22.7282 0ZM21.0876 22.3588L16.2738 36.7334H13.8248V22.6238C13.8248 21.7218 13.0904 20.9907 12.1842 20.9907H3.28125V3.26617H21.0876V22.3588Z" fill="#FF6200"/>
<path d="M54.3594 0H33.2718C32.3656 0 31.6312 0.731062 31.6312 1.63309V22.6238C31.6312 23.5258 32.3656 24.2569 33.2718 24.2569H42.1752V38.3669C42.1752 39.2685 42.9096 40 43.8158 40H49.0876C49.7938 40 50.4206 39.55 50.644 38.8832L55.9158 23.1405C55.9714 22.9738 56 22.7994 56 22.6238V1.63309C56 0.731062 55.2656 0 54.3594 0ZM52.7188 22.3588L47.905 36.7334H45.4564V22.6238C45.4564 21.7218 44.7216 20.9907 43.8158 20.9907H34.9124V3.26617H52.7188V22.3588Z" fill="#FF6200"/>
</svg>
